<?xml version="1.0" encoding="UTF-8" standalone="no"?>
<!DOCTYPE svg PUBLIC "-//W3C//DTD SVG 1.1//EN"
 "http://www.w3.org/Graphics/SVG/1.1/DTD/svg11.dtd">
<!-- Generated by graphviz version 5.0.0 (20220707.1540)
 -->
<!-- Title: dependencies Pages: 1 -->
<svg width="728pt" height="174pt"
 viewBox="0.00 0.00 728.00 173.80" xmlns="http://www.w3.org/2000/svg" xmlns:xlink="http://www.w3.org/1999/xlink">
<g id="graph0" class="graph" transform="scale(1 1) rotate(0) translate(4 169.8)">
<title>dependencies</title>
<polygon fill="white" stroke="transparent" points="-4,4 -4,-169.8 724,-169.8 724,4 -4,4"/>
<text text-anchor="middle" x="360" y="-8.2" font-family="sans-serif" font-size="14.00">dependencies</text>
<g id="clust1" class="cluster">
<title>cluster_BookModule</title>
<polygon fill="none" stroke="black" stroke-dasharray="1,5" points="8,-32.8 8,-157.8 712,-157.8 712,-32.8 8,-32.8"/>
</g>
<g id="clust2" class="cluster">
<title>cluster_BookModule_declarations</title>
<polygon fill="none" stroke="black" points="438,-40.8 438,-92.8 704,-92.8 704,-40.8 438,-40.8"/>
</g>
<g id="clust5" class="cluster">
<title>cluster_BookModule_imports</title>
<polygon fill="none" stroke="black" points="162,-40.8 162,-92.8 430,-92.8 430,-40.8 162,-40.8"/>
</g>
<g id="clust8" class="cluster">
<title>cluster_BookModule_providers</title>
<polygon fill="none" stroke="black" points="16,-40.8 16,-92.8 154,-92.8 154,-40.8 16,-40.8"/>
</g>
<!-- BooksComponent -->
<g id="node1" class="node">
<title>BooksComponent</title>
<polygon fill="#ffffb3" stroke="black" points="695.62,-84.8 578.38,-84.8 578.38,-48.8 695.62,-48.8 695.62,-84.8"/>
<text text-anchor="middle" x="637" y="-62.6" font-family="Times,serif" font-size="14.00">BooksComponent</text>
</g>
<!-- BookModule -->
<g id="node3" class="node">
<title>BookModule</title>
<polygon fill="#8dd3c7" stroke="black" points="398.89,-149.8 395.89,-153.8 374.89,-153.8 371.89,-149.8 309.11,-149.8 309.11,-113.8 398.89,-113.8 398.89,-149.8"/>
<text text-anchor="middle" x="354" y="-127.6" font-family="Times,serif" font-size="14.00">BookModule</text>
</g>
<!-- BooksComponent&#45;&gt;BookModule -->
<g id="edge1" class="edge">
<title>BooksComponent&#45;&gt;BookModule</title>
<path fill="none" stroke="black" d="M637,-85.08C637,-106.12 637,-137.8 637,-137.8 637,-137.8 409.16,-137.8 409.16,-137.8"/>
<polygon fill="black" stroke="black" points="409.16,-134.3 399.16,-137.8 409.16,-141.3 409.16,-134.3"/>
</g>
<!-- CardsComponent -->
<g id="node2" class="node">
<title>CardsComponent</title>
<polygon fill="#ffffb3" stroke="black" points="559.99,-84.8 446.01,-84.8 446.01,-48.8 559.99,-48.8 559.99,-84.8"/>
<text text-anchor="middle" x="503" y="-62.6" font-family="Times,serif" font-size="14.00">CardsComponent</text>
</g>
<!-- CardsComponent&#45;&gt;BookModule -->
<g id="edge2" class="edge">
<title>CardsComponent&#45;&gt;BookModule</title>
<path fill="none" stroke="black" d="M503,-84.82C503,-102.17 503,-125.8 503,-125.8 503,-125.8 409.11,-125.8 409.11,-125.8"/>
<polygon fill="black" stroke="black" points="409.11,-122.3 399.11,-125.8 409.11,-129.3 409.11,-122.3"/>
</g>
<!-- BookRoutingModule -->
<g id="node4" class="node">
<title>BookRoutingModule</title>
<polygon fill="#8dd3c7" stroke="black" points="421.51,-84.8 418.51,-88.8 397.51,-88.8 394.51,-84.8 286.49,-84.8 286.49,-48.8 421.51,-48.8 421.51,-84.8"/>
<text text-anchor="middle" x="354" y="-62.6" font-family="Times,serif" font-size="14.00">BookRoutingModule</text>
</g>
<!-- BookRoutingModule&#45;&gt;BookModule -->
<g id="edge3" class="edge">
<title>BookRoutingModule&#45;&gt;BookModule</title>
<path fill="none" stroke="black" d="M354,-84.91C354,-84.91 354,-103.79 354,-103.79"/>
<polygon fill="black" stroke="black" points="350.5,-103.79 354,-113.79 357.5,-103.79 350.5,-103.79"/>
</g>
<!-- SharedModule -->
<g id="node5" class="node">
<title>SharedModule</title>
<polygon fill="#8dd3c7" stroke="black" points="268.43,-84.8 265.43,-88.8 244.43,-88.8 241.43,-84.8 169.57,-84.8 169.57,-48.8 268.43,-48.8 268.43,-84.8"/>
<text text-anchor="middle" x="219" y="-62.6" font-family="Times,serif" font-size="14.00">SharedModule</text>
</g>
<!-- SharedModule&#45;&gt;BookModule -->
<g id="edge4" class="edge">
<title>SharedModule&#45;&gt;BookModule</title>
<path fill="none" stroke="black" d="M219,-84.82C219,-102.17 219,-125.8 219,-125.8 219,-125.8 299.05,-125.8 299.05,-125.8"/>
<polygon fill="black" stroke="black" points="299.05,-129.3 309.05,-125.8 299.05,-122.3 299.05,-129.3"/>
</g>
<!-- BookService -->
<g id="node6" class="node">
<title>BookService</title>
<ellipse fill="#fdb462" stroke="black" cx="85" cy="-66.8" rx="60.84" ry="18"/>
<text text-anchor="middle" x="85" y="-62.6" font-family="Times,serif" font-size="14.00">BookService</text>
</g>
<!-- BookService&#45;&gt;BookModule -->
<g id="edge5" class="edge">
<title>BookService&#45;&gt;BookModule</title>
<path fill="none" stroke="black" d="M85,-85.08C85,-106.12 85,-137.8 85,-137.8 85,-137.8 298.98,-137.8 298.98,-137.8"/>
<polygon fill="black" stroke="black" points="298.98,-141.3 308.98,-137.8 298.98,-134.3 298.98,-141.3"/>
</g>
</g>
</svg>
