<?xml version="1.0" encoding="UTF-8" standalone="no"?>
<!DOCTYPE svg PUBLIC "-//W3C//DTD SVG 1.1//EN"
 "http://www.w3.org/Graphics/SVG/1.1/DTD/svg11.dtd">
<!-- Generated by graphviz version 5.0.0 (20220707.1540)
 -->
<!-- Title: dependencies Pages: 1 -->
<svg width="606pt" height="174pt"
 viewBox="0.00 0.00 606.00 173.80" xmlns="http://www.w3.org/2000/svg" xmlns:xlink="http://www.w3.org/1999/xlink">
<g id="graph0" class="graph" transform="scale(1 1) rotate(0) translate(4 169.8)">
<title>dependencies</title>
<polygon fill="white" stroke="transparent" points="-4,4 -4,-169.8 602,-169.8 602,4 -4,4"/>
<text text-anchor="middle" x="299" y="-8.2" font-family="sans-serif" font-size="14.00">dependencies</text>
<g id="clust1" class="cluster">
<title>cluster_BookModule</title>
<polygon fill="none" stroke="black" stroke-dasharray="1,5" points="8,-32.8 8,-157.8 590,-157.8 590,-32.8 8,-32.8"/>
</g>
<g id="clust2" class="cluster">
<title>cluster_BookModule_declarations</title>
<polygon fill="none" stroke="black" points="292,-40.8 292,-92.8 582,-92.8 582,-40.8 292,-40.8"/>
</g>
<g id="clust5" class="cluster">
<title>cluster_BookModule_imports</title>
<polygon fill="none" stroke="black" points="16,-40.8 16,-92.8 284,-92.8 284,-40.8 16,-40.8"/>
</g>
<!-- BookCardComponent -->
<g id="node1" class="node">
<title>BookCardComponent</title>
<polygon fill="#ffffb3" stroke="black" points="574.38,-84.8 435.62,-84.8 435.62,-48.8 574.38,-48.8 574.38,-84.8"/>
<text text-anchor="middle" x="505" y="-62.6" font-family="Times,serif" font-size="14.00">BookCardComponent</text>
</g>
<!-- BookModule -->
<g id="node3" class="node">
<title>BookModule</title>
<polygon fill="#8dd3c7" stroke="black" points="327.89,-149.8 324.89,-153.8 303.89,-153.8 300.89,-149.8 238.11,-149.8 238.11,-113.8 327.89,-113.8 327.89,-149.8"/>
<text text-anchor="middle" x="283" y="-127.6" font-family="Times,serif" font-size="14.00">BookModule</text>
</g>
<!-- BookCardComponent&#45;&gt;BookModule -->
<g id="edge1" class="edge">
<title>BookCardComponent&#45;&gt;BookModule</title>
<path fill="none" stroke="black" d="M505,-84.91C505,-104.14 505,-131.8 505,-131.8 505,-131.8 337.93,-131.8 337.93,-131.8"/>
<polygon fill="black" stroke="black" points="337.93,-128.3 327.93,-131.8 337.92,-135.3 337.93,-128.3"/>
</g>
<!-- BooksComponent -->
<g id="node2" class="node">
<title>BooksComponent</title>
<polygon fill="#ffffb3" stroke="black" points="417.62,-84.8 300.38,-84.8 300.38,-48.8 417.62,-48.8 417.62,-84.8"/>
<text text-anchor="middle" x="359" y="-62.6" font-family="Times,serif" font-size="14.00">BooksComponent</text>
</g>
<!-- BooksComponent&#45;&gt;BookModule -->
<g id="edge2" class="edge">
<title>BooksComponent&#45;&gt;BookModule</title>
<path fill="none" stroke="black" d="M314.19,-84.91C314.19,-84.91 314.19,-103.79 314.19,-103.79"/>
<polygon fill="black" stroke="black" points="310.69,-103.79 314.19,-113.79 317.69,-103.79 310.69,-103.79"/>
</g>
<!-- BookRoutingModule -->
<g id="node4" class="node">
<title>BookRoutingModule</title>
<polygon fill="#8dd3c7" stroke="black" points="275.51,-84.8 272.51,-88.8 251.51,-88.8 248.51,-84.8 140.49,-84.8 140.49,-48.8 275.51,-48.8 275.51,-84.8"/>
<text text-anchor="middle" x="208" y="-62.6" font-family="Times,serif" font-size="14.00">BookRoutingModule</text>
</g>
<!-- BookRoutingModule&#45;&gt;BookModule -->
<g id="edge3" class="edge">
<title>BookRoutingModule&#45;&gt;BookModule</title>
<path fill="none" stroke="black" d="M256.78,-84.91C256.78,-84.91 256.78,-103.79 256.78,-103.79"/>
<polygon fill="black" stroke="black" points="253.28,-103.79 256.78,-113.79 260.28,-103.79 253.28,-103.79"/>
</g>
<!-- SharedModule -->
<g id="node5" class="node">
<title>SharedModule</title>
<polygon fill="#8dd3c7" stroke="black" points="122.43,-84.8 119.43,-88.8 98.43,-88.8 95.43,-84.8 23.57,-84.8 23.57,-48.8 122.43,-48.8 122.43,-84.8"/>
<text text-anchor="middle" x="73" y="-62.6" font-family="Times,serif" font-size="14.00">SharedModule</text>
</g>
<!-- SharedModule&#45;&gt;BookModule -->
<g id="edge4" class="edge">
<title>SharedModule&#45;&gt;BookModule</title>
<path fill="none" stroke="black" d="M73,-84.91C73,-104.14 73,-131.8 73,-131.8 73,-131.8 227.95,-131.8 227.95,-131.8"/>
<polygon fill="black" stroke="black" points="227.95,-135.3 237.95,-131.8 227.95,-128.3 227.95,-135.3"/>
</g>
</g>
</svg>
