<?xml version="1.0" encoding="UTF-8" standalone="no"?>
<!DOCTYPE svg PUBLIC "-//W3C//DTD SVG 1.1//EN"
 "http://www.w3.org/Graphics/SVG/1.1/DTD/svg11.dtd">
<!-- Generated by graphviz version 5.0.0 (20220707.1540)
 -->
<!-- Title: dependencies Pages: 1 -->
<svg width="728pt" height="174pt"
 viewBox="0.00 0.00 728.00 173.80" xmlns="http://www.w3.org/2000/svg" xmlns:xlink="http://www.w3.org/1999/xlink">
<g id="graph0" class="graph" transform="scale(1 1) rotate(0) translate(4 169.8)">
<title>dependencies</title>
<polygon fill="white" stroke="transparent" points="-4,4 -4,-169.8 724,-169.8 724,4 -4,4"/>
<text text-anchor="middle" x="360" y="-8.2" font-family="sans-serif" font-size="14.00">dependencies</text>
<g id="clust1" class="cluster">
<title>cluster_BookModule</title>
<polygon fill="none" stroke="black" stroke-dasharray="1,5" points="8,-32.8 8,-157.8 712,-157.8 712,-32.8 8,-32.8"/>
</g>
<g id="clust5" class="cluster">
<title>cluster_BookModule_imports</title>
<polygon fill="none" stroke="black" points="436,-40.8 436,-92.8 704,-92.8 704,-40.8 436,-40.8"/>
</g>
<g id="clust2" class="cluster">
<title>cluster_BookModule_declarations</title>
<polygon fill="none" stroke="black" points="162,-40.8 162,-92.8 428,-92.8 428,-40.8 162,-40.8"/>
</g>
<g id="clust8" class="cluster">
<title>cluster_BookModule_providers</title>
<polygon fill="none" stroke="black" points="16,-40.8 16,-92.8 154,-92.8 154,-40.8 16,-40.8"/>
</g>
<!-- BooksComponent -->
<g id="node1" class="node">
<title>BooksComponent</title>
<polygon fill="#ffffb3" stroke="black" points="419.62,-84.8 302.38,-84.8 302.38,-48.8 419.62,-48.8 419.62,-84.8"/>
<text text-anchor="middle" x="361" y="-62.6" font-family="Times,serif" font-size="14.00">BooksComponent</text>
</g>
<!-- BookModule -->
<g id="node3" class="node">
<title>BookModule</title>
<polygon fill="#8dd3c7" stroke="black" points="405.89,-149.8 402.89,-153.8 381.89,-153.8 378.89,-149.8 316.11,-149.8 316.11,-113.8 405.89,-113.8 405.89,-149.8"/>
<text text-anchor="middle" x="361" y="-127.6" font-family="Times,serif" font-size="14.00">BookModule</text>
</g>
<!-- BooksComponent&#45;&gt;BookModule -->
<g id="edge1" class="edge">
<title>BooksComponent&#45;&gt;BookModule</title>
<path fill="none" stroke="black" d="M361,-84.91C361,-84.91 361,-103.79 361,-103.79"/>
<polygon fill="black" stroke="black" points="357.5,-103.79 361,-113.79 364.5,-103.79 357.5,-103.79"/>
</g>
<!-- CardsComponent -->
<g id="node2" class="node">
<title>CardsComponent</title>
<polygon fill="#ffffb3" stroke="black" points="283.99,-84.8 170.01,-84.8 170.01,-48.8 283.99,-48.8 283.99,-84.8"/>
<text text-anchor="middle" x="227" y="-62.6" font-family="Times,serif" font-size="14.00">CardsComponent</text>
</g>
<!-- CardsComponent&#45;&gt;BookModule -->
<g id="edge2" class="edge">
<title>CardsComponent&#45;&gt;BookModule</title>
<path fill="none" stroke="black" d="M227,-84.82C227,-102.17 227,-125.8 227,-125.8 227,-125.8 306.01,-125.8 306.01,-125.8"/>
<polygon fill="black" stroke="black" points="306.01,-129.3 316.01,-125.8 306.01,-122.3 306.01,-129.3"/>
</g>
<!-- BookRoutingModule -->
<g id="node4" class="node">
<title>BookRoutingModule</title>
<polygon fill="#8dd3c7" stroke="black" points="695.51,-84.8 692.51,-88.8 671.51,-88.8 668.51,-84.8 560.49,-84.8 560.49,-48.8 695.51,-48.8 695.51,-84.8"/>
<text text-anchor="middle" x="628" y="-62.6" font-family="Times,serif" font-size="14.00">BookRoutingModule</text>
</g>
<!-- BookRoutingModule&#45;&gt;BookModule -->
<g id="edge3" class="edge">
<title>BookRoutingModule&#45;&gt;BookModule</title>
<path fill="none" stroke="black" d="M628,-85.08C628,-106.12 628,-137.8 628,-137.8 628,-137.8 415.99,-137.8 415.99,-137.8"/>
<polygon fill="black" stroke="black" points="415.99,-134.3 405.99,-137.8 415.99,-141.3 415.99,-134.3"/>
</g>
<!-- SharedModule -->
<g id="node5" class="node">
<title>SharedModule</title>
<polygon fill="#8dd3c7" stroke="black" points="542.43,-84.8 539.43,-88.8 518.43,-88.8 515.43,-84.8 443.57,-84.8 443.57,-48.8 542.43,-48.8 542.43,-84.8"/>
<text text-anchor="middle" x="493" y="-62.6" font-family="Times,serif" font-size="14.00">SharedModule</text>
</g>
<!-- SharedModule&#45;&gt;BookModule -->
<g id="edge4" class="edge">
<title>SharedModule&#45;&gt;BookModule</title>
<path fill="none" stroke="black" d="M493,-84.82C493,-102.17 493,-125.8 493,-125.8 493,-125.8 416.06,-125.8 416.06,-125.8"/>
<polygon fill="black" stroke="black" points="416.06,-122.3 406.06,-125.8 416.06,-129.3 416.06,-122.3"/>
</g>
<!-- BookService -->
<g id="node6" class="node">
<title>BookService</title>
<ellipse fill="#fdb462" stroke="black" cx="85" cy="-66.8" rx="60.84" ry="18"/>
<text text-anchor="middle" x="85" y="-62.6" font-family="Times,serif" font-size="14.00">BookService</text>
</g>
<!-- BookService&#45;&gt;BookModule -->
<g id="edge5" class="edge">
<title>BookService&#45;&gt;BookModule</title>
<path fill="none" stroke="black" d="M85,-85.08C85,-106.12 85,-137.8 85,-137.8 85,-137.8 306.04,-137.8 306.04,-137.8"/>
<polygon fill="black" stroke="black" points="306.04,-141.3 316.04,-137.8 306.04,-134.3 306.04,-141.3"/>
</g>
</g>
</svg>
