<?xml version="1.0" encoding="UTF-8" standalone="no"?>
<!DOCTYPE svg PUBLIC "-//W3C//DTD SVG 1.1//EN"
 "http://www.w3.org/Graphics/SVG/1.1/DTD/svg11.dtd">
<!-- Generated by graphviz version 5.0.0 (20220707.1540)
 -->
<!-- Title: dependencies Pages: 1 -->
<svg width="752pt" height="174pt"
 viewBox="0.00 0.00 752.00 173.80" xmlns="http://www.w3.org/2000/svg" xmlns:xlink="http://www.w3.org/1999/xlink">
<g id="graph0" class="graph" transform="scale(1 1) rotate(0) translate(4 169.8)">
<title>dependencies</title>
<polygon fill="white" stroke="transparent" points="-4,4 -4,-169.8 748,-169.8 748,4 -4,4"/>
<text text-anchor="middle" x="372" y="-8.2" font-family="sans-serif" font-size="14.00">dependencies</text>
<g id="clust1" class="cluster">
<title>cluster_BookModule</title>
<polygon fill="none" stroke="black" stroke-dasharray="1,5" points="8,-32.8 8,-157.8 736,-157.8 736,-32.8 8,-32.8"/>
</g>
<g id="clust5" class="cluster">
<title>cluster_BookModule_imports</title>
<polygon fill="none" stroke="black" points="460,-40.8 460,-92.8 728,-92.8 728,-40.8 460,-40.8"/>
</g>
<g id="clust8" class="cluster">
<title>cluster_BookModule_providers</title>
<polygon fill="none" stroke="black" points="314,-40.8 314,-92.8 452,-92.8 452,-40.8 314,-40.8"/>
</g>
<g id="clust2" class="cluster">
<title>cluster_BookModule_declarations</title>
<polygon fill="none" stroke="black" points="16,-40.8 16,-92.8 306,-92.8 306,-40.8 16,-40.8"/>
</g>
<!-- BookCardComponent -->
<g id="node1" class="node">
<title>BookCardComponent</title>
<polygon fill="#ffffb3" stroke="black" points="298.38,-84.8 159.62,-84.8 159.62,-48.8 298.38,-48.8 298.38,-84.8"/>
<text text-anchor="middle" x="229" y="-62.6" font-family="Times,serif" font-size="14.00">BookCardComponent</text>
</g>
<!-- BookModule -->
<g id="node3" class="node">
<title>BookModule</title>
<polygon fill="#8dd3c7" stroke="black" points="427.89,-149.8 424.89,-153.8 403.89,-153.8 400.89,-149.8 338.11,-149.8 338.11,-113.8 427.89,-113.8 427.89,-149.8"/>
<text text-anchor="middle" x="383" y="-127.6" font-family="Times,serif" font-size="14.00">BookModule</text>
</g>
<!-- BookCardComponent&#45;&gt;BookModule -->
<g id="edge1" class="edge">
<title>BookCardComponent&#45;&gt;BookModule</title>
<path fill="none" stroke="black" d="M229,-84.82C229,-102.17 229,-125.8 229,-125.8 229,-125.8 328.04,-125.8 328.04,-125.8"/>
<polygon fill="black" stroke="black" points="328.04,-129.3 338.04,-125.8 328.04,-122.3 328.04,-129.3"/>
</g>
<!-- BooksComponent -->
<g id="node2" class="node">
<title>BooksComponent</title>
<polygon fill="#ffffb3" stroke="black" points="141.62,-84.8 24.38,-84.8 24.38,-48.8 141.62,-48.8 141.62,-84.8"/>
<text text-anchor="middle" x="83" y="-62.6" font-family="Times,serif" font-size="14.00">BooksComponent</text>
</g>
<!-- BooksComponent&#45;&gt;BookModule -->
<g id="edge2" class="edge">
<title>BooksComponent&#45;&gt;BookModule</title>
<path fill="none" stroke="black" d="M83,-85.08C83,-106.12 83,-137.8 83,-137.8 83,-137.8 328.09,-137.8 328.09,-137.8"/>
<polygon fill="black" stroke="black" points="328.09,-141.3 338.09,-137.8 328.09,-134.3 328.09,-141.3"/>
</g>
<!-- BookRoutingModule -->
<g id="node4" class="node">
<title>BookRoutingModule</title>
<polygon fill="#8dd3c7" stroke="black" points="719.51,-84.8 716.51,-88.8 695.51,-88.8 692.51,-84.8 584.49,-84.8 584.49,-48.8 719.51,-48.8 719.51,-84.8"/>
<text text-anchor="middle" x="652" y="-62.6" font-family="Times,serif" font-size="14.00">BookRoutingModule</text>
</g>
<!-- BookRoutingModule&#45;&gt;BookModule -->
<g id="edge3" class="edge">
<title>BookRoutingModule&#45;&gt;BookModule</title>
<path fill="none" stroke="black" d="M652,-85.08C652,-106.12 652,-137.8 652,-137.8 652,-137.8 438.02,-137.8 438.02,-137.8"/>
<polygon fill="black" stroke="black" points="438.02,-134.3 428.02,-137.8 438.02,-141.3 438.02,-134.3"/>
</g>
<!-- SharedModule -->
<g id="node5" class="node">
<title>SharedModule</title>
<polygon fill="#8dd3c7" stroke="black" points="566.43,-84.8 563.43,-88.8 542.43,-88.8 539.43,-84.8 467.57,-84.8 467.57,-48.8 566.43,-48.8 566.43,-84.8"/>
<text text-anchor="middle" x="517" y="-62.6" font-family="Times,serif" font-size="14.00">SharedModule</text>
</g>
<!-- SharedModule&#45;&gt;BookModule -->
<g id="edge4" class="edge">
<title>SharedModule&#45;&gt;BookModule</title>
<path fill="none" stroke="black" d="M517,-84.82C517,-102.17 517,-125.8 517,-125.8 517,-125.8 437.99,-125.8 437.99,-125.8"/>
<polygon fill="black" stroke="black" points="437.99,-122.3 427.99,-125.8 437.99,-129.3 437.99,-122.3"/>
</g>
<!-- BookService -->
<g id="node6" class="node">
<title>BookService</title>
<ellipse fill="#fdb462" stroke="black" cx="383" cy="-66.8" rx="60.84" ry="18"/>
<text text-anchor="middle" x="383" y="-62.6" font-family="Times,serif" font-size="14.00">BookService</text>
</g>
<!-- BookService&#45;&gt;BookModule -->
<g id="edge5" class="edge">
<title>BookService&#45;&gt;BookModule</title>
<path fill="none" stroke="black" d="M383,-84.91C383,-84.91 383,-103.79 383,-103.79"/>
<polygon fill="black" stroke="black" points="379.5,-103.79 383,-113.79 386.5,-103.79 379.5,-103.79"/>
</g>
</g>
</svg>
