<?xml version="1.0" encoding="UTF-8" standalone="no"?>
<!DOCTYPE svg PUBLIC "-//W3C//DTD SVG 1.1//EN"
 "http://www.w3.org/Graphics/SVG/1.1/DTD/svg11.dtd">
<!-- Generated by graphviz version 5.0.0 (20220707.1540)
 -->
<!-- Title: dependencies Pages: 1 -->
<svg width="1455pt" height="247pt"
 viewBox="0.00 0.00 1455.00 246.80" xmlns="http://www.w3.org/2000/svg" xmlns:xlink="http://www.w3.org/1999/xlink">
<g id="graph0" class="graph" transform="scale(1 1) rotate(0) translate(4 242.8)">
<title>dependencies</title>
<polygon fill="white" stroke="transparent" points="-4,4 -4,-242.8 1451,-242.8 1451,4 -4,4"/>
<text text-anchor="middle" x="723.5" y="-8.2" font-family="sans-serif" font-size="14.00">dependencies</text>
<g id="clust1" class="cluster">
<title>cluster_SharedModule</title>
<polygon fill="none" stroke="black" stroke-dasharray="1,5" points="8,-32.8 8,-230.8 1439,-230.8 1439,-32.8 8,-32.8"/>
</g>
<g id="clust9" class="cluster">
<title>cluster_SharedModule_exports</title>
<polygon fill="none" stroke="black" points="617,-170.8 617,-222.8 982,-222.8 982,-170.8 617,-170.8"/>
</g>
<g id="clust2" class="cluster">
<title>cluster_SharedModule_declarations</title>
<polygon fill="none" stroke="black" points="822,-40.8 822,-92.8 1431,-92.8 1431,-40.8 822,-40.8"/>
</g>
<g id="clust11" class="cluster">
<title>cluster_SharedModule_providers</title>
<polygon fill="none" stroke="black" points="16,-40.8 16,-92.8 814,-92.8 814,-40.8 16,-40.8"/>
</g>
<!-- CapsPipe -->
<g id="node1" class="node">
<title>CapsPipe</title>
<polygon fill="#ffffb3" stroke="black" points="1423.39,-84.8 1354.61,-84.8 1354.61,-48.8 1423.39,-48.8 1423.39,-84.8"/>
<text text-anchor="middle" x="1389" y="-62.6" font-family="Times,serif" font-size="14.00">CapsPipe</text>
</g>
<!-- SharedModule -->
<g id="node6" class="node">
<title>SharedModule</title>
<polygon fill="#8dd3c7" stroke="black" points="875.43,-149.8 872.43,-153.8 851.43,-153.8 848.43,-149.8 776.57,-149.8 776.57,-113.8 875.43,-113.8 875.43,-149.8"/>
<text text-anchor="middle" x="826" y="-127.6" font-family="Times,serif" font-size="14.00">SharedModule</text>
</g>
<!-- CapsPipe&#45;&gt;SharedModule -->
<g id="edge1" class="edge">
<title>CapsPipe&#45;&gt;SharedModule</title>
<path fill="none" stroke="black" d="M1389,-84.81C1389,-107.29 1389,-142.8 1389,-142.8 1389,-142.8 885.47,-142.8 885.47,-142.8"/>
<polygon fill="black" stroke="black" points="885.47,-139.3 875.47,-142.8 885.47,-146.3 885.47,-139.3"/>
</g>
<!-- FilterAllPipe -->
<g id="node2" class="node">
<title>FilterAllPipe</title>
<polygon fill="#ffffb3" stroke="black" points="1336.61,-84.8 1247.39,-84.8 1247.39,-48.8 1336.61,-48.8 1336.61,-84.8"/>
<text text-anchor="middle" x="1292" y="-62.6" font-family="Times,serif" font-size="14.00">FilterAllPipe</text>
</g>
<!-- FilterAllPipe&#45;&gt;SharedModule -->
<g id="edge2" class="edge">
<title>FilterAllPipe&#45;&gt;SharedModule</title>
<path fill="none" stroke="black" d="M1292,-84.93C1292,-105.37 1292,-135.8 1292,-135.8 1292,-135.8 885.43,-135.8 885.43,-135.8"/>
<polygon fill="black" stroke="black" points="885.43,-132.3 875.43,-135.8 885.43,-139.3 885.43,-132.3"/>
</g>
<!-- FilterPipe -->
<g id="node3" class="node">
<title>FilterPipe</title>
<polygon fill="#ffffb3" stroke="black" points="1229.72,-84.8 1158.28,-84.8 1158.28,-48.8 1229.72,-48.8 1229.72,-84.8"/>
<text text-anchor="middle" x="1194" y="-62.6" font-family="Times,serif" font-size="14.00">FilterPipe</text>
</g>
<!-- FilterPipe&#45;&gt;SharedModule -->
<g id="edge3" class="edge">
<title>FilterPipe&#45;&gt;SharedModule</title>
<path fill="none" stroke="black" d="M1194,-85.07C1194,-103.36 1194,-128.8 1194,-128.8 1194,-128.8 885.25,-128.8 885.25,-128.8"/>
<polygon fill="black" stroke="black" points="885.25,-125.3 875.25,-128.8 885.25,-132.3 885.25,-125.3"/>
</g>
<!-- OutsideClickDirective -->
<g id="node4" class="node">
<title>OutsideClickDirective</title>
<polygon fill="#ffffb3" stroke="black" points="1139.97,-84.8 998.03,-84.8 998.03,-48.8 1139.97,-48.8 1139.97,-84.8"/>
<text text-anchor="middle" x="1069" y="-62.6" font-family="Times,serif" font-size="14.00">OutsideClickDirective</text>
</g>
<!-- OutsideClickDirective&#45;&gt;SharedModule -->
<g id="edge4" class="edge">
<title>OutsideClickDirective&#45;&gt;SharedModule</title>
<path fill="none" stroke="black" d="M1069,-84.81C1069,-100.85 1069,-121.8 1069,-121.8 1069,-121.8 885.47,-121.8 885.47,-121.8"/>
<polygon fill="black" stroke="black" points="885.47,-118.3 875.47,-121.8 885.47,-125.3 885.47,-118.3"/>
</g>
<!-- VerticalResizeDirective -->
<g id="node5" class="node">
<title>VerticalResizeDirective</title>
<polygon fill="#ffffb3" stroke="black" points="980.48,-84.8 829.52,-84.8 829.52,-48.8 980.48,-48.8 980.48,-84.8"/>
<text text-anchor="middle" x="905" y="-62.6" font-family="Times,serif" font-size="14.00">VerticalResizeDirective</text>
</g>
<!-- VerticalResizeDirective&#45;&gt;SharedModule -->
<g id="edge5" class="edge">
<title>VerticalResizeDirective&#45;&gt;SharedModule</title>
<path fill="none" stroke="black" d="M852.49,-84.91C852.49,-84.91 852.49,-103.79 852.49,-103.79"/>
<polygon fill="black" stroke="black" points="848.99,-103.79 852.49,-113.79 855.99,-103.79 848.99,-103.79"/>
</g>
<!-- FilterAllPipe  -->
<g id="node7" class="node">
<title>FilterAllPipe </title>
<polygon fill="#fb8072" stroke="black" points="974.11,-214.8 881.89,-214.8 881.89,-178.8 974.11,-178.8 974.11,-214.8"/>
<text text-anchor="middle" x="928" y="-192.6" font-family="Times,serif" font-size="14.00">FilterAllPipe </text>
</g>
<!-- SharedModule&#45;&gt;FilterAllPipe  -->
<g id="edge6" class="edge">
<title>SharedModule&#45;&gt;FilterAllPipe </title>
<path fill="none" stroke="black" stroke-dasharray="5,2" d="M869.29,-149.91C869.29,-169.14 869.29,-196.8 869.29,-196.8 869.29,-196.8 871.74,-196.8 871.74,-196.8"/>
<polygon fill="black" stroke="black" points="871.74,-200.3 881.74,-196.8 871.74,-193.3 871.74,-200.3"/>
</g>
<!-- FilterPipe  -->
<g id="node8" class="node">
<title>FilterPipe </title>
<polygon fill="#fb8072" stroke="black" points="863.22,-214.8 788.78,-214.8 788.78,-178.8 863.22,-178.8 863.22,-214.8"/>
<text text-anchor="middle" x="826" y="-192.6" font-family="Times,serif" font-size="14.00">FilterPipe </text>
</g>
<!-- SharedModule&#45;&gt;FilterPipe  -->
<g id="edge7" class="edge">
<title>SharedModule&#45;&gt;FilterPipe </title>
<path fill="none" stroke="black" stroke-dasharray="5,2" d="M826,-149.91C826,-149.91 826,-168.79 826,-168.79"/>
<polygon fill="black" stroke="black" points="822.5,-168.79 826,-178.79 829.5,-168.79 822.5,-168.79"/>
</g>
<!-- OutsideClickDirective  -->
<g id="node9" class="node">
<title>OutsideClickDirective </title>
<polygon fill="#fb8072" stroke="black" points="770.97,-214.8 625.03,-214.8 625.03,-178.8 770.97,-178.8 770.97,-214.8"/>
<text text-anchor="middle" x="698" y="-192.6" font-family="Times,serif" font-size="14.00">OutsideClickDirective </text>
</g>
<!-- SharedModule&#45;&gt;OutsideClickDirective  -->
<g id="edge8" class="edge">
<title>SharedModule&#45;&gt;OutsideClickDirective </title>
<path fill="none" stroke="black" stroke-dasharray="5,2" d="M782.71,-149.91C782.71,-169.14 782.71,-196.8 782.71,-196.8 782.71,-196.8 780.93,-196.8 780.93,-196.8"/>
<polygon fill="black" stroke="black" points="780.93,-193.3 770.93,-196.8 780.93,-200.3 780.93,-193.3"/>
</g>
<!-- AuthService -->
<g id="node10" class="node">
<title>AuthService</title>
<ellipse fill="#fdb462" stroke="black" cx="747" cy="-66.8" rx="59.11" ry="18"/>
<text text-anchor="middle" x="747" y="-62.6" font-family="Times,serif" font-size="14.00">AuthService</text>
</g>
<!-- AuthService&#45;&gt;SharedModule -->
<g id="edge9" class="edge">
<title>AuthService&#45;&gt;SharedModule</title>
<path fill="none" stroke="black" d="M791.55,-78.72C791.55,-78.72 791.55,-103.57 791.55,-103.57"/>
<polygon fill="black" stroke="black" points="788.05,-103.57 791.55,-113.57 795.05,-103.57 788.05,-103.57"/>
</g>
<!-- DeviceOsService -->
<g id="node11" class="node">
<title>DeviceOsService</title>
<ellipse fill="#fdb462" stroke="black" cx="592" cy="-66.8" rx="78.14" ry="18"/>
<text text-anchor="middle" x="592" y="-62.6" font-family="Times,serif" font-size="14.00">DeviceOsService</text>
</g>
<!-- DeviceOsService&#45;&gt;SharedModule -->
<g id="edge10" class="edge">
<title>DeviceOsService&#45;&gt;SharedModule</title>
<path fill="none" stroke="black" d="M647.67,-79.56C647.67,-95.8 647.67,-121.8 647.67,-121.8 647.67,-121.8 766.32,-121.8 766.32,-121.8"/>
<polygon fill="black" stroke="black" points="766.32,-125.3 776.32,-121.8 766.32,-118.3 766.32,-125.3"/>
</g>
<!-- FireAuthService -->
<g id="node12" class="node">
<title>FireAuthService</title>
<ellipse fill="#fdb462" stroke="black" cx="421" cy="-66.8" rx="74.73" ry="18"/>
<text text-anchor="middle" x="421" y="-62.6" font-family="Times,serif" font-size="14.00">FireAuthService</text>
</g>
<!-- FireAuthService&#45;&gt;SharedModule -->
<g id="edge11" class="edge">
<title>FireAuthService&#45;&gt;SharedModule</title>
<path fill="none" stroke="black" d="M421,-85.07C421,-103.36 421,-128.8 421,-128.8 421,-128.8 766.74,-128.8 766.74,-128.8"/>
<polygon fill="black" stroke="black" points="766.74,-132.3 776.74,-128.8 766.74,-125.3 766.74,-132.3"/>
</g>
<!-- SupabaseService -->
<g id="node13" class="node">
<title>SupabaseService</title>
<ellipse fill="#fdb462" stroke="black" cx="252" cy="-66.8" rx="76.43" ry="18"/>
<text text-anchor="middle" x="252" y="-62.6" font-family="Times,serif" font-size="14.00">SupabaseService</text>
</g>
<!-- SupabaseService&#45;&gt;SharedModule -->
<g id="edge12" class="edge">
<title>SupabaseService&#45;&gt;SharedModule</title>
<path fill="none" stroke="black" d="M252,-84.93C252,-105.37 252,-135.8 252,-135.8 252,-135.8 766.56,-135.8 766.56,-135.8"/>
<polygon fill="black" stroke="black" points="766.56,-139.3 776.56,-135.8 766.56,-132.3 766.56,-139.3"/>
</g>
<!-- ThemeService -->
<g id="node14" class="node">
<title>ThemeService</title>
<ellipse fill="#fdb462" stroke="black" cx="91" cy="-66.8" rx="66.61" ry="18"/>
<text text-anchor="middle" x="91" y="-62.6" font-family="Times,serif" font-size="14.00">ThemeService</text>
</g>
<!-- ThemeService&#45;&gt;SharedModule -->
<g id="edge13" class="edge">
<title>ThemeService&#45;&gt;SharedModule</title>
<path fill="none" stroke="black" d="M91,-84.81C91,-107.29 91,-142.8 91,-142.8 91,-142.8 766.63,-142.8 766.63,-142.8"/>
<polygon fill="black" stroke="black" points="766.63,-146.3 776.63,-142.8 766.63,-139.3 766.63,-146.3"/>
</g>
</g>
</svg>
