<?xml version="1.0" encoding="UTF-8" standalone="no"?>
<!DOCTYPE svg PUBLIC "-//W3C//DTD SVG 1.1//EN"
 "http://www.w3.org/Graphics/SVG/1.1/DTD/svg11.dtd">
<!-- Generated by graphviz version 5.0.0 (20220707.1540)
 -->
<!-- Title: dependencies Pages: 1 -->
<svg width="1608pt" height="247pt"
 viewBox="0.00 0.00 1608.00 246.80" xmlns="http://www.w3.org/2000/svg" xmlns:xlink="http://www.w3.org/1999/xlink">
<g id="graph0" class="graph" transform="scale(1 1) rotate(0) translate(4 242.8)">
<title>dependencies</title>
<polygon fill="white" stroke="transparent" points="-4,4 -4,-242.8 1604,-242.8 1604,4 -4,4"/>
<text text-anchor="middle" x="800" y="-8.2" font-family="sans-serif" font-size="14.00">dependencies</text>
<g id="clust1" class="cluster">
<title>cluster_SharedModule</title>
<polygon fill="none" stroke="black" stroke-dasharray="1,5" points="8,-32.8 8,-230.8 1592,-230.8 1592,-32.8 8,-32.8"/>
</g>
<g id="clust13" class="cluster">
<title>cluster_SharedModule_providers</title>
<polygon fill="none" stroke="black" points="914,-40.8 914,-92.8 1584,-92.8 1584,-40.8 914,-40.8"/>
</g>
<g id="clust11" class="cluster">
<title>cluster_SharedModule_exports</title>
<polygon fill="none" stroke="black" points="396,-170.8 396,-222.8 1047,-222.8 1047,-170.8 396,-170.8"/>
</g>
<g id="clust2" class="cluster">
<title>cluster_SharedModule_declarations</title>
<polygon fill="none" stroke="black" points="16,-40.8 16,-92.8 906,-92.8 906,-40.8 16,-40.8"/>
</g>
<!-- CapsPipe -->
<g id="node1" class="node">
<title>CapsPipe</title>
<polygon fill="#ffffb3" stroke="black" points="898.39,-84.8 829.61,-84.8 829.61,-48.8 898.39,-48.8 898.39,-84.8"/>
<text text-anchor="middle" x="864" y="-62.6" font-family="Times,serif" font-size="14.00">CapsPipe</text>
</g>
<!-- SharedModule -->
<g id="node8" class="node">
<title>SharedModule</title>
<polygon fill="#8dd3c7" stroke="black" points="802.43,-149.8 799.43,-153.8 778.43,-153.8 775.43,-149.8 703.57,-149.8 703.57,-113.8 802.43,-113.8 802.43,-149.8"/>
<text text-anchor="middle" x="753" y="-127.6" font-family="Times,serif" font-size="14.00">SharedModule</text>
</g>
<!-- CapsPipe&#45;&gt;SharedModule -->
<g id="edge1" class="edge">
<title>CapsPipe&#45;&gt;SharedModule</title>
<path fill="none" stroke="black" d="M864,-85.04C864,-100.37 864,-119.8 864,-119.8 864,-119.8 812.33,-119.8 812.33,-119.8"/>
<polygon fill="black" stroke="black" points="812.33,-116.3 802.33,-119.8 812.33,-123.3 812.33,-116.3"/>
</g>
<!-- EditorComponent -->
<g id="node2" class="node">
<title>EditorComponent</title>
<polygon fill="#ffffb3" stroke="black" points="811.32,-84.8 694.68,-84.8 694.68,-48.8 811.32,-48.8 811.32,-84.8"/>
<text text-anchor="middle" x="753" y="-62.6" font-family="Times,serif" font-size="14.00">EditorComponent</text>
</g>
<!-- EditorComponent&#45;&gt;SharedModule -->
<g id="edge2" class="edge">
<title>EditorComponent&#45;&gt;SharedModule</title>
<path fill="none" stroke="black" d="M753,-84.91C753,-84.91 753,-103.79 753,-103.79"/>
<polygon fill="black" stroke="black" points="749.5,-103.79 753,-113.79 756.5,-103.79 749.5,-103.79"/>
</g>
<!-- FilterAllPipe -->
<g id="node3" class="node">
<title>FilterAllPipe</title>
<polygon fill="#ffffb3" stroke="black" points="676.61,-84.8 587.39,-84.8 587.39,-48.8 676.61,-48.8 676.61,-84.8"/>
<text text-anchor="middle" x="632" y="-62.6" font-family="Times,serif" font-size="14.00">FilterAllPipe</text>
</g>
<!-- FilterAllPipe&#45;&gt;SharedModule -->
<g id="edge3" class="edge">
<title>FilterAllPipe&#45;&gt;SharedModule</title>
<path fill="none" stroke="black" d="M632,-85.04C632,-100.37 632,-119.8 632,-119.8 632,-119.8 693.78,-119.8 693.78,-119.8"/>
<polygon fill="black" stroke="black" points="693.78,-123.3 703.78,-119.8 693.78,-116.3 693.78,-123.3"/>
</g>
<!-- FilterPipe -->
<g id="node4" class="node">
<title>FilterPipe</title>
<polygon fill="#ffffb3" stroke="black" points="569.72,-84.8 498.28,-84.8 498.28,-48.8 569.72,-48.8 569.72,-84.8"/>
<text text-anchor="middle" x="534" y="-62.6" font-family="Times,serif" font-size="14.00">FilterPipe</text>
</g>
<!-- FilterPipe&#45;&gt;SharedModule -->
<g id="edge4" class="edge">
<title>FilterPipe&#45;&gt;SharedModule</title>
<path fill="none" stroke="black" d="M560.94,-84.83C560.94,-101.86 560.94,-124.8 560.94,-124.8 560.94,-124.8 693.54,-124.8 693.54,-124.8"/>
<polygon fill="black" stroke="black" points="693.54,-128.3 703.54,-124.8 693.54,-121.3 693.54,-128.3"/>
</g>
<!-- OutsideClickDirective -->
<g id="node5" class="node">
<title>OutsideClickDirective</title>
<polygon fill="#ffffb3" stroke="black" points="479.97,-84.8 338.03,-84.8 338.03,-48.8 479.97,-48.8 479.97,-84.8"/>
<text text-anchor="middle" x="409" y="-62.6" font-family="Times,serif" font-size="14.00">OutsideClickDirective</text>
</g>
<!-- OutsideClickDirective&#45;&gt;SharedModule -->
<g id="edge5" class="edge">
<title>OutsideClickDirective&#45;&gt;SharedModule</title>
<path fill="none" stroke="black" d="M441.81,-85.02C441.81,-103.63 441.81,-129.8 441.81,-129.8 441.81,-129.8 693.69,-129.8 693.69,-129.8"/>
<polygon fill="black" stroke="black" points="693.69,-133.3 703.69,-129.8 693.69,-126.3 693.69,-133.3"/>
</g>
<!-- TopNavComponent -->
<g id="node6" class="node">
<title>TopNavComponent</title>
<polygon fill="#ffffb3" stroke="black" points="319.71,-84.8 192.29,-84.8 192.29,-48.8 319.71,-48.8 319.71,-84.8"/>
<text text-anchor="middle" x="256" y="-62.6" font-family="Times,serif" font-size="14.00">TopNavComponent</text>
</g>
<!-- TopNavComponent&#45;&gt;SharedModule -->
<g id="edge6" class="edge">
<title>TopNavComponent&#45;&gt;SharedModule</title>
<path fill="none" stroke="black" d="M256,-85.02C256,-105.17 256,-134.8 256,-134.8 256,-134.8 693.53,-134.8 693.53,-134.8"/>
<polygon fill="black" stroke="black" points="693.53,-138.3 703.53,-134.8 693.53,-131.3 693.53,-138.3"/>
</g>
<!-- VerticalResizeDirective -->
<g id="node7" class="node">
<title>VerticalResizeDirective</title>
<polygon fill="#ffffb3" stroke="black" points="174.48,-84.8 23.52,-84.8 23.52,-48.8 174.48,-48.8 174.48,-84.8"/>
<text text-anchor="middle" x="99" y="-62.6" font-family="Times,serif" font-size="14.00">VerticalResizeDirective</text>
</g>
<!-- VerticalResizeDirective&#45;&gt;SharedModule -->
<g id="edge7" class="edge">
<title>VerticalResizeDirective&#45;&gt;SharedModule</title>
<path fill="none" stroke="black" d="M99,-84.84C99,-106.46 99,-139.8 99,-139.8 99,-139.8 693.58,-139.8 693.58,-139.8"/>
<polygon fill="black" stroke="black" points="693.58,-143.3 703.58,-139.8 693.58,-136.3 693.58,-143.3"/>
</g>
<!-- EditorComponent  -->
<g id="node9" class="node">
<title>EditorComponent </title>
<polygon fill="#fb8072" stroke="black" points="1038.82,-214.8 919.18,-214.8 919.18,-178.8 1038.82,-178.8 1038.82,-214.8"/>
<text text-anchor="middle" x="979" y="-192.6" font-family="Times,serif" font-size="14.00">EditorComponent </text>
</g>
<!-- SharedModule&#45;&gt;EditorComponent  -->
<g id="edge8" class="edge">
<title>SharedModule&#45;&gt;EditorComponent </title>
<path fill="none" stroke="black" stroke-dasharray="5,2" d="M802.39,-144.8C874.47,-144.8 1000.01,-144.8 1000.01,-144.8 1000.01,-144.8 1000.01,-168.61 1000.01,-168.61"/>
<polygon fill="black" stroke="black" points="996.51,-168.61 1000.01,-178.61 1003.51,-168.61 996.51,-168.61"/>
</g>
<!-- FilterAllPipe  -->
<g id="node10" class="node">
<title>FilterAllPipe </title>
<polygon fill="#fb8072" stroke="black" points="901.11,-214.8 808.89,-214.8 808.89,-178.8 901.11,-178.8 901.11,-214.8"/>
<text text-anchor="middle" x="855" y="-192.6" font-family="Times,serif" font-size="14.00">FilterAllPipe </text>
</g>
<!-- SharedModule&#45;&gt;FilterAllPipe  -->
<g id="edge9" class="edge">
<title>SharedModule&#45;&gt;FilterAllPipe </title>
<path fill="none" stroke="black" stroke-dasharray="5,2" d="M796.29,-149.91C796.29,-169.14 796.29,-196.8 796.29,-196.8 796.29,-196.8 798.74,-196.8 798.74,-196.8"/>
<polygon fill="black" stroke="black" points="798.74,-200.3 808.74,-196.8 798.74,-193.3 798.74,-200.3"/>
</g>
<!-- FilterPipe  -->
<g id="node11" class="node">
<title>FilterPipe </title>
<polygon fill="#fb8072" stroke="black" points="790.22,-214.8 715.78,-214.8 715.78,-178.8 790.22,-178.8 790.22,-214.8"/>
<text text-anchor="middle" x="753" y="-192.6" font-family="Times,serif" font-size="14.00">FilterPipe </text>
</g>
<!-- SharedModule&#45;&gt;FilterPipe  -->
<g id="edge10" class="edge">
<title>SharedModule&#45;&gt;FilterPipe </title>
<path fill="none" stroke="black" stroke-dasharray="5,2" d="M753,-149.91C753,-149.91 753,-168.79 753,-168.79"/>
<polygon fill="black" stroke="black" points="749.5,-168.79 753,-178.79 756.5,-168.79 749.5,-168.79"/>
</g>
<!-- OutsideClickDirective  -->
<g id="node12" class="node">
<title>OutsideClickDirective </title>
<polygon fill="#fb8072" stroke="black" points="697.97,-214.8 552.03,-214.8 552.03,-178.8 697.97,-178.8 697.97,-214.8"/>
<text text-anchor="middle" x="625" y="-192.6" font-family="Times,serif" font-size="14.00">OutsideClickDirective </text>
</g>
<!-- SharedModule&#45;&gt;OutsideClickDirective  -->
<g id="edge11" class="edge">
<title>SharedModule&#45;&gt;OutsideClickDirective </title>
<path fill="none" stroke="black" stroke-dasharray="5,2" d="M709.71,-149.91C709.71,-169.14 709.71,-196.8 709.71,-196.8 709.71,-196.8 707.93,-196.8 707.93,-196.8"/>
<polygon fill="black" stroke="black" points="707.93,-193.3 697.93,-196.8 707.93,-200.3 707.93,-193.3"/>
</g>
<!-- TopNavComponent  -->
<g id="node13" class="node">
<title>TopNavComponent </title>
<polygon fill="#fb8072" stroke="black" points="534.21,-214.8 403.79,-214.8 403.79,-178.8 534.21,-178.8 534.21,-214.8"/>
<text text-anchor="middle" x="469" y="-192.6" font-family="Times,serif" font-size="14.00">TopNavComponent </text>
</g>
<!-- SharedModule&#45;&gt;TopNavComponent  -->
<g id="edge12" class="edge">
<title>SharedModule&#45;&gt;TopNavComponent </title>
<path fill="none" stroke="black" stroke-dasharray="5,2" d="M703.68,-144.8C634.33,-144.8 516.37,-144.8 516.37,-144.8 516.37,-144.8 516.37,-168.61 516.37,-168.61"/>
<polygon fill="black" stroke="black" points="512.87,-168.61 516.37,-178.61 519.87,-168.61 512.87,-168.61"/>
</g>
<!-- AuthService -->
<g id="node14" class="node">
<title>AuthService</title>
<ellipse fill="#fdb462" stroke="black" cx="1517" cy="-66.8" rx="59.11" ry="18"/>
<text text-anchor="middle" x="1517" y="-62.6" font-family="Times,serif" font-size="14.00">AuthService</text>
</g>
<!-- AuthService&#45;&gt;SharedModule -->
<g id="edge13" class="edge">
<title>AuthService&#45;&gt;SharedModule</title>
<path fill="none" stroke="black" d="M1517,-84.84C1517,-106.46 1517,-139.8 1517,-139.8 1517,-139.8 812.25,-139.8 812.25,-139.8"/>
<polygon fill="black" stroke="black" points="812.25,-136.3 802.25,-139.8 812.25,-143.3 812.25,-136.3"/>
</g>
<!-- LoadingOverlayService -->
<g id="node15" class="node">
<title>LoadingOverlayService</title>
<ellipse fill="#fdb462" stroke="black" cx="1336" cy="-66.8" rx="103.06" ry="18"/>
<text text-anchor="middle" x="1336" y="-62.6" font-family="Times,serif" font-size="14.00">LoadingOverlayService</text>
</g>
<!-- LoadingOverlayService&#45;&gt;SharedModule -->
<g id="edge14" class="edge">
<title>LoadingOverlayService&#45;&gt;SharedModule</title>
<path fill="none" stroke="black" d="M1336,-85.02C1336,-105.17 1336,-134.8 1336,-134.8 1336,-134.8 812.45,-134.8 812.45,-134.8"/>
<polygon fill="black" stroke="black" points="812.45,-131.3 802.45,-134.8 812.45,-138.3 812.45,-131.3"/>
</g>
<!-- PassageService -->
<g id="node16" class="node">
<title>PassageService</title>
<ellipse fill="#fdb462" stroke="black" cx="1144" cy="-66.8" rx="70.63" ry="18"/>
<text text-anchor="middle" x="1144" y="-62.6" font-family="Times,serif" font-size="14.00">PassageService</text>
</g>
<!-- PassageService&#45;&gt;SharedModule -->
<g id="edge15" class="edge">
<title>PassageService&#45;&gt;SharedModule</title>
<path fill="none" stroke="black" d="M1144,-85.02C1144,-103.63 1144,-129.8 1144,-129.8 1144,-129.8 812.52,-129.8 812.52,-129.8"/>
<polygon fill="black" stroke="black" points="812.52,-126.3 802.52,-129.8 812.52,-133.3 812.52,-126.3"/>
</g>
<!-- ThemeService -->
<g id="node17" class="node">
<title>ThemeService</title>
<ellipse fill="#fdb462" stroke="black" cx="989" cy="-66.8" rx="66.61" ry="18"/>
<text text-anchor="middle" x="989" y="-62.6" font-family="Times,serif" font-size="14.00">ThemeService</text>
</g>
<!-- ThemeService&#45;&gt;SharedModule -->
<g id="edge16" class="edge">
<title>ThemeService&#45;&gt;SharedModule</title>
<path fill="none" stroke="black" d="M961.1,-83.27C961.1,-100.41 961.1,-124.8 961.1,-124.8 961.1,-124.8 812.32,-124.8 812.32,-124.8"/>
<polygon fill="black" stroke="black" points="812.32,-121.3 802.32,-124.8 812.32,-128.3 812.32,-121.3"/>
</g>
</g>
</svg>
