<?xml version="1.0" encoding="UTF-8" standalone="no"?>
<!DOCTYPE svg PUBLIC "-//W3C//DTD SVG 1.1//EN"
 "http://www.w3.org/Graphics/SVG/1.1/DTD/svg11.dtd">
<!-- Generated by graphviz version 5.0.0 (20220707.1540)
 -->
<!-- Title: dependencies Pages: 1 -->
<svg width="1471pt" height="247pt"
 viewBox="0.00 0.00 1471.00 246.80" xmlns="http://www.w3.org/2000/svg" xmlns:xlink="http://www.w3.org/1999/xlink">
<g id="graph0" class="graph" transform="scale(1 1) rotate(0) translate(4 242.8)">
<title>dependencies</title>
<polygon fill="white" stroke="transparent" points="-4,4 -4,-242.8 1467,-242.8 1467,4 -4,4"/>
<text text-anchor="middle" x="731.5" y="-8.2" font-family="sans-serif" font-size="14.00">dependencies</text>
<g id="clust1" class="cluster">
<title>cluster_SharedModule</title>
<polygon fill="none" stroke="black" stroke-dasharray="1,5" points="8,-32.8 8,-230.8 1455,-230.8 1455,-32.8 8,-32.8"/>
</g>
<g id="clust2" class="cluster">
<title>cluster_SharedModule_declarations</title>
<polygon fill="none" stroke="black" points="557,-40.8 557,-92.8 1447,-92.8 1447,-40.8 557,-40.8"/>
</g>
<g id="clust11" class="cluster">
<title>cluster_SharedModule_exports</title>
<polygon fill="none" stroke="black" points="516,-170.8 516,-222.8 1167,-222.8 1167,-170.8 516,-170.8"/>
</g>
<g id="clust13" class="cluster">
<title>cluster_SharedModule_providers</title>
<polygon fill="none" stroke="black" points="16,-40.8 16,-92.8 549,-92.8 549,-40.8 16,-40.8"/>
</g>
<!-- CapsPipe -->
<g id="node1" class="node">
<title>CapsPipe</title>
<polygon fill="#ffffb3" stroke="black" points="1439.39,-84.8 1370.61,-84.8 1370.61,-48.8 1439.39,-48.8 1439.39,-84.8"/>
<text text-anchor="middle" x="1405" y="-62.6" font-family="Times,serif" font-size="14.00">CapsPipe</text>
</g>
<!-- SharedModule -->
<g id="node8" class="node">
<title>SharedModule</title>
<polygon fill="#8dd3c7" stroke="black" points="922.43,-149.8 919.43,-153.8 898.43,-153.8 895.43,-149.8 823.57,-149.8 823.57,-113.8 922.43,-113.8 922.43,-149.8"/>
<text text-anchor="middle" x="873" y="-127.6" font-family="Times,serif" font-size="14.00">SharedModule</text>
</g>
<!-- CapsPipe&#45;&gt;SharedModule -->
<g id="edge1" class="edge">
<title>CapsPipe&#45;&gt;SharedModule</title>
<path fill="none" stroke="black" d="M1405,-85.08C1405,-106.12 1405,-137.8 1405,-137.8 1405,-137.8 932.57,-137.8 932.57,-137.8"/>
<polygon fill="black" stroke="black" points="932.57,-134.3 922.57,-137.8 932.57,-141.3 932.57,-134.3"/>
</g>
<!-- EditorComponent -->
<g id="node2" class="node">
<title>EditorComponent</title>
<polygon fill="#ffffb3" stroke="black" points="1352.32,-84.8 1235.68,-84.8 1235.68,-48.8 1352.32,-48.8 1352.32,-84.8"/>
<text text-anchor="middle" x="1294" y="-62.6" font-family="Times,serif" font-size="14.00">EditorComponent</text>
</g>
<!-- EditorComponent&#45;&gt;SharedModule -->
<g id="edge2" class="edge">
<title>EditorComponent&#45;&gt;SharedModule</title>
<path fill="none" stroke="black" d="M1294,-84.91C1294,-104.14 1294,-131.8 1294,-131.8 1294,-131.8 932.53,-131.8 932.53,-131.8"/>
<polygon fill="black" stroke="black" points="932.53,-128.3 922.53,-131.8 932.53,-135.3 932.53,-128.3"/>
</g>
<!-- FilterAllPipe -->
<g id="node3" class="node">
<title>FilterAllPipe</title>
<polygon fill="#ffffb3" stroke="black" points="1217.61,-84.8 1128.39,-84.8 1128.39,-48.8 1217.61,-48.8 1217.61,-84.8"/>
<text text-anchor="middle" x="1173" y="-62.6" font-family="Times,serif" font-size="14.00">FilterAllPipe</text>
</g>
<!-- FilterAllPipe&#45;&gt;SharedModule -->
<g id="edge3" class="edge">
<title>FilterAllPipe&#45;&gt;SharedModule</title>
<path fill="none" stroke="black" d="M1143.68,-84.82C1143.68,-102.17 1143.68,-125.8 1143.68,-125.8 1143.68,-125.8 932.33,-125.8 932.33,-125.8"/>
<polygon fill="black" stroke="black" points="932.33,-122.3 922.33,-125.8 932.33,-129.3 932.33,-122.3"/>
</g>
<!-- FilterPipe -->
<g id="node4" class="node">
<title>FilterPipe</title>
<polygon fill="#ffffb3" stroke="black" points="1110.72,-84.8 1039.28,-84.8 1039.28,-48.8 1110.72,-48.8 1110.72,-84.8"/>
<text text-anchor="middle" x="1075" y="-62.6" font-family="Times,serif" font-size="14.00">FilterPipe</text>
</g>
<!-- FilterPipe&#45;&gt;SharedModule -->
<g id="edge4" class="edge">
<title>FilterPipe&#45;&gt;SharedModule</title>
<path fill="none" stroke="black" d="M1086.87,-85.04C1086.87,-100.37 1086.87,-119.8 1086.87,-119.8 1086.87,-119.8 932.33,-119.8 932.33,-119.8"/>
<polygon fill="black" stroke="black" points="932.33,-116.3 922.33,-119.8 932.33,-123.3 932.33,-116.3"/>
</g>
<!-- OutsideClickDirective -->
<g id="node5" class="node">
<title>OutsideClickDirective</title>
<polygon fill="#ffffb3" stroke="black" points="1020.97,-84.8 879.03,-84.8 879.03,-48.8 1020.97,-48.8 1020.97,-84.8"/>
<text text-anchor="middle" x="950" y="-62.6" font-family="Times,serif" font-size="14.00">OutsideClickDirective</text>
</g>
<!-- OutsideClickDirective&#45;&gt;SharedModule -->
<g id="edge5" class="edge">
<title>OutsideClickDirective&#45;&gt;SharedModule</title>
<path fill="none" stroke="black" d="M900.62,-84.91C900.62,-84.91 900.62,-103.79 900.62,-103.79"/>
<polygon fill="black" stroke="black" points="897.12,-103.79 900.62,-113.79 904.12,-103.79 897.12,-103.79"/>
</g>
<!-- TopNavComponent -->
<g id="node6" class="node">
<title>TopNavComponent</title>
<polygon fill="#ffffb3" stroke="black" points="860.71,-84.8 733.29,-84.8 733.29,-48.8 860.71,-48.8 860.71,-84.8"/>
<text text-anchor="middle" x="797" y="-62.6" font-family="Times,serif" font-size="14.00">TopNavComponent</text>
</g>
<!-- TopNavComponent&#45;&gt;SharedModule -->
<g id="edge6" class="edge">
<title>TopNavComponent&#45;&gt;SharedModule</title>
<path fill="none" stroke="black" d="M842.19,-84.91C842.19,-84.91 842.19,-103.79 842.19,-103.79"/>
<polygon fill="black" stroke="black" points="838.69,-103.79 842.19,-113.79 845.69,-103.79 838.69,-103.79"/>
</g>
<!-- VerticalResizeDirective -->
<g id="node7" class="node">
<title>VerticalResizeDirective</title>
<polygon fill="#ffffb3" stroke="black" points="715.48,-84.8 564.52,-84.8 564.52,-48.8 715.48,-48.8 715.48,-84.8"/>
<text text-anchor="middle" x="640" y="-62.6" font-family="Times,serif" font-size="14.00">VerticalResizeDirective</text>
</g>
<!-- VerticalResizeDirective&#45;&gt;SharedModule -->
<g id="edge7" class="edge">
<title>VerticalResizeDirective&#45;&gt;SharedModule</title>
<path fill="none" stroke="black" d="M693.75,-85.04C693.75,-100.37 693.75,-119.8 693.75,-119.8 693.75,-119.8 813.55,-119.8 813.55,-119.8"/>
<polygon fill="black" stroke="black" points="813.55,-123.3 823.55,-119.8 813.55,-116.3 813.55,-123.3"/>
</g>
<!-- EditorComponent  -->
<g id="node9" class="node">
<title>EditorComponent </title>
<polygon fill="#fb8072" stroke="black" points="1158.82,-214.8 1039.18,-214.8 1039.18,-178.8 1158.82,-178.8 1158.82,-214.8"/>
<text text-anchor="middle" x="1099" y="-192.6" font-family="Times,serif" font-size="14.00">EditorComponent </text>
</g>
<!-- SharedModule&#45;&gt;EditorComponent  -->
<g id="edge8" class="edge">
<title>SharedModule&#45;&gt;EditorComponent </title>
<path fill="none" stroke="black" stroke-dasharray="5,2" d="M922.46,-143.8C978.79,-143.8 1063.13,-143.8 1063.13,-143.8 1063.13,-143.8 1063.13,-168.56 1063.13,-168.56"/>
<polygon fill="black" stroke="black" points="1059.63,-168.56 1063.13,-178.56 1066.63,-168.56 1059.63,-168.56"/>
</g>
<!-- FilterAllPipe  -->
<g id="node10" class="node">
<title>FilterAllPipe </title>
<polygon fill="#fb8072" stroke="black" points="1021.11,-214.8 928.89,-214.8 928.89,-178.8 1021.11,-178.8 1021.11,-214.8"/>
<text text-anchor="middle" x="975" y="-192.6" font-family="Times,serif" font-size="14.00">FilterAllPipe </text>
</g>
<!-- SharedModule&#45;&gt;FilterAllPipe  -->
<g id="edge9" class="edge">
<title>SharedModule&#45;&gt;FilterAllPipe </title>
<path fill="none" stroke="black" stroke-dasharray="5,2" d="M916.29,-149.91C916.29,-169.14 916.29,-196.8 916.29,-196.8 916.29,-196.8 918.74,-196.8 918.74,-196.8"/>
<polygon fill="black" stroke="black" points="918.74,-200.3 928.74,-196.8 918.74,-193.3 918.74,-200.3"/>
</g>
<!-- FilterPipe  -->
<g id="node11" class="node">
<title>FilterPipe </title>
<polygon fill="#fb8072" stroke="black" points="910.22,-214.8 835.78,-214.8 835.78,-178.8 910.22,-178.8 910.22,-214.8"/>
<text text-anchor="middle" x="873" y="-192.6" font-family="Times,serif" font-size="14.00">FilterPipe </text>
</g>
<!-- SharedModule&#45;&gt;FilterPipe  -->
<g id="edge10" class="edge">
<title>SharedModule&#45;&gt;FilterPipe </title>
<path fill="none" stroke="black" stroke-dasharray="5,2" d="M873,-149.91C873,-149.91 873,-168.79 873,-168.79"/>
<polygon fill="black" stroke="black" points="869.5,-168.79 873,-178.79 876.5,-168.79 869.5,-168.79"/>
</g>
<!-- OutsideClickDirective  -->
<g id="node12" class="node">
<title>OutsideClickDirective </title>
<polygon fill="#fb8072" stroke="black" points="817.97,-214.8 672.03,-214.8 672.03,-178.8 817.97,-178.8 817.97,-214.8"/>
<text text-anchor="middle" x="745" y="-192.6" font-family="Times,serif" font-size="14.00">OutsideClickDirective </text>
</g>
<!-- SharedModule&#45;&gt;OutsideClickDirective  -->
<g id="edge11" class="edge">
<title>SharedModule&#45;&gt;OutsideClickDirective </title>
<path fill="none" stroke="black" stroke-dasharray="5,2" d="M829.71,-149.91C829.71,-169.14 829.71,-196.8 829.71,-196.8 829.71,-196.8 827.93,-196.8 827.93,-196.8"/>
<polygon fill="black" stroke="black" points="827.93,-193.3 817.93,-196.8 827.93,-200.3 827.93,-193.3"/>
</g>
<!-- TopNavComponent  -->
<g id="node13" class="node">
<title>TopNavComponent </title>
<polygon fill="#fb8072" stroke="black" points="654.21,-214.8 523.79,-214.8 523.79,-178.8 654.21,-178.8 654.21,-214.8"/>
<text text-anchor="middle" x="589" y="-192.6" font-family="Times,serif" font-size="14.00">TopNavComponent </text>
</g>
<!-- SharedModule&#45;&gt;TopNavComponent  -->
<g id="edge12" class="edge">
<title>SharedModule&#45;&gt;TopNavComponent </title>
<path fill="none" stroke="black" stroke-dasharray="5,2" d="M823.76,-143.8C747.51,-143.8 609.56,-143.8 609.56,-143.8 609.56,-143.8 609.56,-168.56 609.56,-168.56"/>
<polygon fill="black" stroke="black" points="606.06,-168.56 609.56,-178.56 613.06,-168.56 606.06,-168.56"/>
</g>
<!-- LoadingOverlayService -->
<g id="node14" class="node">
<title>LoadingOverlayService</title>
<ellipse fill="#fdb462" stroke="black" cx="438" cy="-66.8" rx="103.06" ry="18"/>
<text text-anchor="middle" x="438" y="-62.6" font-family="Times,serif" font-size="14.00">LoadingOverlayService</text>
</g>
<!-- LoadingOverlayService&#45;&gt;SharedModule -->
<g id="edge13" class="edge">
<title>LoadingOverlayService&#45;&gt;SharedModule</title>
<path fill="none" stroke="black" d="M532.46,-74.51C532.46,-90.51 532.46,-125.8 532.46,-125.8 532.46,-125.8 813.48,-125.8 813.48,-125.8"/>
<polygon fill="black" stroke="black" points="813.48,-129.3 823.48,-125.8 813.48,-122.3 813.48,-129.3"/>
</g>
<!-- PassageService -->
<g id="node15" class="node">
<title>PassageService</title>
<ellipse fill="#fdb462" stroke="black" cx="246" cy="-66.8" rx="70.63" ry="18"/>
<text text-anchor="middle" x="246" y="-62.6" font-family="Times,serif" font-size="14.00">PassageService</text>
</g>
<!-- PassageService&#45;&gt;SharedModule -->
<g id="edge14" class="edge">
<title>PassageService&#45;&gt;SharedModule</title>
<path fill="none" stroke="black" d="M246,-84.91C246,-104.14 246,-131.8 246,-131.8 246,-131.8 813.54,-131.8 813.54,-131.8"/>
<polygon fill="black" stroke="black" points="813.54,-135.3 823.54,-131.8 813.54,-128.3 813.54,-135.3"/>
</g>
<!-- ThemeService -->
<g id="node16" class="node">
<title>ThemeService</title>
<ellipse fill="#fdb462" stroke="black" cx="91" cy="-66.8" rx="66.61" ry="18"/>
<text text-anchor="middle" x="91" y="-62.6" font-family="Times,serif" font-size="14.00">ThemeService</text>
</g>
<!-- ThemeService&#45;&gt;SharedModule -->
<g id="edge15" class="edge">
<title>ThemeService&#45;&gt;SharedModule</title>
<path fill="none" stroke="black" d="M91,-85.08C91,-106.12 91,-137.8 91,-137.8 91,-137.8 813.49,-137.8 813.49,-137.8"/>
<polygon fill="black" stroke="black" points="813.49,-141.3 823.49,-137.8 813.49,-134.3 813.49,-141.3"/>
</g>
</g>
</svg>
