<?xml version="1.0" encoding="UTF-8" standalone="no"?>
<!DOCTYPE svg PUBLIC "-//W3C//DTD SVG 1.1//EN"
 "http://www.w3.org/Graphics/SVG/1.1/DTD/svg11.dtd">
<!-- Generated by graphviz version 5.0.0 (20220707.1540)
 -->
<!-- Title: dependencies Pages: 1 -->
<svg width="1314pt" height="247pt"
 viewBox="0.00 0.00 1314.00 246.80" xmlns="http://www.w3.org/2000/svg" xmlns:xlink="http://www.w3.org/1999/xlink">
<g id="graph0" class="graph" transform="scale(1 1) rotate(0) translate(4 242.8)">
<title>dependencies</title>
<polygon fill="white" stroke="transparent" points="-4,4 -4,-242.8 1310,-242.8 1310,4 -4,4"/>
<text text-anchor="middle" x="653" y="-8.2" font-family="sans-serif" font-size="14.00">dependencies</text>
<g id="clust1" class="cluster">
<title>cluster_SharedModule</title>
<polygon fill="none" stroke="black" stroke-dasharray="1,5" points="8,-32.8 8,-230.8 1298,-230.8 1298,-32.8 8,-32.8"/>
</g>
<g id="clust2" class="cluster">
<title>cluster_SharedModule_declarations</title>
<polygon fill="none" stroke="black" points="535,-40.8 535,-92.8 1290,-92.8 1290,-40.8 535,-40.8"/>
</g>
<g id="clust10" class="cluster">
<title>cluster_SharedModule_exports</title>
<polygon fill="none" stroke="black" points="482,-170.8 482,-222.8 995,-222.8 995,-170.8 482,-170.8"/>
</g>
<g id="clust12" class="cluster">
<title>cluster_SharedModule_providers</title>
<polygon fill="none" stroke="black" points="16,-40.8 16,-92.8 527,-92.8 527,-40.8 16,-40.8"/>
</g>
<!-- CapsPipe -->
<g id="node1" class="node">
<title>CapsPipe</title>
<polygon fill="#ffffb3" stroke="black" points="1282.39,-84.8 1213.61,-84.8 1213.61,-48.8 1282.39,-48.8 1282.39,-84.8"/>
<text text-anchor="middle" x="1248" y="-62.6" font-family="Times,serif" font-size="14.00">CapsPipe</text>
</g>
<!-- SharedModule -->
<g id="node7" class="node">
<title>SharedModule</title>
<polygon fill="#8dd3c7" stroke="black" points="824.43,-149.8 821.43,-153.8 800.43,-153.8 797.43,-149.8 725.57,-149.8 725.57,-113.8 824.43,-113.8 824.43,-149.8"/>
<text text-anchor="middle" x="775" y="-127.6" font-family="Times,serif" font-size="14.00">SharedModule</text>
</g>
<!-- CapsPipe&#45;&gt;SharedModule -->
<g id="edge1" class="edge">
<title>CapsPipe&#45;&gt;SharedModule</title>
<path fill="none" stroke="black" d="M1248,-85.08C1248,-106.12 1248,-137.8 1248,-137.8 1248,-137.8 834.28,-137.8 834.28,-137.8"/>
<polygon fill="black" stroke="black" points="834.28,-134.3 824.28,-137.8 834.28,-141.3 834.28,-134.3"/>
</g>
<!-- FilterAllPipe -->
<g id="node2" class="node">
<title>FilterAllPipe</title>
<polygon fill="#ffffb3" stroke="black" points="1195.61,-84.8 1106.39,-84.8 1106.39,-48.8 1195.61,-48.8 1195.61,-84.8"/>
<text text-anchor="middle" x="1151" y="-62.6" font-family="Times,serif" font-size="14.00">FilterAllPipe</text>
</g>
<!-- FilterAllPipe&#45;&gt;SharedModule -->
<g id="edge2" class="edge">
<title>FilterAllPipe&#45;&gt;SharedModule</title>
<path fill="none" stroke="black" d="M1151,-84.91C1151,-104.14 1151,-131.8 1151,-131.8 1151,-131.8 834.54,-131.8 834.54,-131.8"/>
<polygon fill="black" stroke="black" points="834.54,-128.3 824.54,-131.8 834.54,-135.3 834.54,-128.3"/>
</g>
<!-- FilterPipe -->
<g id="node3" class="node">
<title>FilterPipe</title>
<polygon fill="#ffffb3" stroke="black" points="1088.72,-84.8 1017.28,-84.8 1017.28,-48.8 1088.72,-48.8 1088.72,-84.8"/>
<text text-anchor="middle" x="1053" y="-62.6" font-family="Times,serif" font-size="14.00">FilterPipe</text>
</g>
<!-- FilterPipe&#45;&gt;SharedModule -->
<g id="edge3" class="edge">
<title>FilterPipe&#45;&gt;SharedModule</title>
<path fill="none" stroke="black" d="M1053,-84.82C1053,-102.17 1053,-125.8 1053,-125.8 1053,-125.8 834.38,-125.8 834.38,-125.8"/>
<polygon fill="black" stroke="black" points="834.38,-122.3 824.38,-125.8 834.38,-129.3 834.38,-122.3"/>
</g>
<!-- OutsideClickDirective -->
<g id="node4" class="node">
<title>OutsideClickDirective</title>
<polygon fill="#ffffb3" stroke="black" points="998.97,-84.8 857.03,-84.8 857.03,-48.8 998.97,-48.8 998.97,-84.8"/>
<text text-anchor="middle" x="928" y="-62.6" font-family="Times,serif" font-size="14.00">OutsideClickDirective</text>
</g>
<!-- OutsideClickDirective&#45;&gt;SharedModule -->
<g id="edge4" class="edge">
<title>OutsideClickDirective&#45;&gt;SharedModule</title>
<path fill="none" stroke="black" d="M866.69,-85.04C866.69,-100.37 866.69,-119.8 866.69,-119.8 866.69,-119.8 834.33,-119.8 834.33,-119.8"/>
<polygon fill="black" stroke="black" points="834.33,-116.3 824.33,-119.8 834.33,-123.3 834.33,-116.3"/>
</g>
<!-- TopNavComponent -->
<g id="node5" class="node">
<title>TopNavComponent</title>
<polygon fill="#ffffb3" stroke="black" points="838.71,-84.8 711.29,-84.8 711.29,-48.8 838.71,-48.8 838.71,-84.8"/>
<text text-anchor="middle" x="775" y="-62.6" font-family="Times,serif" font-size="14.00">TopNavComponent</text>
</g>
<!-- TopNavComponent&#45;&gt;SharedModule -->
<g id="edge5" class="edge">
<title>TopNavComponent&#45;&gt;SharedModule</title>
<path fill="none" stroke="black" d="M775,-84.91C775,-84.91 775,-103.79 775,-103.79"/>
<polygon fill="black" stroke="black" points="771.5,-103.79 775,-113.79 778.5,-103.79 771.5,-103.79"/>
</g>
<!-- VerticalResizeDirective -->
<g id="node6" class="node">
<title>VerticalResizeDirective</title>
<polygon fill="#ffffb3" stroke="black" points="693.48,-84.8 542.52,-84.8 542.52,-48.8 693.48,-48.8 693.48,-84.8"/>
<text text-anchor="middle" x="618" y="-62.6" font-family="Times,serif" font-size="14.00">VerticalResizeDirective</text>
</g>
<!-- VerticalResizeDirective&#45;&gt;SharedModule -->
<g id="edge6" class="edge">
<title>VerticalResizeDirective&#45;&gt;SharedModule</title>
<path fill="none" stroke="black" d="M665.75,-85.04C665.75,-100.37 665.75,-119.8 665.75,-119.8 665.75,-119.8 715.49,-119.8 715.49,-119.8"/>
<polygon fill="black" stroke="black" points="715.49,-123.3 725.49,-119.8 715.49,-116.3 715.49,-123.3"/>
</g>
<!-- FilterAllPipe  -->
<g id="node8" class="node">
<title>FilterAllPipe </title>
<polygon fill="#fb8072" stroke="black" points="987.11,-214.8 894.89,-214.8 894.89,-178.8 987.11,-178.8 987.11,-214.8"/>
<text text-anchor="middle" x="941" y="-192.6" font-family="Times,serif" font-size="14.00">FilterAllPipe </text>
</g>
<!-- SharedModule&#45;&gt;FilterAllPipe  -->
<g id="edge7" class="edge">
<title>SharedModule&#45;&gt;FilterAllPipe </title>
<path fill="none" stroke="black" stroke-dasharray="5,2" d="M824.36,-143.8C873.29,-143.8 941,-143.8 941,-143.8 941,-143.8 941,-168.56 941,-168.56"/>
<polygon fill="black" stroke="black" points="937.5,-168.56 941,-178.56 944.5,-168.56 937.5,-168.56"/>
</g>
<!-- FilterPipe  -->
<g id="node9" class="node">
<title>FilterPipe </title>
<polygon fill="#fb8072" stroke="black" points="876.22,-214.8 801.78,-214.8 801.78,-178.8 876.22,-178.8 876.22,-214.8"/>
<text text-anchor="middle" x="839" y="-192.6" font-family="Times,serif" font-size="14.00">FilterPipe </text>
</g>
<!-- SharedModule&#45;&gt;FilterPipe  -->
<g id="edge8" class="edge">
<title>SharedModule&#45;&gt;FilterPipe </title>
<path fill="none" stroke="black" stroke-dasharray="5,2" d="M812.93,-149.91C812.93,-149.91 812.93,-168.79 812.93,-168.79"/>
<polygon fill="black" stroke="black" points="809.43,-168.79 812.93,-178.79 816.43,-168.79 809.43,-168.79"/>
</g>
<!-- OutsideClickDirective  -->
<g id="node10" class="node">
<title>OutsideClickDirective </title>
<polygon fill="#fb8072" stroke="black" points="783.97,-214.8 638.03,-214.8 638.03,-178.8 783.97,-178.8 783.97,-214.8"/>
<text text-anchor="middle" x="711" y="-192.6" font-family="Times,serif" font-size="14.00">OutsideClickDirective </text>
</g>
<!-- SharedModule&#45;&gt;OutsideClickDirective  -->
<g id="edge9" class="edge">
<title>SharedModule&#45;&gt;OutsideClickDirective </title>
<path fill="none" stroke="black" stroke-dasharray="5,2" d="M754.76,-149.91C754.76,-149.91 754.76,-168.79 754.76,-168.79"/>
<polygon fill="black" stroke="black" points="751.26,-168.79 754.76,-178.79 758.26,-168.79 751.26,-168.79"/>
</g>
<!-- TopNavComponent  -->
<g id="node11" class="node">
<title>TopNavComponent </title>
<polygon fill="#fb8072" stroke="black" points="620.21,-214.8 489.79,-214.8 489.79,-178.8 620.21,-178.8 620.21,-214.8"/>
<text text-anchor="middle" x="555" y="-192.6" font-family="Times,serif" font-size="14.00">TopNavComponent </text>
</g>
<!-- SharedModule&#45;&gt;TopNavComponent  -->
<g id="edge10" class="edge">
<title>SharedModule&#45;&gt;TopNavComponent </title>
<path fill="none" stroke="black" stroke-dasharray="5,2" d="M725.69,-143.8C668.37,-143.8 581.56,-143.8 581.56,-143.8 581.56,-143.8 581.56,-168.56 581.56,-168.56"/>
<polygon fill="black" stroke="black" points="578.06,-168.56 581.56,-178.56 585.06,-168.56 578.06,-168.56"/>
</g>
<!-- AuthService -->
<g id="node12" class="node">
<title>AuthService</title>
<ellipse fill="#fdb462" stroke="black" cx="460" cy="-66.8" rx="59.11" ry="18"/>
<text text-anchor="middle" x="460" y="-62.6" font-family="Times,serif" font-size="14.00">AuthService</text>
</g>
<!-- AuthService&#45;&gt;SharedModule -->
<g id="edge11" class="edge">
<title>AuthService&#45;&gt;SharedModule</title>
<path fill="none" stroke="black" d="M504.48,-78.74C504.48,-95.98 504.48,-125.8 504.48,-125.8 504.48,-125.8 715.7,-125.8 715.7,-125.8"/>
<polygon fill="black" stroke="black" points="715.7,-129.3 725.7,-125.8 715.7,-122.3 715.7,-129.3"/>
</g>
<!-- LoadingOverlayService -->
<g id="node13" class="node">
<title>LoadingOverlayService</title>
<ellipse fill="#fdb462" stroke="black" cx="279" cy="-66.8" rx="103.06" ry="18"/>
<text text-anchor="middle" x="279" y="-62.6" font-family="Times,serif" font-size="14.00">LoadingOverlayService</text>
</g>
<!-- LoadingOverlayService&#45;&gt;SharedModule -->
<g id="edge12" class="edge">
<title>LoadingOverlayService&#45;&gt;SharedModule</title>
<path fill="none" stroke="black" d="M279,-84.91C279,-104.14 279,-131.8 279,-131.8 279,-131.8 715.63,-131.8 715.63,-131.8"/>
<polygon fill="black" stroke="black" points="715.63,-135.3 725.63,-131.8 715.63,-128.3 715.63,-135.3"/>
</g>
<!-- ThemeService -->
<g id="node14" class="node">
<title>ThemeService</title>
<ellipse fill="#fdb462" stroke="black" cx="91" cy="-66.8" rx="66.61" ry="18"/>
<text text-anchor="middle" x="91" y="-62.6" font-family="Times,serif" font-size="14.00">ThemeService</text>
</g>
<!-- ThemeService&#45;&gt;SharedModule -->
<g id="edge13" class="edge">
<title>ThemeService&#45;&gt;SharedModule</title>
<path fill="none" stroke="black" d="M91,-85.08C91,-106.12 91,-137.8 91,-137.8 91,-137.8 715.53,-137.8 715.53,-137.8"/>
<polygon fill="black" stroke="black" points="715.53,-141.3 725.53,-137.8 715.53,-134.3 715.53,-141.3"/>
</g>
</g>
</svg>
