<?xml version="1.0" encoding="UTF-8" standalone="no"?>
<!DOCTYPE svg PUBLIC "-//W3C//DTD SVG 1.1//EN"
 "http://www.w3.org/Graphics/SVG/1.1/DTD/svg11.dtd">
<!-- Generated by graphviz version 5.0.0 (20220707.1540)
 -->
<!-- Title: dependencies Pages: 1 -->
<svg width="1247pt" height="247pt"
 viewBox="0.00 0.00 1247.00 246.80" xmlns="http://www.w3.org/2000/svg" xmlns:xlink="http://www.w3.org/1999/xlink">
<g id="graph0" class="graph" transform="scale(1 1) rotate(0) translate(4 242.8)">
<title>dependencies</title>
<polygon fill="white" stroke="transparent" points="-4,4 -4,-242.8 1243,-242.8 1243,4 -4,4"/>
<text text-anchor="middle" x="619.5" y="-8.2" font-family="sans-serif" font-size="14.00">dependencies</text>
<g id="clust1" class="cluster">
<title>cluster_SharedModule</title>
<polygon fill="none" stroke="black" stroke-dasharray="1,5" points="8,-32.8 8,-230.8 1231,-230.8 1231,-32.8 8,-32.8"/>
</g>
<g id="clust2" class="cluster">
<title>cluster_SharedModule_declarations</title>
<polygon fill="none" stroke="black" points="333,-40.8 333,-92.8 1223,-92.8 1223,-40.8 333,-40.8"/>
</g>
<g id="clust11" class="cluster">
<title>cluster_SharedModule_exports</title>
<polygon fill="none" stroke="black" points="369,-170.8 369,-222.8 1020,-222.8 1020,-170.8 369,-170.8"/>
</g>
<g id="clust13" class="cluster">
<title>cluster_SharedModule_providers</title>
<polygon fill="none" stroke="black" points="16,-40.8 16,-92.8 325,-92.8 325,-40.8 16,-40.8"/>
</g>
<!-- CapsPipe -->
<g id="node1" class="node">
<title>CapsPipe</title>
<polygon fill="#ffffb3" stroke="black" points="1215.39,-84.8 1146.61,-84.8 1146.61,-48.8 1215.39,-48.8 1215.39,-84.8"/>
<text text-anchor="middle" x="1181" y="-62.6" font-family="Times,serif" font-size="14.00">CapsPipe</text>
</g>
<!-- SharedModule -->
<g id="node8" class="node">
<title>SharedModule</title>
<polygon fill="#8dd3c7" stroke="black" points="775.43,-149.8 772.43,-153.8 751.43,-153.8 748.43,-149.8 676.57,-149.8 676.57,-113.8 775.43,-113.8 775.43,-149.8"/>
<text text-anchor="middle" x="726" y="-127.6" font-family="Times,serif" font-size="14.00">SharedModule</text>
</g>
<!-- CapsPipe&#45;&gt;SharedModule -->
<g id="edge1" class="edge">
<title>CapsPipe&#45;&gt;SharedModule</title>
<path fill="none" stroke="black" d="M1181,-85.08C1181,-106.12 1181,-137.8 1181,-137.8 1181,-137.8 785.56,-137.8 785.56,-137.8"/>
<polygon fill="black" stroke="black" points="785.56,-134.3 775.56,-137.8 785.56,-141.3 785.56,-134.3"/>
</g>
<!-- EditorComponent -->
<g id="node2" class="node">
<title>EditorComponent</title>
<polygon fill="#ffffb3" stroke="black" points="1128.32,-84.8 1011.68,-84.8 1011.68,-48.8 1128.32,-48.8 1128.32,-84.8"/>
<text text-anchor="middle" x="1070" y="-62.6" font-family="Times,serif" font-size="14.00">EditorComponent</text>
</g>
<!-- EditorComponent&#45;&gt;SharedModule -->
<g id="edge2" class="edge">
<title>EditorComponent&#45;&gt;SharedModule</title>
<path fill="none" stroke="black" d="M1070.04,-84.91C1070.04,-104.14 1070.04,-131.8 1070.04,-131.8 1070.04,-131.8 785.29,-131.8 785.29,-131.8"/>
<polygon fill="black" stroke="black" points="785.29,-128.3 775.29,-131.8 785.29,-135.3 785.29,-128.3"/>
</g>
<!-- FilterAllPipe -->
<g id="node3" class="node">
<title>FilterAllPipe</title>
<polygon fill="#ffffb3" stroke="black" points="993.61,-84.8 904.39,-84.8 904.39,-48.8 993.61,-48.8 993.61,-84.8"/>
<text text-anchor="middle" x="949" y="-62.6" font-family="Times,serif" font-size="14.00">FilterAllPipe</text>
</g>
<!-- FilterAllPipe&#45;&gt;SharedModule -->
<g id="edge3" class="edge">
<title>FilterAllPipe&#45;&gt;SharedModule</title>
<path fill="none" stroke="black" d="M949,-84.82C949,-102.17 949,-125.8 949,-125.8 949,-125.8 785.21,-125.8 785.21,-125.8"/>
<polygon fill="black" stroke="black" points="785.21,-122.3 775.21,-125.8 785.21,-129.3 785.21,-122.3"/>
</g>
<!-- FilterPipe -->
<g id="node4" class="node">
<title>FilterPipe</title>
<polygon fill="#ffffb3" stroke="black" points="886.72,-84.8 815.28,-84.8 815.28,-48.8 886.72,-48.8 886.72,-84.8"/>
<text text-anchor="middle" x="851" y="-62.6" font-family="Times,serif" font-size="14.00">FilterPipe</text>
</g>
<!-- FilterPipe&#45;&gt;SharedModule -->
<g id="edge4" class="edge">
<title>FilterPipe&#45;&gt;SharedModule</title>
<path fill="none" stroke="black" d="M844.85,-85.04C844.85,-100.37 844.85,-119.8 844.85,-119.8 844.85,-119.8 785.37,-119.8 785.37,-119.8"/>
<polygon fill="black" stroke="black" points="785.37,-116.3 775.37,-119.8 785.37,-123.3 785.37,-116.3"/>
</g>
<!-- OutsideClickDirective -->
<g id="node5" class="node">
<title>OutsideClickDirective</title>
<polygon fill="#ffffb3" stroke="black" points="796.97,-84.8 655.03,-84.8 655.03,-48.8 796.97,-48.8 796.97,-84.8"/>
<text text-anchor="middle" x="726" y="-62.6" font-family="Times,serif" font-size="14.00">OutsideClickDirective</text>
</g>
<!-- OutsideClickDirective&#45;&gt;SharedModule -->
<g id="edge5" class="edge">
<title>OutsideClickDirective&#45;&gt;SharedModule</title>
<path fill="none" stroke="black" d="M726,-84.91C726,-84.91 726,-103.79 726,-103.79"/>
<polygon fill="black" stroke="black" points="722.5,-103.79 726,-113.79 729.5,-103.79 722.5,-103.79"/>
</g>
<!-- TopNavComponent -->
<g id="node6" class="node">
<title>TopNavComponent</title>
<polygon fill="#ffffb3" stroke="black" points="636.71,-84.8 509.29,-84.8 509.29,-48.8 636.71,-48.8 636.71,-84.8"/>
<text text-anchor="middle" x="573" y="-62.6" font-family="Times,serif" font-size="14.00">TopNavComponent</text>
</g>
<!-- TopNavComponent&#45;&gt;SharedModule -->
<g id="edge6" class="edge">
<title>TopNavComponent&#45;&gt;SharedModule</title>
<path fill="none" stroke="black" d="M580.94,-85.04C580.94,-100.37 580.94,-119.8 580.94,-119.8 580.94,-119.8 666.48,-119.8 666.48,-119.8"/>
<polygon fill="black" stroke="black" points="666.48,-123.3 676.48,-119.8 666.48,-116.3 666.48,-123.3"/>
</g>
<!-- VerticalResizeDirective -->
<g id="node7" class="node">
<title>VerticalResizeDirective</title>
<polygon fill="#ffffb3" stroke="black" points="491.48,-84.8 340.52,-84.8 340.52,-48.8 491.48,-48.8 491.48,-84.8"/>
<text text-anchor="middle" x="416" y="-62.6" font-family="Times,serif" font-size="14.00">VerticalResizeDirective</text>
</g>
<!-- VerticalResizeDirective&#45;&gt;SharedModule -->
<g id="edge7" class="edge">
<title>VerticalResizeDirective&#45;&gt;SharedModule</title>
<path fill="none" stroke="black" d="M433.94,-84.82C433.94,-102.17 433.94,-125.8 433.94,-125.8 433.94,-125.8 666.46,-125.8 666.46,-125.8"/>
<polygon fill="black" stroke="black" points="666.46,-129.3 676.46,-125.8 666.46,-122.3 666.46,-129.3"/>
</g>
<!-- EditorComponent  -->
<g id="node9" class="node">
<title>EditorComponent </title>
<polygon fill="#fb8072" stroke="black" points="1011.82,-214.8 892.18,-214.8 892.18,-178.8 1011.82,-178.8 1011.82,-214.8"/>
<text text-anchor="middle" x="952" y="-192.6" font-family="Times,serif" font-size="14.00">EditorComponent </text>
</g>
<!-- SharedModule&#45;&gt;EditorComponent  -->
<g id="edge8" class="edge">
<title>SharedModule&#45;&gt;EditorComponent </title>
<path fill="none" stroke="black" stroke-dasharray="5,2" d="M775.36,-143.8C826.27,-143.8 898.27,-143.8 898.27,-143.8 898.27,-143.8 898.27,-168.56 898.27,-168.56"/>
<polygon fill="black" stroke="black" points="894.77,-168.56 898.27,-178.56 901.77,-168.56 894.77,-168.56"/>
</g>
<!-- FilterAllPipe  -->
<g id="node10" class="node">
<title>FilterAllPipe </title>
<polygon fill="#fb8072" stroke="black" points="874.11,-214.8 781.89,-214.8 781.89,-178.8 874.11,-178.8 874.11,-214.8"/>
<text text-anchor="middle" x="828" y="-192.6" font-family="Times,serif" font-size="14.00">FilterAllPipe </text>
</g>
<!-- SharedModule&#45;&gt;FilterAllPipe  -->
<g id="edge9" class="edge">
<title>SharedModule&#45;&gt;FilterAllPipe </title>
<path fill="none" stroke="black" stroke-dasharray="5,2" d="M769.29,-149.91C769.29,-169.14 769.29,-196.8 769.29,-196.8 769.29,-196.8 771.74,-196.8 771.74,-196.8"/>
<polygon fill="black" stroke="black" points="771.74,-200.3 781.74,-196.8 771.74,-193.3 771.74,-200.3"/>
</g>
<!-- FilterPipe  -->
<g id="node11" class="node">
<title>FilterPipe </title>
<polygon fill="#fb8072" stroke="black" points="763.22,-214.8 688.78,-214.8 688.78,-178.8 763.22,-178.8 763.22,-214.8"/>
<text text-anchor="middle" x="726" y="-192.6" font-family="Times,serif" font-size="14.00">FilterPipe </text>
</g>
<!-- SharedModule&#45;&gt;FilterPipe  -->
<g id="edge10" class="edge">
<title>SharedModule&#45;&gt;FilterPipe </title>
<path fill="none" stroke="black" stroke-dasharray="5,2" d="M726,-149.91C726,-149.91 726,-168.79 726,-168.79"/>
<polygon fill="black" stroke="black" points="722.5,-168.79 726,-178.79 729.5,-168.79 722.5,-168.79"/>
</g>
<!-- OutsideClickDirective  -->
<g id="node12" class="node">
<title>OutsideClickDirective </title>
<polygon fill="#fb8072" stroke="black" points="670.97,-214.8 525.03,-214.8 525.03,-178.8 670.97,-178.8 670.97,-214.8"/>
<text text-anchor="middle" x="598" y="-192.6" font-family="Times,serif" font-size="14.00">OutsideClickDirective </text>
</g>
<!-- SharedModule&#45;&gt;OutsideClickDirective  -->
<g id="edge11" class="edge">
<title>SharedModule&#45;&gt;OutsideClickDirective </title>
<path fill="none" stroke="black" stroke-dasharray="5,2" d="M682.71,-149.91C682.71,-169.14 682.71,-196.8 682.71,-196.8 682.71,-196.8 680.93,-196.8 680.93,-196.8"/>
<polygon fill="black" stroke="black" points="680.93,-193.3 670.93,-196.8 680.93,-200.3 680.93,-193.3"/>
</g>
<!-- TopNavComponent  -->
<g id="node13" class="node">
<title>TopNavComponent </title>
<polygon fill="#fb8072" stroke="black" points="507.21,-214.8 376.79,-214.8 376.79,-178.8 507.21,-178.8 507.21,-214.8"/>
<text text-anchor="middle" x="442" y="-192.6" font-family="Times,serif" font-size="14.00">TopNavComponent </text>
</g>
<!-- SharedModule&#45;&gt;TopNavComponent  -->
<g id="edge12" class="edge">
<title>SharedModule&#45;&gt;TopNavComponent </title>
<path fill="none" stroke="black" stroke-dasharray="5,2" d="M676.53,-143.8C609.82,-143.8 499.3,-143.8 499.3,-143.8 499.3,-143.8 499.3,-168.56 499.3,-168.56"/>
<polygon fill="black" stroke="black" points="495.8,-168.56 499.3,-178.56 502.8,-168.56 495.8,-168.56"/>
</g>
<!-- PassageService -->
<g id="node14" class="node">
<title>PassageService</title>
<ellipse fill="#fdb462" stroke="black" cx="246" cy="-66.8" rx="70.63" ry="18"/>
<text text-anchor="middle" x="246" y="-62.6" font-family="Times,serif" font-size="14.00">PassageService</text>
</g>
<!-- PassageService&#45;&gt;SharedModule -->
<g id="edge13" class="edge">
<title>PassageService&#45;&gt;SharedModule</title>
<path fill="none" stroke="black" d="M246,-84.91C246,-104.14 246,-131.8 246,-131.8 246,-131.8 666.44,-131.8 666.44,-131.8"/>
<polygon fill="black" stroke="black" points="666.44,-135.3 676.44,-131.8 666.44,-128.3 666.44,-135.3"/>
</g>
<!-- ThemeService -->
<g id="node15" class="node">
<title>ThemeService</title>
<ellipse fill="#fdb462" stroke="black" cx="91" cy="-66.8" rx="66.61" ry="18"/>
<text text-anchor="middle" x="91" y="-62.6" font-family="Times,serif" font-size="14.00">ThemeService</text>
</g>
<!-- ThemeService&#45;&gt;SharedModule -->
<g id="edge14" class="edge">
<title>ThemeService&#45;&gt;SharedModule</title>
<path fill="none" stroke="black" d="M91,-85.08C91,-106.12 91,-137.8 91,-137.8 91,-137.8 666.7,-137.8 666.7,-137.8"/>
<polygon fill="black" stroke="black" points="666.7,-141.3 676.7,-137.8 666.7,-134.3 666.7,-141.3"/>
</g>
</g>
</svg>
