<?xml version="1.0" encoding="UTF-8" standalone="no"?>
<!DOCTYPE svg PUBLIC "-//W3C//DTD SVG 1.1//EN"
 "http://www.w3.org/Graphics/SVG/1.1/DTD/svg11.dtd">
<!-- Generated by graphviz version 5.0.0 (20220707.1540)
 -->
<!-- Title: dependencies Pages: 1 -->
<svg width="1449pt" height="247pt"
 viewBox="0.00 0.00 1449.00 246.80" xmlns="http://www.w3.org/2000/svg" xmlns:xlink="http://www.w3.org/1999/xlink">
<g id="graph0" class="graph" transform="scale(1 1) rotate(0) translate(4 242.8)">
<title>dependencies</title>
<polygon fill="white" stroke="transparent" points="-4,4 -4,-242.8 1445,-242.8 1445,4 -4,4"/>
<text text-anchor="middle" x="720.5" y="-8.2" font-family="sans-serif" font-size="14.00">dependencies</text>
<g id="clust1" class="cluster">
<title>cluster_SharedModule</title>
<polygon fill="none" stroke="black" stroke-dasharray="1,5" points="8,-32.8 8,-230.8 1433,-230.8 1433,-32.8 8,-32.8"/>
</g>
<g id="clust13" class="cluster">
<title>cluster_SharedModule_providers</title>
<polygon fill="none" stroke="black" points="914,-40.8 914,-92.8 1425,-92.8 1425,-40.8 914,-40.8"/>
</g>
<g id="clust2" class="cluster">
<title>cluster_SharedModule_declarations</title>
<polygon fill="none" stroke="black" points="16,-40.8 16,-92.8 906,-92.8 906,-40.8 16,-40.8"/>
</g>
<g id="clust11" class="cluster">
<title>cluster_SharedModule_exports</title>
<polygon fill="none" stroke="black" points="335,-170.8 335,-222.8 986,-222.8 986,-170.8 335,-170.8"/>
</g>
<!-- CapsPipe -->
<g id="node1" class="node">
<title>CapsPipe</title>
<polygon fill="#ffffb3" stroke="black" points="898.39,-84.8 829.61,-84.8 829.61,-48.8 898.39,-48.8 898.39,-84.8"/>
<text text-anchor="middle" x="864" y="-62.6" font-family="Times,serif" font-size="14.00">CapsPipe</text>
</g>
<!-- SharedModule -->
<g id="node8" class="node">
<title>SharedModule</title>
<polygon fill="#8dd3c7" stroke="black" points="741.43,-149.8 738.43,-153.8 717.43,-153.8 714.43,-149.8 642.57,-149.8 642.57,-113.8 741.43,-113.8 741.43,-149.8"/>
<text text-anchor="middle" x="692" y="-127.6" font-family="Times,serif" font-size="14.00">SharedModule</text>
</g>
<!-- CapsPipe&#45;&gt;SharedModule -->
<g id="edge1" class="edge">
<title>CapsPipe&#45;&gt;SharedModule</title>
<path fill="none" stroke="black" d="M834.93,-85.04C834.93,-100.37 834.93,-119.8 834.93,-119.8 834.93,-119.8 751.59,-119.8 751.59,-119.8"/>
<polygon fill="black" stroke="black" points="751.59,-116.3 741.59,-119.8 751.59,-123.3 751.59,-116.3"/>
</g>
<!-- EditorComponent -->
<g id="node2" class="node">
<title>EditorComponent</title>
<polygon fill="#ffffb3" stroke="black" points="811.32,-84.8 694.68,-84.8 694.68,-48.8 811.32,-48.8 811.32,-84.8"/>
<text text-anchor="middle" x="753" y="-62.6" font-family="Times,serif" font-size="14.00">EditorComponent</text>
</g>
<!-- EditorComponent&#45;&gt;SharedModule -->
<g id="edge2" class="edge">
<title>EditorComponent&#45;&gt;SharedModule</title>
<path fill="none" stroke="black" d="M718.03,-84.91C718.03,-84.91 718.03,-103.79 718.03,-103.79"/>
<polygon fill="black" stroke="black" points="714.53,-103.79 718.03,-113.79 721.53,-103.79 714.53,-103.79"/>
</g>
<!-- FilterAllPipe -->
<g id="node3" class="node">
<title>FilterAllPipe</title>
<polygon fill="#ffffb3" stroke="black" points="676.61,-84.8 587.39,-84.8 587.39,-48.8 676.61,-48.8 676.61,-84.8"/>
<text text-anchor="middle" x="632" y="-62.6" font-family="Times,serif" font-size="14.00">FilterAllPipe</text>
</g>
<!-- FilterAllPipe&#45;&gt;SharedModule -->
<g id="edge3" class="edge">
<title>FilterAllPipe&#45;&gt;SharedModule</title>
<path fill="none" stroke="black" d="M659.67,-84.91C659.67,-84.91 659.67,-103.79 659.67,-103.79"/>
<polygon fill="black" stroke="black" points="656.17,-103.79 659.67,-113.79 663.17,-103.79 656.17,-103.79"/>
</g>
<!-- FilterPipe -->
<g id="node4" class="node">
<title>FilterPipe</title>
<polygon fill="#ffffb3" stroke="black" points="569.72,-84.8 498.28,-84.8 498.28,-48.8 569.72,-48.8 569.72,-84.8"/>
<text text-anchor="middle" x="534" y="-62.6" font-family="Times,serif" font-size="14.00">FilterPipe</text>
</g>
<!-- FilterPipe&#45;&gt;SharedModule -->
<g id="edge4" class="edge">
<title>FilterPipe&#45;&gt;SharedModule</title>
<path fill="none" stroke="black" d="M534,-85.04C534,-100.37 534,-119.8 534,-119.8 534,-119.8 632.44,-119.8 632.44,-119.8"/>
<polygon fill="black" stroke="black" points="632.44,-123.3 642.44,-119.8 632.44,-116.3 632.44,-123.3"/>
</g>
<!-- OutsideClickDirective -->
<g id="node5" class="node">
<title>OutsideClickDirective</title>
<polygon fill="#ffffb3" stroke="black" points="479.97,-84.8 338.03,-84.8 338.03,-48.8 479.97,-48.8 479.97,-84.8"/>
<text text-anchor="middle" x="409" y="-62.6" font-family="Times,serif" font-size="14.00">OutsideClickDirective</text>
</g>
<!-- OutsideClickDirective&#45;&gt;SharedModule -->
<g id="edge5" class="edge">
<title>OutsideClickDirective&#45;&gt;SharedModule</title>
<path fill="none" stroke="black" d="M429.78,-84.82C429.78,-102.17 429.78,-125.8 429.78,-125.8 429.78,-125.8 632.68,-125.8 632.68,-125.8"/>
<polygon fill="black" stroke="black" points="632.68,-129.3 642.68,-125.8 632.68,-122.3 632.68,-129.3"/>
</g>
<!-- TopNavComponent -->
<g id="node6" class="node">
<title>TopNavComponent</title>
<polygon fill="#ffffb3" stroke="black" points="319.71,-84.8 192.29,-84.8 192.29,-48.8 319.71,-48.8 319.71,-84.8"/>
<text text-anchor="middle" x="256" y="-62.6" font-family="Times,serif" font-size="14.00">TopNavComponent</text>
</g>
<!-- TopNavComponent&#45;&gt;SharedModule -->
<g id="edge6" class="edge">
<title>TopNavComponent&#45;&gt;SharedModule</title>
<path fill="none" stroke="black" d="M256,-84.91C256,-104.14 256,-131.8 256,-131.8 256,-131.8 632.41,-131.8 632.41,-131.8"/>
<polygon fill="black" stroke="black" points="632.41,-135.3 642.41,-131.8 632.41,-128.3 632.41,-135.3"/>
</g>
<!-- VerticalResizeDirective -->
<g id="node7" class="node">
<title>VerticalResizeDirective</title>
<polygon fill="#ffffb3" stroke="black" points="174.48,-84.8 23.52,-84.8 23.52,-48.8 174.48,-48.8 174.48,-84.8"/>
<text text-anchor="middle" x="99" y="-62.6" font-family="Times,serif" font-size="14.00">VerticalResizeDirective</text>
</g>
<!-- VerticalResizeDirective&#45;&gt;SharedModule -->
<g id="edge7" class="edge">
<title>VerticalResizeDirective&#45;&gt;SharedModule</title>
<path fill="none" stroke="black" d="M99,-85.08C99,-106.12 99,-137.8 99,-137.8 99,-137.8 632.71,-137.8 632.71,-137.8"/>
<polygon fill="black" stroke="black" points="632.71,-141.3 642.71,-137.8 632.71,-134.3 632.71,-141.3"/>
</g>
<!-- EditorComponent  -->
<g id="node9" class="node">
<title>EditorComponent </title>
<polygon fill="#fb8072" stroke="black" points="977.82,-214.8 858.18,-214.8 858.18,-178.8 977.82,-178.8 977.82,-214.8"/>
<text text-anchor="middle" x="918" y="-192.6" font-family="Times,serif" font-size="14.00">EditorComponent </text>
</g>
<!-- SharedModule&#45;&gt;EditorComponent  -->
<g id="edge8" class="edge">
<title>SharedModule&#45;&gt;EditorComponent </title>
<path fill="none" stroke="black" stroke-dasharray="5,2" d="M741.43,-143.8C796.61,-143.8 878.27,-143.8 878.27,-143.8 878.27,-143.8 878.27,-168.56 878.27,-168.56"/>
<polygon fill="black" stroke="black" points="874.77,-168.56 878.27,-178.56 881.77,-168.56 874.77,-168.56"/>
</g>
<!-- FilterAllPipe  -->
<g id="node10" class="node">
<title>FilterAllPipe </title>
<polygon fill="#fb8072" stroke="black" points="840.11,-214.8 747.89,-214.8 747.89,-178.8 840.11,-178.8 840.11,-214.8"/>
<text text-anchor="middle" x="794" y="-192.6" font-family="Times,serif" font-size="14.00">FilterAllPipe </text>
</g>
<!-- SharedModule&#45;&gt;FilterAllPipe  -->
<g id="edge9" class="edge">
<title>SharedModule&#45;&gt;FilterAllPipe </title>
<path fill="none" stroke="black" stroke-dasharray="5,2" d="M735.29,-149.91C735.29,-169.14 735.29,-196.8 735.29,-196.8 735.29,-196.8 737.74,-196.8 737.74,-196.8"/>
<polygon fill="black" stroke="black" points="737.74,-200.3 747.74,-196.8 737.74,-193.3 737.74,-200.3"/>
</g>
<!-- FilterPipe  -->
<g id="node11" class="node">
<title>FilterPipe </title>
<polygon fill="#fb8072" stroke="black" points="729.22,-214.8 654.78,-214.8 654.78,-178.8 729.22,-178.8 729.22,-214.8"/>
<text text-anchor="middle" x="692" y="-192.6" font-family="Times,serif" font-size="14.00">FilterPipe </text>
</g>
<!-- SharedModule&#45;&gt;FilterPipe  -->
<g id="edge10" class="edge">
<title>SharedModule&#45;&gt;FilterPipe </title>
<path fill="none" stroke="black" stroke-dasharray="5,2" d="M692,-149.91C692,-149.91 692,-168.79 692,-168.79"/>
<polygon fill="black" stroke="black" points="688.5,-168.79 692,-178.79 695.5,-168.79 688.5,-168.79"/>
</g>
<!-- OutsideClickDirective  -->
<g id="node12" class="node">
<title>OutsideClickDirective </title>
<polygon fill="#fb8072" stroke="black" points="636.97,-214.8 491.03,-214.8 491.03,-178.8 636.97,-178.8 636.97,-214.8"/>
<text text-anchor="middle" x="564" y="-192.6" font-family="Times,serif" font-size="14.00">OutsideClickDirective </text>
</g>
<!-- SharedModule&#45;&gt;OutsideClickDirective  -->
<g id="edge11" class="edge">
<title>SharedModule&#45;&gt;OutsideClickDirective </title>
<path fill="none" stroke="black" stroke-dasharray="5,2" d="M648.71,-149.91C648.71,-169.14 648.71,-196.8 648.71,-196.8 648.71,-196.8 646.93,-196.8 646.93,-196.8"/>
<polygon fill="black" stroke="black" points="646.93,-193.3 636.93,-196.8 646.93,-200.3 646.93,-193.3"/>
</g>
<!-- TopNavComponent  -->
<g id="node13" class="node">
<title>TopNavComponent </title>
<polygon fill="#fb8072" stroke="black" points="473.21,-214.8 342.79,-214.8 342.79,-178.8 473.21,-178.8 473.21,-214.8"/>
<text text-anchor="middle" x="408" y="-192.6" font-family="Times,serif" font-size="14.00">TopNavComponent </text>
</g>
<!-- SharedModule&#45;&gt;TopNavComponent  -->
<g id="edge12" class="edge">
<title>SharedModule&#45;&gt;TopNavComponent </title>
<path fill="none" stroke="black" stroke-dasharray="5,2" d="M642.53,-143.8C555.99,-143.8 386.22,-143.8 386.22,-143.8 386.22,-143.8 386.22,-168.56 386.22,-168.56"/>
<polygon fill="black" stroke="black" points="382.72,-168.56 386.22,-178.56 389.72,-168.56 382.72,-168.56"/>
</g>
<!-- AuthService -->
<g id="node14" class="node">
<title>AuthService</title>
<ellipse fill="#fdb462" stroke="black" cx="1358" cy="-66.8" rx="59.11" ry="18"/>
<text text-anchor="middle" x="1358" y="-62.6" font-family="Times,serif" font-size="14.00">AuthService</text>
</g>
<!-- AuthService&#45;&gt;SharedModule -->
<g id="edge13" class="edge">
<title>AuthService&#45;&gt;SharedModule</title>
<path fill="none" stroke="black" d="M1358,-85.08C1358,-106.12 1358,-137.8 1358,-137.8 1358,-137.8 751.24,-137.8 751.24,-137.8"/>
<polygon fill="black" stroke="black" points="751.24,-134.3 741.24,-137.8 751.24,-141.3 751.24,-134.3"/>
</g>
<!-- LoadingOverlayService -->
<g id="node15" class="node">
<title>LoadingOverlayService</title>
<ellipse fill="#fdb462" stroke="black" cx="1177" cy="-66.8" rx="103.06" ry="18"/>
<text text-anchor="middle" x="1177" y="-62.6" font-family="Times,serif" font-size="14.00">LoadingOverlayService</text>
</g>
<!-- LoadingOverlayService&#45;&gt;SharedModule -->
<g id="edge14" class="edge">
<title>LoadingOverlayService&#45;&gt;SharedModule</title>
<path fill="none" stroke="black" d="M1177,-84.91C1177,-104.14 1177,-131.8 1177,-131.8 1177,-131.8 751.62,-131.8 751.62,-131.8"/>
<polygon fill="black" stroke="black" points="751.62,-128.3 741.62,-131.8 751.62,-135.3 751.62,-128.3"/>
</g>
<!-- ThemeService -->
<g id="node16" class="node">
<title>ThemeService</title>
<ellipse fill="#fdb462" stroke="black" cx="989" cy="-66.8" rx="66.61" ry="18"/>
<text text-anchor="middle" x="989" y="-62.6" font-family="Times,serif" font-size="14.00">ThemeService</text>
</g>
<!-- ThemeService&#45;&gt;SharedModule -->
<g id="edge15" class="edge">
<title>ThemeService&#45;&gt;SharedModule</title>
<path fill="none" stroke="black" d="M950.05,-81.69C950.05,-99.17 950.05,-125.8 950.05,-125.8 950.05,-125.8 751.45,-125.8 751.45,-125.8"/>
<polygon fill="black" stroke="black" points="751.45,-122.3 741.45,-125.8 751.45,-129.3 751.45,-122.3"/>
</g>
</g>
</svg>
