<?xml version="1.0" encoding="UTF-8" standalone="no"?>
<!DOCTYPE svg PUBLIC "-//W3C//DTD SVG 1.1//EN"
 "http://www.w3.org/Graphics/SVG/1.1/DTD/svg11.dtd">
<!-- Generated by graphviz version 5.0.0 (20220707.1540)
 -->
<!-- Title: dependencies Pages: 1 -->
<svg width="1341pt" height="247pt"
 viewBox="0.00 0.00 1341.00 246.80" xmlns="http://www.w3.org/2000/svg" xmlns:xlink="http://www.w3.org/1999/xlink">
<g id="graph0" class="graph" transform="scale(1 1) rotate(0) translate(4 242.8)">
<title>dependencies</title>
<polygon fill="white" stroke="transparent" points="-4,4 -4,-242.8 1337,-242.8 1337,4 -4,4"/>
<text text-anchor="middle" x="666.5" y="-8.2" font-family="sans-serif" font-size="14.00">dependencies</text>
<g id="clust1" class="cluster">
<title>cluster_SharedModule</title>
<polygon fill="none" stroke="black" stroke-dasharray="1,5" points="8,-32.8 8,-230.8 1325,-230.8 1325,-32.8 8,-32.8"/>
</g>
<g id="clust11" class="cluster">
<title>cluster_SharedModule_providers</title>
<polygon fill="none" stroke="black" points="633,-40.8 633,-92.8 1317,-92.8 1317,-40.8 633,-40.8"/>
</g>
<g id="clust2" class="cluster">
<title>cluster_SharedModule_declarations</title>
<polygon fill="none" stroke="black" points="16,-40.8 16,-92.8 625,-92.8 625,-40.8 16,-40.8"/>
</g>
<g id="clust9" class="cluster">
<title>cluster_SharedModule_exports</title>
<polygon fill="none" stroke="black" points="374,-170.8 374,-222.8 739,-222.8 739,-170.8 374,-170.8"/>
</g>
<!-- CapsPipe -->
<g id="node1" class="node">
<title>CapsPipe</title>
<polygon fill="#ffffb3" stroke="black" points="617.39,-84.8 548.61,-84.8 548.61,-48.8 617.39,-48.8 617.39,-84.8"/>
<text text-anchor="middle" x="583" y="-62.6" font-family="Times,serif" font-size="14.00">CapsPipe</text>
</g>
<!-- SharedModule -->
<g id="node6" class="node">
<title>SharedModule</title>
<polygon fill="#8dd3c7" stroke="black" points="632.43,-149.8 629.43,-153.8 608.43,-153.8 605.43,-149.8 533.57,-149.8 533.57,-113.8 632.43,-113.8 632.43,-149.8"/>
<text text-anchor="middle" x="583" y="-127.6" font-family="Times,serif" font-size="14.00">SharedModule</text>
</g>
<!-- CapsPipe&#45;&gt;SharedModule -->
<g id="edge1" class="edge">
<title>CapsPipe&#45;&gt;SharedModule</title>
<path fill="none" stroke="black" d="M583,-84.91C583,-84.91 583,-103.79 583,-103.79"/>
<polygon fill="black" stroke="black" points="579.5,-103.79 583,-113.79 586.5,-103.79 579.5,-103.79"/>
</g>
<!-- FilterAllPipe -->
<g id="node2" class="node">
<title>FilterAllPipe</title>
<polygon fill="#ffffb3" stroke="black" points="530.61,-84.8 441.39,-84.8 441.39,-48.8 530.61,-48.8 530.61,-84.8"/>
<text text-anchor="middle" x="486" y="-62.6" font-family="Times,serif" font-size="14.00">FilterAllPipe</text>
</g>
<!-- FilterAllPipe&#45;&gt;SharedModule -->
<g id="edge2" class="edge">
<title>FilterAllPipe&#45;&gt;SharedModule</title>
<path fill="none" stroke="black" d="M530.79,-66.8C536.93,-66.8 541.17,-66.8 541.17,-66.8 541.17,-66.8 541.17,-103.69 541.17,-103.69"/>
<polygon fill="black" stroke="black" points="537.67,-103.69 541.17,-113.69 544.67,-103.69 537.67,-103.69"/>
</g>
<!-- FilterPipe -->
<g id="node3" class="node">
<title>FilterPipe</title>
<polygon fill="#ffffb3" stroke="black" points="423.72,-84.8 352.28,-84.8 352.28,-48.8 423.72,-48.8 423.72,-84.8"/>
<text text-anchor="middle" x="388" y="-62.6" font-family="Times,serif" font-size="14.00">FilterPipe</text>
</g>
<!-- FilterPipe&#45;&gt;SharedModule -->
<g id="edge3" class="edge">
<title>FilterPipe&#45;&gt;SharedModule</title>
<path fill="none" stroke="black" d="M402.94,-84.83C402.94,-101.2 402.94,-122.8 402.94,-122.8 402.94,-122.8 523.32,-122.8 523.32,-122.8"/>
<polygon fill="black" stroke="black" points="523.32,-126.3 533.32,-122.8 523.32,-119.3 523.32,-126.3"/>
</g>
<!-- OutsideClickDirective -->
<g id="node4" class="node">
<title>OutsideClickDirective</title>
<polygon fill="#ffffb3" stroke="black" points="333.97,-84.8 192.03,-84.8 192.03,-48.8 333.97,-48.8 333.97,-84.8"/>
<text text-anchor="middle" x="263" y="-62.6" font-family="Times,serif" font-size="14.00">OutsideClickDirective</text>
</g>
<!-- OutsideClickDirective&#45;&gt;SharedModule -->
<g id="edge4" class="edge">
<title>OutsideClickDirective&#45;&gt;SharedModule</title>
<path fill="none" stroke="black" d="M263,-84.91C263,-104.14 263,-131.8 263,-131.8 263,-131.8 523.7,-131.8 523.7,-131.8"/>
<polygon fill="black" stroke="black" points="523.7,-135.3 533.7,-131.8 523.7,-128.3 523.7,-135.3"/>
</g>
<!-- VerticalResizeDirective -->
<g id="node5" class="node">
<title>VerticalResizeDirective</title>
<polygon fill="#ffffb3" stroke="black" points="174.48,-84.8 23.52,-84.8 23.52,-48.8 174.48,-48.8 174.48,-84.8"/>
<text text-anchor="middle" x="99" y="-62.6" font-family="Times,serif" font-size="14.00">VerticalResizeDirective</text>
</g>
<!-- VerticalResizeDirective&#45;&gt;SharedModule -->
<g id="edge5" class="edge">
<title>VerticalResizeDirective&#45;&gt;SharedModule</title>
<path fill="none" stroke="black" d="M99,-85.09C99,-107.01 99,-140.8 99,-140.8 99,-140.8 523.48,-140.8 523.48,-140.8"/>
<polygon fill="black" stroke="black" points="523.48,-144.3 533.48,-140.8 523.48,-137.3 523.48,-144.3"/>
</g>
<!-- FilterAllPipe  -->
<g id="node7" class="node">
<title>FilterAllPipe </title>
<polygon fill="#fb8072" stroke="black" points="731.11,-214.8 638.89,-214.8 638.89,-178.8 731.11,-178.8 731.11,-214.8"/>
<text text-anchor="middle" x="685" y="-192.6" font-family="Times,serif" font-size="14.00">FilterAllPipe </text>
</g>
<!-- SharedModule&#45;&gt;FilterAllPipe  -->
<g id="edge6" class="edge">
<title>SharedModule&#45;&gt;FilterAllPipe </title>
<path fill="none" stroke="black" stroke-dasharray="5,2" d="M626.29,-149.91C626.29,-169.14 626.29,-196.8 626.29,-196.8 626.29,-196.8 628.74,-196.8 628.74,-196.8"/>
<polygon fill="black" stroke="black" points="628.74,-200.3 638.74,-196.8 628.74,-193.3 628.74,-200.3"/>
</g>
<!-- FilterPipe  -->
<g id="node8" class="node">
<title>FilterPipe </title>
<polygon fill="#fb8072" stroke="black" points="620.22,-214.8 545.78,-214.8 545.78,-178.8 620.22,-178.8 620.22,-214.8"/>
<text text-anchor="middle" x="583" y="-192.6" font-family="Times,serif" font-size="14.00">FilterPipe </text>
</g>
<!-- SharedModule&#45;&gt;FilterPipe  -->
<g id="edge7" class="edge">
<title>SharedModule&#45;&gt;FilterPipe </title>
<path fill="none" stroke="black" stroke-dasharray="5,2" d="M583,-149.91C583,-149.91 583,-168.79 583,-168.79"/>
<polygon fill="black" stroke="black" points="579.5,-168.79 583,-178.79 586.5,-168.79 579.5,-168.79"/>
</g>
<!-- OutsideClickDirective  -->
<g id="node9" class="node">
<title>OutsideClickDirective </title>
<polygon fill="#fb8072" stroke="black" points="527.97,-214.8 382.03,-214.8 382.03,-178.8 527.97,-178.8 527.97,-214.8"/>
<text text-anchor="middle" x="455" y="-192.6" font-family="Times,serif" font-size="14.00">OutsideClickDirective </text>
</g>
<!-- SharedModule&#45;&gt;OutsideClickDirective  -->
<g id="edge8" class="edge">
<title>SharedModule&#45;&gt;OutsideClickDirective </title>
<path fill="none" stroke="black" stroke-dasharray="5,2" d="M539.71,-149.91C539.71,-169.14 539.71,-196.8 539.71,-196.8 539.71,-196.8 537.93,-196.8 537.93,-196.8"/>
<polygon fill="black" stroke="black" points="537.93,-193.3 527.93,-196.8 537.93,-200.3 537.93,-193.3"/>
</g>
<!-- AuthService -->
<g id="node10" class="node">
<title>AuthService</title>
<ellipse fill="#fdb462" stroke="black" cx="1250" cy="-66.8" rx="59.11" ry="18"/>
<text text-anchor="middle" x="1250" y="-62.6" font-family="Times,serif" font-size="14.00">AuthService</text>
</g>
<!-- AuthService&#45;&gt;SharedModule -->
<g id="edge9" class="edge">
<title>AuthService&#45;&gt;SharedModule</title>
<path fill="none" stroke="black" d="M1250,-85.09C1250,-107.01 1250,-140.8 1250,-140.8 1250,-140.8 642.32,-140.8 642.32,-140.8"/>
<polygon fill="black" stroke="black" points="642.32,-137.3 632.32,-140.8 642.32,-144.3 642.32,-137.3"/>
</g>
<!-- DeviceOsService -->
<g id="node11" class="node">
<title>DeviceOsService</title>
<ellipse fill="#fdb462" stroke="black" cx="1095" cy="-66.8" rx="78.14" ry="18"/>
<text text-anchor="middle" x="1095" y="-62.6" font-family="Times,serif" font-size="14.00">DeviceOsService</text>
</g>
<!-- DeviceOsService&#45;&gt;SharedModule -->
<g id="edge10" class="edge">
<title>DeviceOsService&#45;&gt;SharedModule</title>
<path fill="none" stroke="black" d="M1095,-84.91C1095,-104.14 1095,-131.8 1095,-131.8 1095,-131.8 642.56,-131.8 642.56,-131.8"/>
<polygon fill="black" stroke="black" points="642.56,-128.3 632.56,-131.8 642.56,-135.3 642.56,-128.3"/>
</g>
<!-- LoadingOverlayService -->
<g id="node12" class="node">
<title>LoadingOverlayService</title>
<ellipse fill="#fdb462" stroke="black" cx="896" cy="-66.8" rx="103.06" ry="18"/>
<text text-anchor="middle" x="896" y="-62.6" font-family="Times,serif" font-size="14.00">LoadingOverlayService</text>
</g>
<!-- LoadingOverlayService&#45;&gt;SharedModule -->
<g id="edge11" class="edge">
<title>LoadingOverlayService&#45;&gt;SharedModule</title>
<path fill="none" stroke="black" d="M896,-84.83C896,-101.2 896,-122.8 896,-122.8 896,-122.8 642.25,-122.8 642.25,-122.8"/>
<polygon fill="black" stroke="black" points="642.25,-119.3 632.25,-122.8 642.25,-126.3 642.25,-119.3"/>
</g>
<!-- ThemeService -->
<g id="node13" class="node">
<title>ThemeService</title>
<ellipse fill="#fdb462" stroke="black" cx="708" cy="-66.8" rx="66.61" ry="18"/>
<text text-anchor="middle" x="708" y="-62.6" font-family="Times,serif" font-size="14.00">ThemeService</text>
</g>
<!-- ThemeService&#45;&gt;SharedModule -->
<g id="edge12" class="edge">
<title>ThemeService&#45;&gt;SharedModule</title>
<path fill="none" stroke="black" d="M640.87,-66.8C631.41,-66.8 624.83,-66.8 624.83,-66.8 624.83,-66.8 624.83,-103.69 624.83,-103.69"/>
<polygon fill="black" stroke="black" points="621.33,-103.69 624.83,-113.69 628.33,-103.69 621.33,-103.69"/>
</g>
</g>
</svg>
