<?xml version="1.0" encoding="UTF-8" standalone="no"?>
<!DOCTYPE svg PUBLIC "-//W3C//DTD SVG 1.1//EN"
 "http://www.w3.org/Graphics/SVG/1.1/DTD/svg11.dtd">
<!-- Generated by graphviz version 5.0.0 (20220707.1540)
 -->
<!-- Title: dependencies Pages: 1 -->
<svg width="1314pt" height="247pt"
 viewBox="0.00 0.00 1314.00 246.80" xmlns="http://www.w3.org/2000/svg" xmlns:xlink="http://www.w3.org/1999/xlink">
<g id="graph0" class="graph" transform="scale(1 1) rotate(0) translate(4 242.8)">
<title>dependencies</title>
<polygon fill="white" stroke="transparent" points="-4,4 -4,-242.8 1310,-242.8 1310,4 -4,4"/>
<text text-anchor="middle" x="653" y="-8.2" font-family="sans-serif" font-size="14.00">dependencies</text>
<g id="clust1" class="cluster">
<title>cluster_SharedModule</title>
<polygon fill="none" stroke="black" stroke-dasharray="1,5" points="8,-32.8 8,-230.8 1298,-230.8 1298,-32.8 8,-32.8"/>
</g>
<g id="clust10" class="cluster">
<title>cluster_SharedModule_exports</title>
<polygon fill="none" stroke="black" points="339,-170.8 339,-222.8 852,-222.8 852,-170.8 339,-170.8"/>
</g>
<g id="clust12" class="cluster">
<title>cluster_SharedModule_providers</title>
<polygon fill="none" stroke="black" points="779,-40.8 779,-92.8 1290,-92.8 1290,-40.8 779,-40.8"/>
</g>
<g id="clust2" class="cluster">
<title>cluster_SharedModule_declarations</title>
<polygon fill="none" stroke="black" points="16,-40.8 16,-92.8 771,-92.8 771,-40.8 16,-40.8"/>
</g>
<!-- CapsPipe -->
<g id="node1" class="node">
<title>CapsPipe</title>
<polygon fill="#ffffb3" stroke="black" points="763.39,-84.8 694.61,-84.8 694.61,-48.8 763.39,-48.8 763.39,-84.8"/>
<text text-anchor="middle" x="729" y="-62.6" font-family="Times,serif" font-size="14.00">CapsPipe</text>
</g>
<!-- SharedModule -->
<g id="node7" class="node">
<title>SharedModule</title>
<polygon fill="#8dd3c7" stroke="black" points="681.43,-149.8 678.43,-153.8 657.43,-153.8 654.43,-149.8 582.57,-149.8 582.57,-113.8 681.43,-113.8 681.43,-149.8"/>
<text text-anchor="middle" x="632" y="-127.6" font-family="Times,serif" font-size="14.00">SharedModule</text>
</g>
<!-- CapsPipe&#45;&gt;SharedModule -->
<g id="edge1" class="edge">
<title>CapsPipe&#45;&gt;SharedModule</title>
<path fill="none" stroke="black" d="M713.96,-85.04C713.96,-100.37 713.96,-119.8 713.96,-119.8 713.96,-119.8 691.57,-119.8 691.57,-119.8"/>
<polygon fill="black" stroke="black" points="691.57,-116.3 681.57,-119.8 691.57,-123.3 691.57,-116.3"/>
</g>
<!-- FilterAllPipe -->
<g id="node2" class="node">
<title>FilterAllPipe</title>
<polygon fill="#ffffb3" stroke="black" points="676.61,-84.8 587.39,-84.8 587.39,-48.8 676.61,-48.8 676.61,-84.8"/>
<text text-anchor="middle" x="632" y="-62.6" font-family="Times,serif" font-size="14.00">FilterAllPipe</text>
</g>
<!-- FilterAllPipe&#45;&gt;SharedModule -->
<g id="edge2" class="edge">
<title>FilterAllPipe&#45;&gt;SharedModule</title>
<path fill="none" stroke="black" d="M632,-84.91C632,-84.91 632,-103.79 632,-103.79"/>
<polygon fill="black" stroke="black" points="628.5,-103.79 632,-113.79 635.5,-103.79 628.5,-103.79"/>
</g>
<!-- FilterPipe -->
<g id="node3" class="node">
<title>FilterPipe</title>
<polygon fill="#ffffb3" stroke="black" points="569.72,-84.8 498.28,-84.8 498.28,-48.8 569.72,-48.8 569.72,-84.8"/>
<text text-anchor="middle" x="534" y="-62.6" font-family="Times,serif" font-size="14.00">FilterPipe</text>
</g>
<!-- FilterPipe&#45;&gt;SharedModule -->
<g id="edge3" class="edge">
<title>FilterPipe&#45;&gt;SharedModule</title>
<path fill="none" stroke="black" d="M534,-85.04C534,-100.37 534,-119.8 534,-119.8 534,-119.8 572.71,-119.8 572.71,-119.8"/>
<polygon fill="black" stroke="black" points="572.71,-123.3 582.71,-119.8 572.71,-116.3 572.71,-123.3"/>
</g>
<!-- OutsideClickDirective -->
<g id="node4" class="node">
<title>OutsideClickDirective</title>
<polygon fill="#ffffb3" stroke="black" points="479.97,-84.8 338.03,-84.8 338.03,-48.8 479.97,-48.8 479.97,-84.8"/>
<text text-anchor="middle" x="409" y="-62.6" font-family="Times,serif" font-size="14.00">OutsideClickDirective</text>
</g>
<!-- OutsideClickDirective&#45;&gt;SharedModule -->
<g id="edge4" class="edge">
<title>OutsideClickDirective&#45;&gt;SharedModule</title>
<path fill="none" stroke="black" d="M390.22,-84.82C390.22,-102.17 390.22,-125.8 390.22,-125.8 390.22,-125.8 572.78,-125.8 572.78,-125.8"/>
<polygon fill="black" stroke="black" points="572.78,-129.3 582.78,-125.8 572.78,-122.3 572.78,-129.3"/>
</g>
<!-- TopNavComponent -->
<g id="node5" class="node">
<title>TopNavComponent</title>
<polygon fill="#ffffb3" stroke="black" points="319.71,-84.8 192.29,-84.8 192.29,-48.8 319.71,-48.8 319.71,-84.8"/>
<text text-anchor="middle" x="256" y="-62.6" font-family="Times,serif" font-size="14.00">TopNavComponent</text>
</g>
<!-- TopNavComponent&#45;&gt;SharedModule -->
<g id="edge5" class="edge">
<title>TopNavComponent&#45;&gt;SharedModule</title>
<path fill="none" stroke="black" d="M256,-84.91C256,-104.14 256,-131.8 256,-131.8 256,-131.8 572.46,-131.8 572.46,-131.8"/>
<polygon fill="black" stroke="black" points="572.46,-135.3 582.46,-131.8 572.46,-128.3 572.46,-135.3"/>
</g>
<!-- VerticalResizeDirective -->
<g id="node6" class="node">
<title>VerticalResizeDirective</title>
<polygon fill="#ffffb3" stroke="black" points="174.48,-84.8 23.52,-84.8 23.52,-48.8 174.48,-48.8 174.48,-84.8"/>
<text text-anchor="middle" x="99" y="-62.6" font-family="Times,serif" font-size="14.00">VerticalResizeDirective</text>
</g>
<!-- VerticalResizeDirective&#45;&gt;SharedModule -->
<g id="edge6" class="edge">
<title>VerticalResizeDirective&#45;&gt;SharedModule</title>
<path fill="none" stroke="black" d="M99,-85.08C99,-106.12 99,-137.8 99,-137.8 99,-137.8 572.34,-137.8 572.34,-137.8"/>
<polygon fill="black" stroke="black" points="572.34,-141.3 582.34,-137.8 572.34,-134.3 572.34,-141.3"/>
</g>
<!-- FilterAllPipe  -->
<g id="node8" class="node">
<title>FilterAllPipe </title>
<polygon fill="#fb8072" stroke="black" points="844.11,-214.8 751.89,-214.8 751.89,-178.8 844.11,-178.8 844.11,-214.8"/>
<text text-anchor="middle" x="798" y="-192.6" font-family="Times,serif" font-size="14.00">FilterAllPipe </text>
</g>
<!-- SharedModule&#45;&gt;FilterAllPipe  -->
<g id="edge7" class="edge">
<title>SharedModule&#45;&gt;FilterAllPipe </title>
<path fill="none" stroke="black" stroke-dasharray="5,2" d="M681.27,-143.8C716.45,-143.8 757.57,-143.8 757.57,-143.8 757.57,-143.8 757.57,-168.56 757.57,-168.56"/>
<polygon fill="black" stroke="black" points="754.07,-168.56 757.57,-178.56 761.07,-168.56 754.07,-168.56"/>
</g>
<!-- FilterPipe  -->
<g id="node9" class="node">
<title>FilterPipe </title>
<polygon fill="#fb8072" stroke="black" points="733.22,-214.8 658.78,-214.8 658.78,-178.8 733.22,-178.8 733.22,-214.8"/>
<text text-anchor="middle" x="696" y="-192.6" font-family="Times,serif" font-size="14.00">FilterPipe </text>
</g>
<!-- SharedModule&#45;&gt;FilterPipe  -->
<g id="edge8" class="edge">
<title>SharedModule&#45;&gt;FilterPipe </title>
<path fill="none" stroke="black" stroke-dasharray="5,2" d="M669.93,-149.91C669.93,-149.91 669.93,-168.79 669.93,-168.79"/>
<polygon fill="black" stroke="black" points="666.43,-168.79 669.93,-178.79 673.43,-168.79 666.43,-168.79"/>
</g>
<!-- OutsideClickDirective  -->
<g id="node10" class="node">
<title>OutsideClickDirective </title>
<polygon fill="#fb8072" stroke="black" points="640.97,-214.8 495.03,-214.8 495.03,-178.8 640.97,-178.8 640.97,-214.8"/>
<text text-anchor="middle" x="568" y="-192.6" font-family="Times,serif" font-size="14.00">OutsideClickDirective </text>
</g>
<!-- SharedModule&#45;&gt;OutsideClickDirective  -->
<g id="edge9" class="edge">
<title>SharedModule&#45;&gt;OutsideClickDirective </title>
<path fill="none" stroke="black" stroke-dasharray="5,2" d="M611.76,-149.91C611.76,-149.91 611.76,-168.79 611.76,-168.79"/>
<polygon fill="black" stroke="black" points="608.26,-168.79 611.76,-178.79 615.26,-168.79 608.26,-168.79"/>
</g>
<!-- TopNavComponent  -->
<g id="node11" class="node">
<title>TopNavComponent </title>
<polygon fill="#fb8072" stroke="black" points="477.21,-214.8 346.79,-214.8 346.79,-178.8 477.21,-178.8 477.21,-214.8"/>
<text text-anchor="middle" x="412" y="-192.6" font-family="Times,serif" font-size="14.00">TopNavComponent </text>
</g>
<!-- SharedModule&#45;&gt;TopNavComponent  -->
<g id="edge10" class="edge">
<title>SharedModule&#45;&gt;TopNavComponent </title>
<path fill="none" stroke="black" stroke-dasharray="5,2" d="M582.75,-143.8C524.04,-143.8 433.78,-143.8 433.78,-143.8 433.78,-143.8 433.78,-168.56 433.78,-168.56"/>
<polygon fill="black" stroke="black" points="430.28,-168.56 433.78,-178.56 437.28,-168.56 430.28,-168.56"/>
</g>
<!-- AuthService -->
<g id="node12" class="node">
<title>AuthService</title>
<ellipse fill="#fdb462" stroke="black" cx="1223" cy="-66.8" rx="59.11" ry="18"/>
<text text-anchor="middle" x="1223" y="-62.6" font-family="Times,serif" font-size="14.00">AuthService</text>
</g>
<!-- AuthService&#45;&gt;SharedModule -->
<g id="edge11" class="edge">
<title>AuthService&#45;&gt;SharedModule</title>
<path fill="none" stroke="black" d="M1223,-85.08C1223,-106.12 1223,-137.8 1223,-137.8 1223,-137.8 691.37,-137.8 691.37,-137.8"/>
<polygon fill="black" stroke="black" points="691.37,-134.3 681.37,-137.8 691.37,-141.3 691.37,-134.3"/>
</g>
<!-- LoadingOverlayService -->
<g id="node13" class="node">
<title>LoadingOverlayService</title>
<ellipse fill="#fdb462" stroke="black" cx="1042" cy="-66.8" rx="103.06" ry="18"/>
<text text-anchor="middle" x="1042" y="-62.6" font-family="Times,serif" font-size="14.00">LoadingOverlayService</text>
</g>
<!-- LoadingOverlayService&#45;&gt;SharedModule -->
<g id="edge12" class="edge">
<title>LoadingOverlayService&#45;&gt;SharedModule</title>
<path fill="none" stroke="black" d="M1042,-84.91C1042,-104.14 1042,-131.8 1042,-131.8 1042,-131.8 691.46,-131.8 691.46,-131.8"/>
<polygon fill="black" stroke="black" points="691.46,-128.3 681.46,-131.8 691.46,-135.3 691.46,-128.3"/>
</g>
<!-- ThemeService -->
<g id="node14" class="node">
<title>ThemeService</title>
<ellipse fill="#fdb462" stroke="black" cx="854" cy="-66.8" rx="66.61" ry="18"/>
<text text-anchor="middle" x="854" y="-62.6" font-family="Times,serif" font-size="14.00">ThemeService</text>
</g>
<!-- ThemeService&#45;&gt;SharedModule -->
<g id="edge13" class="edge">
<title>ThemeService&#45;&gt;SharedModule</title>
<path fill="none" stroke="black" d="M815.75,-81.69C815.75,-99.17 815.75,-125.8 815.75,-125.8 815.75,-125.8 691.24,-125.8 691.24,-125.8"/>
<polygon fill="black" stroke="black" points="691.24,-122.3 681.24,-125.8 691.24,-129.3 691.24,-122.3"/>
</g>
</g>
</svg>
