<?xml version="1.0" encoding="UTF-8" standalone="no"?>
<!DOCTYPE svg PUBLIC "-//W3C//DTD SVG 1.1//EN"
 "http://www.w3.org/Graphics/SVG/1.1/DTD/svg11.dtd">
<!-- Generated by graphviz version 5.0.0 (20220707.1540)
 -->
<!-- Title: dependencies Pages: 1 -->
<svg width="793pt" height="247pt"
 viewBox="0.00 0.00 793.00 246.80" xmlns="http://www.w3.org/2000/svg" xmlns:xlink="http://www.w3.org/1999/xlink">
<g id="graph0" class="graph" transform="scale(1 1) rotate(0) translate(4 242.8)">
<title>dependencies</title>
<polygon fill="white" stroke="transparent" points="-4,4 -4,-242.8 789,-242.8 789,4 -4,4"/>
<text text-anchor="middle" x="392.5" y="-8.2" font-family="sans-serif" font-size="14.00">dependencies</text>
<g id="clust1" class="cluster">
<title>cluster_CaptureModule</title>
<polygon fill="none" stroke="black" stroke-dasharray="1,5" points="8,-32.8 8,-230.8 777,-230.8 777,-32.8 8,-32.8"/>
</g>
<g id="clust8" class="cluster">
<title>cluster_CaptureModule_providers</title>
<polygon fill="none" stroke="black" points="613,-40.8 613,-92.8 769,-92.8 769,-40.8 613,-40.8"/>
</g>
<g id="clust6" class="cluster">
<title>cluster_CaptureModule_exports</title>
<polygon fill="none" stroke="black" points="301,-170.8 301,-222.8 461,-222.8 461,-170.8 301,-170.8"/>
</g>
<g id="clust5" class="cluster">
<title>cluster_CaptureModule_imports</title>
<polygon fill="none" stroke="black" points="324,-40.8 324,-92.8 605,-92.8 605,-40.8 324,-40.8"/>
</g>
<g id="clust2" class="cluster">
<title>cluster_CaptureModule_declarations</title>
<polygon fill="none" stroke="black" points="16,-40.8 16,-92.8 316,-92.8 316,-40.8 16,-40.8"/>
</g>
<!-- AccordionComponent -->
<g id="node1" class="node">
<title>AccordionComponent</title>
<polygon fill="#ffffb3" stroke="black" points="308.42,-84.8 167.58,-84.8 167.58,-48.8 308.42,-48.8 308.42,-84.8"/>
<text text-anchor="middle" x="238" y="-62.6" font-family="Times,serif" font-size="14.00">AccordionComponent</text>
</g>
<!-- CaptureModule -->
<g id="node3" class="node">
<title>CaptureModule</title>
<polygon fill="#8dd3c7" stroke="black" points="432.87,-149.8 429.87,-153.8 408.87,-153.8 405.87,-149.8 329.13,-149.8 329.13,-113.8 432.87,-113.8 432.87,-149.8"/>
<text text-anchor="middle" x="381" y="-127.6" font-family="Times,serif" font-size="14.00">CaptureModule</text>
</g>
<!-- AccordionComponent&#45;&gt;CaptureModule -->
<g id="edge1" class="edge">
<title>AccordionComponent&#45;&gt;CaptureModule</title>
<path fill="none" stroke="black" d="M238,-84.82C238,-102.17 238,-125.8 238,-125.8 238,-125.8 318.97,-125.8 318.97,-125.8"/>
<polygon fill="black" stroke="black" points="318.97,-129.3 328.97,-125.8 318.97,-122.3 318.97,-129.3"/>
</g>
<!-- CaptureComponent -->
<g id="node2" class="node">
<title>CaptureComponent</title>
<polygon fill="#ffffb3" stroke="black" points="149.65,-84.8 24.35,-84.8 24.35,-48.8 149.65,-48.8 149.65,-84.8"/>
<text text-anchor="middle" x="87" y="-62.6" font-family="Times,serif" font-size="14.00">CaptureComponent</text>
</g>
<!-- CaptureComponent&#45;&gt;CaptureModule -->
<g id="edge2" class="edge">
<title>CaptureComponent&#45;&gt;CaptureModule</title>
<path fill="none" stroke="black" d="M87,-85.08C87,-106.12 87,-137.8 87,-137.8 87,-137.8 319.12,-137.8 319.12,-137.8"/>
<polygon fill="black" stroke="black" points="319.12,-141.3 329.12,-137.8 319.12,-134.3 319.12,-141.3"/>
</g>
<!-- AccordionComponent  -->
<g id="node6" class="node">
<title>AccordionComponent </title>
<polygon fill="#fb8072" stroke="black" points="452.92,-214.8 309.08,-214.8 309.08,-178.8 452.92,-178.8 452.92,-214.8"/>
<text text-anchor="middle" x="381" y="-192.6" font-family="Times,serif" font-size="14.00">AccordionComponent </text>
</g>
<!-- CaptureModule&#45;&gt;AccordionComponent  -->
<g id="edge5" class="edge">
<title>CaptureModule&#45;&gt;AccordionComponent </title>
<path fill="none" stroke="black" stroke-dasharray="5,2" d="M381,-149.91C381,-149.91 381,-168.79 381,-168.79"/>
<polygon fill="black" stroke="black" points="377.5,-168.79 381,-178.79 384.5,-168.79 377.5,-168.79"/>
</g>
<!-- CaptureRoutingModule -->
<g id="node4" class="node">
<title>CaptureRoutingModule</title>
<polygon fill="#8dd3c7" stroke="black" points="597.49,-84.8 594.49,-88.8 573.49,-88.8 570.49,-84.8 448.51,-84.8 448.51,-48.8 597.49,-48.8 597.49,-84.8"/>
<text text-anchor="middle" x="523" y="-62.6" font-family="Times,serif" font-size="14.00">CaptureRoutingModule</text>
</g>
<!-- CaptureRoutingModule&#45;&gt;CaptureModule -->
<g id="edge3" class="edge">
<title>CaptureRoutingModule&#45;&gt;CaptureModule</title>
<path fill="none" stroke="black" d="M525.23,-84.82C525.23,-102.17 525.23,-125.8 525.23,-125.8 525.23,-125.8 443.07,-125.8 443.07,-125.8"/>
<polygon fill="black" stroke="black" points="443.07,-122.3 433.07,-125.8 443.07,-129.3 443.07,-122.3"/>
</g>
<!-- SharedModule -->
<g id="node5" class="node">
<title>SharedModule</title>
<polygon fill="#8dd3c7" stroke="black" points="430.43,-84.8 427.43,-88.8 406.43,-88.8 403.43,-84.8 331.57,-84.8 331.57,-48.8 430.43,-48.8 430.43,-84.8"/>
<text text-anchor="middle" x="381" y="-62.6" font-family="Times,serif" font-size="14.00">SharedModule</text>
</g>
<!-- SharedModule&#45;&gt;CaptureModule -->
<g id="edge4" class="edge">
<title>SharedModule&#45;&gt;CaptureModule</title>
<path fill="none" stroke="black" d="M381,-84.91C381,-84.91 381,-103.79 381,-103.79"/>
<polygon fill="black" stroke="black" points="377.5,-103.79 381,-113.79 384.5,-103.79 377.5,-103.79"/>
</g>
<!-- CameraService -->
<g id="node7" class="node">
<title>CameraService</title>
<ellipse fill="#fdb462" stroke="black" cx="691" cy="-66.8" rx="70.04" ry="18"/>
<text text-anchor="middle" x="691" y="-62.6" font-family="Times,serif" font-size="14.00">CameraService</text>
</g>
<!-- CameraService&#45;&gt;CaptureModule -->
<g id="edge6" class="edge">
<title>CameraService&#45;&gt;CaptureModule</title>
<path fill="none" stroke="black" d="M691,-85.08C691,-106.12 691,-137.8 691,-137.8 691,-137.8 442.89,-137.8 442.89,-137.8"/>
<polygon fill="black" stroke="black" points="442.89,-134.3 432.89,-137.8 442.89,-141.3 442.89,-134.3"/>
</g>
</g>
</svg>
