<?xml version="1.0" encoding="UTF-8" standalone="no"?>
<!DOCTYPE svg PUBLIC "-//W3C//DTD SVG 1.1//EN"
 "http://www.w3.org/Graphics/SVG/1.1/DTD/svg11.dtd">
<!-- Generated by graphviz version 5.0.0 (20220707.1540)
 -->
<!-- Title: dependencies Pages: 1 -->
<svg width="793pt" height="247pt"
 viewBox="0.00 0.00 793.00 246.80" xmlns="http://www.w3.org/2000/svg" xmlns:xlink="http://www.w3.org/1999/xlink">
<g id="graph0" class="graph" transform="scale(1 1) rotate(0) translate(4 242.8)">
<title>dependencies</title>
<polygon fill="white" stroke="transparent" points="-4,4 -4,-242.8 789,-242.8 789,4 -4,4"/>
<text text-anchor="middle" x="392.5" y="-8.2" font-family="sans-serif" font-size="14.00">dependencies</text>
<g id="clust1" class="cluster">
<title>cluster_CaptureModule</title>
<polygon fill="none" stroke="black" stroke-dasharray="1,5" points="8,-32.8 8,-230.8 777,-230.8 777,-32.8 8,-32.8"/>
</g>
<g id="clust2" class="cluster">
<title>cluster_CaptureModule_declarations</title>
<polygon fill="none" stroke="black" points="469,-40.8 469,-92.8 769,-92.8 769,-40.8 469,-40.8"/>
</g>
<g id="clust5" class="cluster">
<title>cluster_CaptureModule_imports</title>
<polygon fill="none" stroke="black" points="180,-40.8 180,-92.8 461,-92.8 461,-40.8 180,-40.8"/>
</g>
<g id="clust6" class="cluster">
<title>cluster_CaptureModule_exports</title>
<polygon fill="none" stroke="black" points="299,-170.8 299,-222.8 459,-222.8 459,-170.8 299,-170.8"/>
</g>
<g id="clust8" class="cluster">
<title>cluster_CaptureModule_providers</title>
<polygon fill="none" stroke="black" points="16,-40.8 16,-92.8 172,-92.8 172,-40.8 16,-40.8"/>
</g>
<!-- AccordionComponent -->
<g id="node1" class="node">
<title>AccordionComponent</title>
<polygon fill="#ffffb3" stroke="black" points="761.42,-84.8 620.58,-84.8 620.58,-48.8 761.42,-48.8 761.42,-84.8"/>
<text text-anchor="middle" x="691" y="-62.6" font-family="Times,serif" font-size="14.00">AccordionComponent</text>
</g>
<!-- CaptureModule -->
<g id="node3" class="node">
<title>CaptureModule</title>
<polygon fill="#8dd3c7" stroke="black" points="430.87,-149.8 427.87,-153.8 406.87,-153.8 403.87,-149.8 327.13,-149.8 327.13,-113.8 430.87,-113.8 430.87,-149.8"/>
<text text-anchor="middle" x="379" y="-127.6" font-family="Times,serif" font-size="14.00">CaptureModule</text>
</g>
<!-- AccordionComponent&#45;&gt;CaptureModule -->
<g id="edge1" class="edge">
<title>AccordionComponent&#45;&gt;CaptureModule</title>
<path fill="none" stroke="black" d="M691,-85.08C691,-106.12 691,-137.8 691,-137.8 691,-137.8 440.87,-137.8 440.87,-137.8"/>
<polygon fill="black" stroke="black" points="440.87,-134.3 430.87,-137.8 440.87,-141.3 440.87,-134.3"/>
</g>
<!-- CaptureComponent -->
<g id="node2" class="node">
<title>CaptureComponent</title>
<polygon fill="#ffffb3" stroke="black" points="602.65,-84.8 477.35,-84.8 477.35,-48.8 602.65,-48.8 602.65,-84.8"/>
<text text-anchor="middle" x="540" y="-62.6" font-family="Times,serif" font-size="14.00">CaptureComponent</text>
</g>
<!-- CaptureComponent&#45;&gt;CaptureModule -->
<g id="edge2" class="edge">
<title>CaptureComponent&#45;&gt;CaptureModule</title>
<path fill="none" stroke="black" d="M540,-84.82C540,-102.17 540,-125.8 540,-125.8 540,-125.8 441.27,-125.8 441.27,-125.8"/>
<polygon fill="black" stroke="black" points="441.27,-122.3 431.27,-125.8 441.27,-129.3 441.27,-122.3"/>
</g>
<!-- AccordionComponent  -->
<g id="node6" class="node">
<title>AccordionComponent </title>
<polygon fill="#fb8072" stroke="black" points="450.92,-214.8 307.08,-214.8 307.08,-178.8 450.92,-178.8 450.92,-214.8"/>
<text text-anchor="middle" x="379" y="-192.6" font-family="Times,serif" font-size="14.00">AccordionComponent </text>
</g>
<!-- CaptureModule&#45;&gt;AccordionComponent  -->
<g id="edge5" class="edge">
<title>CaptureModule&#45;&gt;AccordionComponent </title>
<path fill="none" stroke="black" stroke-dasharray="5,2" d="M379,-149.91C379,-149.91 379,-168.79 379,-168.79"/>
<polygon fill="black" stroke="black" points="375.5,-168.79 379,-178.79 382.5,-168.79 375.5,-168.79"/>
</g>
<!-- CaptureRoutingModule -->
<g id="node4" class="node">
<title>CaptureRoutingModule</title>
<polygon fill="#8dd3c7" stroke="black" points="453.49,-84.8 450.49,-88.8 429.49,-88.8 426.49,-84.8 304.51,-84.8 304.51,-48.8 453.49,-48.8 453.49,-84.8"/>
<text text-anchor="middle" x="379" y="-62.6" font-family="Times,serif" font-size="14.00">CaptureRoutingModule</text>
</g>
<!-- CaptureRoutingModule&#45;&gt;CaptureModule -->
<g id="edge3" class="edge">
<title>CaptureRoutingModule&#45;&gt;CaptureModule</title>
<path fill="none" stroke="black" d="M379,-84.91C379,-84.91 379,-103.79 379,-103.79"/>
<polygon fill="black" stroke="black" points="375.5,-103.79 379,-113.79 382.5,-103.79 375.5,-103.79"/>
</g>
<!-- SharedModule -->
<g id="node5" class="node">
<title>SharedModule</title>
<polygon fill="#8dd3c7" stroke="black" points="286.43,-84.8 283.43,-88.8 262.43,-88.8 259.43,-84.8 187.57,-84.8 187.57,-48.8 286.43,-48.8 286.43,-84.8"/>
<text text-anchor="middle" x="237" y="-62.6" font-family="Times,serif" font-size="14.00">SharedModule</text>
</g>
<!-- SharedModule&#45;&gt;CaptureModule -->
<g id="edge4" class="edge">
<title>SharedModule&#45;&gt;CaptureModule</title>
<path fill="none" stroke="black" d="M237,-84.82C237,-102.17 237,-125.8 237,-125.8 237,-125.8 316.93,-125.8 316.93,-125.8"/>
<polygon fill="black" stroke="black" points="316.93,-129.3 326.93,-125.8 316.93,-122.3 316.93,-129.3"/>
</g>
<!-- CameraService -->
<g id="node7" class="node">
<title>CameraService</title>
<ellipse fill="#fdb462" stroke="black" cx="94" cy="-66.8" rx="70.04" ry="18"/>
<text text-anchor="middle" x="94" y="-62.6" font-family="Times,serif" font-size="14.00">CameraService</text>
</g>
<!-- CameraService&#45;&gt;CaptureModule -->
<g id="edge6" class="edge">
<title>CameraService&#45;&gt;CaptureModule</title>
<path fill="none" stroke="black" d="M94,-85.08C94,-106.12 94,-137.8 94,-137.8 94,-137.8 317.06,-137.8 317.06,-137.8"/>
<polygon fill="black" stroke="black" points="317.06,-141.3 327.06,-137.8 317.06,-134.3 317.06,-141.3"/>
</g>
</g>
</svg>
