<?xml version="1.0" encoding="UTF-8" standalone="no"?>
<!DOCTYPE svg PUBLIC "-//W3C//DTD SVG 1.1//EN"
 "http://www.w3.org/Graphics/SVG/1.1/DTD/svg11.dtd">
<!-- Generated by graphviz version 5.0.0 (20220707.1540)
 -->
<!-- Title: dependencies Pages: 1 -->
<svg width="635pt" height="174pt"
 viewBox="0.00 0.00 635.00 173.80" xmlns="http://www.w3.org/2000/svg" xmlns:xlink="http://www.w3.org/1999/xlink">
<g id="graph0" class="graph" transform="scale(1 1) rotate(0) translate(4 169.8)">
<title>dependencies</title>
<polygon fill="white" stroke="transparent" points="-4,4 -4,-169.8 631,-169.8 631,4 -4,4"/>
<text text-anchor="middle" x="313.5" y="-8.2" font-family="sans-serif" font-size="14.00">dependencies</text>
<g id="clust1" class="cluster">
<title>cluster_CaptureModule</title>
<polygon fill="none" stroke="black" stroke-dasharray="1,5" points="8,-32.8 8,-157.8 619,-157.8 619,-32.8 8,-32.8"/>
</g>
<g id="clust4" class="cluster">
<title>cluster_CaptureModule_imports</title>
<polygon fill="none" stroke="black" points="330,-40.8 330,-92.8 611,-92.8 611,-40.8 330,-40.8"/>
</g>
<g id="clust2" class="cluster">
<title>cluster_CaptureModule_declarations</title>
<polygon fill="none" stroke="black" points="180,-40.8 180,-92.8 322,-92.8 322,-40.8 180,-40.8"/>
</g>
<g id="clust7" class="cluster">
<title>cluster_CaptureModule_providers</title>
<polygon fill="none" stroke="black" points="16,-40.8 16,-92.8 172,-92.8 172,-40.8 16,-40.8"/>
</g>
<!-- CaptureComponent -->
<g id="node1" class="node">
<title>CaptureComponent</title>
<polygon fill="#ffffb3" stroke="black" points="313.65,-84.8 188.35,-84.8 188.35,-48.8 313.65,-48.8 313.65,-84.8"/>
<text text-anchor="middle" x="251" y="-62.6" font-family="Times,serif" font-size="14.00">CaptureComponent</text>
</g>
<!-- CaptureModule -->
<g id="node2" class="node">
<title>CaptureModule</title>
<polygon fill="#8dd3c7" stroke="black" points="370.87,-149.8 367.87,-153.8 346.87,-153.8 343.87,-149.8 267.13,-149.8 267.13,-113.8 370.87,-113.8 370.87,-149.8"/>
<text text-anchor="middle" x="319" y="-127.6" font-family="Times,serif" font-size="14.00">CaptureModule</text>
</g>
<!-- CaptureComponent&#45;&gt;CaptureModule -->
<g id="edge1" class="edge">
<title>CaptureComponent&#45;&gt;CaptureModule</title>
<path fill="none" stroke="black" d="M290.44,-84.91C290.44,-84.91 290.44,-103.79 290.44,-103.79"/>
<polygon fill="black" stroke="black" points="286.94,-103.79 290.44,-113.79 293.94,-103.79 286.94,-103.79"/>
</g>
<!-- CaptureRoutingModule -->
<g id="node3" class="node">
<title>CaptureRoutingModule</title>
<polygon fill="#8dd3c7" stroke="black" points="603.49,-84.8 600.49,-88.8 579.49,-88.8 576.49,-84.8 454.51,-84.8 454.51,-48.8 603.49,-48.8 603.49,-84.8"/>
<text text-anchor="middle" x="529" y="-62.6" font-family="Times,serif" font-size="14.00">CaptureRoutingModule</text>
</g>
<!-- CaptureRoutingModule&#45;&gt;CaptureModule -->
<g id="edge2" class="edge">
<title>CaptureRoutingModule&#45;&gt;CaptureModule</title>
<path fill="none" stroke="black" d="M529,-84.91C529,-104.14 529,-131.8 529,-131.8 529,-131.8 380.91,-131.8 380.91,-131.8"/>
<polygon fill="black" stroke="black" points="380.91,-128.3 370.91,-131.8 380.91,-135.3 380.91,-128.3"/>
</g>
<!-- SharedModule -->
<g id="node4" class="node">
<title>SharedModule</title>
<polygon fill="#8dd3c7" stroke="black" points="436.43,-84.8 433.43,-88.8 412.43,-88.8 409.43,-84.8 337.57,-84.8 337.57,-48.8 436.43,-48.8 436.43,-84.8"/>
<text text-anchor="middle" x="387" y="-62.6" font-family="Times,serif" font-size="14.00">SharedModule</text>
</g>
<!-- SharedModule&#45;&gt;CaptureModule -->
<g id="edge3" class="edge">
<title>SharedModule&#45;&gt;CaptureModule</title>
<path fill="none" stroke="black" d="M354.36,-84.91C354.36,-84.91 354.36,-103.79 354.36,-103.79"/>
<polygon fill="black" stroke="black" points="350.86,-103.79 354.36,-113.79 357.86,-103.79 350.86,-103.79"/>
</g>
<!-- CameraService -->
<g id="node5" class="node">
<title>CameraService</title>
<ellipse fill="#fdb462" stroke="black" cx="94" cy="-66.8" rx="70.04" ry="18"/>
<text text-anchor="middle" x="94" y="-62.6" font-family="Times,serif" font-size="14.00">CameraService</text>
</g>
<!-- CameraService&#45;&gt;CaptureModule -->
<g id="edge4" class="edge">
<title>CameraService&#45;&gt;CaptureModule</title>
<path fill="none" stroke="black" d="M94,-84.91C94,-104.14 94,-131.8 94,-131.8 94,-131.8 257.1,-131.8 257.1,-131.8"/>
<polygon fill="black" stroke="black" points="257.1,-135.3 267.1,-131.8 257.1,-128.3 257.1,-135.3"/>
</g>
</g>
</svg>
