<?xml version="1.0" encoding="UTF-8" standalone="no"?>
<!DOCTYPE svg PUBLIC "-//W3C//DTD SVG 1.1//EN"
 "http://www.w3.org/Graphics/SVG/1.1/DTD/svg11.dtd">
<!-- Generated by graphviz version 5.0.0 (20220707.1540)
 -->
<!-- Title: dependencies Pages: 1 -->
<svg width="793pt" height="247pt"
 viewBox="0.00 0.00 793.00 246.80" xmlns="http://www.w3.org/2000/svg" xmlns:xlink="http://www.w3.org/1999/xlink">
<g id="graph0" class="graph" transform="scale(1 1) rotate(0) translate(4 242.8)">
<title>dependencies</title>
<polygon fill="white" stroke="transparent" points="-4,4 -4,-242.8 789,-242.8 789,4 -4,4"/>
<text text-anchor="middle" x="392.5" y="-8.2" font-family="sans-serif" font-size="14.00">dependencies</text>
<g id="clust1" class="cluster">
<title>cluster_CaptureModule</title>
<polygon fill="none" stroke="black" stroke-dasharray="1,5" points="8,-32.8 8,-230.8 777,-230.8 777,-32.8 8,-32.8"/>
</g>
<g id="clust8" class="cluster">
<title>cluster_CaptureModule_providers</title>
<polygon fill="none" stroke="black" points="613,-40.8 613,-92.8 769,-92.8 769,-40.8 613,-40.8"/>
</g>
<g id="clust2" class="cluster">
<title>cluster_CaptureModule_declarations</title>
<polygon fill="none" stroke="black" points="305,-40.8 305,-92.8 605,-92.8 605,-40.8 305,-40.8"/>
</g>
<g id="clust5" class="cluster">
<title>cluster_CaptureModule_imports</title>
<polygon fill="none" stroke="black" points="16,-40.8 16,-92.8 297,-92.8 297,-40.8 16,-40.8"/>
</g>
<g id="clust6" class="cluster">
<title>cluster_CaptureModule_exports</title>
<polygon fill="none" stroke="black" points="296,-170.8 296,-222.8 456,-222.8 456,-170.8 296,-170.8"/>
</g>
<!-- AccordionComponent -->
<g id="node1" class="node">
<title>AccordionComponent</title>
<polygon fill="#ffffb3" stroke="black" points="597.42,-84.8 456.58,-84.8 456.58,-48.8 597.42,-48.8 597.42,-84.8"/>
<text text-anchor="middle" x="527" y="-62.6" font-family="Times,serif" font-size="14.00">AccordionComponent</text>
</g>
<!-- CaptureModule -->
<g id="node3" class="node">
<title>CaptureModule</title>
<polygon fill="#8dd3c7" stroke="black" points="427.87,-149.8 424.87,-153.8 403.87,-153.8 400.87,-149.8 324.13,-149.8 324.13,-113.8 427.87,-113.8 427.87,-149.8"/>
<text text-anchor="middle" x="376" y="-127.6" font-family="Times,serif" font-size="14.00">CaptureModule</text>
</g>
<!-- AccordionComponent&#45;&gt;CaptureModule -->
<g id="edge1" class="edge">
<title>AccordionComponent&#45;&gt;CaptureModule</title>
<path fill="none" stroke="black" d="M527,-84.82C527,-102.17 527,-125.8 527,-125.8 527,-125.8 437.97,-125.8 437.97,-125.8"/>
<polygon fill="black" stroke="black" points="437.97,-122.3 427.97,-125.8 437.97,-129.3 437.97,-122.3"/>
</g>
<!-- CaptureComponent -->
<g id="node2" class="node">
<title>CaptureComponent</title>
<polygon fill="#ffffb3" stroke="black" points="438.65,-84.8 313.35,-84.8 313.35,-48.8 438.65,-48.8 438.65,-84.8"/>
<text text-anchor="middle" x="376" y="-62.6" font-family="Times,serif" font-size="14.00">CaptureComponent</text>
</g>
<!-- CaptureComponent&#45;&gt;CaptureModule -->
<g id="edge2" class="edge">
<title>CaptureComponent&#45;&gt;CaptureModule</title>
<path fill="none" stroke="black" d="M376,-84.91C376,-84.91 376,-103.79 376,-103.79"/>
<polygon fill="black" stroke="black" points="372.5,-103.79 376,-113.79 379.5,-103.79 372.5,-103.79"/>
</g>
<!-- AccordionComponent  -->
<g id="node6" class="node">
<title>AccordionComponent </title>
<polygon fill="#fb8072" stroke="black" points="447.92,-214.8 304.08,-214.8 304.08,-178.8 447.92,-178.8 447.92,-214.8"/>
<text text-anchor="middle" x="376" y="-192.6" font-family="Times,serif" font-size="14.00">AccordionComponent </text>
</g>
<!-- CaptureModule&#45;&gt;AccordionComponent  -->
<g id="edge5" class="edge">
<title>CaptureModule&#45;&gt;AccordionComponent </title>
<path fill="none" stroke="black" stroke-dasharray="5,2" d="M376,-149.91C376,-149.91 376,-168.79 376,-168.79"/>
<polygon fill="black" stroke="black" points="372.5,-168.79 376,-178.79 379.5,-168.79 372.5,-168.79"/>
</g>
<!-- CaptureRoutingModule -->
<g id="node4" class="node">
<title>CaptureRoutingModule</title>
<polygon fill="#8dd3c7" stroke="black" points="289.49,-84.8 286.49,-88.8 265.49,-88.8 262.49,-84.8 140.51,-84.8 140.51,-48.8 289.49,-48.8 289.49,-84.8"/>
<text text-anchor="middle" x="215" y="-62.6" font-family="Times,serif" font-size="14.00">CaptureRoutingModule</text>
</g>
<!-- CaptureRoutingModule&#45;&gt;CaptureModule -->
<g id="edge3" class="edge">
<title>CaptureRoutingModule&#45;&gt;CaptureModule</title>
<path fill="none" stroke="black" d="M215,-84.82C215,-102.17 215,-125.8 215,-125.8 215,-125.8 313.73,-125.8 313.73,-125.8"/>
<polygon fill="black" stroke="black" points="313.73,-129.3 323.73,-125.8 313.73,-122.3 313.73,-129.3"/>
</g>
<!-- SharedModule -->
<g id="node5" class="node">
<title>SharedModule</title>
<polygon fill="#8dd3c7" stroke="black" points="122.43,-84.8 119.43,-88.8 98.43,-88.8 95.43,-84.8 23.57,-84.8 23.57,-48.8 122.43,-48.8 122.43,-84.8"/>
<text text-anchor="middle" x="73" y="-62.6" font-family="Times,serif" font-size="14.00">SharedModule</text>
</g>
<!-- SharedModule&#45;&gt;CaptureModule -->
<g id="edge4" class="edge">
<title>SharedModule&#45;&gt;CaptureModule</title>
<path fill="none" stroke="black" d="M73,-85.08C73,-106.12 73,-137.8 73,-137.8 73,-137.8 313.91,-137.8 313.91,-137.8"/>
<polygon fill="black" stroke="black" points="313.91,-141.3 323.91,-137.8 313.91,-134.3 313.91,-141.3"/>
</g>
<!-- CameraService -->
<g id="node7" class="node">
<title>CameraService</title>
<ellipse fill="#fdb462" stroke="black" cx="691" cy="-66.8" rx="70.04" ry="18"/>
<text text-anchor="middle" x="691" y="-62.6" font-family="Times,serif" font-size="14.00">CameraService</text>
</g>
<!-- CameraService&#45;&gt;CaptureModule -->
<g id="edge6" class="edge">
<title>CameraService&#45;&gt;CaptureModule</title>
<path fill="none" stroke="black" d="M691,-85.08C691,-106.12 691,-137.8 691,-137.8 691,-137.8 438.02,-137.8 438.02,-137.8"/>
<polygon fill="black" stroke="black" points="438.02,-134.3 428.02,-137.8 438.02,-141.3 438.02,-134.3"/>
</g>
</g>
</svg>
