<?xml version="1.0" encoding="UTF-8" standalone="no"?>
<!DOCTYPE svg PUBLIC "-//W3C//DTD SVG 1.1//EN"
 "http://www.w3.org/Graphics/SVG/1.1/DTD/svg11.dtd">
<!-- Generated by graphviz version 5.0.0 (20220707.1540)
 -->
<!-- Title: dependencies Pages: 1 -->
<svg width="793pt" height="247pt"
 viewBox="0.00 0.00 793.00 246.80" xmlns="http://www.w3.org/2000/svg" xmlns:xlink="http://www.w3.org/1999/xlink">
<g id="graph0" class="graph" transform="scale(1 1) rotate(0) translate(4 242.8)">
<title>dependencies</title>
<polygon fill="white" stroke="transparent" points="-4,4 -4,-242.8 789,-242.8 789,4 -4,4"/>
<text text-anchor="middle" x="392.5" y="-8.2" font-family="sans-serif" font-size="14.00">dependencies</text>
<g id="clust1" class="cluster">
<title>cluster_CaptureModule</title>
<polygon fill="none" stroke="black" stroke-dasharray="1,5" points="8,-32.8 8,-230.8 777,-230.8 777,-32.8 8,-32.8"/>
</g>
<g id="clust6" class="cluster">
<title>cluster_CaptureModule_exports</title>
<polygon fill="none" stroke="black" points="322,-170.8 322,-222.8 482,-222.8 482,-170.8 322,-170.8"/>
</g>
<g id="clust5" class="cluster">
<title>cluster_CaptureModule_imports</title>
<polygon fill="none" stroke="black" points="488,-40.8 488,-92.8 769,-92.8 769,-40.8 488,-40.8"/>
</g>
<g id="clust8" class="cluster">
<title>cluster_CaptureModule_providers</title>
<polygon fill="none" stroke="black" points="324,-40.8 324,-92.8 480,-92.8 480,-40.8 324,-40.8"/>
</g>
<g id="clust2" class="cluster">
<title>cluster_CaptureModule_declarations</title>
<polygon fill="none" stroke="black" points="16,-40.8 16,-92.8 316,-92.8 316,-40.8 16,-40.8"/>
</g>
<!-- AccordionComponent -->
<g id="node1" class="node">
<title>AccordionComponent</title>
<polygon fill="#ffffb3" stroke="black" points="308.42,-84.8 167.58,-84.8 167.58,-48.8 308.42,-48.8 308.42,-84.8"/>
<text text-anchor="middle" x="238" y="-62.6" font-family="Times,serif" font-size="14.00">AccordionComponent</text>
</g>
<!-- CaptureModule -->
<g id="node3" class="node">
<title>CaptureModule</title>
<polygon fill="#8dd3c7" stroke="black" points="453.87,-149.8 450.87,-153.8 429.87,-153.8 426.87,-149.8 350.13,-149.8 350.13,-113.8 453.87,-113.8 453.87,-149.8"/>
<text text-anchor="middle" x="402" y="-127.6" font-family="Times,serif" font-size="14.00">CaptureModule</text>
</g>
<!-- AccordionComponent&#45;&gt;CaptureModule -->
<g id="edge1" class="edge">
<title>AccordionComponent&#45;&gt;CaptureModule</title>
<path fill="none" stroke="black" d="M238,-84.82C238,-102.17 238,-125.8 238,-125.8 238,-125.8 340.11,-125.8 340.11,-125.8"/>
<polygon fill="black" stroke="black" points="340.11,-129.3 350.11,-125.8 340.11,-122.3 340.11,-129.3"/>
</g>
<!-- CaptureComponent -->
<g id="node2" class="node">
<title>CaptureComponent</title>
<polygon fill="#ffffb3" stroke="black" points="149.65,-84.8 24.35,-84.8 24.35,-48.8 149.65,-48.8 149.65,-84.8"/>
<text text-anchor="middle" x="87" y="-62.6" font-family="Times,serif" font-size="14.00">CaptureComponent</text>
</g>
<!-- CaptureComponent&#45;&gt;CaptureModule -->
<g id="edge2" class="edge">
<title>CaptureComponent&#45;&gt;CaptureModule</title>
<path fill="none" stroke="black" d="M87,-85.08C87,-106.12 87,-137.8 87,-137.8 87,-137.8 339.98,-137.8 339.98,-137.8"/>
<polygon fill="black" stroke="black" points="339.98,-141.3 349.98,-137.8 339.98,-134.3 339.98,-141.3"/>
</g>
<!-- AccordionComponent  -->
<g id="node6" class="node">
<title>AccordionComponent </title>
<polygon fill="#fb8072" stroke="black" points="473.92,-214.8 330.08,-214.8 330.08,-178.8 473.92,-178.8 473.92,-214.8"/>
<text text-anchor="middle" x="402" y="-192.6" font-family="Times,serif" font-size="14.00">AccordionComponent </text>
</g>
<!-- CaptureModule&#45;&gt;AccordionComponent  -->
<g id="edge5" class="edge">
<title>CaptureModule&#45;&gt;AccordionComponent </title>
<path fill="none" stroke="black" stroke-dasharray="5,2" d="M402,-149.91C402,-149.91 402,-168.79 402,-168.79"/>
<polygon fill="black" stroke="black" points="398.5,-168.79 402,-178.79 405.5,-168.79 398.5,-168.79"/>
</g>
<!-- CaptureRoutingModule -->
<g id="node4" class="node">
<title>CaptureRoutingModule</title>
<polygon fill="#8dd3c7" stroke="black" points="761.49,-84.8 758.49,-88.8 737.49,-88.8 734.49,-84.8 612.51,-84.8 612.51,-48.8 761.49,-48.8 761.49,-84.8"/>
<text text-anchor="middle" x="687" y="-62.6" font-family="Times,serif" font-size="14.00">CaptureRoutingModule</text>
</g>
<!-- CaptureRoutingModule&#45;&gt;CaptureModule -->
<g id="edge3" class="edge">
<title>CaptureRoutingModule&#45;&gt;CaptureModule</title>
<path fill="none" stroke="black" d="M687,-85.08C687,-106.12 687,-137.8 687,-137.8 687,-137.8 463.94,-137.8 463.94,-137.8"/>
<polygon fill="black" stroke="black" points="463.94,-134.3 453.94,-137.8 463.94,-141.3 463.94,-134.3"/>
</g>
<!-- SharedModule -->
<g id="node5" class="node">
<title>SharedModule</title>
<polygon fill="#8dd3c7" stroke="black" points="594.43,-84.8 591.43,-88.8 570.43,-88.8 567.43,-84.8 495.57,-84.8 495.57,-48.8 594.43,-48.8 594.43,-84.8"/>
<text text-anchor="middle" x="545" y="-62.6" font-family="Times,serif" font-size="14.00">SharedModule</text>
</g>
<!-- SharedModule&#45;&gt;CaptureModule -->
<g id="edge4" class="edge">
<title>SharedModule&#45;&gt;CaptureModule</title>
<path fill="none" stroke="black" d="M545,-84.82C545,-102.17 545,-125.8 545,-125.8 545,-125.8 464.03,-125.8 464.03,-125.8"/>
<polygon fill="black" stroke="black" points="464.03,-122.3 454.03,-125.8 464.03,-129.3 464.03,-122.3"/>
</g>
<!-- CameraService -->
<g id="node7" class="node">
<title>CameraService</title>
<ellipse fill="#fdb462" stroke="black" cx="402" cy="-66.8" rx="70.04" ry="18"/>
<text text-anchor="middle" x="402" y="-62.6" font-family="Times,serif" font-size="14.00">CameraService</text>
</g>
<!-- CameraService&#45;&gt;CaptureModule -->
<g id="edge6" class="edge">
<title>CameraService&#45;&gt;CaptureModule</title>
<path fill="none" stroke="black" d="M402,-84.91C402,-84.91 402,-103.79 402,-103.79"/>
<polygon fill="black" stroke="black" points="398.5,-103.79 402,-113.79 405.5,-103.79 398.5,-103.79"/>
</g>
</g>
</svg>
