<?xml version="1.0" encoding="UTF-8" standalone="no"?>
<!DOCTYPE svg PUBLIC "-//W3C//DTD SVG 1.1//EN"
 "http://www.w3.org/Graphics/SVG/1.1/DTD/svg11.dtd">
<!-- Generated by graphviz version 5.0.0 (20220707.1540)
 -->
<!-- Title: dependencies Pages: 1 -->
<svg width="326pt" height="174pt"
 viewBox="0.00 0.00 326.00 173.80" xmlns="http://www.w3.org/2000/svg" xmlns:xlink="http://www.w3.org/1999/xlink">
<g id="graph0" class="graph" transform="scale(1 1) rotate(0) translate(4 169.8)">
<title>dependencies</title>
<polygon fill="white" stroke="transparent" points="-4,4 -4,-169.8 322,-169.8 322,4 -4,4"/>
<text text-anchor="middle" x="159" y="-8.2" font-family="sans-serif" font-size="14.00">dependencies</text>
<g id="clust1" class="cluster">
<title>cluster_PassagesModule</title>
<polygon fill="none" stroke="black" stroke-dasharray="1,5" points="8,-32.8 8,-157.8 310,-157.8 310,-32.8 8,-32.8"/>
</g>
<g id="clust3" class="cluster">
<title>cluster_PassagesModule_imports</title>
<polygon fill="none" stroke="black" points="16,-40.8 16,-92.8 302,-92.8 302,-40.8 16,-40.8"/>
</g>
<!-- PassagesRoutingModule -->
<g id="node1" class="node">
<title>PassagesRoutingModule</title>
<polygon fill="#8dd3c7" stroke="black" points="294.44,-84.8 291.44,-88.8 270.44,-88.8 267.44,-84.8 139.56,-84.8 139.56,-48.8 294.44,-48.8 294.44,-84.8"/>
<text text-anchor="middle" x="217" y="-62.6" font-family="Times,serif" font-size="14.00">PassagesRoutingModule</text>
</g>
<!-- PassagesModule -->
<g id="node3" class="node">
<title>PassagesModule</title>
<polygon fill="#8dd3c7" stroke="black" points="199.82,-149.8 196.82,-153.8 175.82,-153.8 172.82,-149.8 90.18,-149.8 90.18,-113.8 199.82,-113.8 199.82,-149.8"/>
<text text-anchor="middle" x="145" y="-127.6" font-family="Times,serif" font-size="14.00">PassagesModule</text>
</g>
<!-- PassagesRoutingModule&#45;&gt;PassagesModule -->
<g id="edge1" class="edge">
<title>PassagesRoutingModule&#45;&gt;PassagesModule</title>
<path fill="none" stroke="black" d="M169.72,-84.91C169.72,-84.91 169.72,-103.79 169.72,-103.79"/>
<polygon fill="black" stroke="black" points="166.22,-103.79 169.72,-113.79 173.22,-103.79 166.22,-103.79"/>
</g>
<!-- SharedModule -->
<g id="node2" class="node">
<title>SharedModule</title>
<polygon fill="#8dd3c7" stroke="black" points="122.43,-84.8 119.43,-88.8 98.43,-88.8 95.43,-84.8 23.57,-84.8 23.57,-48.8 122.43,-48.8 122.43,-84.8"/>
<text text-anchor="middle" x="73" y="-62.6" font-family="Times,serif" font-size="14.00">SharedModule</text>
</g>
<!-- SharedModule&#45;&gt;PassagesModule -->
<g id="edge2" class="edge">
<title>SharedModule&#45;&gt;PassagesModule</title>
<path fill="none" stroke="black" d="M106.28,-84.91C106.28,-84.91 106.28,-103.79 106.28,-103.79"/>
<polygon fill="black" stroke="black" points="102.78,-103.79 106.28,-113.79 109.78,-103.79 102.78,-103.79"/>
</g>
</g>
</svg>
