<?xml version="1.0" encoding="UTF-8" standalone="no"?>
<!DOCTYPE svg PUBLIC "-//W3C//DTD SVG 1.1//EN"
 "http://www.w3.org/Graphics/SVG/1.1/DTD/svg11.dtd">
<!-- Generated by graphviz version 5.0.0 (20220707.1540)
 -->
<!-- Title: dependencies Pages: 1 -->
<svg width="2607pt" height="247pt"
 viewBox="0.00 0.00 2607.00 246.80" xmlns="http://www.w3.org/2000/svg" xmlns:xlink="http://www.w3.org/1999/xlink">
<g id="graph0" class="graph" transform="scale(1 1) rotate(0) translate(4 242.8)">
<title>dependencies</title>
<polygon fill="white" stroke="transparent" points="-4,4 -4,-242.8 2603,-242.8 2603,4 -4,4"/>
<text text-anchor="middle" x="1299.5" y="-8.2" font-family="sans-serif" font-size="14.00">dependencies</text>
<g id="clust1" class="cluster">
<title>cluster_AppModule</title>
<polygon fill="none" stroke="black" stroke-dasharray="1,5" points="8,-32.8 8,-230.8 2591,-230.8 2591,-32.8 8,-32.8"/>
</g>
<g id="clust16" class="cluster">
<title>cluster_AppModule_bootstrap</title>
<polygon fill="none" stroke="black" points="1235,-170.8 1235,-222.8 1359,-222.8 1359,-170.8 1235,-170.8"/>
</g>
<g id="clust17" class="cluster">
<title>cluster_AppModule_providers</title>
<polygon fill="none" stroke="black" points="2026,-40.8 2026,-92.8 2583,-92.8 2583,-40.8 2026,-40.8"/>
</g>
<g id="clust14" class="cluster">
<title>cluster_AppModule_imports</title>
<polygon fill="none" stroke="black" points="1757,-40.8 1757,-92.8 2018,-92.8 2018,-40.8 1757,-40.8"/>
</g>
<g id="clust2" class="cluster">
<title>cluster_AppModule_declarations</title>
<polygon fill="none" stroke="black" points="16,-40.8 16,-92.8 1749,-92.8 1749,-40.8 16,-40.8"/>
</g>
<!-- AppComponent -->
<g id="node1" class="node">
<title>AppComponent</title>
<polygon fill="#ffffb3" stroke="black" points="1740.94,-84.8 1635.06,-84.8 1635.06,-48.8 1740.94,-48.8 1740.94,-84.8"/>
<text text-anchor="middle" x="1688" y="-62.6" font-family="Times,serif" font-size="14.00">AppComponent</text>
</g>
<!-- AppModule -->
<g id="node12" class="node">
<title>AppModule</title>
<polygon fill="#8dd3c7" stroke="black" points="1338.66,-149.8 1335.66,-153.8 1314.66,-153.8 1311.66,-149.8 1255.34,-149.8 1255.34,-113.8 1338.66,-113.8 1338.66,-149.8"/>
<text text-anchor="middle" x="1297" y="-127.6" font-family="Times,serif" font-size="14.00">AppModule</text>
</g>
<!-- AppComponent&#45;&gt;AppModule -->
<g id="edge1" class="edge">
<title>AppComponent&#45;&gt;AppModule</title>
<path fill="none" stroke="black" d="M1688,-84.83C1688,-101.2 1688,-122.8 1688,-122.8 1688,-122.8 1348.84,-122.8 1348.84,-122.8"/>
<polygon fill="black" stroke="black" points="1348.84,-119.3 1338.84,-122.8 1348.84,-126.3 1348.84,-119.3"/>
</g>
<!-- BottomNavComponent -->
<g id="node2" class="node">
<title>BottomNavComponent</title>
<polygon fill="#ffffb3" stroke="black" points="1617.16,-84.8 1470.84,-84.8 1470.84,-48.8 1617.16,-48.8 1617.16,-84.8"/>
<text text-anchor="middle" x="1544" y="-62.6" font-family="Times,serif" font-size="14.00">BottomNavComponent</text>
</g>
<!-- BottomNavComponent&#45;&gt;AppModule -->
<g id="edge2" class="edge">
<title>BottomNavComponent&#45;&gt;AppModule</title>
<path fill="none" stroke="black" d="M1544,-84.99C1544,-99.98 1544,-118.8 1544,-118.8 1544,-118.8 1348.9,-118.8 1348.9,-118.8"/>
<polygon fill="black" stroke="black" points="1348.9,-115.3 1338.9,-118.8 1348.9,-122.3 1348.9,-115.3"/>
</g>
<!-- DashboardComponent -->
<g id="node3" class="node">
<title>DashboardComponent</title>
<polygon fill="#ffffb3" stroke="black" points="1452.98,-84.8 1311.02,-84.8 1311.02,-48.8 1452.98,-48.8 1452.98,-84.8"/>
<text text-anchor="middle" x="1382" y="-62.6" font-family="Times,serif" font-size="14.00">DashboardComponent</text>
</g>
<!-- DashboardComponent&#45;&gt;AppModule -->
<g id="edge3" class="edge">
<title>DashboardComponent&#45;&gt;AppModule</title>
<path fill="none" stroke="black" d="M1324.92,-84.91C1324.92,-84.91 1324.92,-103.79 1324.92,-103.79"/>
<polygon fill="black" stroke="black" points="1321.42,-103.79 1324.92,-113.79 1328.42,-103.79 1321.42,-103.79"/>
</g>
<!-- FloatingMenuComponent -->
<g id="node4" class="node">
<title>FloatingMenuComponent</title>
<polygon fill="#ffffb3" stroke="black" points="1293.16,-84.8 1132.84,-84.8 1132.84,-48.8 1293.16,-48.8 1293.16,-84.8"/>
<text text-anchor="middle" x="1213" y="-62.6" font-family="Times,serif" font-size="14.00">FloatingMenuComponent</text>
</g>
<!-- FloatingMenuComponent&#45;&gt;AppModule -->
<g id="edge4" class="edge">
<title>FloatingMenuComponent&#45;&gt;AppModule</title>
<path fill="none" stroke="black" d="M1274.25,-84.91C1274.25,-84.91 1274.25,-103.79 1274.25,-103.79"/>
<polygon fill="black" stroke="black" points="1270.75,-103.79 1274.25,-113.79 1277.75,-103.79 1270.75,-103.79"/>
</g>
<!-- LoadingComponent -->
<g id="node5" class="node">
<title>LoadingComponent</title>
<polygon fill="#ffffb3" stroke="black" points="1114.99,-84.8 987.01,-84.8 987.01,-48.8 1114.99,-48.8 1114.99,-84.8"/>
<text text-anchor="middle" x="1051" y="-62.6" font-family="Times,serif" font-size="14.00">LoadingComponent</text>
</g>
<!-- LoadingComponent&#45;&gt;AppModule -->
<g id="edge5" class="edge">
<title>LoadingComponent&#45;&gt;AppModule</title>
<path fill="none" stroke="black" d="M1051,-84.99C1051,-99.98 1051,-118.8 1051,-118.8 1051,-118.8 1245.27,-118.8 1245.27,-118.8"/>
<polygon fill="black" stroke="black" points="1245.27,-122.3 1255.27,-118.8 1245.27,-115.3 1245.27,-122.3"/>
</g>
<!-- LoadingOverlayComponent -->
<g id="node6" class="node">
<title>LoadingOverlayComponent</title>
<polygon fill="#ffffb3" stroke="black" points="968.58,-84.8 795.42,-84.8 795.42,-48.8 968.58,-48.8 968.58,-84.8"/>
<text text-anchor="middle" x="882" y="-62.6" font-family="Times,serif" font-size="14.00">LoadingOverlayComponent</text>
</g>
<!-- LoadingOverlayComponent&#45;&gt;AppModule -->
<g id="edge6" class="edge">
<title>LoadingOverlayComponent&#45;&gt;AppModule</title>
<path fill="none" stroke="black" d="M882,-84.83C882,-101.2 882,-122.8 882,-122.8 882,-122.8 1245.31,-122.8 1245.31,-122.8"/>
<polygon fill="black" stroke="black" points="1245.31,-126.3 1255.31,-122.8 1245.31,-119.3 1245.31,-126.3"/>
</g>
<!-- LoginRegisterComponent -->
<g id="node7" class="node">
<title>LoginRegisterComponent</title>
<polygon fill="#ffffb3" stroke="black" points="777.93,-84.8 616.07,-84.8 616.07,-48.8 777.93,-48.8 777.93,-84.8"/>
<text text-anchor="middle" x="697" y="-62.6" font-family="Times,serif" font-size="14.00">LoginRegisterComponent</text>
</g>
<!-- LoginRegisterComponent&#45;&gt;AppModule -->
<g id="edge7" class="edge">
<title>LoginRegisterComponent&#45;&gt;AppModule</title>
<path fill="none" stroke="black" d="M697,-85.1C697,-103.07 697,-127.8 697,-127.8 697,-127.8 1245.29,-127.8 1245.29,-127.8"/>
<polygon fill="black" stroke="black" points="1245.29,-131.3 1255.29,-127.8 1245.29,-124.3 1245.29,-131.3"/>
</g>
<!-- OverlayComponent -->
<g id="node8" class="node">
<title>OverlayComponent</title>
<polygon fill="#ffffb3" stroke="black" points="598.42,-84.8 471.58,-84.8 471.58,-48.8 598.42,-48.8 598.42,-84.8"/>
<text text-anchor="middle" x="535" y="-62.6" font-family="Times,serif" font-size="14.00">OverlayComponent</text>
</g>
<!-- OverlayComponent&#45;&gt;AppModule -->
<g id="edge8" class="edge">
<title>OverlayComponent&#45;&gt;AppModule</title>
<path fill="none" stroke="black" d="M535,-84.91C535,-104.14 535,-131.8 535,-131.8 535,-131.8 1245.22,-131.8 1245.22,-131.8"/>
<polygon fill="black" stroke="black" points="1245.22,-135.3 1255.22,-131.8 1245.22,-128.3 1245.22,-135.3"/>
</g>
<!-- PassagesComponent -->
<g id="node9" class="node">
<title>PassagesComponent</title>
<polygon fill="#ffffb3" stroke="black" points="453.6,-84.8 322.4,-84.8 322.4,-48.8 453.6,-48.8 453.6,-84.8"/>
<text text-anchor="middle" x="388" y="-62.6" font-family="Times,serif" font-size="14.00">PassagesComponent</text>
</g>
<!-- PassagesComponent&#45;&gt;AppModule -->
<g id="edge9" class="edge">
<title>PassagesComponent&#45;&gt;AppModule</title>
<path fill="none" stroke="black" d="M388,-84.83C388,-105.57 388,-136.8 388,-136.8 388,-136.8 1245.28,-136.8 1245.28,-136.8"/>
<polygon fill="black" stroke="black" points="1245.28,-140.3 1255.28,-136.8 1245.28,-133.3 1245.28,-140.3"/>
</g>
<!-- StatusBarComponent -->
<g id="node10" class="node">
<title>StatusBarComponent</title>
<polygon fill="#ffffb3" stroke="black" points="304.77,-84.8 169.23,-84.8 169.23,-48.8 304.77,-48.8 304.77,-84.8"/>
<text text-anchor="middle" x="237" y="-62.6" font-family="Times,serif" font-size="14.00">StatusBarComponent</text>
</g>
<!-- StatusBarComponent&#45;&gt;AppModule -->
<g id="edge10" class="edge">
<title>StatusBarComponent&#45;&gt;AppModule</title>
<path fill="none" stroke="black" d="M237,-85.09C237,-107.01 237,-140.8 237,-140.8 237,-140.8 1245.12,-140.8 1245.12,-140.8"/>
<polygon fill="black" stroke="black" points="1245.12,-144.3 1255.12,-140.8 1245.12,-137.3 1245.12,-144.3"/>
</g>
<!-- TopNavComponent -->
<g id="node11" class="node">
<title>TopNavComponent</title>
<polygon fill="#ffffb3" stroke="black" points="151.71,-84.8 24.29,-84.8 24.29,-48.8 151.71,-48.8 151.71,-84.8"/>
<text text-anchor="middle" x="88" y="-62.6" font-family="Times,serif" font-size="14.00">TopNavComponent</text>
</g>
<!-- TopNavComponent&#45;&gt;AppModule -->
<g id="edge11" class="edge">
<title>TopNavComponent&#45;&gt;AppModule</title>
<path fill="none" stroke="black" d="M88,-85.12C88,-108.46 88,-145.8 88,-145.8 88,-145.8 1245.03,-145.8 1245.03,-145.8"/>
<polygon fill="black" stroke="black" points="1245.03,-149.3 1255.03,-145.8 1245.03,-142.3 1245.03,-149.3"/>
</g>
<!-- AppComponent  -->
<g id="node15" class="node">
<title>AppComponent </title>
<polygon fill="#80b1d3" stroke="black" points="1351.44,-214.8 1242.56,-214.8 1242.56,-178.8 1351.44,-178.8 1351.44,-214.8"/>
<text text-anchor="middle" x="1297" y="-192.6" font-family="Times,serif" font-size="14.00">AppComponent </text>
</g>
<!-- AppModule&#45;&gt;AppComponent  -->
<g id="edge14" class="edge">
<title>AppModule&#45;&gt;AppComponent </title>
<path fill="none" stroke="black" stroke-dasharray="1,5" d="M1297,-149.91C1297,-149.91 1297,-168.79 1297,-168.79"/>
<polygon fill="black" stroke="black" points="1293.5,-168.79 1297,-178.79 1300.5,-168.79 1293.5,-168.79"/>
</g>
<!-- AppRoutingModule -->
<g id="node13" class="node">
<title>AppRoutingModule</title>
<polygon fill="#8dd3c7" stroke="black" points="2010.28,-84.8 2007.28,-88.8 1986.28,-88.8 1983.28,-84.8 1881.72,-84.8 1881.72,-48.8 2010.28,-48.8 2010.28,-84.8"/>
<text text-anchor="middle" x="1946" y="-62.6" font-family="Times,serif" font-size="14.00">AppRoutingModule</text>
</g>
<!-- AppRoutingModule&#45;&gt;AppModule -->
<g id="edge12" class="edge">
<title>AppRoutingModule&#45;&gt;AppModule</title>
<path fill="none" stroke="black" d="M1946,-84.91C1946,-104.14 1946,-131.8 1946,-131.8 1946,-131.8 1349.08,-131.8 1349.08,-131.8"/>
<polygon fill="black" stroke="black" points="1349.08,-128.3 1339.08,-131.8 1349.08,-135.3 1349.08,-128.3"/>
</g>
<!-- SharedModule -->
<g id="node14" class="node">
<title>SharedModule</title>
<polygon fill="#8dd3c7" stroke="black" points="1863.43,-84.8 1860.43,-88.8 1839.43,-88.8 1836.43,-84.8 1764.57,-84.8 1764.57,-48.8 1863.43,-48.8 1863.43,-84.8"/>
<text text-anchor="middle" x="1814" y="-62.6" font-family="Times,serif" font-size="14.00">SharedModule</text>
</g>
<!-- SharedModule&#45;&gt;AppModule -->
<g id="edge13" class="edge">
<title>SharedModule&#45;&gt;AppModule</title>
<path fill="none" stroke="black" d="M1814,-85.1C1814,-103.07 1814,-127.8 1814,-127.8 1814,-127.8 1348.87,-127.8 1348.87,-127.8"/>
<polygon fill="black" stroke="black" points="1348.87,-124.3 1338.87,-127.8 1348.87,-131.3 1348.87,-124.3"/>
</g>
<!-- FloatingMenuService -->
<g id="node16" class="node">
<title>FloatingMenuService</title>
<ellipse fill="#fdb462" stroke="black" cx="2480" cy="-66.8" rx="94.93" ry="18"/>
<text text-anchor="middle" x="2480" y="-62.6" font-family="Times,serif" font-size="14.00">FloatingMenuService</text>
</g>
<!-- FloatingMenuService&#45;&gt;AppModule -->
<g id="edge15" class="edge">
<title>FloatingMenuService&#45;&gt;AppModule</title>
<path fill="none" stroke="black" d="M2480,-85.12C2480,-108.46 2480,-145.8 2480,-145.8 2480,-145.8 1348.76,-145.8 1348.76,-145.8"/>
<polygon fill="black" stroke="black" points="1348.76,-142.3 1338.76,-145.8 1348.76,-149.3 1348.76,-142.3"/>
</g>
<!-- LoadingOverlayService -->
<g id="node17" class="node">
<title>LoadingOverlayService</title>
<ellipse fill="#fdb462" stroke="black" cx="2264" cy="-66.8" rx="103.06" ry="18"/>
<text text-anchor="middle" x="2264" y="-62.6" font-family="Times,serif" font-size="14.00">LoadingOverlayService</text>
</g>
<!-- LoadingOverlayService&#45;&gt;AppModule -->
<g id="edge16" class="edge">
<title>LoadingOverlayService&#45;&gt;AppModule</title>
<path fill="none" stroke="black" d="M2264,-85.09C2264,-107.01 2264,-140.8 2264,-140.8 2264,-140.8 1348.86,-140.8 1348.86,-140.8"/>
<polygon fill="black" stroke="black" points="1348.86,-137.3 1338.86,-140.8 1348.86,-144.3 1348.86,-137.3"/>
</g>
<!-- OcrService -->
<g id="node18" class="node">
<title>OcrService</title>
<ellipse fill="#fdb462" stroke="black" cx="2088" cy="-66.8" rx="54.44" ry="18"/>
<text text-anchor="middle" x="2088" y="-62.6" font-family="Times,serif" font-size="14.00">OcrService</text>
</g>
<!-- OcrService&#45;&gt;AppModule -->
<g id="edge17" class="edge">
<title>OcrService&#45;&gt;AppModule</title>
<path fill="none" stroke="black" d="M2088,-84.83C2088,-105.57 2088,-136.8 2088,-136.8 2088,-136.8 1348.69,-136.8 1348.69,-136.8"/>
<polygon fill="black" stroke="black" points="1348.69,-133.3 1338.69,-136.8 1348.69,-140.3 1348.69,-133.3"/>
</g>
</g>
</svg>
