<?xml version="1.0" encoding="UTF-8" standalone="no"?>
<!DOCTYPE svg PUBLIC "-//W3C//DTD SVG 1.1//EN"
 "http://www.w3.org/Graphics/SVG/1.1/DTD/svg11.dtd">
<!-- Generated by graphviz version 5.0.0 (20220707.1540)
 -->
<!-- Title: dependencies Pages: 1 -->
<svg width="1382pt" height="247pt"
 viewBox="0.00 0.00 1382.00 246.80" xmlns="http://www.w3.org/2000/svg" xmlns:xlink="http://www.w3.org/1999/xlink">
<g id="graph0" class="graph" transform="scale(1 1) rotate(0) translate(4 242.8)">
<title>dependencies</title>
<polygon fill="white" stroke="transparent" points="-4,4 -4,-242.8 1378,-242.8 1378,4 -4,4"/>
<text text-anchor="middle" x="687" y="-8.2" font-family="sans-serif" font-size="14.00">dependencies</text>
<g id="clust1" class="cluster">
<title>cluster_AppModule</title>
<polygon fill="none" stroke="black" stroke-dasharray="1,5" points="8,-32.8 8,-230.8 1366,-230.8 1366,-32.8 8,-32.8"/>
</g>
<g id="clust12" class="cluster">
<title>cluster_AppModule_bootstrap</title>
<polygon fill="none" stroke="black" points="595,-170.8 595,-222.8 719,-222.8 719,-170.8 595,-170.8"/>
</g>
<g id="clust2" class="cluster">
<title>cluster_AppModule_declarations</title>
<polygon fill="none" stroke="black" points="285,-40.8 285,-92.8 1358,-92.8 1358,-40.8 285,-40.8"/>
</g>
<g id="clust10" class="cluster">
<title>cluster_AppModule_imports</title>
<polygon fill="none" stroke="black" points="16,-40.8 16,-92.8 277,-92.8 277,-40.8 16,-40.8"/>
</g>
<!-- AppComponent -->
<g id="node1" class="node">
<title>AppComponent</title>
<polygon fill="#ffffb3" stroke="black" points="1349.94,-84.8 1244.06,-84.8 1244.06,-48.8 1349.94,-48.8 1349.94,-84.8"/>
<text text-anchor="middle" x="1297" y="-62.6" font-family="Times,serif" font-size="14.00">AppComponent</text>
</g>
<!-- AppModule -->
<g id="node8" class="node">
<title>AppModule</title>
<polygon fill="#8dd3c7" stroke="black" points="698.66,-149.8 695.66,-153.8 674.66,-153.8 671.66,-149.8 615.34,-149.8 615.34,-113.8 698.66,-113.8 698.66,-149.8"/>
<text text-anchor="middle" x="657" y="-127.6" font-family="Times,serif" font-size="14.00">AppModule</text>
</g>
<!-- AppComponent&#45;&gt;AppModule -->
<g id="edge1" class="edge">
<title>AppComponent&#45;&gt;AppModule</title>
<path fill="none" stroke="black" d="M1297,-84.81C1297,-107.29 1297,-142.8 1297,-142.8 1297,-142.8 708.99,-142.8 708.99,-142.8"/>
<polygon fill="black" stroke="black" points="708.99,-139.3 698.99,-142.8 708.99,-146.3 708.99,-139.3"/>
</g>
<!-- BottomNavComponent -->
<g id="node2" class="node">
<title>BottomNavComponent</title>
<polygon fill="#ffffb3" stroke="black" points="1226.16,-84.8 1079.84,-84.8 1079.84,-48.8 1226.16,-48.8 1226.16,-84.8"/>
<text text-anchor="middle" x="1153" y="-62.6" font-family="Times,serif" font-size="14.00">BottomNavComponent</text>
</g>
<!-- BottomNavComponent&#45;&gt;AppModule -->
<g id="edge2" class="edge">
<title>BottomNavComponent&#45;&gt;AppModule</title>
<path fill="none" stroke="black" d="M1153,-84.93C1153,-105.37 1153,-135.8 1153,-135.8 1153,-135.8 708.86,-135.8 708.86,-135.8"/>
<polygon fill="black" stroke="black" points="708.86,-132.3 698.86,-135.8 708.86,-139.3 708.86,-132.3"/>
</g>
<!-- DashboardComponent -->
<g id="node3" class="node">
<title>DashboardComponent</title>
<polygon fill="#ffffb3" stroke="black" points="1061.98,-84.8 920.02,-84.8 920.02,-48.8 1061.98,-48.8 1061.98,-84.8"/>
<text text-anchor="middle" x="991" y="-62.6" font-family="Times,serif" font-size="14.00">DashboardComponent</text>
</g>
<!-- DashboardComponent&#45;&gt;AppModule -->
<g id="edge3" class="edge">
<title>DashboardComponent&#45;&gt;AppModule</title>
<path fill="none" stroke="black" d="M991,-85.07C991,-103.36 991,-128.8 991,-128.8 991,-128.8 708.96,-128.8 708.96,-128.8"/>
<polygon fill="black" stroke="black" points="708.96,-125.3 698.96,-128.8 708.96,-132.3 708.96,-125.3"/>
</g>
<!-- LoginRegisterComponent -->
<g id="node4" class="node">
<title>LoginRegisterComponent</title>
<polygon fill="#ffffb3" stroke="black" points="901.93,-84.8 740.07,-84.8 740.07,-48.8 901.93,-48.8 901.93,-84.8"/>
<text text-anchor="middle" x="821" y="-62.6" font-family="Times,serif" font-size="14.00">LoginRegisterComponent</text>
</g>
<!-- LoginRegisterComponent&#45;&gt;AppModule -->
<g id="edge4" class="edge">
<title>LoginRegisterComponent&#45;&gt;AppModule</title>
<path fill="none" stroke="black" d="M821,-84.81C821,-100.85 821,-121.8 821,-121.8 821,-121.8 708.81,-121.8 708.81,-121.8"/>
<polygon fill="black" stroke="black" points="708.81,-118.3 698.81,-121.8 708.81,-125.3 708.81,-118.3"/>
</g>
<!-- PassagesComponent -->
<g id="node5" class="node">
<title>PassagesComponent</title>
<polygon fill="#ffffb3" stroke="black" points="722.6,-84.8 591.4,-84.8 591.4,-48.8 722.6,-48.8 722.6,-84.8"/>
<text text-anchor="middle" x="657" y="-62.6" font-family="Times,serif" font-size="14.00">PassagesComponent</text>
</g>
<!-- PassagesComponent&#45;&gt;AppModule -->
<g id="edge5" class="edge">
<title>PassagesComponent&#45;&gt;AppModule</title>
<path fill="none" stroke="black" d="M657,-84.91C657,-84.91 657,-103.79 657,-103.79"/>
<polygon fill="black" stroke="black" points="653.5,-103.79 657,-113.79 660.5,-103.79 653.5,-103.79"/>
</g>
<!-- StatusBarComponent -->
<g id="node6" class="node">
<title>StatusBarComponent</title>
<polygon fill="#ffffb3" stroke="black" points="573.77,-84.8 438.23,-84.8 438.23,-48.8 573.77,-48.8 573.77,-84.8"/>
<text text-anchor="middle" x="506" y="-62.6" font-family="Times,serif" font-size="14.00">StatusBarComponent</text>
</g>
<!-- StatusBarComponent&#45;&gt;AppModule -->
<g id="edge6" class="edge">
<title>StatusBarComponent&#45;&gt;AppModule</title>
<path fill="none" stroke="black" d="M506,-84.81C506,-100.85 506,-121.8 506,-121.8 506,-121.8 604.94,-121.8 604.94,-121.8"/>
<polygon fill="black" stroke="black" points="604.94,-125.3 614.94,-121.8 604.94,-118.3 604.94,-125.3"/>
</g>
<!-- TopNavComponent -->
<g id="node7" class="node">
<title>TopNavComponent</title>
<polygon fill="#ffffb3" stroke="black" points="420.71,-84.8 293.29,-84.8 293.29,-48.8 420.71,-48.8 420.71,-84.8"/>
<text text-anchor="middle" x="357" y="-62.6" font-family="Times,serif" font-size="14.00">TopNavComponent</text>
</g>
<!-- TopNavComponent&#45;&gt;AppModule -->
<g id="edge7" class="edge">
<title>TopNavComponent&#45;&gt;AppModule</title>
<path fill="none" stroke="black" d="M357,-85.07C357,-103.36 357,-128.8 357,-128.8 357,-128.8 605.29,-128.8 605.29,-128.8"/>
<polygon fill="black" stroke="black" points="605.29,-132.3 615.29,-128.8 605.29,-125.3 605.29,-132.3"/>
</g>
<!-- AppComponent  -->
<g id="node11" class="node">
<title>AppComponent </title>
<polygon fill="#80b1d3" stroke="black" points="711.44,-214.8 602.56,-214.8 602.56,-178.8 711.44,-178.8 711.44,-214.8"/>
<text text-anchor="middle" x="657" y="-192.6" font-family="Times,serif" font-size="14.00">AppComponent </text>
</g>
<!-- AppModule&#45;&gt;AppComponent  -->
<g id="edge10" class="edge">
<title>AppModule&#45;&gt;AppComponent </title>
<path fill="none" stroke="black" stroke-dasharray="1,5" d="M657,-149.91C657,-149.91 657,-168.79 657,-168.79"/>
<polygon fill="black" stroke="black" points="653.5,-168.79 657,-178.79 660.5,-168.79 653.5,-168.79"/>
</g>
<!-- AppRoutingModule -->
<g id="node9" class="node">
<title>AppRoutingModule</title>
<polygon fill="#8dd3c7" stroke="black" points="269.28,-84.8 266.28,-88.8 245.28,-88.8 242.28,-84.8 140.72,-84.8 140.72,-48.8 269.28,-48.8 269.28,-84.8"/>
<text text-anchor="middle" x="205" y="-62.6" font-family="Times,serif" font-size="14.00">AppRoutingModule</text>
</g>
<!-- AppRoutingModule&#45;&gt;AppModule -->
<g id="edge8" class="edge">
<title>AppRoutingModule&#45;&gt;AppModule</title>
<path fill="none" stroke="black" d="M205,-84.93C205,-105.37 205,-135.8 205,-135.8 205,-135.8 605.29,-135.8 605.29,-135.8"/>
<polygon fill="black" stroke="black" points="605.29,-139.3 615.29,-135.8 605.29,-132.3 605.29,-139.3"/>
</g>
<!-- SharedModule -->
<g id="node10" class="node">
<title>SharedModule</title>
<polygon fill="#8dd3c7" stroke="black" points="122.43,-84.8 119.43,-88.8 98.43,-88.8 95.43,-84.8 23.57,-84.8 23.57,-48.8 122.43,-48.8 122.43,-84.8"/>
<text text-anchor="middle" x="73" y="-62.6" font-family="Times,serif" font-size="14.00">SharedModule</text>
</g>
<!-- SharedModule&#45;&gt;AppModule -->
<g id="edge9" class="edge">
<title>SharedModule&#45;&gt;AppModule</title>
<path fill="none" stroke="black" d="M73,-84.81C73,-107.29 73,-142.8 73,-142.8 73,-142.8 605,-142.8 605,-142.8"/>
<polygon fill="black" stroke="black" points="605,-146.3 615,-142.8 605,-139.3 605,-146.3"/>
</g>
</g>
</svg>
