<?xml version="1.0" encoding="UTF-8" standalone="no"?>
<!DOCTYPE svg PUBLIC "-//W3C//DTD SVG 1.1//EN"
 "http://www.w3.org/Graphics/SVG/1.1/DTD/svg11.dtd">
<!-- Generated by graphviz version 5.0.0 (20220707.1540)
 -->
<!-- Title: dependencies Pages: 1 -->
<svg width="1517pt" height="247pt"
 viewBox="0.00 0.00 1517.00 246.80" xmlns="http://www.w3.org/2000/svg" xmlns:xlink="http://www.w3.org/1999/xlink">
<g id="graph0" class="graph" transform="scale(1 1) rotate(0) translate(4 242.8)">
<title>dependencies</title>
<polygon fill="white" stroke="transparent" points="-4,4 -4,-242.8 1513,-242.8 1513,4 -4,4"/>
<text text-anchor="middle" x="754.5" y="-8.2" font-family="sans-serif" font-size="14.00">dependencies</text>
<g id="clust1" class="cluster">
<title>cluster_AppModule</title>
<polygon fill="none" stroke="black" stroke-dasharray="1,5" points="8,-32.8 8,-230.8 1501,-230.8 1501,-32.8 8,-32.8"/>
</g>
<g id="clust11" class="cluster">
<title>cluster_AppModule_imports</title>
<polygon fill="none" stroke="black" points="1232,-40.8 1232,-92.8 1493,-92.8 1493,-40.8 1232,-40.8"/>
</g>
<g id="clust2" class="cluster">
<title>cluster_AppModule_declarations</title>
<polygon fill="none" stroke="black" points="16,-40.8 16,-92.8 1224,-92.8 1224,-40.8 16,-40.8"/>
</g>
<g id="clust13" class="cluster">
<title>cluster_AppModule_bootstrap</title>
<polygon fill="none" stroke="black" points="741,-170.8 741,-222.8 865,-222.8 865,-170.8 741,-170.8"/>
</g>
<!-- AppComponent -->
<g id="node1" class="node">
<title>AppComponent</title>
<polygon fill="#ffffb3" stroke="black" points="1215.94,-84.8 1110.06,-84.8 1110.06,-48.8 1215.94,-48.8 1215.94,-84.8"/>
<text text-anchor="middle" x="1163" y="-62.6" font-family="Times,serif" font-size="14.00">AppComponent</text>
</g>
<!-- AppModule -->
<g id="node9" class="node">
<title>AppModule</title>
<polygon fill="#8dd3c7" stroke="black" points="844.66,-149.8 841.66,-153.8 820.66,-153.8 817.66,-149.8 761.34,-149.8 761.34,-113.8 844.66,-113.8 844.66,-149.8"/>
<text text-anchor="middle" x="803" y="-127.6" font-family="Times,serif" font-size="14.00">AppModule</text>
</g>
<!-- AppComponent&#45;&gt;AppModule -->
<g id="edge1" class="edge">
<title>AppComponent&#45;&gt;AppModule</title>
<path fill="none" stroke="black" d="M1163,-85.07C1163,-103.36 1163,-128.8 1163,-128.8 1163,-128.8 855,-128.8 855,-128.8"/>
<polygon fill="black" stroke="black" points="855,-125.3 845,-128.8 855,-132.3 855,-125.3"/>
</g>
<!-- BooksComponent -->
<g id="node2" class="node">
<title>BooksComponent</title>
<polygon fill="#ffffb3" stroke="black" points="1092.62,-84.8 975.38,-84.8 975.38,-48.8 1092.62,-48.8 1092.62,-84.8"/>
<text text-anchor="middle" x="1034" y="-62.6" font-family="Times,serif" font-size="14.00">BooksComponent</text>
</g>
<!-- BooksComponent&#45;&gt;AppModule -->
<g id="edge2" class="edge">
<title>BooksComponent&#45;&gt;AppModule</title>
<path fill="none" stroke="black" d="M1034,-84.81C1034,-100.85 1034,-121.8 1034,-121.8 1034,-121.8 854.83,-121.8 854.83,-121.8"/>
<polygon fill="black" stroke="black" points="854.83,-118.3 844.83,-121.8 854.83,-125.3 854.83,-118.3"/>
</g>
<!-- BottomNavComponent -->
<g id="node3" class="node">
<title>BottomNavComponent</title>
<polygon fill="#ffffb3" stroke="black" points="957.16,-84.8 810.84,-84.8 810.84,-48.8 957.16,-48.8 957.16,-84.8"/>
<text text-anchor="middle" x="884" y="-62.6" font-family="Times,serif" font-size="14.00">BottomNavComponent</text>
</g>
<!-- BottomNavComponent&#45;&gt;AppModule -->
<g id="edge3" class="edge">
<title>BottomNavComponent&#45;&gt;AppModule</title>
<path fill="none" stroke="black" d="M827.75,-84.91C827.75,-84.91 827.75,-103.79 827.75,-103.79"/>
<polygon fill="black" stroke="black" points="824.25,-103.79 827.75,-113.79 831.25,-103.79 824.25,-103.79"/>
</g>
<!-- DashboardComponent -->
<g id="node4" class="node">
<title>DashboardComponent</title>
<polygon fill="#ffffb3" stroke="black" points="792.98,-84.8 651.02,-84.8 651.02,-48.8 792.98,-48.8 792.98,-84.8"/>
<text text-anchor="middle" x="722" y="-62.6" font-family="Times,serif" font-size="14.00">DashboardComponent</text>
</g>
<!-- DashboardComponent&#45;&gt;AppModule -->
<g id="edge4" class="edge">
<title>DashboardComponent&#45;&gt;AppModule</title>
<path fill="none" stroke="black" d="M777.08,-84.91C777.08,-84.91 777.08,-103.79 777.08,-103.79"/>
<polygon fill="black" stroke="black" points="773.58,-103.79 777.08,-113.79 780.58,-103.79 773.58,-103.79"/>
</g>
<!-- LoginRegisterComponent -->
<g id="node5" class="node">
<title>LoginRegisterComponent</title>
<polygon fill="#ffffb3" stroke="black" points="632.93,-84.8 471.07,-84.8 471.07,-48.8 632.93,-48.8 632.93,-84.8"/>
<text text-anchor="middle" x="552" y="-62.6" font-family="Times,serif" font-size="14.00">LoginRegisterComponent</text>
</g>
<!-- LoginRegisterComponent&#45;&gt;AppModule -->
<g id="edge5" class="edge">
<title>LoginRegisterComponent&#45;&gt;AppModule</title>
<path fill="none" stroke="black" d="M552,-84.81C552,-100.85 552,-121.8 552,-121.8 552,-121.8 751.27,-121.8 751.27,-121.8"/>
<polygon fill="black" stroke="black" points="751.27,-125.3 761.27,-121.8 751.27,-118.3 751.27,-125.3"/>
</g>
<!-- PassagesComponent -->
<g id="node6" class="node">
<title>PassagesComponent</title>
<polygon fill="#ffffb3" stroke="black" points="453.6,-84.8 322.4,-84.8 322.4,-48.8 453.6,-48.8 453.6,-84.8"/>
<text text-anchor="middle" x="388" y="-62.6" font-family="Times,serif" font-size="14.00">PassagesComponent</text>
</g>
<!-- PassagesComponent&#45;&gt;AppModule -->
<g id="edge6" class="edge">
<title>PassagesComponent&#45;&gt;AppModule</title>
<path fill="none" stroke="black" d="M388,-85.07C388,-103.36 388,-128.8 388,-128.8 388,-128.8 751.31,-128.8 751.31,-128.8"/>
<polygon fill="black" stroke="black" points="751.31,-132.3 761.31,-128.8 751.31,-125.3 751.31,-132.3"/>
</g>
<!-- StatusBarComponent -->
<g id="node7" class="node">
<title>StatusBarComponent</title>
<polygon fill="#ffffb3" stroke="black" points="304.77,-84.8 169.23,-84.8 169.23,-48.8 304.77,-48.8 304.77,-84.8"/>
<text text-anchor="middle" x="237" y="-62.6" font-family="Times,serif" font-size="14.00">StatusBarComponent</text>
</g>
<!-- StatusBarComponent&#45;&gt;AppModule -->
<g id="edge7" class="edge">
<title>StatusBarComponent&#45;&gt;AppModule</title>
<path fill="none" stroke="black" d="M237,-84.93C237,-105.37 237,-135.8 237,-135.8 237,-135.8 750.92,-135.8 750.92,-135.8"/>
<polygon fill="black" stroke="black" points="750.92,-139.3 760.92,-135.8 750.92,-132.3 750.92,-139.3"/>
</g>
<!-- TopNavComponent -->
<g id="node8" class="node">
<title>TopNavComponent</title>
<polygon fill="#ffffb3" stroke="black" points="151.71,-84.8 24.29,-84.8 24.29,-48.8 151.71,-48.8 151.71,-84.8"/>
<text text-anchor="middle" x="88" y="-62.6" font-family="Times,serif" font-size="14.00">TopNavComponent</text>
</g>
<!-- TopNavComponent&#45;&gt;AppModule -->
<g id="edge8" class="edge">
<title>TopNavComponent&#45;&gt;AppModule</title>
<path fill="none" stroke="black" d="M88,-84.81C88,-107.29 88,-142.8 88,-142.8 88,-142.8 751.21,-142.8 751.21,-142.8"/>
<polygon fill="black" stroke="black" points="751.21,-146.3 761.21,-142.8 751.21,-139.3 751.21,-146.3"/>
</g>
<!-- AppComponent  -->
<g id="node12" class="node">
<title>AppComponent </title>
<polygon fill="#80b1d3" stroke="black" points="857.44,-214.8 748.56,-214.8 748.56,-178.8 857.44,-178.8 857.44,-214.8"/>
<text text-anchor="middle" x="803" y="-192.6" font-family="Times,serif" font-size="14.00">AppComponent </text>
</g>
<!-- AppModule&#45;&gt;AppComponent  -->
<g id="edge11" class="edge">
<title>AppModule&#45;&gt;AppComponent </title>
<path fill="none" stroke="black" stroke-dasharray="1,5" d="M803,-149.91C803,-149.91 803,-168.79 803,-168.79"/>
<polygon fill="black" stroke="black" points="799.5,-168.79 803,-178.79 806.5,-168.79 799.5,-168.79"/>
</g>
<!-- AppRoutingModule -->
<g id="node10" class="node">
<title>AppRoutingModule</title>
<polygon fill="#8dd3c7" stroke="black" points="1485.28,-84.8 1482.28,-88.8 1461.28,-88.8 1458.28,-84.8 1356.72,-84.8 1356.72,-48.8 1485.28,-48.8 1485.28,-84.8"/>
<text text-anchor="middle" x="1421" y="-62.6" font-family="Times,serif" font-size="14.00">AppRoutingModule</text>
</g>
<!-- AppRoutingModule&#45;&gt;AppModule -->
<g id="edge9" class="edge">
<title>AppRoutingModule&#45;&gt;AppModule</title>
<path fill="none" stroke="black" d="M1421,-84.81C1421,-107.29 1421,-142.8 1421,-142.8 1421,-142.8 854.99,-142.8 854.99,-142.8"/>
<polygon fill="black" stroke="black" points="854.99,-139.3 844.99,-142.8 854.99,-146.3 854.99,-139.3"/>
</g>
<!-- SharedModule -->
<g id="node11" class="node">
<title>SharedModule</title>
<polygon fill="#8dd3c7" stroke="black" points="1338.43,-84.8 1335.43,-88.8 1314.43,-88.8 1311.43,-84.8 1239.57,-84.8 1239.57,-48.8 1338.43,-48.8 1338.43,-84.8"/>
<text text-anchor="middle" x="1289" y="-62.6" font-family="Times,serif" font-size="14.00">SharedModule</text>
</g>
<!-- SharedModule&#45;&gt;AppModule -->
<g id="edge10" class="edge">
<title>SharedModule&#45;&gt;AppModule</title>
<path fill="none" stroke="black" d="M1289,-84.93C1289,-105.37 1289,-135.8 1289,-135.8 1289,-135.8 854.86,-135.8 854.86,-135.8"/>
<polygon fill="black" stroke="black" points="854.86,-132.3 844.86,-135.8 854.86,-139.3 854.86,-132.3"/>
</g>
</g>
</svg>
