<?xml version="1.0" encoding="UTF-8" standalone="no"?>
<!DOCTYPE svg PUBLIC "-//W3C//DTD SVG 1.1//EN"
 "http://www.w3.org/Graphics/SVG/1.1/DTD/svg11.dtd">
<!-- Generated by graphviz version 5.0.0 (20220707.1540)
 -->
<!-- Title: dependencies Pages: 1 -->
<svg width="3299pt" height="247pt"
 viewBox="0.00 0.00 3299.00 246.80" xmlns="http://www.w3.org/2000/svg" xmlns:xlink="http://www.w3.org/1999/xlink">
<g id="graph0" class="graph" transform="scale(1 1) rotate(0) translate(4 242.8)">
<title>dependencies</title>
<polygon fill="white" stroke="transparent" points="-4,4 -4,-242.8 3295,-242.8 3295,4 -4,4"/>
<text text-anchor="middle" x="1645.5" y="-8.2" font-family="sans-serif" font-size="14.00">dependencies</text>
<g id="clust1" class="cluster">
<title>cluster_AppModule</title>
<polygon fill="none" stroke="black" stroke-dasharray="1,5" points="8,-32.8 8,-230.8 3283,-230.8 3283,-32.8 8,-32.8"/>
</g>
<g id="clust2" class="cluster">
<title>cluster_AppModule_declarations</title>
<polygon fill="none" stroke="black" points="1148,-40.8 1148,-92.8 3275,-92.8 3275,-40.8 1148,-40.8"/>
</g>
<g id="clust20" class="cluster">
<title>cluster_AppModule_providers</title>
<polygon fill="none" stroke="black" points="285,-40.8 285,-92.8 1140,-92.8 1140,-40.8 285,-40.8"/>
</g>
<g id="clust17" class="cluster">
<title>cluster_AppModule_imports</title>
<polygon fill="none" stroke="black" points="16,-40.8 16,-92.8 277,-92.8 277,-40.8 16,-40.8"/>
</g>
<g id="clust19" class="cluster">
<title>cluster_AppModule_bootstrap</title>
<polygon fill="none" stroke="black" points="1608,-170.8 1608,-222.8 1732,-222.8 1732,-170.8 1608,-170.8"/>
</g>
<!-- AccordionComponent -->
<g id="node1" class="node">
<title>AccordionComponent</title>
<polygon fill="#ffffb3" stroke="black" points="3267.42,-84.8 3126.58,-84.8 3126.58,-48.8 3267.42,-48.8 3267.42,-84.8"/>
<text text-anchor="middle" x="3197" y="-62.6" font-family="Times,serif" font-size="14.00">AccordionComponent</text>
</g>
<!-- AppModule -->
<g id="node15" class="node">
<title>AppModule</title>
<polygon fill="#8dd3c7" stroke="black" points="1711.66,-149.8 1708.66,-153.8 1687.66,-153.8 1684.66,-149.8 1628.34,-149.8 1628.34,-113.8 1711.66,-113.8 1711.66,-149.8"/>
<text text-anchor="middle" x="1670" y="-127.6" font-family="Times,serif" font-size="14.00">AppModule</text>
</g>
<!-- AccordionComponent&#45;&gt;AppModule -->
<g id="edge1" class="edge">
<title>AccordionComponent&#45;&gt;AppModule</title>
<path fill="none" stroke="black" d="M3197,-84.95C3197,-108.56 3197,-146.8 3197,-146.8 3197,-146.8 1722.03,-146.8 1722.03,-146.8"/>
<polygon fill="black" stroke="black" points="1722.03,-143.3 1712.03,-146.8 1722.03,-150.3 1722.03,-143.3"/>
</g>
<!-- AccountProfileComponent -->
<g id="node2" class="node">
<title>AccountProfileComponent</title>
<polygon fill="#ffffb3" stroke="black" points="3108.36,-84.8 2941.64,-84.8 2941.64,-48.8 3108.36,-48.8 3108.36,-84.8"/>
<text text-anchor="middle" x="3025" y="-62.6" font-family="Times,serif" font-size="14.00">AccountProfileComponent</text>
</g>
<!-- AccountProfileComponent&#45;&gt;AppModule -->
<g id="edge2" class="edge">
<title>AccountProfileComponent&#45;&gt;AppModule</title>
<path fill="none" stroke="black" d="M3025,-85.05C3025,-107.82 3025,-143.8 3025,-143.8 3025,-143.8 1721.66,-143.8 1721.66,-143.8"/>
<polygon fill="black" stroke="black" points="1721.66,-140.3 1711.66,-143.8 1721.66,-147.3 1721.66,-140.3"/>
</g>
<!-- AppComponent -->
<g id="node3" class="node">
<title>AppComponent</title>
<polygon fill="#ffffb3" stroke="black" points="2923.94,-84.8 2818.06,-84.8 2818.06,-48.8 2923.94,-48.8 2923.94,-84.8"/>
<text text-anchor="middle" x="2871" y="-62.6" font-family="Times,serif" font-size="14.00">AppComponent</text>
</g>
<!-- AppComponent&#45;&gt;AppModule -->
<g id="edge3" class="edge">
<title>AppComponent&#45;&gt;AppModule</title>
<path fill="none" stroke="black" d="M2871,-85.09C2871,-107.01 2871,-140.8 2871,-140.8 2871,-140.8 1721.69,-140.8 1721.69,-140.8"/>
<polygon fill="black" stroke="black" points="1721.69,-137.3 1711.69,-140.8 1721.69,-144.3 1721.69,-137.3"/>
</g>
<!-- BooksComponent -->
<g id="node4" class="node">
<title>BooksComponent</title>
<polygon fill="#ffffb3" stroke="black" points="2800.62,-84.8 2683.38,-84.8 2683.38,-48.8 2800.62,-48.8 2800.62,-84.8"/>
<text text-anchor="middle" x="2742" y="-62.6" font-family="Times,serif" font-size="14.00">BooksComponent</text>
</g>
<!-- BooksComponent&#45;&gt;AppModule -->
<g id="edge4" class="edge">
<title>BooksComponent&#45;&gt;AppModule</title>
<path fill="none" stroke="black" d="M2742,-84.83C2742,-105.57 2742,-136.8 2742,-136.8 2742,-136.8 1721.69,-136.8 1721.69,-136.8"/>
<polygon fill="black" stroke="black" points="1721.69,-133.3 1711.69,-136.8 1721.69,-140.3 1721.69,-133.3"/>
</g>
<!-- BottomNavComponent -->
<g id="node5" class="node">
<title>BottomNavComponent</title>
<polygon fill="#ffffb3" stroke="black" points="2665.16,-84.8 2518.84,-84.8 2518.84,-48.8 2665.16,-48.8 2665.16,-84.8"/>
<text text-anchor="middle" x="2592" y="-62.6" font-family="Times,serif" font-size="14.00">BottomNavComponent</text>
</g>
<!-- BottomNavComponent&#45;&gt;AppModule -->
<g id="edge5" class="edge">
<title>BottomNavComponent&#45;&gt;AppModule</title>
<path fill="none" stroke="black" d="M2592,-85.11C2592,-104.95 2592,-133.8 2592,-133.8 2592,-133.8 1721.71,-133.8 1721.71,-133.8"/>
<polygon fill="black" stroke="black" points="1721.71,-130.3 1711.71,-133.8 1721.71,-137.3 1721.71,-130.3"/>
</g>
<!-- CaptureComponent -->
<g id="node6" class="node">
<title>CaptureComponent</title>
<polygon fill="#ffffb3" stroke="black" points="2500.65,-84.8 2375.35,-84.8 2375.35,-48.8 2500.65,-48.8 2500.65,-84.8"/>
<text text-anchor="middle" x="2438" y="-62.6" font-family="Times,serif" font-size="14.00">CaptureComponent</text>
</g>
<!-- CaptureComponent&#45;&gt;AppModule -->
<g id="edge6" class="edge">
<title>CaptureComponent&#45;&gt;AppModule</title>
<path fill="none" stroke="black" d="M2438,-84.97C2438,-103.89 2438,-130.8 2438,-130.8 2438,-130.8 1721.84,-130.8 1721.84,-130.8"/>
<polygon fill="black" stroke="black" points="1721.84,-127.3 1711.84,-130.8 1721.84,-134.3 1721.84,-127.3"/>
</g>
<!-- CardsComponent -->
<g id="node7" class="node">
<title>CardsComponent</title>
<polygon fill="#ffffb3" stroke="black" points="2356.99,-84.8 2243.01,-84.8 2243.01,-48.8 2356.99,-48.8 2356.99,-84.8"/>
<text text-anchor="middle" x="2300" y="-62.6" font-family="Times,serif" font-size="14.00">CardsComponent</text>
</g>
<!-- CardsComponent&#45;&gt;AppModule -->
<g id="edge7" class="edge">
<title>CardsComponent&#45;&gt;AppModule</title>
<path fill="none" stroke="black" d="M2300,-85.1C2300,-103.07 2300,-127.8 2300,-127.8 2300,-127.8 1721.82,-127.8 1721.82,-127.8"/>
<polygon fill="black" stroke="black" points="1721.82,-124.3 1711.82,-127.8 1721.82,-131.3 1721.82,-124.3"/>
</g>
<!-- FloatingMenuComponent -->
<g id="node8" class="node">
<title>FloatingMenuComponent</title>
<polygon fill="#ffffb3" stroke="black" points="2225.16,-84.8 2064.84,-84.8 2064.84,-48.8 2225.16,-48.8 2225.16,-84.8"/>
<text text-anchor="middle" x="2145" y="-62.6" font-family="Times,serif" font-size="14.00">FloatingMenuComponent</text>
</g>
<!-- FloatingMenuComponent&#45;&gt;AppModule -->
<g id="edge8" class="edge">
<title>FloatingMenuComponent&#45;&gt;AppModule</title>
<path fill="none" stroke="black" d="M2145,-84.84C2145,-101.53 2145,-123.8 2145,-123.8 2145,-123.8 1721.74,-123.8 1721.74,-123.8"/>
<polygon fill="black" stroke="black" points="1721.74,-120.3 1711.74,-123.8 1721.74,-127.3 1721.74,-120.3"/>
</g>
<!-- InsightsComponent -->
<g id="node9" class="node">
<title>InsightsComponent</title>
<polygon fill="#ffffb3" stroke="black" points="2046.67,-84.8 1921.33,-84.8 1921.33,-48.8 2046.67,-48.8 2046.67,-84.8"/>
<text text-anchor="middle" x="1984" y="-62.6" font-family="Times,serif" font-size="14.00">InsightsComponent</text>
</g>
<!-- InsightsComponent&#45;&gt;AppModule -->
<g id="edge9" class="edge">
<title>InsightsComponent&#45;&gt;AppModule</title>
<path fill="none" stroke="black" d="M1984,-85.08C1984,-100.75 1984,-120.8 1984,-120.8 1984,-120.8 1721.7,-120.8 1721.7,-120.8"/>
<polygon fill="black" stroke="black" points="1721.7,-117.3 1711.7,-120.8 1721.7,-124.3 1721.7,-117.3"/>
</g>
<!-- LoadingComponent -->
<g id="node10" class="node">
<title>LoadingComponent</title>
<polygon fill="#ffffb3" stroke="black" points="1902.99,-84.8 1775.01,-84.8 1775.01,-48.8 1902.99,-48.8 1902.99,-84.8"/>
<text text-anchor="middle" x="1839" y="-62.6" font-family="Times,serif" font-size="14.00">LoadingComponent</text>
</g>
<!-- LoadingComponent&#45;&gt;AppModule -->
<g id="edge10" class="edge">
<title>LoadingComponent&#45;&gt;AppModule</title>
<path fill="none" stroke="black" d="M1839,-84.92C1839,-99.58 1839,-117.8 1839,-117.8 1839,-117.8 1721.78,-117.8 1721.78,-117.8"/>
<polygon fill="black" stroke="black" points="1721.78,-114.3 1711.78,-117.8 1721.78,-121.3 1721.78,-114.3"/>
</g>
<!-- LoadingOverlayComponent -->
<g id="node11" class="node">
<title>LoadingOverlayComponent</title>
<polygon fill="#ffffb3" stroke="black" points="1756.58,-84.8 1583.42,-84.8 1583.42,-48.8 1756.58,-48.8 1756.58,-84.8"/>
<text text-anchor="middle" x="1670" y="-62.6" font-family="Times,serif" font-size="14.00">LoadingOverlayComponent</text>
</g>
<!-- LoadingOverlayComponent&#45;&gt;AppModule -->
<g id="edge11" class="edge">
<title>LoadingOverlayComponent&#45;&gt;AppModule</title>
<path fill="none" stroke="black" d="M1670,-84.91C1670,-84.91 1670,-103.79 1670,-103.79"/>
<polygon fill="black" stroke="black" points="1666.5,-103.79 1670,-113.79 1673.5,-103.79 1666.5,-103.79"/>
</g>
<!-- LoginComponent -->
<g id="node12" class="node">
<title>LoginComponent</title>
<polygon fill="#ffffb3" stroke="black" points="1565.27,-84.8 1450.73,-84.8 1450.73,-48.8 1565.27,-48.8 1565.27,-84.8"/>
<text text-anchor="middle" x="1508" y="-62.6" font-family="Times,serif" font-size="14.00">LoginComponent</text>
</g>
<!-- LoginComponent&#45;&gt;AppModule -->
<g id="edge12" class="edge">
<title>LoginComponent&#45;&gt;AppModule</title>
<path fill="none" stroke="black" d="M1508,-84.92C1508,-99.58 1508,-117.8 1508,-117.8 1508,-117.8 1618.28,-117.8 1618.28,-117.8"/>
<polygon fill="black" stroke="black" points="1618.28,-121.3 1628.28,-117.8 1618.28,-114.3 1618.28,-121.3"/>
</g>
<!-- OverlayComponent -->
<g id="node13" class="node">
<title>OverlayComponent</title>
<polygon fill="#ffffb3" stroke="black" points="1432.42,-84.8 1305.58,-84.8 1305.58,-48.8 1432.42,-48.8 1432.42,-84.8"/>
<text text-anchor="middle" x="1369" y="-62.6" font-family="Times,serif" font-size="14.00">OverlayComponent</text>
</g>
<!-- OverlayComponent&#45;&gt;AppModule -->
<g id="edge13" class="edge">
<title>OverlayComponent&#45;&gt;AppModule</title>
<path fill="none" stroke="black" d="M1369,-85.08C1369,-100.75 1369,-120.8 1369,-120.8 1369,-120.8 1618.15,-120.8 1618.15,-120.8"/>
<polygon fill="black" stroke="black" points="1618.15,-124.3 1628.15,-120.8 1618.15,-117.3 1618.15,-124.3"/>
</g>
<!-- PassagesComponent -->
<g id="node14" class="node">
<title>PassagesComponent</title>
<polygon fill="#ffffb3" stroke="black" points="1287.6,-84.8 1156.4,-84.8 1156.4,-48.8 1287.6,-48.8 1287.6,-84.8"/>
<text text-anchor="middle" x="1222" y="-62.6" font-family="Times,serif" font-size="14.00">PassagesComponent</text>
</g>
<!-- PassagesComponent&#45;&gt;AppModule -->
<g id="edge14" class="edge">
<title>PassagesComponent&#45;&gt;AppModule</title>
<path fill="none" stroke="black" d="M1222,-84.84C1222,-101.53 1222,-123.8 1222,-123.8 1222,-123.8 1618.26,-123.8 1618.26,-123.8"/>
<polygon fill="black" stroke="black" points="1618.26,-127.3 1628.26,-123.8 1618.26,-120.3 1618.26,-127.3"/>
</g>
<!-- AppComponent  -->
<g id="node18" class="node">
<title>AppComponent </title>
<polygon fill="#80b1d3" stroke="black" points="1724.44,-214.8 1615.56,-214.8 1615.56,-178.8 1724.44,-178.8 1724.44,-214.8"/>
<text text-anchor="middle" x="1670" y="-192.6" font-family="Times,serif" font-size="14.00">AppComponent </text>
</g>
<!-- AppModule&#45;&gt;AppComponent  -->
<g id="edge17" class="edge">
<title>AppModule&#45;&gt;AppComponent </title>
<path fill="none" stroke="black" stroke-dasharray="1,5" d="M1670,-149.91C1670,-149.91 1670,-168.79 1670,-168.79"/>
<polygon fill="black" stroke="black" points="1666.5,-168.79 1670,-178.79 1673.5,-168.79 1666.5,-168.79"/>
</g>
<!-- AppRoutingModule -->
<g id="node16" class="node">
<title>AppRoutingModule</title>
<polygon fill="#8dd3c7" stroke="black" points="269.28,-84.8 266.28,-88.8 245.28,-88.8 242.28,-84.8 140.72,-84.8 140.72,-48.8 269.28,-48.8 269.28,-84.8"/>
<text text-anchor="middle" x="205" y="-62.6" font-family="Times,serif" font-size="14.00">AppRoutingModule</text>
</g>
<!-- AppRoutingModule&#45;&gt;AppModule -->
<g id="edge15" class="edge">
<title>AppRoutingModule&#45;&gt;AppModule</title>
<path fill="none" stroke="black" d="M205,-85.05C205,-107.82 205,-143.8 205,-143.8 205,-143.8 1618.13,-143.8 1618.13,-143.8"/>
<polygon fill="black" stroke="black" points="1618.13,-147.3 1628.13,-143.8 1618.13,-140.3 1618.13,-147.3"/>
</g>
<!-- SharedModule -->
<g id="node17" class="node">
<title>SharedModule</title>
<polygon fill="#8dd3c7" stroke="black" points="122.43,-84.8 119.43,-88.8 98.43,-88.8 95.43,-84.8 23.57,-84.8 23.57,-48.8 122.43,-48.8 122.43,-84.8"/>
<text text-anchor="middle" x="73" y="-62.6" font-family="Times,serif" font-size="14.00">SharedModule</text>
</g>
<!-- SharedModule&#45;&gt;AppModule -->
<g id="edge16" class="edge">
<title>SharedModule&#45;&gt;AppModule</title>
<path fill="none" stroke="black" d="M73,-84.95C73,-108.56 73,-146.8 73,-146.8 73,-146.8 1618.1,-146.8 1618.1,-146.8"/>
<polygon fill="black" stroke="black" points="1618.11,-150.3 1628.1,-146.8 1618.1,-143.3 1618.11,-150.3"/>
</g>
<!-- BookService -->
<g id="node19" class="node">
<title>BookService</title>
<ellipse fill="#fdb462" stroke="black" cx="1071" cy="-66.8" rx="60.84" ry="18"/>
<text text-anchor="middle" x="1071" y="-62.6" font-family="Times,serif" font-size="14.00">BookService</text>
</g>
<!-- BookService&#45;&gt;AppModule -->
<g id="edge18" class="edge">
<title>BookService&#45;&gt;AppModule</title>
<path fill="none" stroke="black" d="M1071,-85.1C1071,-103.07 1071,-127.8 1071,-127.8 1071,-127.8 1617.88,-127.8 1617.88,-127.8"/>
<polygon fill="black" stroke="black" points="1617.88,-131.3 1627.88,-127.8 1617.88,-124.3 1617.88,-131.3"/>
</g>
<!-- CameraService -->
<g id="node20" class="node">
<title>CameraService</title>
<ellipse fill="#fdb462" stroke="black" cx="922" cy="-66.8" rx="70.04" ry="18"/>
<text text-anchor="middle" x="922" y="-62.6" font-family="Times,serif" font-size="14.00">CameraService</text>
</g>
<!-- CameraService&#45;&gt;AppModule -->
<g id="edge19" class="edge">
<title>CameraService&#45;&gt;AppModule</title>
<path fill="none" stroke="black" d="M922,-84.97C922,-103.89 922,-130.8 922,-130.8 922,-130.8 1618.18,-130.8 1618.18,-130.8"/>
<polygon fill="black" stroke="black" points="1618.18,-134.3 1628.18,-130.8 1618.18,-127.3 1618.18,-134.3"/>
</g>
<!-- FloatingMenuService -->
<g id="node21" class="node">
<title>FloatingMenuService</title>
<ellipse fill="#fdb462" stroke="black" cx="739" cy="-66.8" rx="94.93" ry="18"/>
<text text-anchor="middle" x="739" y="-62.6" font-family="Times,serif" font-size="14.00">FloatingMenuService</text>
</g>
<!-- FloatingMenuService&#45;&gt;AppModule -->
<g id="edge20" class="edge">
<title>FloatingMenuService&#45;&gt;AppModule</title>
<path fill="none" stroke="black" d="M739,-85.11C739,-104.95 739,-133.8 739,-133.8 739,-133.8 1618.19,-133.8 1618.19,-133.8"/>
<polygon fill="black" stroke="black" points="1618.19,-137.3 1628.19,-133.8 1618.19,-130.3 1618.19,-137.3"/>
</g>
<!-- LoadingOverlayService -->
<g id="node22" class="node">
<title>LoadingOverlayService</title>
<ellipse fill="#fdb462" stroke="black" cx="523" cy="-66.8" rx="103.06" ry="18"/>
<text text-anchor="middle" x="523" y="-62.6" font-family="Times,serif" font-size="14.00">LoadingOverlayService</text>
</g>
<!-- LoadingOverlayService&#45;&gt;AppModule -->
<g id="edge21" class="edge">
<title>LoadingOverlayService&#45;&gt;AppModule</title>
<path fill="none" stroke="black" d="M523,-84.83C523,-105.57 523,-136.8 523,-136.8 523,-136.8 1618.16,-136.8 1618.16,-136.8"/>
<polygon fill="black" stroke="black" points="1618.16,-140.3 1628.16,-136.8 1618.16,-133.3 1618.16,-140.3"/>
</g>
<!-- OcrService -->
<g id="node23" class="node">
<title>OcrService</title>
<ellipse fill="#fdb462" stroke="black" cx="347" cy="-66.8" rx="54.44" ry="18"/>
<text text-anchor="middle" x="347" y="-62.6" font-family="Times,serif" font-size="14.00">OcrService</text>
</g>
<!-- OcrService&#45;&gt;AppModule -->
<g id="edge22" class="edge">
<title>OcrService&#45;&gt;AppModule</title>
<path fill="none" stroke="black" d="M347,-85.09C347,-107.01 347,-140.8 347,-140.8 347,-140.8 1618.22,-140.8 1618.22,-140.8"/>
<polygon fill="black" stroke="black" points="1618.22,-144.3 1628.22,-140.8 1618.22,-137.3 1618.22,-144.3"/>
</g>
</g>
</svg>
