<?xml version="1.0" encoding="UTF-8" standalone="no"?>
<!DOCTYPE svg PUBLIC "-//W3C//DTD SVG 1.1//EN"
 "http://www.w3.org/Graphics/SVG/1.1/DTD/svg11.dtd">
<!-- Generated by graphviz version 5.0.0 (20220707.1540)
 -->
<!-- Title: dependencies Pages: 1 -->
<svg width="2303pt" height="247pt"
 viewBox="0.00 0.00 2303.00 246.80" xmlns="http://www.w3.org/2000/svg" xmlns:xlink="http://www.w3.org/1999/xlink">
<g id="graph0" class="graph" transform="scale(1 1) rotate(0) translate(4 242.8)">
<title>dependencies</title>
<polygon fill="white" stroke="transparent" points="-4,4 -4,-242.8 2299,-242.8 2299,4 -4,4"/>
<text text-anchor="middle" x="1147.5" y="-8.2" font-family="sans-serif" font-size="14.00">dependencies</text>
<g id="clust1" class="cluster">
<title>cluster_AppModule</title>
<polygon fill="none" stroke="black" stroke-dasharray="1,5" points="8,-32.8 8,-230.8 2287,-230.8 2287,-32.8 8,-32.8"/>
</g>
<g id="clust12" class="cluster">
<title>cluster_AppModule_imports</title>
<polygon fill="none" stroke="black" points="2018,-40.8 2018,-92.8 2279,-92.8 2279,-40.8 2018,-40.8"/>
</g>
<g id="clust2" class="cluster">
<title>cluster_AppModule_declarations</title>
<polygon fill="none" stroke="black" points="581,-40.8 581,-92.8 2010,-92.8 2010,-40.8 581,-40.8"/>
</g>
<g id="clust14" class="cluster">
<title>cluster_AppModule_bootstrap</title>
<polygon fill="none" stroke="black" points="1147,-170.8 1147,-222.8 1271,-222.8 1271,-170.8 1147,-170.8"/>
</g>
<g id="clust15" class="cluster">
<title>cluster_AppModule_providers</title>
<polygon fill="none" stroke="black" points="16,-40.8 16,-92.8 573,-92.8 573,-40.8 16,-40.8"/>
</g>
<!-- AppComponent -->
<g id="node1" class="node">
<title>AppComponent</title>
<polygon fill="#ffffb3" stroke="black" points="2001.94,-84.8 1896.06,-84.8 1896.06,-48.8 2001.94,-48.8 2001.94,-84.8"/>
<text text-anchor="middle" x="1949" y="-62.6" font-family="Times,serif" font-size="14.00">AppComponent</text>
</g>
<!-- AppModule -->
<g id="node10" class="node">
<title>AppModule</title>
<polygon fill="#8dd3c7" stroke="black" points="1250.66,-149.8 1247.66,-153.8 1226.66,-153.8 1223.66,-149.8 1167.34,-149.8 1167.34,-113.8 1250.66,-113.8 1250.66,-149.8"/>
<text text-anchor="middle" x="1209" y="-127.6" font-family="Times,serif" font-size="14.00">AppModule</text>
</g>
<!-- AppComponent&#45;&gt;AppModule -->
<g id="edge1" class="edge">
<title>AppComponent&#45;&gt;AppModule</title>
<path fill="none" stroke="black" d="M1949,-85.02C1949,-105.17 1949,-134.8 1949,-134.8 1949,-134.8 1260.91,-134.8 1260.91,-134.8"/>
<polygon fill="black" stroke="black" points="1260.91,-131.3 1250.91,-134.8 1260.91,-138.3 1260.91,-131.3"/>
</g>
<!-- BottomNavComponent -->
<g id="node2" class="node">
<title>BottomNavComponent</title>
<polygon fill="#ffffb3" stroke="black" points="1878.16,-84.8 1731.84,-84.8 1731.84,-48.8 1878.16,-48.8 1878.16,-84.8"/>
<text text-anchor="middle" x="1805" y="-62.6" font-family="Times,serif" font-size="14.00">BottomNavComponent</text>
</g>
<!-- BottomNavComponent&#45;&gt;AppModule -->
<g id="edge2" class="edge">
<title>BottomNavComponent&#45;&gt;AppModule</title>
<path fill="none" stroke="black" d="M1805,-85.02C1805,-103.63 1805,-129.8 1805,-129.8 1805,-129.8 1260.91,-129.8 1260.91,-129.8"/>
<polygon fill="black" stroke="black" points="1260.91,-126.3 1250.91,-129.8 1260.91,-133.3 1260.91,-126.3"/>
</g>
<!-- FloatingMenuComponent -->
<g id="node3" class="node">
<title>FloatingMenuComponent</title>
<polygon fill="#ffffb3" stroke="black" points="1713.16,-84.8 1552.84,-84.8 1552.84,-48.8 1713.16,-48.8 1713.16,-84.8"/>
<text text-anchor="middle" x="1633" y="-62.6" font-family="Times,serif" font-size="14.00">FloatingMenuComponent</text>
</g>
<!-- FloatingMenuComponent&#45;&gt;AppModule -->
<g id="edge3" class="edge">
<title>FloatingMenuComponent&#45;&gt;AppModule</title>
<path fill="none" stroke="black" d="M1633,-84.83C1633,-101.86 1633,-124.8 1633,-124.8 1633,-124.8 1260.82,-124.8 1260.82,-124.8"/>
<polygon fill="black" stroke="black" points="1260.82,-121.3 1250.82,-124.8 1260.82,-128.3 1260.82,-121.3"/>
</g>
<!-- LoadingComponent -->
<g id="node4" class="node">
<title>LoadingComponent</title>
<polygon fill="#ffffb3" stroke="black" points="1534.99,-84.8 1407.01,-84.8 1407.01,-48.8 1534.99,-48.8 1534.99,-84.8"/>
<text text-anchor="middle" x="1471" y="-62.6" font-family="Times,serif" font-size="14.00">LoadingComponent</text>
</g>
<!-- LoadingComponent&#45;&gt;AppModule -->
<g id="edge4" class="edge">
<title>LoadingComponent&#45;&gt;AppModule</title>
<path fill="none" stroke="black" d="M1471,-85.04C1471,-100.37 1471,-119.8 1471,-119.8 1471,-119.8 1260.8,-119.8 1260.8,-119.8"/>
<polygon fill="black" stroke="black" points="1260.8,-116.3 1250.8,-119.8 1260.8,-123.3 1260.8,-116.3"/>
</g>
<!-- LoadingOverlayComponent -->
<g id="node5" class="node">
<title>LoadingOverlayComponent</title>
<polygon fill="#ffffb3" stroke="black" points="1388.58,-84.8 1215.42,-84.8 1215.42,-48.8 1388.58,-48.8 1388.58,-84.8"/>
<text text-anchor="middle" x="1302" y="-62.6" font-family="Times,serif" font-size="14.00">LoadingOverlayComponent</text>
</g>
<!-- LoadingOverlayComponent&#45;&gt;AppModule -->
<g id="edge5" class="edge">
<title>LoadingOverlayComponent&#45;&gt;AppModule</title>
<path fill="none" stroke="black" d="M1233.15,-84.91C1233.15,-84.91 1233.15,-103.79 1233.15,-103.79"/>
<polygon fill="black" stroke="black" points="1229.65,-103.79 1233.15,-113.79 1236.65,-103.79 1229.65,-103.79"/>
</g>
<!-- LoginRegisterComponent -->
<g id="node6" class="node">
<title>LoginRegisterComponent</title>
<polygon fill="#ffffb3" stroke="black" points="1197.93,-84.8 1036.07,-84.8 1036.07,-48.8 1197.93,-48.8 1197.93,-84.8"/>
<text text-anchor="middle" x="1117" y="-62.6" font-family="Times,serif" font-size="14.00">LoginRegisterComponent</text>
</g>
<!-- LoginRegisterComponent&#45;&gt;AppModule -->
<g id="edge6" class="edge">
<title>LoginRegisterComponent&#45;&gt;AppModule</title>
<path fill="none" stroke="black" d="M1182.44,-84.91C1182.44,-84.91 1182.44,-103.79 1182.44,-103.79"/>
<polygon fill="black" stroke="black" points="1178.94,-103.79 1182.44,-113.79 1185.94,-103.79 1178.94,-103.79"/>
</g>
<!-- OverlayComponent -->
<g id="node7" class="node">
<title>OverlayComponent</title>
<polygon fill="#ffffb3" stroke="black" points="1018.42,-84.8 891.58,-84.8 891.58,-48.8 1018.42,-48.8 1018.42,-84.8"/>
<text text-anchor="middle" x="955" y="-62.6" font-family="Times,serif" font-size="14.00">OverlayComponent</text>
</g>
<!-- OverlayComponent&#45;&gt;AppModule -->
<g id="edge7" class="edge">
<title>OverlayComponent&#45;&gt;AppModule</title>
<path fill="none" stroke="black" d="M955,-85.04C955,-100.37 955,-119.8 955,-119.8 955,-119.8 1157.06,-119.8 1157.06,-119.8"/>
<polygon fill="black" stroke="black" points="1157.06,-123.3 1167.06,-119.8 1157.06,-116.3 1157.06,-123.3"/>
</g>
<!-- PassagesComponent -->
<g id="node8" class="node">
<title>PassagesComponent</title>
<polygon fill="#ffffb3" stroke="black" points="873.6,-84.8 742.4,-84.8 742.4,-48.8 873.6,-48.8 873.6,-84.8"/>
<text text-anchor="middle" x="808" y="-62.6" font-family="Times,serif" font-size="14.00">PassagesComponent</text>
</g>
<!-- PassagesComponent&#45;&gt;AppModule -->
<g id="edge8" class="edge">
<title>PassagesComponent&#45;&gt;AppModule</title>
<path fill="none" stroke="black" d="M808,-84.83C808,-101.86 808,-124.8 808,-124.8 808,-124.8 1157.22,-124.8 1157.22,-124.8"/>
<polygon fill="black" stroke="black" points="1157.22,-128.3 1167.22,-124.8 1157.22,-121.3 1157.22,-128.3"/>
</g>
<!-- StatusBarComponent -->
<g id="node9" class="node">
<title>StatusBarComponent</title>
<polygon fill="#ffffb3" stroke="black" points="724.77,-84.8 589.23,-84.8 589.23,-48.8 724.77,-48.8 724.77,-84.8"/>
<text text-anchor="middle" x="657" y="-62.6" font-family="Times,serif" font-size="14.00">StatusBarComponent</text>
</g>
<!-- StatusBarComponent&#45;&gt;AppModule -->
<g id="edge9" class="edge">
<title>StatusBarComponent&#45;&gt;AppModule</title>
<path fill="none" stroke="black" d="M657,-85.02C657,-103.63 657,-129.8 657,-129.8 657,-129.8 1157.06,-129.8 1157.06,-129.8"/>
<polygon fill="black" stroke="black" points="1157.06,-133.3 1167.06,-129.8 1157.06,-126.3 1157.06,-133.3"/>
</g>
<!-- AppComponent  -->
<g id="node13" class="node">
<title>AppComponent </title>
<polygon fill="#80b1d3" stroke="black" points="1263.44,-214.8 1154.56,-214.8 1154.56,-178.8 1263.44,-178.8 1263.44,-214.8"/>
<text text-anchor="middle" x="1209" y="-192.6" font-family="Times,serif" font-size="14.00">AppComponent </text>
</g>
<!-- AppModule&#45;&gt;AppComponent  -->
<g id="edge12" class="edge">
<title>AppModule&#45;&gt;AppComponent </title>
<path fill="none" stroke="black" stroke-dasharray="1,5" d="M1209,-149.91C1209,-149.91 1209,-168.79 1209,-168.79"/>
<polygon fill="black" stroke="black" points="1205.5,-168.79 1209,-178.79 1212.5,-168.79 1205.5,-168.79"/>
</g>
<!-- AppRoutingModule -->
<g id="node11" class="node">
<title>AppRoutingModule</title>
<polygon fill="#8dd3c7" stroke="black" points="2271.28,-84.8 2268.28,-88.8 2247.28,-88.8 2244.28,-84.8 2142.72,-84.8 2142.72,-48.8 2271.28,-48.8 2271.28,-84.8"/>
<text text-anchor="middle" x="2207" y="-62.6" font-family="Times,serif" font-size="14.00">AppRoutingModule</text>
</g>
<!-- AppRoutingModule&#45;&gt;AppModule -->
<g id="edge10" class="edge">
<title>AppRoutingModule&#45;&gt;AppModule</title>
<path fill="none" stroke="black" d="M2207,-84.89C2207,-107.93 2207,-144.8 2207,-144.8 2207,-144.8 1260.93,-144.8 1260.93,-144.8"/>
<polygon fill="black" stroke="black" points="1260.93,-141.3 1250.93,-144.8 1260.93,-148.3 1260.93,-141.3"/>
</g>
<!-- SharedModule -->
<g id="node12" class="node">
<title>SharedModule</title>
<polygon fill="#8dd3c7" stroke="black" points="2124.43,-84.8 2121.43,-88.8 2100.43,-88.8 2097.43,-84.8 2025.57,-84.8 2025.57,-48.8 2124.43,-48.8 2124.43,-84.8"/>
<text text-anchor="middle" x="2075" y="-62.6" font-family="Times,serif" font-size="14.00">SharedModule</text>
</g>
<!-- SharedModule&#45;&gt;AppModule -->
<g id="edge11" class="edge">
<title>SharedModule&#45;&gt;AppModule</title>
<path fill="none" stroke="black" d="M2075,-84.84C2075,-106.46 2075,-139.8 2075,-139.8 2075,-139.8 1260.77,-139.8 1260.77,-139.8"/>
<polygon fill="black" stroke="black" points="1260.77,-136.3 1250.77,-139.8 1260.77,-143.3 1260.77,-136.3"/>
</g>
<!-- FloatingMenuService -->
<g id="node14" class="node">
<title>FloatingMenuService</title>
<ellipse fill="#fdb462" stroke="black" cx="470" cy="-66.8" rx="94.93" ry="18"/>
<text text-anchor="middle" x="470" y="-62.6" font-family="Times,serif" font-size="14.00">FloatingMenuService</text>
</g>
<!-- FloatingMenuService&#45;&gt;AppModule -->
<g id="edge13" class="edge">
<title>FloatingMenuService&#45;&gt;AppModule</title>
<path fill="none" stroke="black" d="M470,-85.02C470,-105.17 470,-134.8 470,-134.8 470,-134.8 1157.15,-134.8 1157.15,-134.8"/>
<polygon fill="black" stroke="black" points="1157.15,-138.3 1167.15,-134.8 1157.15,-131.3 1157.15,-138.3"/>
</g>
<!-- LoadingOverlayService -->
<g id="node15" class="node">
<title>LoadingOverlayService</title>
<ellipse fill="#fdb462" stroke="black" cx="254" cy="-66.8" rx="103.06" ry="18"/>
<text text-anchor="middle" x="254" y="-62.6" font-family="Times,serif" font-size="14.00">LoadingOverlayService</text>
</g>
<!-- LoadingOverlayService&#45;&gt;AppModule -->
<g id="edge14" class="edge">
<title>LoadingOverlayService&#45;&gt;AppModule</title>
<path fill="none" stroke="black" d="M254,-84.84C254,-106.46 254,-139.8 254,-139.8 254,-139.8 1157.04,-139.8 1157.04,-139.8"/>
<polygon fill="black" stroke="black" points="1157.04,-143.3 1167.04,-139.8 1157.04,-136.3 1157.04,-143.3"/>
</g>
<!-- OcrService -->
<g id="node16" class="node">
<title>OcrService</title>
<ellipse fill="#fdb462" stroke="black" cx="78" cy="-66.8" rx="54.44" ry="18"/>
<text text-anchor="middle" x="78" y="-62.6" font-family="Times,serif" font-size="14.00">OcrService</text>
</g>
<!-- OcrService&#45;&gt;AppModule -->
<g id="edge15" class="edge">
<title>OcrService&#45;&gt;AppModule</title>
<path fill="none" stroke="black" d="M78,-84.89C78,-107.93 78,-144.8 78,-144.8 78,-144.8 1157.07,-144.8 1157.07,-144.8"/>
<polygon fill="black" stroke="black" points="1157.07,-148.3 1167.07,-144.8 1157.07,-141.3 1157.07,-148.3"/>
</g>
</g>
</svg>
