<?xml version="1.0" encoding="UTF-8" standalone="no"?>
<!DOCTYPE svg PUBLIC "-//W3C//DTD SVG 1.1//EN"
 "http://www.w3.org/Graphics/SVG/1.1/DTD/svg11.dtd">
<!-- Generated by graphviz version 5.0.0 (20220707.1540)
 -->
<!-- Title: dependencies Pages: 1 -->
<svg width="2748pt" height="247pt"
 viewBox="0.00 0.00 2748.00 246.80" xmlns="http://www.w3.org/2000/svg" xmlns:xlink="http://www.w3.org/1999/xlink">
<g id="graph0" class="graph" transform="scale(1 1) rotate(0) translate(4 242.8)">
<title>dependencies</title>
<polygon fill="white" stroke="transparent" points="-4,4 -4,-242.8 2744,-242.8 2744,4 -4,4"/>
<text text-anchor="middle" x="1370" y="-8.2" font-family="sans-serif" font-size="14.00">dependencies</text>
<g id="clust1" class="cluster">
<title>cluster_AppModule</title>
<polygon fill="none" stroke="black" stroke-dasharray="1,5" points="8,-32.8 8,-230.8 2732,-230.8 2732,-32.8 8,-32.8"/>
</g>
<g id="clust18" class="cluster">
<title>cluster_AppModule_bootstrap</title>
<polygon fill="none" stroke="black" points="1234,-170.8 1234,-222.8 1358,-222.8 1358,-170.8 1234,-170.8"/>
</g>
<g id="clust19" class="cluster">
<title>cluster_AppModule_providers</title>
<polygon fill="none" stroke="black" points="2096,-40.8 2096,-92.8 2724,-92.8 2724,-40.8 2096,-40.8"/>
</g>
<g id="clust16" class="cluster">
<title>cluster_AppModule_imports</title>
<polygon fill="none" stroke="black" points="1944,-40.8 1944,-92.8 2088,-92.8 2088,-40.8 1944,-40.8"/>
</g>
<g id="clust2" class="cluster">
<title>cluster_AppModule_declarations</title>
<polygon fill="none" stroke="black" points="16,-40.8 16,-92.8 1936,-92.8 1936,-40.8 16,-40.8"/>
</g>
<!-- AppComponent -->
<g id="node1" class="node">
<title>AppComponent</title>
<polygon fill="#ffffb3" stroke="black" points="1927.94,-84.8 1822.06,-84.8 1822.06,-48.8 1927.94,-48.8 1927.94,-84.8"/>
<text text-anchor="middle" x="1875" y="-62.6" font-family="Times,serif" font-size="14.00">AppComponent</text>
</g>
<!-- AppModule -->
<g id="node14" class="node">
<title>AppModule</title>
<polygon fill="#8dd3c7" stroke="black" points="1337.66,-149.8 1334.66,-153.8 1313.66,-153.8 1310.66,-149.8 1254.34,-149.8 1254.34,-113.8 1337.66,-113.8 1337.66,-149.8"/>
<text text-anchor="middle" x="1296" y="-127.6" font-family="Times,serif" font-size="14.00">AppModule</text>
</g>
<!-- AppComponent&#45;&gt;AppModule -->
<g id="edge1" class="edge">
<title>AppComponent&#45;&gt;AppModule</title>
<path fill="none" stroke="black" d="M1875,-84.82C1875,-102.17 1875,-125.8 1875,-125.8 1875,-125.8 1348.11,-125.8 1348.11,-125.8"/>
<polygon fill="black" stroke="black" points="1348.11,-122.3 1338.11,-125.8 1348.11,-129.3 1348.11,-122.3"/>
</g>
<!-- AppStatusBarComponent -->
<g id="node2" class="node">
<title>AppStatusBarComponent</title>
<polygon fill="#ffffb3" stroke="black" points="1803.88,-84.8 1644.12,-84.8 1644.12,-48.8 1803.88,-48.8 1803.88,-84.8"/>
<text text-anchor="middle" x="1724" y="-62.6" font-family="Times,serif" font-size="14.00">AppStatusBarComponent</text>
</g>
<!-- AppStatusBarComponent&#45;&gt;AppModule -->
<g id="edge2" class="edge">
<title>AppStatusBarComponent&#45;&gt;AppModule</title>
<path fill="none" stroke="black" d="M1724,-84.81C1724,-100.85 1724,-121.8 1724,-121.8 1724,-121.8 1347.82,-121.8 1347.82,-121.8"/>
<polygon fill="black" stroke="black" points="1347.82,-118.3 1337.82,-121.8 1347.82,-125.3 1347.82,-118.3"/>
</g>
<!-- BottomBarComponent -->
<g id="node3" class="node">
<title>BottomBarComponent</title>
<polygon fill="#ffffb3" stroke="black" points="1625.55,-84.8 1482.45,-84.8 1482.45,-48.8 1625.55,-48.8 1625.55,-84.8"/>
<text text-anchor="middle" x="1554" y="-62.6" font-family="Times,serif" font-size="14.00">BottomBarComponent</text>
</g>
<!-- BottomBarComponent&#45;&gt;AppModule -->
<g id="edge3" class="edge">
<title>BottomBarComponent&#45;&gt;AppModule</title>
<path fill="none" stroke="black" d="M1554,-84.92C1554,-99.58 1554,-117.8 1554,-117.8 1554,-117.8 1347.74,-117.8 1347.74,-117.8"/>
<polygon fill="black" stroke="black" points="1347.74,-114.3 1337.74,-117.8 1347.74,-121.3 1347.74,-114.3"/>
</g>
<!-- CaptureImageComponent -->
<g id="node4" class="node">
<title>CaptureImageComponent</title>
<polygon fill="#ffffb3" stroke="black" points="1464.13,-84.8 1303.87,-84.8 1303.87,-48.8 1464.13,-48.8 1464.13,-84.8"/>
<text text-anchor="middle" x="1384" y="-62.6" font-family="Times,serif" font-size="14.00">CaptureImageComponent</text>
</g>
<!-- CaptureImageComponent&#45;&gt;AppModule -->
<g id="edge4" class="edge">
<title>CaptureImageComponent&#45;&gt;AppModule</title>
<path fill="none" stroke="black" d="M1320.76,-84.91C1320.76,-84.91 1320.76,-103.79 1320.76,-103.79"/>
<polygon fill="black" stroke="black" points="1317.26,-103.79 1320.76,-113.79 1324.26,-103.79 1317.26,-103.79"/>
</g>
<!-- DrawerMenuComponent -->
<g id="node5" class="node">
<title>DrawerMenuComponent</title>
<polygon fill="#ffffb3" stroke="black" points="1285.97,-84.8 1130.03,-84.8 1130.03,-48.8 1285.97,-48.8 1285.97,-84.8"/>
<text text-anchor="middle" x="1208" y="-62.6" font-family="Times,serif" font-size="14.00">DrawerMenuComponent</text>
</g>
<!-- DrawerMenuComponent&#45;&gt;AppModule -->
<g id="edge5" class="edge">
<title>DrawerMenuComponent&#45;&gt;AppModule</title>
<path fill="none" stroke="black" d="M1270.08,-84.91C1270.08,-84.91 1270.08,-103.79 1270.08,-103.79"/>
<polygon fill="black" stroke="black" points="1266.58,-103.79 1270.08,-113.79 1273.58,-103.79 1266.58,-103.79"/>
</g>
<!-- FilterAllPipe -->
<g id="node6" class="node">
<title>FilterAllPipe</title>
<polygon fill="#ffffb3" stroke="black" points="1111.61,-84.8 1022.39,-84.8 1022.39,-48.8 1111.61,-48.8 1111.61,-84.8"/>
<text text-anchor="middle" x="1067" y="-62.6" font-family="Times,serif" font-size="14.00">FilterAllPipe</text>
</g>
<!-- FilterAllPipe&#45;&gt;AppModule -->
<g id="edge6" class="edge">
<title>FilterAllPipe&#45;&gt;AppModule</title>
<path fill="none" stroke="black" d="M1067,-84.92C1067,-99.58 1067,-117.8 1067,-117.8 1067,-117.8 1244.26,-117.8 1244.26,-117.8"/>
<polygon fill="black" stroke="black" points="1244.26,-121.3 1254.26,-117.8 1244.26,-114.3 1244.26,-121.3"/>
</g>
<!-- FilterPipe -->
<g id="node7" class="node">
<title>FilterPipe</title>
<polygon fill="#ffffb3" stroke="black" points="1004.72,-84.8 933.28,-84.8 933.28,-48.8 1004.72,-48.8 1004.72,-84.8"/>
<text text-anchor="middle" x="969" y="-62.6" font-family="Times,serif" font-size="14.00">FilterPipe</text>
</g>
<!-- FilterPipe&#45;&gt;AppModule -->
<g id="edge7" class="edge">
<title>FilterPipe&#45;&gt;AppModule</title>
<path fill="none" stroke="black" d="M969,-84.81C969,-100.85 969,-121.8 969,-121.8 969,-121.8 1244.25,-121.8 1244.25,-121.8"/>
<polygon fill="black" stroke="black" points="1244.25,-125.3 1254.25,-121.8 1244.25,-118.3 1244.25,-125.3"/>
</g>
<!-- ListComponent -->
<g id="node8" class="node">
<title>ListComponent</title>
<polygon fill="#ffffb3" stroke="black" points="915.61,-84.8 812.39,-84.8 812.39,-48.8 915.61,-48.8 915.61,-84.8"/>
<text text-anchor="middle" x="864" y="-62.6" font-family="Times,serif" font-size="14.00">ListComponent</text>
</g>
<!-- ListComponent&#45;&gt;AppModule -->
<g id="edge8" class="edge">
<title>ListComponent&#45;&gt;AppModule</title>
<path fill="none" stroke="black" d="M864,-84.82C864,-102.17 864,-125.8 864,-125.8 864,-125.8 1244.19,-125.8 1244.19,-125.8"/>
<polygon fill="black" stroke="black" points="1244.19,-129.3 1254.19,-125.8 1244.19,-122.3 1244.19,-129.3"/>
</g>
<!-- LoginRegisterComponent -->
<g id="node9" class="node">
<title>LoginRegisterComponent</title>
<polygon fill="#ffffb3" stroke="black" points="794.93,-84.8 633.07,-84.8 633.07,-48.8 794.93,-48.8 794.93,-84.8"/>
<text text-anchor="middle" x="714" y="-62.6" font-family="Times,serif" font-size="14.00">LoginRegisterComponent</text>
</g>
<!-- LoginRegisterComponent&#45;&gt;AppModule -->
<g id="edge9" class="edge">
<title>LoginRegisterComponent&#45;&gt;AppModule</title>
<path fill="none" stroke="black" d="M714,-85.02C714,-103.63 714,-129.8 714,-129.8 714,-129.8 1244.14,-129.8 1244.14,-129.8"/>
<polygon fill="black" stroke="black" points="1244.14,-133.3 1254.14,-129.8 1244.14,-126.3 1244.14,-133.3"/>
</g>
<!-- OutsideClickDirective -->
<g id="node10" class="node">
<title>OutsideClickDirective</title>
<polygon fill="#ffffb3" stroke="black" points="614.97,-84.8 473.03,-84.8 473.03,-48.8 614.97,-48.8 614.97,-84.8"/>
<text text-anchor="middle" x="544" y="-62.6" font-family="Times,serif" font-size="14.00">OutsideClickDirective</text>
</g>
<!-- OutsideClickDirective&#45;&gt;AppModule -->
<g id="edge10" class="edge">
<title>OutsideClickDirective&#45;&gt;AppModule</title>
<path fill="none" stroke="black" d="M544,-85.11C544,-104.95 544,-133.8 544,-133.8 544,-133.8 1244.23,-133.8 1244.23,-133.8"/>
<polygon fill="black" stroke="black" points="1244.23,-137.3 1254.23,-133.8 1244.23,-130.3 1244.23,-137.3"/>
</g>
<!-- ToggleComponent -->
<g id="node11" class="node">
<title>ToggleComponent</title>
<polygon fill="#ffffb3" stroke="black" points="455.49,-84.8 334.51,-84.8 334.51,-48.8 455.49,-48.8 455.49,-84.8"/>
<text text-anchor="middle" x="395" y="-62.6" font-family="Times,serif" font-size="14.00">ToggleComponent</text>
</g>
<!-- ToggleComponent&#45;&gt;AppModule -->
<g id="edge11" class="edge">
<title>ToggleComponent&#45;&gt;AppModule</title>
<path fill="none" stroke="black" d="M395,-85.08C395,-106.12 395,-137.8 395,-137.8 395,-137.8 1244.05,-137.8 1244.05,-137.8"/>
<polygon fill="black" stroke="black" points="1244.05,-141.3 1254.05,-137.8 1244.05,-134.3 1244.05,-141.3"/>
</g>
<!-- TopBarComponent -->
<g id="node12" class="node">
<title>TopBarComponent</title>
<polygon fill="#ffffb3" stroke="black" points="316.1,-84.8 191.9,-84.8 191.9,-48.8 316.1,-48.8 316.1,-84.8"/>
<text text-anchor="middle" x="254" y="-62.6" font-family="Times,serif" font-size="14.00">TopBarComponent</text>
</g>
<!-- TopBarComponent&#45;&gt;AppModule -->
<g id="edge12" class="edge">
<title>TopBarComponent&#45;&gt;AppModule</title>
<path fill="none" stroke="black" d="M254,-84.96C254,-107.15 254,-141.8 254,-141.8 254,-141.8 1244.19,-141.8 1244.19,-141.8"/>
<polygon fill="black" stroke="black" points="1244.19,-145.3 1254.19,-141.8 1244.19,-138.3 1244.19,-145.3"/>
</g>
<!-- VerticalResizeDirective -->
<g id="node13" class="node">
<title>VerticalResizeDirective</title>
<polygon fill="#ffffb3" stroke="black" points="174.48,-84.8 23.52,-84.8 23.52,-48.8 174.48,-48.8 174.48,-84.8"/>
<text text-anchor="middle" x="99" y="-62.6" font-family="Times,serif" font-size="14.00">VerticalResizeDirective</text>
</g>
<!-- VerticalResizeDirective&#45;&gt;AppModule -->
<g id="edge13" class="edge">
<title>VerticalResizeDirective&#45;&gt;AppModule</title>
<path fill="none" stroke="black" d="M99,-85.12C99,-108.46 99,-145.8 99,-145.8 99,-145.8 1244.1,-145.8 1244.1,-145.8"/>
<polygon fill="black" stroke="black" points="1244.1,-149.3 1254.1,-145.8 1244.1,-142.3 1244.1,-149.3"/>
</g>
<!-- AppComponent  -->
<g id="node16" class="node">
<title>AppComponent </title>
<polygon fill="#80b1d3" stroke="black" points="1350.44,-214.8 1241.56,-214.8 1241.56,-178.8 1350.44,-178.8 1350.44,-214.8"/>
<text text-anchor="middle" x="1296" y="-192.6" font-family="Times,serif" font-size="14.00">AppComponent </text>
</g>
<!-- AppModule&#45;&gt;AppComponent  -->
<g id="edge15" class="edge">
<title>AppModule&#45;&gt;AppComponent </title>
<path fill="none" stroke="black" stroke-dasharray="1,5" d="M1296,-149.91C1296,-149.91 1296,-168.79 1296,-168.79"/>
<polygon fill="black" stroke="black" points="1292.5,-168.79 1296,-178.79 1299.5,-168.79 1292.5,-168.79"/>
</g>
<!-- AppRoutingModule -->
<g id="node15" class="node">
<title>AppRoutingModule</title>
<polygon fill="#8dd3c7" stroke="black" points="2080.28,-84.8 2077.28,-88.8 2056.28,-88.8 2053.28,-84.8 1951.72,-84.8 1951.72,-48.8 2080.28,-48.8 2080.28,-84.8"/>
<text text-anchor="middle" x="2016" y="-62.6" font-family="Times,serif" font-size="14.00">AppRoutingModule</text>
</g>
<!-- AppRoutingModule&#45;&gt;AppModule -->
<g id="edge14" class="edge">
<title>AppRoutingModule&#45;&gt;AppModule</title>
<path fill="none" stroke="black" d="M2016,-85.02C2016,-103.63 2016,-129.8 2016,-129.8 2016,-129.8 1347.82,-129.8 1347.82,-129.8"/>
<polygon fill="black" stroke="black" points="1347.82,-126.3 1337.82,-129.8 1347.82,-133.3 1347.82,-126.3"/>
</g>
<!-- AuthService -->
<g id="node17" class="node">
<title>AuthService</title>
<ellipse fill="#fdb462" stroke="black" cx="2657" cy="-66.8" rx="59.11" ry="18"/>
<text text-anchor="middle" x="2657" y="-62.6" font-family="Times,serif" font-size="14.00">AuthService</text>
</g>
<!-- AuthService&#45;&gt;AppModule -->
<g id="edge16" class="edge">
<title>AuthService&#45;&gt;AppModule</title>
<path fill="none" stroke="black" d="M2657,-85.12C2657,-108.46 2657,-145.8 2657,-145.8 2657,-145.8 1347.85,-145.8 1347.85,-145.8"/>
<polygon fill="black" stroke="black" points="1347.85,-142.3 1337.85,-145.8 1347.85,-149.3 1347.85,-142.3"/>
</g>
<!-- DeviceOsService -->
<g id="node18" class="node">
<title>DeviceOsService</title>
<ellipse fill="#fdb462" stroke="black" cx="2502" cy="-66.8" rx="78.14" ry="18"/>
<text text-anchor="middle" x="2502" y="-62.6" font-family="Times,serif" font-size="14.00">DeviceOsService</text>
</g>
<!-- DeviceOsService&#45;&gt;AppModule -->
<g id="edge17" class="edge">
<title>DeviceOsService&#45;&gt;AppModule</title>
<path fill="none" stroke="black" d="M2502,-84.96C2502,-107.15 2502,-141.8 2502,-141.8 2502,-141.8 1347.86,-141.8 1347.86,-141.8"/>
<polygon fill="black" stroke="black" points="1347.86,-138.3 1337.86,-141.8 1347.86,-145.3 1347.86,-138.3"/>
</g>
<!-- FireAuthService -->
<g id="node19" class="node">
<title>FireAuthService</title>
<ellipse fill="#fdb462" stroke="black" cx="2331" cy="-66.8" rx="74.73" ry="18"/>
<text text-anchor="middle" x="2331" y="-62.6" font-family="Times,serif" font-size="14.00">FireAuthService</text>
</g>
<!-- FireAuthService&#45;&gt;AppModule -->
<g id="edge18" class="edge">
<title>FireAuthService&#45;&gt;AppModule</title>
<path fill="none" stroke="black" d="M2331,-85.08C2331,-106.12 2331,-137.8 2331,-137.8 2331,-137.8 1347.86,-137.8 1347.86,-137.8"/>
<polygon fill="black" stroke="black" points="1347.86,-134.3 1337.86,-137.8 1347.86,-141.3 1347.86,-134.3"/>
</g>
<!-- ThemeService -->
<g id="node20" class="node">
<title>ThemeService</title>
<ellipse fill="#fdb462" stroke="black" cx="2171" cy="-66.8" rx="66.61" ry="18"/>
<text text-anchor="middle" x="2171" y="-62.6" font-family="Times,serif" font-size="14.00">ThemeService</text>
</g>
<!-- ThemeService&#45;&gt;AppModule -->
<g id="edge19" class="edge">
<title>ThemeService&#45;&gt;AppModule</title>
<path fill="none" stroke="black" d="M2171,-85.11C2171,-104.95 2171,-133.8 2171,-133.8 2171,-133.8 1347.91,-133.8 1347.91,-133.8"/>
<polygon fill="black" stroke="black" points="1347.91,-130.3 1337.91,-133.8 1347.91,-137.3 1347.91,-130.3"/>
</g>
</g>
</svg>
