<?xml version="1.0" encoding="UTF-8" standalone="no"?>
<!DOCTYPE svg PUBLIC "-//W3C//DTD SVG 1.1//EN"
 "http://www.w3.org/Graphics/SVG/1.1/DTD/svg11.dtd">
<!-- Generated by graphviz version 5.0.0 (20220707.1540)
 -->
<!-- Title: dependencies Pages: 1 -->
<svg width="2288pt" height="247pt"
 viewBox="0.00 0.00 2288.00 246.80" xmlns="http://www.w3.org/2000/svg" xmlns:xlink="http://www.w3.org/1999/xlink">
<g id="graph0" class="graph" transform="scale(1 1) rotate(0) translate(4 242.8)">
<title>dependencies</title>
<polygon fill="white" stroke="transparent" points="-4,4 -4,-242.8 2284,-242.8 2284,4 -4,4"/>
<text text-anchor="middle" x="1140" y="-8.2" font-family="sans-serif" font-size="14.00">dependencies</text>
<g id="clust1" class="cluster">
<title>cluster_AppModule</title>
<polygon fill="none" stroke="black" stroke-dasharray="1,5" points="8,-32.8 8,-230.8 2272,-230.8 2272,-32.8 8,-32.8"/>
</g>
<g id="clust15" class="cluster">
<title>cluster_AppModule_providers</title>
<polygon fill="none" stroke="black" points="1707,-40.8 1707,-92.8 2264,-92.8 2264,-40.8 1707,-40.8"/>
</g>
<g id="clust14" class="cluster">
<title>cluster_AppModule_bootstrap</title>
<polygon fill="none" stroke="black" points="995,-170.8 995,-222.8 1119,-222.8 1119,-170.8 995,-170.8"/>
</g>
<g id="clust2" class="cluster">
<title>cluster_AppModule_declarations</title>
<polygon fill="none" stroke="black" points="285,-40.8 285,-92.8 1699,-92.8 1699,-40.8 285,-40.8"/>
</g>
<g id="clust12" class="cluster">
<title>cluster_AppModule_imports</title>
<polygon fill="none" stroke="black" points="16,-40.8 16,-92.8 277,-92.8 277,-40.8 16,-40.8"/>
</g>
<!-- AccountProfileComponent -->
<g id="node1" class="node">
<title>AccountProfileComponent</title>
<polygon fill="#ffffb3" stroke="black" points="1691.36,-84.8 1524.64,-84.8 1524.64,-48.8 1691.36,-48.8 1691.36,-84.8"/>
<text text-anchor="middle" x="1608" y="-62.6" font-family="Times,serif" font-size="14.00">AccountProfileComponent</text>
</g>
<!-- AppModule -->
<g id="node10" class="node">
<title>AppModule</title>
<polygon fill="#8dd3c7" stroke="black" points="1098.66,-149.8 1095.66,-153.8 1074.66,-153.8 1071.66,-149.8 1015.34,-149.8 1015.34,-113.8 1098.66,-113.8 1098.66,-149.8"/>
<text text-anchor="middle" x="1057" y="-127.6" font-family="Times,serif" font-size="14.00">AppModule</text>
</g>
<!-- AccountProfileComponent&#45;&gt;AppModule -->
<g id="edge1" class="edge">
<title>AccountProfileComponent&#45;&gt;AppModule</title>
<path fill="none" stroke="black" d="M1608,-85.02C1608,-103.63 1608,-129.8 1608,-129.8 1608,-129.8 1108.87,-129.8 1108.87,-129.8"/>
<polygon fill="black" stroke="black" points="1108.87,-126.3 1098.87,-129.8 1108.87,-133.3 1108.87,-126.3"/>
</g>
<!-- AppComponent -->
<g id="node2" class="node">
<title>AppComponent</title>
<polygon fill="#ffffb3" stroke="black" points="1506.94,-84.8 1401.06,-84.8 1401.06,-48.8 1506.94,-48.8 1506.94,-84.8"/>
<text text-anchor="middle" x="1454" y="-62.6" font-family="Times,serif" font-size="14.00">AppComponent</text>
</g>
<!-- AppComponent&#45;&gt;AppModule -->
<g id="edge2" class="edge">
<title>AppComponent&#45;&gt;AppModule</title>
<path fill="none" stroke="black" d="M1454,-84.83C1454,-101.86 1454,-124.8 1454,-124.8 1454,-124.8 1108.74,-124.8 1108.74,-124.8"/>
<polygon fill="black" stroke="black" points="1108.74,-121.3 1098.74,-124.8 1108.74,-128.3 1108.74,-121.3"/>
</g>
<!-- BottomNavComponent -->
<g id="node3" class="node">
<title>BottomNavComponent</title>
<polygon fill="#ffffb3" stroke="black" points="1383.16,-84.8 1236.84,-84.8 1236.84,-48.8 1383.16,-48.8 1383.16,-84.8"/>
<text text-anchor="middle" x="1310" y="-62.6" font-family="Times,serif" font-size="14.00">BottomNavComponent</text>
</g>
<!-- BottomNavComponent&#45;&gt;AppModule -->
<g id="edge3" class="edge">
<title>BottomNavComponent&#45;&gt;AppModule</title>
<path fill="none" stroke="black" d="M1310,-85.04C1310,-100.37 1310,-119.8 1310,-119.8 1310,-119.8 1108.78,-119.8 1108.78,-119.8"/>
<polygon fill="black" stroke="black" points="1108.78,-116.3 1098.78,-119.8 1108.78,-123.3 1108.78,-116.3"/>
</g>
<!-- FloatingMenuComponent -->
<g id="node4" class="node">
<title>FloatingMenuComponent</title>
<polygon fill="#ffffb3" stroke="black" points="1218.16,-84.8 1057.84,-84.8 1057.84,-48.8 1218.16,-48.8 1218.16,-84.8"/>
<text text-anchor="middle" x="1138" y="-62.6" font-family="Times,serif" font-size="14.00">FloatingMenuComponent</text>
</g>
<!-- FloatingMenuComponent&#45;&gt;AppModule -->
<g id="edge4" class="edge">
<title>FloatingMenuComponent&#45;&gt;AppModule</title>
<path fill="none" stroke="black" d="M1078.25,-84.91C1078.25,-84.91 1078.25,-103.79 1078.25,-103.79"/>
<polygon fill="black" stroke="black" points="1074.75,-103.79 1078.25,-113.79 1081.75,-103.79 1074.75,-103.79"/>
</g>
<!-- LoadingComponent -->
<g id="node5" class="node">
<title>LoadingComponent</title>
<polygon fill="#ffffb3" stroke="black" points="1039.99,-84.8 912.01,-84.8 912.01,-48.8 1039.99,-48.8 1039.99,-84.8"/>
<text text-anchor="middle" x="976" y="-62.6" font-family="Times,serif" font-size="14.00">LoadingComponent</text>
</g>
<!-- LoadingComponent&#45;&gt;AppModule -->
<g id="edge5" class="edge">
<title>LoadingComponent&#45;&gt;AppModule</title>
<path fill="none" stroke="black" d="M1027.58,-84.91C1027.58,-84.91 1027.58,-103.79 1027.58,-103.79"/>
<polygon fill="black" stroke="black" points="1024.08,-103.79 1027.58,-113.79 1031.08,-103.79 1024.08,-103.79"/>
</g>
<!-- LoadingOverlayComponent -->
<g id="node6" class="node">
<title>LoadingOverlayComponent</title>
<polygon fill="#ffffb3" stroke="black" points="893.58,-84.8 720.42,-84.8 720.42,-48.8 893.58,-48.8 893.58,-84.8"/>
<text text-anchor="middle" x="807" y="-62.6" font-family="Times,serif" font-size="14.00">LoadingOverlayComponent</text>
</g>
<!-- LoadingOverlayComponent&#45;&gt;AppModule -->
<g id="edge6" class="edge">
<title>LoadingOverlayComponent&#45;&gt;AppModule</title>
<path fill="none" stroke="black" d="M807,-85.04C807,-100.37 807,-119.8 807,-119.8 807,-119.8 1005.16,-119.8 1005.16,-119.8"/>
<polygon fill="black" stroke="black" points="1005.16,-123.3 1015.16,-119.8 1005.16,-116.3 1005.16,-123.3"/>
</g>
<!-- LoginComponent -->
<g id="node7" class="node">
<title>LoginComponent</title>
<polygon fill="#ffffb3" stroke="black" points="702.27,-84.8 587.73,-84.8 587.73,-48.8 702.27,-48.8 702.27,-84.8"/>
<text text-anchor="middle" x="645" y="-62.6" font-family="Times,serif" font-size="14.00">LoginComponent</text>
</g>
<!-- LoginComponent&#45;&gt;AppModule -->
<g id="edge7" class="edge">
<title>LoginComponent&#45;&gt;AppModule</title>
<path fill="none" stroke="black" d="M645,-84.83C645,-101.86 645,-124.8 645,-124.8 645,-124.8 1005.23,-124.8 1005.23,-124.8"/>
<polygon fill="black" stroke="black" points="1005.23,-128.3 1015.23,-124.8 1005.23,-121.3 1005.23,-128.3"/>
</g>
<!-- OverlayComponent -->
<g id="node8" class="node">
<title>OverlayComponent</title>
<polygon fill="#ffffb3" stroke="black" points="569.42,-84.8 442.58,-84.8 442.58,-48.8 569.42,-48.8 569.42,-84.8"/>
<text text-anchor="middle" x="506" y="-62.6" font-family="Times,serif" font-size="14.00">OverlayComponent</text>
</g>
<!-- OverlayComponent&#45;&gt;AppModule -->
<g id="edge8" class="edge">
<title>OverlayComponent&#45;&gt;AppModule</title>
<path fill="none" stroke="black" d="M506,-85.02C506,-103.63 506,-129.8 506,-129.8 506,-129.8 1005.13,-129.8 1005.13,-129.8"/>
<polygon fill="black" stroke="black" points="1005.13,-133.3 1015.13,-129.8 1005.13,-126.3 1005.13,-133.3"/>
</g>
<!-- PassagesComponent -->
<g id="node9" class="node">
<title>PassagesComponent</title>
<polygon fill="#ffffb3" stroke="black" points="424.6,-84.8 293.4,-84.8 293.4,-48.8 424.6,-48.8 424.6,-84.8"/>
<text text-anchor="middle" x="359" y="-62.6" font-family="Times,serif" font-size="14.00">PassagesComponent</text>
</g>
<!-- PassagesComponent&#45;&gt;AppModule -->
<g id="edge9" class="edge">
<title>PassagesComponent&#45;&gt;AppModule</title>
<path fill="none" stroke="black" d="M359,-85.02C359,-105.17 359,-134.8 359,-134.8 359,-134.8 1005.17,-134.8 1005.17,-134.8"/>
<polygon fill="black" stroke="black" points="1005.17,-138.3 1015.17,-134.8 1005.17,-131.3 1005.17,-138.3"/>
</g>
<!-- AppComponent  -->
<g id="node13" class="node">
<title>AppComponent </title>
<polygon fill="#80b1d3" stroke="black" points="1111.44,-214.8 1002.56,-214.8 1002.56,-178.8 1111.44,-178.8 1111.44,-214.8"/>
<text text-anchor="middle" x="1057" y="-192.6" font-family="Times,serif" font-size="14.00">AppComponent </text>
</g>
<!-- AppModule&#45;&gt;AppComponent  -->
<g id="edge12" class="edge">
<title>AppModule&#45;&gt;AppComponent </title>
<path fill="none" stroke="black" stroke-dasharray="1,5" d="M1057,-149.91C1057,-149.91 1057,-168.79 1057,-168.79"/>
<polygon fill="black" stroke="black" points="1053.5,-168.79 1057,-178.79 1060.5,-168.79 1053.5,-168.79"/>
</g>
<!-- AppRoutingModule -->
<g id="node11" class="node">
<title>AppRoutingModule</title>
<polygon fill="#8dd3c7" stroke="black" points="269.28,-84.8 266.28,-88.8 245.28,-88.8 242.28,-84.8 140.72,-84.8 140.72,-48.8 269.28,-48.8 269.28,-84.8"/>
<text text-anchor="middle" x="205" y="-62.6" font-family="Times,serif" font-size="14.00">AppRoutingModule</text>
</g>
<!-- AppRoutingModule&#45;&gt;AppModule -->
<g id="edge10" class="edge">
<title>AppRoutingModule&#45;&gt;AppModule</title>
<path fill="none" stroke="black" d="M205,-84.84C205,-106.46 205,-139.8 205,-139.8 205,-139.8 1005.33,-139.8 1005.33,-139.8"/>
<polygon fill="black" stroke="black" points="1005.33,-143.3 1015.33,-139.8 1005.33,-136.3 1005.33,-143.3"/>
</g>
<!-- SharedModule -->
<g id="node12" class="node">
<title>SharedModule</title>
<polygon fill="#8dd3c7" stroke="black" points="122.43,-84.8 119.43,-88.8 98.43,-88.8 95.43,-84.8 23.57,-84.8 23.57,-48.8 122.43,-48.8 122.43,-84.8"/>
<text text-anchor="middle" x="73" y="-62.6" font-family="Times,serif" font-size="14.00">SharedModule</text>
</g>
<!-- SharedModule&#45;&gt;AppModule -->
<g id="edge11" class="edge">
<title>SharedModule&#45;&gt;AppModule</title>
<path fill="none" stroke="black" d="M73,-84.89C73,-107.93 73,-144.8 73,-144.8 73,-144.8 1005.03,-144.8 1005.03,-144.8"/>
<polygon fill="black" stroke="black" points="1005.03,-148.3 1015.03,-144.8 1005.03,-141.3 1005.03,-148.3"/>
</g>
<!-- FloatingMenuService -->
<g id="node14" class="node">
<title>FloatingMenuService</title>
<ellipse fill="#fdb462" stroke="black" cx="2161" cy="-66.8" rx="94.93" ry="18"/>
<text text-anchor="middle" x="2161" y="-62.6" font-family="Times,serif" font-size="14.00">FloatingMenuService</text>
</g>
<!-- FloatingMenuService&#45;&gt;AppModule -->
<g id="edge13" class="edge">
<title>FloatingMenuService&#45;&gt;AppModule</title>
<path fill="none" stroke="black" d="M2161,-84.89C2161,-107.93 2161,-144.8 2161,-144.8 2161,-144.8 1108.93,-144.8 1108.93,-144.8"/>
<polygon fill="black" stroke="black" points="1108.93,-141.3 1098.93,-144.8 1108.93,-148.3 1108.93,-141.3"/>
</g>
<!-- LoadingOverlayService -->
<g id="node15" class="node">
<title>LoadingOverlayService</title>
<ellipse fill="#fdb462" stroke="black" cx="1945" cy="-66.8" rx="103.06" ry="18"/>
<text text-anchor="middle" x="1945" y="-62.6" font-family="Times,serif" font-size="14.00">LoadingOverlayService</text>
</g>
<!-- LoadingOverlayService&#45;&gt;AppModule -->
<g id="edge14" class="edge">
<title>LoadingOverlayService&#45;&gt;AppModule</title>
<path fill="none" stroke="black" d="M1945,-84.84C1945,-106.46 1945,-139.8 1945,-139.8 1945,-139.8 1108.94,-139.8 1108.94,-139.8"/>
<polygon fill="black" stroke="black" points="1108.94,-136.3 1098.94,-139.8 1108.94,-143.3 1108.94,-136.3"/>
</g>
<!-- OcrService -->
<g id="node16" class="node">
<title>OcrService</title>
<ellipse fill="#fdb462" stroke="black" cx="1769" cy="-66.8" rx="54.44" ry="18"/>
<text text-anchor="middle" x="1769" y="-62.6" font-family="Times,serif" font-size="14.00">OcrService</text>
</g>
<!-- OcrService&#45;&gt;AppModule -->
<g id="edge15" class="edge">
<title>OcrService&#45;&gt;AppModule</title>
<path fill="none" stroke="black" d="M1769,-85.02C1769,-105.17 1769,-134.8 1769,-134.8 1769,-134.8 1108.88,-134.8 1108.88,-134.8"/>
<polygon fill="black" stroke="black" points="1108.88,-131.3 1098.88,-134.8 1108.88,-138.3 1108.88,-131.3"/>
</g>
</g>
</svg>
