<?xml version="1.0" encoding="UTF-8" standalone="no"?>
<!DOCTYPE svg PUBLIC "-//W3C//DTD SVG 1.1//EN"
 "http://www.w3.org/Graphics/SVG/1.1/DTD/svg11.dtd">
<!-- Generated by graphviz version 5.0.0 (20220707.1540)
 -->
<!-- Title: dependencies Pages: 1 -->
<svg width="2882pt" height="247pt"
 viewBox="0.00 0.00 2882.00 246.80" xmlns="http://www.w3.org/2000/svg" xmlns:xlink="http://www.w3.org/1999/xlink">
<g id="graph0" class="graph" transform="scale(1 1) rotate(0) translate(4 242.8)">
<title>dependencies</title>
<polygon fill="white" stroke="transparent" points="-4,4 -4,-242.8 2878,-242.8 2878,4 -4,4"/>
<text text-anchor="middle" x="1437" y="-8.2" font-family="sans-serif" font-size="14.00">dependencies</text>
<g id="clust1" class="cluster">
<title>cluster_AppModule</title>
<polygon fill="none" stroke="black" stroke-dasharray="1,5" points="8,-32.8 8,-230.8 2866,-230.8 2866,-32.8 8,-32.8"/>
</g>
<g id="clust18" class="cluster">
<title>cluster_AppModule_bootstrap</title>
<polygon fill="none" stroke="black" points="1321,-170.8 1321,-222.8 1445,-222.8 1445,-170.8 1321,-170.8"/>
</g>
<g id="clust19" class="cluster">
<title>cluster_AppModule_providers</title>
<polygon fill="none" stroke="black" points="2228,-40.8 2228,-92.8 2858,-92.8 2858,-40.8 2228,-40.8"/>
</g>
<g id="clust2" class="cluster">
<title>cluster_AppModule_declarations</title>
<polygon fill="none" stroke="black" points="285,-40.8 285,-92.8 2220,-92.8 2220,-40.8 285,-40.8"/>
</g>
<g id="clust16" class="cluster">
<title>cluster_AppModule_imports</title>
<polygon fill="none" stroke="black" points="16,-40.8 16,-92.8 277,-92.8 277,-40.8 16,-40.8"/>
</g>
<!-- AccordionComponent -->
<g id="node1" class="node">
<title>AccordionComponent</title>
<polygon fill="#ffffb3" stroke="black" points="2212.42,-84.8 2071.58,-84.8 2071.58,-48.8 2212.42,-48.8 2212.42,-84.8"/>
<text text-anchor="middle" x="2142" y="-62.6" font-family="Times,serif" font-size="14.00">AccordionComponent</text>
</g>
<!-- AppModule -->
<g id="node14" class="node">
<title>AppModule</title>
<polygon fill="#8dd3c7" stroke="black" points="1424.66,-149.8 1421.66,-153.8 1400.66,-153.8 1397.66,-149.8 1341.34,-149.8 1341.34,-113.8 1424.66,-113.8 1424.66,-149.8"/>
<text text-anchor="middle" x="1383" y="-127.6" font-family="Times,serif" font-size="14.00">AppModule</text>
</g>
<!-- AccordionComponent&#45;&gt;AppModule -->
<g id="edge1" class="edge">
<title>AccordionComponent&#45;&gt;AppModule</title>
<path fill="none" stroke="black" d="M2142,-84.91C2142,-104.14 2142,-131.8 2142,-131.8 2142,-131.8 1434.89,-131.8 1434.89,-131.8"/>
<polygon fill="black" stroke="black" points="1434.89,-128.3 1424.89,-131.8 1434.89,-135.3 1434.89,-128.3"/>
</g>
<!-- AccountProfileComponent -->
<g id="node2" class="node">
<title>AccountProfileComponent</title>
<polygon fill="#ffffb3" stroke="black" points="2053.36,-84.8 1886.64,-84.8 1886.64,-48.8 2053.36,-48.8 2053.36,-84.8"/>
<text text-anchor="middle" x="1970" y="-62.6" font-family="Times,serif" font-size="14.00">AccountProfileComponent</text>
</g>
<!-- AccountProfileComponent&#45;&gt;AppModule -->
<g id="edge2" class="edge">
<title>AccountProfileComponent&#45;&gt;AppModule</title>
<path fill="none" stroke="black" d="M1970,-85.07C1970,-103.36 1970,-128.8 1970,-128.8 1970,-128.8 1434.75,-128.8 1434.75,-128.8"/>
<polygon fill="black" stroke="black" points="1434.75,-125.3 1424.75,-128.8 1434.74,-132.3 1434.75,-125.3"/>
</g>
<!-- AppComponent -->
<g id="node3" class="node">
<title>AppComponent</title>
<polygon fill="#ffffb3" stroke="black" points="1868.94,-84.8 1763.06,-84.8 1763.06,-48.8 1868.94,-48.8 1868.94,-84.8"/>
<text text-anchor="middle" x="1816" y="-62.6" font-family="Times,serif" font-size="14.00">AppComponent</text>
</g>
<!-- AppComponent&#45;&gt;AppModule -->
<g id="edge3" class="edge">
<title>AppComponent&#45;&gt;AppModule</title>
<path fill="none" stroke="black" d="M1816,-84.83C1816,-101.86 1816,-124.8 1816,-124.8 1816,-124.8 1434.91,-124.8 1434.91,-124.8"/>
<polygon fill="black" stroke="black" points="1434.91,-121.3 1424.91,-124.8 1434.91,-128.3 1434.91,-121.3"/>
</g>
<!-- BooksComponent -->
<g id="node4" class="node">
<title>BooksComponent</title>
<polygon fill="#ffffb3" stroke="black" points="1745.62,-84.8 1628.38,-84.8 1628.38,-48.8 1745.62,-48.8 1745.62,-84.8"/>
<text text-anchor="middle" x="1687" y="-62.6" font-family="Times,serif" font-size="14.00">BooksComponent</text>
</g>
<!-- BooksComponent&#45;&gt;AppModule -->
<g id="edge4" class="edge">
<title>BooksComponent&#45;&gt;AppModule</title>
<path fill="none" stroke="black" d="M1687,-84.81C1687,-100.85 1687,-121.8 1687,-121.8 1687,-121.8 1434.95,-121.8 1434.95,-121.8"/>
<polygon fill="black" stroke="black" points="1434.95,-118.3 1424.95,-121.8 1434.95,-125.3 1434.95,-118.3"/>
</g>
<!-- BottomNavComponent -->
<g id="node5" class="node">
<title>BottomNavComponent</title>
<polygon fill="#ffffb3" stroke="black" points="1610.16,-84.8 1463.84,-84.8 1463.84,-48.8 1610.16,-48.8 1610.16,-84.8"/>
<text text-anchor="middle" x="1537" y="-62.6" font-family="Times,serif" font-size="14.00">BottomNavComponent</text>
</g>
<!-- BottomNavComponent&#45;&gt;AppModule -->
<g id="edge5" class="edge">
<title>BottomNavComponent&#45;&gt;AppModule</title>
<path fill="none" stroke="black" d="M1537,-84.92C1537,-99.58 1537,-117.8 1537,-117.8 1537,-117.8 1434.67,-117.8 1434.67,-117.8"/>
<polygon fill="black" stroke="black" points="1434.67,-114.3 1424.67,-117.8 1434.67,-121.3 1434.67,-114.3"/>
</g>
<!-- CaptureComponent -->
<g id="node6" class="node">
<title>CaptureComponent</title>
<polygon fill="#ffffb3" stroke="black" points="1445.65,-84.8 1320.35,-84.8 1320.35,-48.8 1445.65,-48.8 1445.65,-84.8"/>
<text text-anchor="middle" x="1383" y="-62.6" font-family="Times,serif" font-size="14.00">CaptureComponent</text>
</g>
<!-- CaptureComponent&#45;&gt;AppModule -->
<g id="edge6" class="edge">
<title>CaptureComponent&#45;&gt;AppModule</title>
<path fill="none" stroke="black" d="M1383,-84.91C1383,-84.91 1383,-103.79 1383,-103.79"/>
<polygon fill="black" stroke="black" points="1379.5,-103.79 1383,-113.79 1386.5,-103.79 1379.5,-103.79"/>
</g>
<!-- CardsComponent -->
<g id="node7" class="node">
<title>CardsComponent</title>
<polygon fill="#ffffb3" stroke="black" points="1301.99,-84.8 1188.01,-84.8 1188.01,-48.8 1301.99,-48.8 1301.99,-84.8"/>
<text text-anchor="middle" x="1245" y="-62.6" font-family="Times,serif" font-size="14.00">CardsComponent</text>
</g>
<!-- CardsComponent&#45;&gt;AppModule -->
<g id="edge7" class="edge">
<title>CardsComponent&#45;&gt;AppModule</title>
<path fill="none" stroke="black" d="M1245,-84.92C1245,-99.58 1245,-117.8 1245,-117.8 1245,-117.8 1331.22,-117.8 1331.22,-117.8"/>
<polygon fill="black" stroke="black" points="1331.22,-121.3 1341.22,-117.8 1331.22,-114.3 1331.22,-121.3"/>
</g>
<!-- FloatingMenuComponent -->
<g id="node8" class="node">
<title>FloatingMenuComponent</title>
<polygon fill="#ffffb3" stroke="black" points="1170.16,-84.8 1009.84,-84.8 1009.84,-48.8 1170.16,-48.8 1170.16,-84.8"/>
<text text-anchor="middle" x="1090" y="-62.6" font-family="Times,serif" font-size="14.00">FloatingMenuComponent</text>
</g>
<!-- FloatingMenuComponent&#45;&gt;AppModule -->
<g id="edge8" class="edge">
<title>FloatingMenuComponent&#45;&gt;AppModule</title>
<path fill="none" stroke="black" d="M1090,-84.81C1090,-100.85 1090,-121.8 1090,-121.8 1090,-121.8 1331.33,-121.8 1331.33,-121.8"/>
<polygon fill="black" stroke="black" points="1331.33,-125.3 1341.33,-121.8 1331.33,-118.3 1331.33,-125.3"/>
</g>
<!-- InsightsComponent -->
<g id="node9" class="node">
<title>InsightsComponent</title>
<polygon fill="#ffffb3" stroke="black" points="991.67,-84.8 866.33,-84.8 866.33,-48.8 991.67,-48.8 991.67,-84.8"/>
<text text-anchor="middle" x="929" y="-62.6" font-family="Times,serif" font-size="14.00">InsightsComponent</text>
</g>
<!-- InsightsComponent&#45;&gt;AppModule -->
<g id="edge9" class="edge">
<title>InsightsComponent&#45;&gt;AppModule</title>
<path fill="none" stroke="black" d="M929,-84.83C929,-101.86 929,-124.8 929,-124.8 929,-124.8 1331.1,-124.8 1331.1,-124.8"/>
<polygon fill="black" stroke="black" points="1331.1,-128.3 1341.1,-124.8 1331.1,-121.3 1331.1,-128.3"/>
</g>
<!-- LoadingComponent -->
<g id="node10" class="node">
<title>LoadingComponent</title>
<polygon fill="#ffffb3" stroke="black" points="847.99,-84.8 720.01,-84.8 720.01,-48.8 847.99,-48.8 847.99,-84.8"/>
<text text-anchor="middle" x="784" y="-62.6" font-family="Times,serif" font-size="14.00">LoadingComponent</text>
</g>
<!-- LoadingComponent&#45;&gt;AppModule -->
<g id="edge10" class="edge">
<title>LoadingComponent&#45;&gt;AppModule</title>
<path fill="none" stroke="black" d="M784,-85.07C784,-103.36 784,-128.8 784,-128.8 784,-128.8 1330.88,-128.8 1330.88,-128.8"/>
<polygon fill="black" stroke="black" points="1330.88,-132.3 1340.88,-128.8 1330.88,-125.3 1330.88,-132.3"/>
</g>
<!-- LoginComponent -->
<g id="node11" class="node">
<title>LoginComponent</title>
<polygon fill="#ffffb3" stroke="black" points="702.27,-84.8 587.73,-84.8 587.73,-48.8 702.27,-48.8 702.27,-84.8"/>
<text text-anchor="middle" x="645" y="-62.6" font-family="Times,serif" font-size="14.00">LoginComponent</text>
</g>
<!-- LoginComponent&#45;&gt;AppModule -->
<g id="edge11" class="edge">
<title>LoginComponent&#45;&gt;AppModule</title>
<path fill="none" stroke="black" d="M645,-84.91C645,-104.14 645,-131.8 645,-131.8 645,-131.8 1331.21,-131.8 1331.21,-131.8"/>
<polygon fill="black" stroke="black" points="1331.21,-135.3 1341.21,-131.8 1331.21,-128.3 1331.21,-135.3"/>
</g>
<!-- OverlayComponent -->
<g id="node12" class="node">
<title>OverlayComponent</title>
<polygon fill="#ffffb3" stroke="black" points="569.42,-84.8 442.58,-84.8 442.58,-48.8 569.42,-48.8 569.42,-84.8"/>
<text text-anchor="middle" x="506" y="-62.6" font-family="Times,serif" font-size="14.00">OverlayComponent</text>
</g>
<!-- OverlayComponent&#45;&gt;AppModule -->
<g id="edge12" class="edge">
<title>OverlayComponent&#45;&gt;AppModule</title>
<path fill="none" stroke="black" d="M506,-84.93C506,-105.37 506,-135.8 506,-135.8 506,-135.8 1331.29,-135.8 1331.29,-135.8"/>
<polygon fill="black" stroke="black" points="1331.29,-139.3 1341.29,-135.8 1331.29,-132.3 1331.29,-139.3"/>
</g>
<!-- PassagesComponent -->
<g id="node13" class="node">
<title>PassagesComponent</title>
<polygon fill="#ffffb3" stroke="black" points="424.6,-84.8 293.4,-84.8 293.4,-48.8 424.6,-48.8 424.6,-84.8"/>
<text text-anchor="middle" x="359" y="-62.6" font-family="Times,serif" font-size="14.00">PassagesComponent</text>
</g>
<!-- PassagesComponent&#45;&gt;AppModule -->
<g id="edge13" class="edge">
<title>PassagesComponent&#45;&gt;AppModule</title>
<path fill="none" stroke="black" d="M359,-84.84C359,-106.46 359,-139.8 359,-139.8 359,-139.8 1331.27,-139.8 1331.27,-139.8"/>
<polygon fill="black" stroke="black" points="1331.27,-143.3 1341.27,-139.8 1331.27,-136.3 1331.27,-143.3"/>
</g>
<!-- AppComponent  -->
<g id="node17" class="node">
<title>AppComponent </title>
<polygon fill="#80b1d3" stroke="black" points="1437.44,-214.8 1328.56,-214.8 1328.56,-178.8 1437.44,-178.8 1437.44,-214.8"/>
<text text-anchor="middle" x="1383" y="-192.6" font-family="Times,serif" font-size="14.00">AppComponent </text>
</g>
<!-- AppModule&#45;&gt;AppComponent  -->
<g id="edge16" class="edge">
<title>AppModule&#45;&gt;AppComponent </title>
<path fill="none" stroke="black" stroke-dasharray="1,5" d="M1383,-149.91C1383,-149.91 1383,-168.79 1383,-168.79"/>
<polygon fill="black" stroke="black" points="1379.5,-168.79 1383,-178.79 1386.5,-168.79 1379.5,-168.79"/>
</g>
<!-- AppRoutingModule -->
<g id="node15" class="node">
<title>AppRoutingModule</title>
<polygon fill="#8dd3c7" stroke="black" points="269.28,-84.8 266.28,-88.8 245.28,-88.8 242.28,-84.8 140.72,-84.8 140.72,-48.8 269.28,-48.8 269.28,-84.8"/>
<text text-anchor="middle" x="205" y="-62.6" font-family="Times,serif" font-size="14.00">AppRoutingModule</text>
</g>
<!-- AppRoutingModule&#45;&gt;AppModule -->
<g id="edge14" class="edge">
<title>AppRoutingModule&#45;&gt;AppModule</title>
<path fill="none" stroke="black" d="M205,-84.81C205,-107.29 205,-142.8 205,-142.8 205,-142.8 1331.07,-142.8 1331.07,-142.8"/>
<polygon fill="black" stroke="black" points="1331.07,-146.3 1341.07,-142.8 1331.07,-139.3 1331.07,-146.3"/>
</g>
<!-- SharedModule -->
<g id="node16" class="node">
<title>SharedModule</title>
<polygon fill="#8dd3c7" stroke="black" points="122.43,-84.8 119.43,-88.8 98.43,-88.8 95.43,-84.8 23.57,-84.8 23.57,-48.8 122.43,-48.8 122.43,-84.8"/>
<text text-anchor="middle" x="73" y="-62.6" font-family="Times,serif" font-size="14.00">SharedModule</text>
</g>
<!-- SharedModule&#45;&gt;AppModule -->
<g id="edge15" class="edge">
<title>SharedModule&#45;&gt;AppModule</title>
<path fill="none" stroke="black" d="M73,-84.95C73,-108.56 73,-146.8 73,-146.8 73,-146.8 1331.26,-146.8 1331.26,-146.8"/>
<polygon fill="black" stroke="black" points="1331.26,-150.3 1341.26,-146.8 1331.26,-143.3 1331.26,-150.3"/>
</g>
<!-- BookService -->
<g id="node18" class="node">
<title>BookService</title>
<ellipse fill="#fdb462" stroke="black" cx="2789" cy="-66.8" rx="60.84" ry="18"/>
<text text-anchor="middle" x="2789" y="-62.6" font-family="Times,serif" font-size="14.00">BookService</text>
</g>
<!-- BookService&#45;&gt;AppModule -->
<g id="edge17" class="edge">
<title>BookService&#45;&gt;AppModule</title>
<path fill="none" stroke="black" d="M2789,-84.95C2789,-108.56 2789,-146.8 2789,-146.8 2789,-146.8 1434.7,-146.8 1434.7,-146.8"/>
<polygon fill="black" stroke="black" points="1434.7,-143.3 1424.7,-146.8 1434.7,-150.3 1434.7,-143.3"/>
</g>
<!-- CameraService -->
<g id="node19" class="node">
<title>CameraService</title>
<ellipse fill="#fdb462" stroke="black" cx="2640" cy="-66.8" rx="70.04" ry="18"/>
<text text-anchor="middle" x="2640" y="-62.6" font-family="Times,serif" font-size="14.00">CameraService</text>
</g>
<!-- CameraService&#45;&gt;AppModule -->
<g id="edge18" class="edge">
<title>CameraService&#45;&gt;AppModule</title>
<path fill="none" stroke="black" d="M2640,-84.81C2640,-107.29 2640,-142.8 2640,-142.8 2640,-142.8 1434.82,-142.8 1434.82,-142.8"/>
<polygon fill="black" stroke="black" points="1434.82,-139.3 1424.82,-142.8 1434.82,-146.3 1434.82,-139.3"/>
</g>
<!-- FloatingMenuService -->
<g id="node20" class="node">
<title>FloatingMenuService</title>
<ellipse fill="#fdb462" stroke="black" cx="2457" cy="-66.8" rx="94.93" ry="18"/>
<text text-anchor="middle" x="2457" y="-62.6" font-family="Times,serif" font-size="14.00">FloatingMenuService</text>
</g>
<!-- FloatingMenuService&#45;&gt;AppModule -->
<g id="edge19" class="edge">
<title>FloatingMenuService&#45;&gt;AppModule</title>
<path fill="none" stroke="black" d="M2457,-84.84C2457,-106.46 2457,-139.8 2457,-139.8 2457,-139.8 1434.77,-139.8 1434.77,-139.8"/>
<polygon fill="black" stroke="black" points="1434.77,-136.3 1424.77,-139.8 1434.77,-143.3 1434.77,-136.3"/>
</g>
<!-- OcrService -->
<g id="node21" class="node">
<title>OcrService</title>
<ellipse fill="#fdb462" stroke="black" cx="2290" cy="-66.8" rx="54.44" ry="18"/>
<text text-anchor="middle" x="2290" y="-62.6" font-family="Times,serif" font-size="14.00">OcrService</text>
</g>
<!-- OcrService&#45;&gt;AppModule -->
<g id="edge20" class="edge">
<title>OcrService&#45;&gt;AppModule</title>
<path fill="none" stroke="black" d="M2290,-84.93C2290,-105.37 2290,-135.8 2290,-135.8 2290,-135.8 1434.93,-135.8 1434.93,-135.8"/>
<polygon fill="black" stroke="black" points="1434.93,-132.3 1424.93,-135.8 1434.93,-139.3 1434.93,-132.3"/>
</g>
</g>
</svg>
