<?xml version="1.0" encoding="UTF-8" standalone="no"?>
<!DOCTYPE svg PUBLIC "-//W3C//DTD SVG 1.1//EN"
 "http://www.w3.org/Graphics/SVG/1.1/DTD/svg11.dtd">
<!-- Generated by graphviz version 5.0.0 (20220707.1540)
 -->
<!-- Title: dependencies Pages: 1 -->
<svg width="2150pt" height="247pt"
 viewBox="0.00 0.00 2150.00 246.80" xmlns="http://www.w3.org/2000/svg" xmlns:xlink="http://www.w3.org/1999/xlink">
<g id="graph0" class="graph" transform="scale(1 1) rotate(0) translate(4 242.8)">
<title>dependencies</title>
<polygon fill="white" stroke="transparent" points="-4,4 -4,-242.8 2146,-242.8 2146,4 -4,4"/>
<text text-anchor="middle" x="1071" y="-8.2" font-family="sans-serif" font-size="14.00">dependencies</text>
<g id="clust1" class="cluster">
<title>cluster_AppModule</title>
<polygon fill="none" stroke="black" stroke-dasharray="1,5" points="8,-32.8 8,-230.8 2134,-230.8 2134,-32.8 8,-32.8"/>
</g>
<g id="clust2" class="cluster">
<title>cluster_AppModule_declarations</title>
<polygon fill="none" stroke="black" points="850,-40.8 850,-92.8 2126,-92.8 2126,-40.8 850,-40.8"/>
</g>
<g id="clust11" class="cluster">
<title>cluster_AppModule_imports</title>
<polygon fill="none" stroke="black" points="581,-40.8 581,-92.8 842,-92.8 842,-40.8 581,-40.8"/>
</g>
<g id="clust13" class="cluster">
<title>cluster_AppModule_bootstrap</title>
<polygon fill="none" stroke="black" points="1009,-170.8 1009,-222.8 1133,-222.8 1133,-170.8 1009,-170.8"/>
</g>
<g id="clust14" class="cluster">
<title>cluster_AppModule_providers</title>
<polygon fill="none" stroke="black" points="16,-40.8 16,-92.8 573,-92.8 573,-40.8 16,-40.8"/>
</g>
<!-- AppComponent -->
<g id="node1" class="node">
<title>AppComponent</title>
<polygon fill="#ffffb3" stroke="black" points="2117.94,-84.8 2012.06,-84.8 2012.06,-48.8 2117.94,-48.8 2117.94,-84.8"/>
<text text-anchor="middle" x="2065" y="-62.6" font-family="Times,serif" font-size="14.00">AppComponent</text>
</g>
<!-- AppModule -->
<g id="node9" class="node">
<title>AppModule</title>
<polygon fill="#8dd3c7" stroke="black" points="1112.66,-149.8 1109.66,-153.8 1088.66,-153.8 1085.66,-149.8 1029.34,-149.8 1029.34,-113.8 1112.66,-113.8 1112.66,-149.8"/>
<text text-anchor="middle" x="1071" y="-127.6" font-family="Times,serif" font-size="14.00">AppModule</text>
</g>
<!-- AppComponent&#45;&gt;AppModule -->
<g id="edge1" class="edge">
<title>AppComponent&#45;&gt;AppModule</title>
<path fill="none" stroke="black" d="M2065,-84.89C2065,-107.93 2065,-144.8 2065,-144.8 2065,-144.8 1122.76,-144.8 1122.76,-144.8"/>
<polygon fill="black" stroke="black" points="1122.76,-141.3 1112.76,-144.8 1122.76,-148.3 1122.76,-141.3"/>
</g>
<!-- BottomNavComponent -->
<g id="node2" class="node">
<title>BottomNavComponent</title>
<polygon fill="#ffffb3" stroke="black" points="1994.16,-84.8 1847.84,-84.8 1847.84,-48.8 1994.16,-48.8 1994.16,-84.8"/>
<text text-anchor="middle" x="1921" y="-62.6" font-family="Times,serif" font-size="14.00">BottomNavComponent</text>
</g>
<!-- BottomNavComponent&#45;&gt;AppModule -->
<g id="edge2" class="edge">
<title>BottomNavComponent&#45;&gt;AppModule</title>
<path fill="none" stroke="black" d="M1921,-84.84C1921,-106.46 1921,-139.8 1921,-139.8 1921,-139.8 1122.86,-139.8 1122.86,-139.8"/>
<polygon fill="black" stroke="black" points="1122.86,-136.3 1112.86,-139.8 1122.86,-143.3 1122.86,-136.3"/>
</g>
<!-- FloatingMenuComponent -->
<g id="node3" class="node">
<title>FloatingMenuComponent</title>
<polygon fill="#ffffb3" stroke="black" points="1829.16,-84.8 1668.84,-84.8 1668.84,-48.8 1829.16,-48.8 1829.16,-84.8"/>
<text text-anchor="middle" x="1749" y="-62.6" font-family="Times,serif" font-size="14.00">FloatingMenuComponent</text>
</g>
<!-- FloatingMenuComponent&#45;&gt;AppModule -->
<g id="edge3" class="edge">
<title>FloatingMenuComponent&#45;&gt;AppModule</title>
<path fill="none" stroke="black" d="M1749,-85.02C1749,-105.17 1749,-134.8 1749,-134.8 1749,-134.8 1122.9,-134.8 1122.9,-134.8"/>
<polygon fill="black" stroke="black" points="1122.9,-131.3 1112.9,-134.8 1122.9,-138.3 1122.9,-131.3"/>
</g>
<!-- LoadingComponent -->
<g id="node4" class="node">
<title>LoadingComponent</title>
<polygon fill="#ffffb3" stroke="black" points="1650.99,-84.8 1523.01,-84.8 1523.01,-48.8 1650.99,-48.8 1650.99,-84.8"/>
<text text-anchor="middle" x="1587" y="-62.6" font-family="Times,serif" font-size="14.00">LoadingComponent</text>
</g>
<!-- LoadingComponent&#45;&gt;AppModule -->
<g id="edge4" class="edge">
<title>LoadingComponent&#45;&gt;AppModule</title>
<path fill="none" stroke="black" d="M1587,-85.02C1587,-103.63 1587,-129.8 1587,-129.8 1587,-129.8 1122.79,-129.8 1122.79,-129.8"/>
<polygon fill="black" stroke="black" points="1122.79,-126.3 1112.79,-129.8 1122.79,-133.3 1122.79,-126.3"/>
</g>
<!-- LoadingOverlayComponent -->
<g id="node5" class="node">
<title>LoadingOverlayComponent</title>
<polygon fill="#ffffb3" stroke="black" points="1504.58,-84.8 1331.42,-84.8 1331.42,-48.8 1504.58,-48.8 1504.58,-84.8"/>
<text text-anchor="middle" x="1418" y="-62.6" font-family="Times,serif" font-size="14.00">LoadingOverlayComponent</text>
</g>
<!-- LoadingOverlayComponent&#45;&gt;AppModule -->
<g id="edge5" class="edge">
<title>LoadingOverlayComponent&#45;&gt;AppModule</title>
<path fill="none" stroke="black" d="M1418,-84.83C1418,-101.86 1418,-124.8 1418,-124.8 1418,-124.8 1122.86,-124.8 1122.86,-124.8"/>
<polygon fill="black" stroke="black" points="1122.86,-121.3 1112.86,-124.8 1122.86,-128.3 1122.86,-121.3"/>
</g>
<!-- LoginRegisterComponent -->
<g id="node6" class="node">
<title>LoginRegisterComponent</title>
<polygon fill="#ffffb3" stroke="black" points="1313.93,-84.8 1152.07,-84.8 1152.07,-48.8 1313.93,-48.8 1313.93,-84.8"/>
<text text-anchor="middle" x="1233" y="-62.6" font-family="Times,serif" font-size="14.00">LoginRegisterComponent</text>
</g>
<!-- LoginRegisterComponent&#45;&gt;AppModule -->
<g id="edge6" class="edge">
<title>LoginRegisterComponent&#45;&gt;AppModule</title>
<path fill="none" stroke="black" d="M1233,-85.04C1233,-100.37 1233,-119.8 1233,-119.8 1233,-119.8 1122.72,-119.8 1122.72,-119.8"/>
<polygon fill="black" stroke="black" points="1122.72,-116.3 1112.72,-119.8 1122.72,-123.3 1122.72,-116.3"/>
</g>
<!-- OverlayComponent -->
<g id="node7" class="node">
<title>OverlayComponent</title>
<polygon fill="#ffffb3" stroke="black" points="1134.42,-84.8 1007.58,-84.8 1007.58,-48.8 1134.42,-48.8 1134.42,-84.8"/>
<text text-anchor="middle" x="1071" y="-62.6" font-family="Times,serif" font-size="14.00">OverlayComponent</text>
</g>
<!-- OverlayComponent&#45;&gt;AppModule -->
<g id="edge7" class="edge">
<title>OverlayComponent&#45;&gt;AppModule</title>
<path fill="none" stroke="black" d="M1071,-84.91C1071,-84.91 1071,-103.79 1071,-103.79"/>
<polygon fill="black" stroke="black" points="1067.5,-103.79 1071,-113.79 1074.5,-103.79 1067.5,-103.79"/>
</g>
<!-- PassagesComponent -->
<g id="node8" class="node">
<title>PassagesComponent</title>
<polygon fill="#ffffb3" stroke="black" points="989.6,-84.8 858.4,-84.8 858.4,-48.8 989.6,-48.8 989.6,-84.8"/>
<text text-anchor="middle" x="924" y="-62.6" font-family="Times,serif" font-size="14.00">PassagesComponent</text>
</g>
<!-- PassagesComponent&#45;&gt;AppModule -->
<g id="edge8" class="edge">
<title>PassagesComponent&#45;&gt;AppModule</title>
<path fill="none" stroke="black" d="M924,-85.04C924,-100.37 924,-119.8 924,-119.8 924,-119.8 1019.27,-119.8 1019.27,-119.8"/>
<polygon fill="black" stroke="black" points="1019.27,-123.3 1029.27,-119.8 1019.27,-116.3 1019.27,-123.3"/>
</g>
<!-- AppComponent  -->
<g id="node12" class="node">
<title>AppComponent </title>
<polygon fill="#80b1d3" stroke="black" points="1125.44,-214.8 1016.56,-214.8 1016.56,-178.8 1125.44,-178.8 1125.44,-214.8"/>
<text text-anchor="middle" x="1071" y="-192.6" font-family="Times,serif" font-size="14.00">AppComponent </text>
</g>
<!-- AppModule&#45;&gt;AppComponent  -->
<g id="edge11" class="edge">
<title>AppModule&#45;&gt;AppComponent </title>
<path fill="none" stroke="black" stroke-dasharray="1,5" d="M1071,-149.91C1071,-149.91 1071,-168.79 1071,-168.79"/>
<polygon fill="black" stroke="black" points="1067.5,-168.79 1071,-178.79 1074.5,-168.79 1067.5,-168.79"/>
</g>
<!-- AppRoutingModule -->
<g id="node10" class="node">
<title>AppRoutingModule</title>
<polygon fill="#8dd3c7" stroke="black" points="834.28,-84.8 831.28,-88.8 810.28,-88.8 807.28,-84.8 705.72,-84.8 705.72,-48.8 834.28,-48.8 834.28,-84.8"/>
<text text-anchor="middle" x="770" y="-62.6" font-family="Times,serif" font-size="14.00">AppRoutingModule</text>
</g>
<!-- AppRoutingModule&#45;&gt;AppModule -->
<g id="edge9" class="edge">
<title>AppRoutingModule&#45;&gt;AppModule</title>
<path fill="none" stroke="black" d="M770,-84.83C770,-101.86 770,-124.8 770,-124.8 770,-124.8 1019.15,-124.8 1019.15,-124.8"/>
<polygon fill="black" stroke="black" points="1019.15,-128.3 1029.15,-124.8 1019.15,-121.3 1019.15,-128.3"/>
</g>
<!-- SharedModule -->
<g id="node11" class="node">
<title>SharedModule</title>
<polygon fill="#8dd3c7" stroke="black" points="687.43,-84.8 684.43,-88.8 663.43,-88.8 660.43,-84.8 588.57,-84.8 588.57,-48.8 687.43,-48.8 687.43,-84.8"/>
<text text-anchor="middle" x="638" y="-62.6" font-family="Times,serif" font-size="14.00">SharedModule</text>
</g>
<!-- SharedModule&#45;&gt;AppModule -->
<g id="edge10" class="edge">
<title>SharedModule&#45;&gt;AppModule</title>
<path fill="none" stroke="black" d="M638,-85.02C638,-103.63 638,-129.8 638,-129.8 638,-129.8 1019.09,-129.8 1019.09,-129.8"/>
<polygon fill="black" stroke="black" points="1019.09,-133.3 1029.09,-129.8 1019.09,-126.3 1019.09,-133.3"/>
</g>
<!-- FloatingMenuService -->
<g id="node13" class="node">
<title>FloatingMenuService</title>
<ellipse fill="#fdb462" stroke="black" cx="470" cy="-66.8" rx="94.93" ry="18"/>
<text text-anchor="middle" x="470" y="-62.6" font-family="Times,serif" font-size="14.00">FloatingMenuService</text>
</g>
<!-- FloatingMenuService&#45;&gt;AppModule -->
<g id="edge12" class="edge">
<title>FloatingMenuService&#45;&gt;AppModule</title>
<path fill="none" stroke="black" d="M470,-85.02C470,-105.17 470,-134.8 470,-134.8 470,-134.8 1019.22,-134.8 1019.22,-134.8"/>
<polygon fill="black" stroke="black" points="1019.22,-138.3 1029.22,-134.8 1019.22,-131.3 1019.22,-138.3"/>
</g>
<!-- LoadingOverlayService -->
<g id="node14" class="node">
<title>LoadingOverlayService</title>
<ellipse fill="#fdb462" stroke="black" cx="254" cy="-66.8" rx="103.06" ry="18"/>
<text text-anchor="middle" x="254" y="-62.6" font-family="Times,serif" font-size="14.00">LoadingOverlayService</text>
</g>
<!-- LoadingOverlayService&#45;&gt;AppModule -->
<g id="edge13" class="edge">
<title>LoadingOverlayService&#45;&gt;AppModule</title>
<path fill="none" stroke="black" d="M254,-84.84C254,-106.46 254,-139.8 254,-139.8 254,-139.8 1019.08,-139.8 1019.08,-139.8"/>
<polygon fill="black" stroke="black" points="1019.08,-143.3 1029.08,-139.8 1019.08,-136.3 1019.08,-143.3"/>
</g>
<!-- OcrService -->
<g id="node15" class="node">
<title>OcrService</title>
<ellipse fill="#fdb462" stroke="black" cx="78" cy="-66.8" rx="54.44" ry="18"/>
<text text-anchor="middle" x="78" y="-62.6" font-family="Times,serif" font-size="14.00">OcrService</text>
</g>
<!-- OcrService&#45;&gt;AppModule -->
<g id="edge14" class="edge">
<title>OcrService&#45;&gt;AppModule</title>
<path fill="none" stroke="black" d="M78,-84.89C78,-107.93 78,-144.8 78,-144.8 78,-144.8 1019.28,-144.8 1019.28,-144.8"/>
<polygon fill="black" stroke="black" points="1019.28,-148.3 1029.28,-144.8 1019.28,-141.3 1019.28,-148.3"/>
</g>
</g>
</svg>
