<?xml version="1.0" encoding="UTF-8" standalone="no"?>
<!DOCTYPE svg PUBLIC "-//W3C//DTD SVG 1.1//EN"
 "http://www.w3.org/Graphics/SVG/1.1/DTD/svg11.dtd">
<!-- Generated by graphviz version 5.0.0 (20220707.1540)
 -->
<!-- Title: dependencies Pages: 1 -->
<svg width="4094pt" height="323pt"
 viewBox="0.00 0.00 4094.00 322.80" xmlns="http://www.w3.org/2000/svg" xmlns:xlink="http://www.w3.org/1999/xlink">
<g id="graph0" class="graph" transform="scale(1 1) rotate(0) translate(4 318.8)">
<title>dependencies</title>
<polygon fill="white" stroke="transparent" points="-4,4 -4,-318.8 4090,-318.8 4090,4 -4,4"/>
<text text-anchor="middle" x="2043" y="-8.2" font-family="sans-serif" font-size="14.00">dependencies</text>
<g id="clust1" class="cluster">
<title>cluster_AppModule</title>
<polygon fill="none" stroke="black" stroke-dasharray="1,5" points="604,-32.8 604,-306.8 2211,-306.8 2211,-32.8 604,-32.8"/>
</g>
<g id="clust2" class="cluster">
<title>cluster_AppModule_declarations</title>
<polygon fill="none" stroke="black" points="624,-116.8 624,-168.8 1900,-168.8 1900,-116.8 624,-116.8"/>
</g>
<g id="clust11" class="cluster">
<title>cluster_AppModule_imports</title>
<polygon fill="none" stroke="black" points="1942,-116.8 1942,-168.8 2203,-168.8 2203,-116.8 1942,-116.8"/>
</g>
<g id="clust13" class="cluster">
<title>cluster_AppModule_bootstrap</title>
<polygon fill="none" stroke="black" points="1461,-246.8 1461,-298.8 1585,-298.8 1585,-246.8 1461,-246.8"/>
</g>
<g id="clust14" class="cluster">
<title>cluster_AppModule_providers</title>
<polygon fill="none" stroke="black" points="1563,-40.8 1563,-92.8 2120,-92.8 2120,-40.8 1563,-40.8"/>
</g>
<g id="clust21" class="cluster">
<title>cluster_BookModule</title>
<polygon fill="none" stroke="black" stroke-dasharray="1,5" points="8,-108.8 8,-233.8 596,-233.8 596,-108.8 8,-108.8"/>
</g>
<g id="clust22" class="cluster">
<title>cluster_BookModule_declarations</title>
<polygon fill="none" stroke="black" points="322,-116.8 322,-168.8 588,-168.8 588,-116.8 322,-116.8"/>
</g>
<g id="clust25" class="cluster">
<title>cluster_BookModule_imports</title>
<polygon fill="none" stroke="black" points="162,-116.8 162,-168.8 314,-168.8 314,-116.8 162,-116.8"/>
</g>
<g id="clust28" class="cluster">
<title>cluster_BookModule_providers</title>
<polygon fill="none" stroke="black" points="16,-116.8 16,-168.8 154,-168.8 154,-116.8 16,-116.8"/>
</g>
<g id="clust35" class="cluster">
<title>cluster_CaptureModule</title>
<polygon fill="none" stroke="black" stroke-dasharray="1,5" points="2219,-108.8 2219,-306.8 2871,-306.8 2871,-108.8 2219,-108.8"/>
</g>
<g id="clust36" class="cluster">
<title>cluster_CaptureModule_declarations</title>
<polygon fill="none" stroke="black" points="2563,-116.8 2563,-168.8 2863,-168.8 2863,-116.8 2563,-116.8"/>
</g>
<g id="clust39" class="cluster">
<title>cluster_CaptureModule_imports</title>
<polygon fill="none" stroke="black" points="2391,-116.8 2391,-168.8 2555,-168.8 2555,-116.8 2391,-116.8"/>
</g>
<g id="clust40" class="cluster">
<title>cluster_CaptureModule_exports</title>
<polygon fill="none" stroke="black" points="2393,-246.8 2393,-298.8 2553,-298.8 2553,-246.8 2393,-246.8"/>
</g>
<g id="clust42" class="cluster">
<title>cluster_CaptureModule_providers</title>
<polygon fill="none" stroke="black" points="2227,-116.8 2227,-168.8 2383,-168.8 2383,-116.8 2227,-116.8"/>
</g>
<g id="clust49" class="cluster">
<title>cluster_InsightsModule</title>
<polygon fill="none" stroke="black" stroke-dasharray="1,5" points="2879,-108.8 2879,-233.8 3211,-233.8 3211,-108.8 2879,-108.8"/>
</g>
<g id="clust50" class="cluster">
<title>cluster_InsightsModule_declarations</title>
<polygon fill="none" stroke="black" points="3061,-116.8 3061,-168.8 3203,-168.8 3203,-116.8 3061,-116.8"/>
</g>
<g id="clust52" class="cluster">
<title>cluster_InsightsModule_imports</title>
<polygon fill="none" stroke="black" points="2887,-116.8 2887,-168.8 3053,-168.8 3053,-116.8 2887,-116.8"/>
</g>
<g id="clust62" class="cluster">
<title>cluster_PassagesModule</title>
<polygon fill="none" stroke="black" stroke-dasharray="1,5" points="3219,-108.8 3219,-233.8 3405,-233.8 3405,-108.8 3219,-108.8"/>
</g>
<g id="clust64" class="cluster">
<title>cluster_PassagesModule_imports</title>
<polygon fill="none" stroke="black" points="3227,-116.8 3227,-168.8 3397,-168.8 3397,-116.8 3227,-116.8"/>
</g>
<g id="clust74" class="cluster">
<title>cluster_SharedModule</title>
<polygon fill="none" stroke="black" stroke-dasharray="1,5" points="2219,-32.8 2219,-100.8 4078,-100.8 4078,-32.8 2219,-32.8"/>
</g>
<g id="clust75" class="cluster">
<title>cluster_SharedModule_declarations</title>
<polygon fill="none" stroke="black" points="3180,-40.8 3180,-92.8 4070,-92.8 4070,-40.8 3180,-40.8"/>
</g>
<g id="clust84" class="cluster">
<title>cluster_SharedModule_exports</title>
<polygon fill="none" stroke="black" points="2521,-40.8 2521,-92.8 3172,-92.8 3172,-40.8 2521,-40.8"/>
</g>
<g id="clust86" class="cluster">
<title>cluster_SharedModule_providers</title>
<polygon fill="none" stroke="black" points="2227,-40.8 2227,-92.8 2513,-92.8 2513,-40.8 2227,-40.8"/>
</g>
<!-- AppComponent -->
<g id="node1" class="node">
<title>AppComponent</title>
<polygon fill="#ffffb3" stroke="black" points="1891.94,-160.8 1786.06,-160.8 1786.06,-124.8 1891.94,-124.8 1891.94,-160.8"/>
<text text-anchor="middle" x="1839" y="-138.6" font-family="Times,serif" font-size="14.00">AppComponent</text>
</g>
<!-- AppModule -->
<g id="node9" class="node">
<title>AppModule</title>
<polygon fill="#8dd3c7" stroke="black" points="1564.66,-225.8 1561.66,-229.8 1540.66,-229.8 1537.66,-225.8 1481.34,-225.8 1481.34,-189.8 1564.66,-189.8 1564.66,-225.8"/>
<text text-anchor="middle" x="1523" y="-203.6" font-family="Times,serif" font-size="14.00">AppModule</text>
</g>
<!-- AppComponent&#45;&gt;AppModule -->
<g id="edge1" class="edge">
<title>AppComponent&#45;&gt;AppModule</title>
<path fill="none" stroke="black" d="M1839,-161.07C1839,-179.36 1839,-204.8 1839,-204.8 1839,-204.8 1574.96,-204.8 1574.96,-204.8"/>
<polygon fill="black" stroke="black" points="1574.96,-201.3 1564.96,-204.8 1574.96,-208.3 1574.96,-201.3"/>
</g>
<!-- BottomNavComponent -->
<g id="node2" class="node">
<title>BottomNavComponent</title>
<polygon fill="#ffffb3" stroke="black" points="1768.16,-160.8 1621.84,-160.8 1621.84,-124.8 1768.16,-124.8 1768.16,-160.8"/>
<text text-anchor="middle" x="1695" y="-138.6" font-family="Times,serif" font-size="14.00">BottomNavComponent</text>
</g>
<!-- BottomNavComponent&#45;&gt;AppModule -->
<g id="edge2" class="edge">
<title>BottomNavComponent&#45;&gt;AppModule</title>
<path fill="none" stroke="black" d="M1695,-160.81C1695,-176.85 1695,-197.8 1695,-197.8 1695,-197.8 1575.08,-197.8 1575.08,-197.8"/>
<polygon fill="black" stroke="black" points="1575.08,-194.3 1565.08,-197.8 1575.08,-201.3 1575.08,-194.3"/>
</g>
<!-- FloatingMenuComponent -->
<g id="node3" class="node">
<title>FloatingMenuComponent</title>
<polygon fill="#ffffb3" stroke="black" points="1603.16,-160.8 1442.84,-160.8 1442.84,-124.8 1603.16,-124.8 1603.16,-160.8"/>
<text text-anchor="middle" x="1523" y="-138.6" font-family="Times,serif" font-size="14.00">FloatingMenuComponent</text>
</g>
<!-- FloatingMenuComponent&#45;&gt;AppModule -->
<g id="edge3" class="edge">
<title>FloatingMenuComponent&#45;&gt;AppModule</title>
<path fill="none" stroke="black" d="M1523,-160.91C1523,-160.91 1523,-179.79 1523,-179.79"/>
<polygon fill="black" stroke="black" points="1519.5,-179.79 1523,-189.79 1526.5,-179.79 1519.5,-179.79"/>
</g>
<!-- LoadingComponent -->
<g id="node4" class="node">
<title>LoadingComponent</title>
<polygon fill="#ffffb3" stroke="black" points="1424.99,-160.8 1297.01,-160.8 1297.01,-124.8 1424.99,-124.8 1424.99,-160.8"/>
<text text-anchor="middle" x="1361" y="-138.6" font-family="Times,serif" font-size="14.00">LoadingComponent</text>
</g>
<!-- LoadingComponent&#45;&gt;AppModule -->
<g id="edge4" class="edge">
<title>LoadingComponent&#45;&gt;AppModule</title>
<path fill="none" stroke="black" d="M1361,-161.04C1361,-176.37 1361,-195.8 1361,-195.8 1361,-195.8 1471.28,-195.8 1471.28,-195.8"/>
<polygon fill="black" stroke="black" points="1471.28,-199.3 1481.28,-195.8 1471.28,-192.3 1471.28,-199.3"/>
</g>
<!-- LoadingOverlayComponent -->
<g id="node5" class="node">
<title>LoadingOverlayComponent</title>
<polygon fill="#ffffb3" stroke="black" points="1278.58,-160.8 1105.42,-160.8 1105.42,-124.8 1278.58,-124.8 1278.58,-160.8"/>
<text text-anchor="middle" x="1192" y="-138.6" font-family="Times,serif" font-size="14.00">LoadingOverlayComponent</text>
</g>
<!-- LoadingOverlayComponent&#45;&gt;AppModule -->
<g id="edge5" class="edge">
<title>LoadingOverlayComponent&#45;&gt;AppModule</title>
<path fill="none" stroke="black" d="M1192,-160.83C1192,-177.86 1192,-200.8 1192,-200.8 1192,-200.8 1471.08,-200.8 1471.08,-200.8"/>
<polygon fill="black" stroke="black" points="1471.08,-204.3 1481.08,-200.8 1471.08,-197.3 1471.08,-204.3"/>
</g>
<!-- LoginRegisterComponent -->
<g id="node6" class="node">
<title>LoginRegisterComponent</title>
<polygon fill="#ffffb3" stroke="black" points="1087.93,-160.8 926.07,-160.8 926.07,-124.8 1087.93,-124.8 1087.93,-160.8"/>
<text text-anchor="middle" x="1007" y="-138.6" font-family="Times,serif" font-size="14.00">LoginRegisterComponent</text>
</g>
<!-- LoginRegisterComponent&#45;&gt;AppModule -->
<g id="edge6" class="edge">
<title>LoginRegisterComponent&#45;&gt;AppModule</title>
<path fill="none" stroke="black" d="M1007,-161.02C1007,-179.63 1007,-205.8 1007,-205.8 1007,-205.8 1471.21,-205.8 1471.21,-205.8"/>
<polygon fill="black" stroke="black" points="1471.21,-209.3 1481.21,-205.8 1471.21,-202.3 1471.21,-209.3"/>
</g>
<!-- OverlayComponent -->
<g id="node7" class="node">
<title>OverlayComponent</title>
<polygon fill="#ffffb3" stroke="black" points="908.42,-160.8 781.58,-160.8 781.58,-124.8 908.42,-124.8 908.42,-160.8"/>
<text text-anchor="middle" x="845" y="-138.6" font-family="Times,serif" font-size="14.00">OverlayComponent</text>
</g>
<!-- OverlayComponent&#45;&gt;AppModule -->
<g id="edge7" class="edge">
<title>OverlayComponent&#45;&gt;AppModule</title>
<path fill="none" stroke="black" d="M845,-161.02C845,-181.17 845,-210.8 845,-210.8 845,-210.8 1471.1,-210.8 1471.1,-210.8"/>
<polygon fill="black" stroke="black" points="1471.1,-214.3 1481.1,-210.8 1471.1,-207.3 1471.1,-214.3"/>
</g>
<!-- PassagesComponent -->
<g id="node8" class="node">
<title>PassagesComponent</title>
<polygon fill="#ffffb3" stroke="black" points="763.6,-160.8 632.4,-160.8 632.4,-124.8 763.6,-124.8 763.6,-160.8"/>
<text text-anchor="middle" x="698" y="-138.6" font-family="Times,serif" font-size="14.00">PassagesComponent</text>
</g>
<!-- PassagesComponent&#45;&gt;AppModule -->
<g id="edge8" class="edge">
<title>PassagesComponent&#45;&gt;AppModule</title>
<path fill="none" stroke="black" d="M698,-160.84C698,-182.46 698,-215.8 698,-215.8 698,-215.8 1471.24,-215.8 1471.24,-215.8"/>
<polygon fill="black" stroke="black" points="1471.24,-219.3 1481.24,-215.8 1471.24,-212.3 1471.24,-219.3"/>
</g>
<!-- AppComponent  -->
<g id="node12" class="node">
<title>AppComponent </title>
<polygon fill="#80b1d3" stroke="black" points="1577.44,-290.8 1468.56,-290.8 1468.56,-254.8 1577.44,-254.8 1577.44,-290.8"/>
<text text-anchor="middle" x="1523" y="-268.6" font-family="Times,serif" font-size="14.00">AppComponent </text>
</g>
<!-- AppModule&#45;&gt;AppComponent  -->
<g id="edge11" class="edge">
<title>AppModule&#45;&gt;AppComponent </title>
<path fill="none" stroke="black" stroke-dasharray="1,5" d="M1523,-225.91C1523,-225.91 1523,-244.79 1523,-244.79"/>
<polygon fill="black" stroke="black" points="1519.5,-244.79 1523,-254.79 1526.5,-244.79 1519.5,-244.79"/>
</g>
<!-- AppRoutingModule -->
<g id="node10" class="node">
<title>AppRoutingModule</title>
<polygon fill="#8dd3c7" stroke="black" points="2078.28,-160.8 2075.28,-164.8 2054.28,-164.8 2051.28,-160.8 1949.72,-160.8 1949.72,-124.8 2078.28,-124.8 2078.28,-160.8"/>
<text text-anchor="middle" x="2014" y="-138.6" font-family="Times,serif" font-size="14.00">AppRoutingModule</text>
</g>
<!-- AppRoutingModule&#45;&gt;AppModule -->
<g id="edge9" class="edge">
<title>AppRoutingModule&#45;&gt;AppModule</title>
<path fill="none" stroke="black" d="M2014,-160.93C2014,-181.37 2014,-211.8 2014,-211.8 2014,-211.8 1574.86,-211.8 1574.86,-211.8"/>
<polygon fill="black" stroke="black" points="1574.86,-208.3 1564.86,-211.8 1574.86,-215.3 1574.86,-208.3"/>
</g>
<!-- SharedModule -->
<g id="node11" class="node">
<title>SharedModule</title>
<polygon fill="#8dd3c7" stroke="black" points="2195.43,-160.8 2192.43,-164.8 2171.43,-164.8 2168.43,-160.8 2096.57,-160.8 2096.57,-124.8 2195.43,-124.8 2195.43,-160.8"/>
<text text-anchor="middle" x="2146" y="-138.6" font-family="Times,serif" font-size="14.00">SharedModule</text>
</g>
<!-- SharedModule&#45;&gt;AppModule -->
<g id="edge10" class="edge">
<title>SharedModule&#45;&gt;AppModule</title>
<path fill="none" stroke="black" d="M2162.4,-160.84C2162.4,-182.46 2162.4,-215.8 2162.4,-215.8 2162.4,-215.8 1574.95,-215.8 1574.95,-215.8"/>
<polygon fill="black" stroke="black" points="1574.95,-212.3 1564.95,-215.8 1574.95,-219.3 1574.95,-212.3"/>
</g>
<!-- BookModule -->
<g id="node18" class="node">
<title>BookModule</title>
<polygon fill="#8dd3c7" stroke="black" points="431.89,-225.8 428.89,-229.8 407.89,-229.8 404.89,-225.8 342.11,-225.8 342.11,-189.8 431.89,-189.8 431.89,-225.8"/>
<text text-anchor="middle" x="387" y="-203.6" font-family="Times,serif" font-size="14.00">BookModule</text>
</g>
<!-- SharedModule&#45;&gt;BookModule -->
<g id="edge18" class="edge">
<title>SharedModule&#45;&gt;BookModule</title>
<path fill="none" stroke="black" d="M2113.19,-160.86C2113.19,-165.29 2113.19,-168.8 2113.19,-168.8 2113.19,-168.8 401.98,-168.8 401.98,-168.8 401.98,-168.8 401.98,-179.67 401.98,-179.67"/>
<polygon fill="black" stroke="black" points="398.48,-179.67 401.98,-189.67 405.48,-179.67 398.48,-179.67"/>
</g>
<!-- CaptureModule -->
<g id="node23" class="node">
<title>CaptureModule</title>
<polygon fill="#8dd3c7" stroke="black" points="2524.87,-225.8 2521.87,-229.8 2500.87,-229.8 2497.87,-225.8 2421.13,-225.8 2421.13,-189.8 2524.87,-189.8 2524.87,-225.8"/>
<text text-anchor="middle" x="2473" y="-203.6" font-family="Times,serif" font-size="14.00">CaptureModule</text>
</g>
<!-- SharedModule&#45;&gt;CaptureModule -->
<g id="edge23" class="edge">
<title>SharedModule&#45;&gt;CaptureModule</title>
<path fill="none" stroke="black" d="M2178.81,-160.95C2178.81,-184.56 2178.81,-222.8 2178.81,-222.8 2178.81,-222.8 2411.08,-222.8 2411.08,-222.8"/>
<polygon fill="black" stroke="black" points="2411.08,-226.3 2421.08,-222.8 2411.08,-219.3 2411.08,-226.3"/>
</g>
<!-- InsightsModule -->
<g id="node28" class="node">
<title>InsightsModule</title>
<polygon fill="#8dd3c7" stroke="black" points="3021.89,-225.8 3018.89,-229.8 2997.89,-229.8 2994.89,-225.8 2918.11,-225.8 2918.11,-189.8 3021.89,-189.8 3021.89,-225.8"/>
<text text-anchor="middle" x="2970" y="-203.6" font-family="Times,serif" font-size="14.00">InsightsModule</text>
</g>
<!-- SharedModule&#45;&gt;InsightsModule -->
<g id="edge28" class="edge">
<title>SharedModule&#45;&gt;InsightsModule</title>
<path fill="none" stroke="black" d="M2129.6,-160.93C2129.6,-171.51 2129.6,-182.8 2129.6,-182.8 2129.6,-182.8 2952.69,-182.8 2952.69,-182.8 2952.69,-182.8 2952.69,-183.48 2952.69,-183.48"/>
<polygon fill="black" stroke="black" points="2949.19,-179.63 2952.69,-189.63 2956.19,-179.63 2949.19,-179.63"/>
</g>
<!-- PassagesModule -->
<g id="node31" class="node">
<title>PassagesModule</title>
<polygon fill="#8dd3c7" stroke="black" points="3351.82,-225.8 3348.82,-229.8 3327.82,-229.8 3324.82,-225.8 3242.18,-225.8 3242.18,-189.8 3351.82,-189.8 3351.82,-225.8"/>
<text text-anchor="middle" x="3297" y="-203.6" font-family="Times,serif" font-size="14.00">PassagesModule</text>
</g>
<!-- SharedModule&#45;&gt;PassagesModule -->
<g id="edge30" class="edge">
<title>SharedModule&#45;&gt;PassagesModule</title>
<path fill="none" stroke="black" d="M2146,-160.84C2146,-168.55 2146,-175.8 2146,-175.8 2146,-175.8 3278.78,-175.8 3278.78,-175.8 3278.78,-175.8 3278.78,-179.56 3278.78,-179.56"/>
<polygon fill="black" stroke="black" points="3275.28,-179.56 3278.78,-189.56 3282.28,-179.56 3275.28,-179.56"/>
</g>
<!-- EditorComponent  -->
<g id="node39" class="node">
<title>EditorComponent </title>
<polygon fill="#fb8072" stroke="black" points="2648.82,-84.8 2529.18,-84.8 2529.18,-48.8 2648.82,-48.8 2648.82,-84.8"/>
<text text-anchor="middle" x="2589" y="-62.6" font-family="Times,serif" font-size="14.00">EditorComponent </text>
</g>
<!-- SharedModule&#45;&gt;EditorComponent  -->
<g id="edge38" class="edge">
<title>SharedModule&#45;&gt;EditorComponent </title>
<path fill="none" stroke="black" stroke-dasharray="5,2" d="M2117.81,-124.61C2117.81,-109.62 2117.81,-90.8 2117.81,-90.8 2117.81,-90.8 2538.29,-90.8 2538.29,-90.8 2538.29,-90.8 2538.29,-90.22 2538.29,-90.22"/>
<polygon fill="black" stroke="black" points="2541.79,-94.99 2538.29,-84.99 2534.79,-94.99 2541.79,-94.99"/>
</g>
<!-- FilterAllPipe  -->
<g id="node40" class="node">
<title>FilterAllPipe </title>
<polygon fill="#fb8072" stroke="black" points="3164.11,-84.8 3071.89,-84.8 3071.89,-48.8 3164.11,-48.8 3164.11,-84.8"/>
<text text-anchor="middle" x="3118" y="-62.6" font-family="Times,serif" font-size="14.00">FilterAllPipe </text>
</g>
<!-- SharedModule&#45;&gt;FilterAllPipe  -->
<g id="edge39" class="edge">
<title>SharedModule&#45;&gt;FilterAllPipe </title>
<path fill="none" stroke="black" stroke-dasharray="5,2" d="M2139.92,-124.67C2139.92,-114.09 2139.92,-102.8 2139.92,-102.8 2139.92,-102.8 3118,-102.8 3118,-102.8 3118,-102.8 3118,-95.22 3118,-95.22"/>
<polygon fill="black" stroke="black" points="3121.5,-95.22 3118,-85.22 3114.5,-95.22 3121.5,-95.22"/>
</g>
<!-- FilterPipe  -->
<g id="node41" class="node">
<title>FilterPipe </title>
<polygon fill="#fb8072" stroke="black" points="3053.22,-84.8 2978.78,-84.8 2978.78,-48.8 3053.22,-48.8 3053.22,-84.8"/>
<text text-anchor="middle" x="3016" y="-62.6" font-family="Times,serif" font-size="14.00">FilterPipe </text>
</g>
<!-- SharedModule&#45;&gt;FilterPipe  -->
<g id="edge40" class="edge">
<title>SharedModule&#45;&gt;FilterPipe </title>
<path fill="none" stroke="black" stroke-dasharray="5,2" d="M2134.39,-124.31C2134.39,-112.66 2134.39,-99.8 2134.39,-99.8 2134.39,-99.8 3011.57,-99.8 3011.57,-99.8 3011.57,-99.8 3011.57,-94.84 3011.57,-94.84"/>
<polygon fill="black" stroke="black" points="3015.07,-94.84 3011.57,-84.84 3008.07,-94.84 3015.07,-94.84"/>
</g>
<!-- OutsideClickDirective  -->
<g id="node42" class="node">
<title>OutsideClickDirective </title>
<polygon fill="#fb8072" stroke="black" points="2960.97,-84.8 2815.03,-84.8 2815.03,-48.8 2960.97,-48.8 2960.97,-84.8"/>
<text text-anchor="middle" x="2888" y="-62.6" font-family="Times,serif" font-size="14.00">OutsideClickDirective </text>
</g>
<!-- SharedModule&#45;&gt;OutsideClickDirective  -->
<g id="edge41" class="edge">
<title>SharedModule&#45;&gt;OutsideClickDirective </title>
<path fill="none" stroke="black" stroke-dasharray="5,2" d="M2128.86,-124.62C2128.86,-111.76 2128.86,-96.8 2128.86,-96.8 2128.86,-96.8 2835.24,-96.8 2835.24,-96.8 2835.24,-96.8 2835.24,-94.94 2835.24,-94.94"/>
<polygon fill="black" stroke="black" points="2838.74,-94.94 2835.24,-84.94 2831.74,-94.94 2838.74,-94.94"/>
</g>
<!-- TopNavComponent  -->
<g id="node43" class="node">
<title>TopNavComponent </title>
<polygon fill="#fb8072" stroke="black" points="2797.21,-84.8 2666.79,-84.8 2666.79,-48.8 2797.21,-48.8 2797.21,-84.8"/>
<text text-anchor="middle" x="2732" y="-62.6" font-family="Times,serif" font-size="14.00">TopNavComponent </text>
</g>
<!-- SharedModule&#45;&gt;TopNavComponent  -->
<g id="edge42" class="edge">
<title>SharedModule&#45;&gt;TopNavComponent </title>
<path fill="none" stroke="black" stroke-dasharray="5,2" d="M2123.34,-124.55C2123.34,-110.62 2123.34,-93.8 2123.34,-93.8 2123.34,-93.8 2681.74,-93.8 2681.74,-93.8 2681.74,-93.8 2681.74,-92.92 2681.74,-92.92"/>
<polygon fill="black" stroke="black" points="2685.24,-94.96 2681.74,-84.96 2678.24,-94.96 2685.24,-94.96"/>
</g>
<!-- FloatingMenuService -->
<g id="node13" class="node">
<title>FloatingMenuService</title>
<ellipse fill="#fdb462" stroke="black" cx="1666" cy="-66.8" rx="94.93" ry="18"/>
<text text-anchor="middle" x="1666" y="-62.6" font-family="Times,serif" font-size="14.00">FloatingMenuService</text>
</g>
<!-- FloatingMenuService&#45;&gt;AppModule -->
<g id="edge12" class="edge">
<title>FloatingMenuService&#45;&gt;AppModule</title>
<path fill="none" stroke="black" d="M1612.5,-81.87C1612.5,-115.51 1612.5,-193.8 1612.5,-193.8 1612.5,-193.8 1574.87,-193.8 1574.87,-193.8"/>
<polygon fill="black" stroke="black" points="1574.87,-190.3 1564.87,-193.8 1574.87,-197.3 1574.87,-190.3"/>
</g>
<!-- LoadingOverlayService -->
<g id="node14" class="node">
<title>LoadingOverlayService</title>
<ellipse fill="#fdb462" stroke="black" cx="2009" cy="-66.8" rx="103.06" ry="18"/>
<text text-anchor="middle" x="2009" y="-62.6" font-family="Times,serif" font-size="14.00">LoadingOverlayService</text>
</g>
<!-- LoadingOverlayService&#45;&gt;AppModule -->
<g id="edge13" class="edge">
<title>LoadingOverlayService&#45;&gt;AppModule</title>
<path fill="none" stroke="black" d="M1927.67,-78.34C1927.67,-112.01 1927.67,-207.8 1927.67,-207.8 1927.67,-207.8 1574.78,-207.8 1574.78,-207.8"/>
<polygon fill="black" stroke="black" points="1574.78,-204.3 1564.78,-207.8 1574.78,-211.3 1574.78,-204.3"/>
</g>
<!-- LoadingOverlayService&#45;&gt;SharedModule -->
<g id="edge44" class="edge">
<title>LoadingOverlayService&#45;&gt;SharedModule</title>
<path fill="none" stroke="black" d="M2104.53,-73.81C2104.53,-73.81 2104.53,-114.69 2104.53,-114.69"/>
<polygon fill="black" stroke="black" points="2101.03,-114.69 2104.53,-124.69 2108.03,-114.69 2101.03,-114.69"/>
</g>
<!-- OcrService -->
<g id="node15" class="node">
<title>OcrService</title>
<ellipse fill="#fdb462" stroke="black" cx="1833" cy="-66.8" rx="54.44" ry="18"/>
<text text-anchor="middle" x="1833" y="-62.6" font-family="Times,serif" font-size="14.00">OcrService</text>
</g>
<!-- OcrService&#45;&gt;AppModule -->
<g id="edge14" class="edge">
<title>OcrService&#45;&gt;AppModule</title>
<path fill="none" stroke="black" d="M1782.41,-73.63C1782.41,-100.94 1782.41,-200.8 1782.41,-200.8 1782.41,-200.8 1574.68,-200.8 1574.68,-200.8"/>
<polygon fill="black" stroke="black" points="1574.68,-197.3 1564.68,-200.8 1574.68,-204.3 1574.68,-197.3"/>
</g>
<!-- BooksComponent -->
<g id="node16" class="node">
<title>BooksComponent</title>
<polygon fill="#ffffb3" stroke="black" points="579.62,-160.8 462.38,-160.8 462.38,-124.8 579.62,-124.8 579.62,-160.8"/>
<text text-anchor="middle" x="521" y="-138.6" font-family="Times,serif" font-size="14.00">BooksComponent</text>
</g>
<!-- BooksComponent&#45;&gt;BookModule -->
<g id="edge15" class="edge">
<title>BooksComponent&#45;&gt;BookModule</title>
<path fill="none" stroke="black" d="M521,-160.89C521,-183.93 521,-220.8 521,-220.8 521,-220.8 441.99,-220.8 441.99,-220.8"/>
<polygon fill="black" stroke="black" points="441.99,-217.3 431.99,-220.8 441.99,-224.3 441.99,-217.3"/>
</g>
<!-- CardsComponent -->
<g id="node17" class="node">
<title>CardsComponent</title>
<polygon fill="#ffffb3" stroke="black" points="443.99,-160.8 330.01,-160.8 330.01,-124.8 443.99,-124.8 443.99,-160.8"/>
<text text-anchor="middle" x="387" y="-138.6" font-family="Times,serif" font-size="14.00">CardsComponent</text>
</g>
<!-- CardsComponent&#45;&gt;BookModule -->
<g id="edge16" class="edge">
<title>CardsComponent&#45;&gt;BookModule</title>
<path fill="none" stroke="black" d="M372.02,-160.91C372.02,-160.91 372.02,-179.79 372.02,-179.79"/>
<polygon fill="black" stroke="black" points="368.52,-179.79 372.02,-189.79 375.52,-179.79 368.52,-179.79"/>
</g>
<!-- BookRoutingModule -->
<g id="node19" class="node">
<title>BookRoutingModule</title>
<polygon fill="#8dd3c7" stroke="black" points="305.51,-160.8 302.51,-164.8 281.51,-164.8 278.51,-160.8 170.49,-160.8 170.49,-124.8 305.51,-124.8 305.51,-160.8"/>
<text text-anchor="middle" x="238" y="-138.6" font-family="Times,serif" font-size="14.00">BookRoutingModule</text>
</g>
<!-- BookRoutingModule&#45;&gt;BookModule -->
<g id="edge17" class="edge">
<title>BookRoutingModule&#45;&gt;BookModule</title>
<path fill="none" stroke="black" d="M238,-160.82C238,-178.17 238,-201.8 238,-201.8 238,-201.8 331.89,-201.8 331.89,-201.8"/>
<polygon fill="black" stroke="black" points="331.89,-205.3 341.89,-201.8 331.89,-198.3 331.89,-205.3"/>
</g>
<!-- BookService -->
<g id="node20" class="node">
<title>BookService</title>
<ellipse fill="#fdb462" stroke="black" cx="85" cy="-142.8" rx="60.84" ry="18"/>
<text text-anchor="middle" x="85" y="-138.6" font-family="Times,serif" font-size="14.00">BookService</text>
</g>
<!-- BookService&#45;&gt;BookModule -->
<g id="edge19" class="edge">
<title>BookService&#45;&gt;BookModule</title>
<path fill="none" stroke="black" d="M85,-161.08C85,-182.12 85,-213.8 85,-213.8 85,-213.8 331.79,-213.8 331.79,-213.8"/>
<polygon fill="black" stroke="black" points="331.79,-217.3 341.79,-213.8 331.79,-210.3 331.79,-217.3"/>
</g>
<!-- AccordionComponent -->
<g id="node21" class="node">
<title>AccordionComponent</title>
<polygon fill="#ffffb3" stroke="black" points="2855.42,-160.8 2714.58,-160.8 2714.58,-124.8 2855.42,-124.8 2855.42,-160.8"/>
<text text-anchor="middle" x="2785" y="-138.6" font-family="Times,serif" font-size="14.00">AccordionComponent</text>
</g>
<!-- AccordionComponent&#45;&gt;CaptureModule -->
<g id="edge20" class="edge">
<title>AccordionComponent&#45;&gt;CaptureModule</title>
<path fill="none" stroke="black" d="M2785,-161.08C2785,-182.12 2785,-213.8 2785,-213.8 2785,-213.8 2534.87,-213.8 2534.87,-213.8"/>
<polygon fill="black" stroke="black" points="2534.87,-210.3 2524.87,-213.8 2534.87,-217.3 2534.87,-210.3"/>
</g>
<!-- CaptureComponent -->
<g id="node22" class="node">
<title>CaptureComponent</title>
<polygon fill="#ffffb3" stroke="black" points="2696.65,-160.8 2571.35,-160.8 2571.35,-124.8 2696.65,-124.8 2696.65,-160.8"/>
<text text-anchor="middle" x="2634" y="-138.6" font-family="Times,serif" font-size="14.00">CaptureComponent</text>
</g>
<!-- CaptureComponent&#45;&gt;CaptureModule -->
<g id="edge21" class="edge">
<title>CaptureComponent&#45;&gt;CaptureModule</title>
<path fill="none" stroke="black" d="M2634,-160.82C2634,-178.17 2634,-201.8 2634,-201.8 2634,-201.8 2535.27,-201.8 2535.27,-201.8"/>
<polygon fill="black" stroke="black" points="2535.27,-198.3 2525.27,-201.8 2535.27,-205.3 2535.27,-198.3"/>
</g>
<!-- AccordionComponent  -->
<g id="node25" class="node">
<title>AccordionComponent </title>
<polygon fill="#fb8072" stroke="black" points="2544.92,-290.8 2401.08,-290.8 2401.08,-254.8 2544.92,-254.8 2544.92,-290.8"/>
<text text-anchor="middle" x="2473" y="-268.6" font-family="Times,serif" font-size="14.00">AccordionComponent </text>
</g>
<!-- CaptureModule&#45;&gt;AccordionComponent  -->
<g id="edge24" class="edge">
<title>CaptureModule&#45;&gt;AccordionComponent </title>
<path fill="none" stroke="black" stroke-dasharray="5,2" d="M2473,-225.91C2473,-225.91 2473,-244.79 2473,-244.79"/>
<polygon fill="black" stroke="black" points="2469.5,-244.79 2473,-254.79 2476.5,-244.79 2469.5,-244.79"/>
</g>
<!-- CaptureRoutingModule -->
<g id="node24" class="node">
<title>CaptureRoutingModule</title>
<polygon fill="#8dd3c7" stroke="black" points="2547.49,-160.8 2544.49,-164.8 2523.49,-164.8 2520.49,-160.8 2398.51,-160.8 2398.51,-124.8 2547.49,-124.8 2547.49,-160.8"/>
<text text-anchor="middle" x="2473" y="-138.6" font-family="Times,serif" font-size="14.00">CaptureRoutingModule</text>
</g>
<!-- CaptureRoutingModule&#45;&gt;CaptureModule -->
<g id="edge22" class="edge">
<title>CaptureRoutingModule&#45;&gt;CaptureModule</title>
<path fill="none" stroke="black" d="M2473,-160.91C2473,-160.91 2473,-179.79 2473,-179.79"/>
<polygon fill="black" stroke="black" points="2469.5,-179.79 2473,-189.79 2476.5,-179.79 2469.5,-179.79"/>
</g>
<!-- CameraService -->
<g id="node26" class="node">
<title>CameraService</title>
<ellipse fill="#fdb462" stroke="black" cx="2305" cy="-142.8" rx="70.04" ry="18"/>
<text text-anchor="middle" x="2305" y="-138.6" font-family="Times,serif" font-size="14.00">CameraService</text>
</g>
<!-- CameraService&#45;&gt;CaptureModule -->
<g id="edge25" class="edge">
<title>CameraService&#45;&gt;CaptureModule</title>
<path fill="none" stroke="black" d="M2305,-160.81C2305,-183.29 2305,-218.8 2305,-218.8 2305,-218.8 2410.76,-218.8 2410.76,-218.8"/>
<polygon fill="black" stroke="black" points="2410.76,-222.3 2420.76,-218.8 2410.76,-215.3 2410.76,-222.3"/>
</g>
<!-- InsightsComponent -->
<g id="node27" class="node">
<title>InsightsComponent</title>
<polygon fill="#ffffb3" stroke="black" points="3194.67,-160.8 3069.33,-160.8 3069.33,-124.8 3194.67,-124.8 3194.67,-160.8"/>
<text text-anchor="middle" x="3132" y="-138.6" font-family="Times,serif" font-size="14.00">InsightsComponent</text>
</g>
<!-- InsightsComponent&#45;&gt;InsightsModule -->
<g id="edge26" class="edge">
<title>InsightsComponent&#45;&gt;InsightsModule</title>
<path fill="none" stroke="black" d="M3132,-160.91C3132,-180.14 3132,-207.8 3132,-207.8 3132,-207.8 3032.15,-207.8 3032.15,-207.8"/>
<polygon fill="black" stroke="black" points="3032.15,-204.3 3022.15,-207.8 3032.15,-211.3 3032.15,-204.3"/>
</g>
<!-- InsightsRoutingModule -->
<g id="node29" class="node">
<title>InsightsRoutingModule</title>
<polygon fill="#8dd3c7" stroke="black" points="3044.51,-160.8 3041.51,-164.8 3020.51,-164.8 3017.51,-160.8 2895.49,-160.8 2895.49,-124.8 3044.51,-124.8 3044.51,-160.8"/>
<text text-anchor="middle" x="2970" y="-138.6" font-family="Times,serif" font-size="14.00">InsightsRoutingModule</text>
</g>
<!-- InsightsRoutingModule&#45;&gt;InsightsModule -->
<g id="edge27" class="edge">
<title>InsightsRoutingModule&#45;&gt;InsightsModule</title>
<path fill="none" stroke="black" d="M2987.31,-160.91C2987.31,-160.91 2987.31,-179.79 2987.31,-179.79"/>
<polygon fill="black" stroke="black" points="2983.82,-179.79 2987.31,-189.79 2990.82,-179.79 2983.82,-179.79"/>
</g>
<!-- PassagesRoutingModule -->
<g id="node30" class="node">
<title>PassagesRoutingModule</title>
<polygon fill="#8dd3c7" stroke="black" points="3389.44,-160.8 3386.44,-164.8 3365.44,-164.8 3362.44,-160.8 3234.56,-160.8 3234.56,-124.8 3389.44,-124.8 3389.44,-160.8"/>
<text text-anchor="middle" x="3312" y="-138.6" font-family="Times,serif" font-size="14.00">PassagesRoutingModule</text>
</g>
<!-- PassagesRoutingModule&#45;&gt;PassagesModule -->
<g id="edge29" class="edge">
<title>PassagesRoutingModule&#45;&gt;PassagesModule</title>
<path fill="none" stroke="black" d="M3315.22,-160.91C3315.22,-160.91 3315.22,-179.79 3315.22,-179.79"/>
<polygon fill="black" stroke="black" points="3311.72,-179.79 3315.22,-189.79 3318.72,-179.79 3311.72,-179.79"/>
</g>
<!-- CapsPipe -->
<g id="node32" class="node">
<title>CapsPipe</title>
<polygon fill="#ffffb3" stroke="black" points="3256.39,-84.8 3187.61,-84.8 3187.61,-48.8 3256.39,-48.8 3256.39,-84.8"/>
<text text-anchor="middle" x="3222" y="-62.6" font-family="Times,serif" font-size="14.00">CapsPipe</text>
</g>
<!-- CapsPipe&#45;&gt;SharedModule -->
<g id="edge31" class="edge">
<title>CapsPipe&#45;&gt;SharedModule</title>
<path fill="none" stroke="black" d="M3191.19,-84.91C3191.19,-94.7 3191.19,-104.8 3191.19,-104.8 3191.19,-104.8 2156.51,-104.8 2156.51,-104.8 2156.51,-104.8 2156.51,-114.69 2156.51,-114.69"/>
<polygon fill="black" stroke="black" points="2153.01,-114.69 2156.51,-124.69 2160.01,-114.69 2153.01,-114.69"/>
</g>
<!-- EditorComponent -->
<g id="node33" class="node">
<title>EditorComponent</title>
<polygon fill="#ffffb3" stroke="black" points="4062.32,-84.8 3945.68,-84.8 3945.68,-48.8 4062.32,-48.8 4062.32,-84.8"/>
<text text-anchor="middle" x="4004" y="-62.6" font-family="Times,serif" font-size="14.00">EditorComponent</text>
</g>
<!-- EditorComponent&#45;&gt;SharedModule -->
<g id="edge32" class="edge">
<title>EditorComponent&#45;&gt;SharedModule</title>
<path fill="none" stroke="black" d="M4004,-84.83C4004,-101.2 4004,-122.8 4004,-122.8 4004,-122.8 2189.68,-122.8 2189.68,-122.8 2189.68,-122.8 2189.68,-122.98 2189.68,-122.98"/>
<polygon fill="black" stroke="black" points="2186.19,-114.65 2189.68,-124.65 2193.19,-114.65 2186.19,-114.65"/>
</g>
<!-- FilterAllPipe -->
<g id="node34" class="node">
<title>FilterAllPipe</title>
<polygon fill="#ffffb3" stroke="black" points="3927.61,-84.8 3838.39,-84.8 3838.39,-48.8 3927.61,-48.8 3927.61,-84.8"/>
<text text-anchor="middle" x="3883" y="-62.6" font-family="Times,serif" font-size="14.00">FilterAllPipe</text>
</g>
<!-- FilterAllPipe&#45;&gt;SharedModule -->
<g id="edge33" class="edge">
<title>FilterAllPipe&#45;&gt;SharedModule</title>
<path fill="none" stroke="black" d="M3883,-85.04C3883,-100.37 3883,-119.8 3883,-119.8 3883,-119.8 2184.16,-119.8 2184.16,-119.8 2184.16,-119.8 2184.16,-120.29 2184.16,-120.29"/>
<polygon fill="black" stroke="black" points="2180.66,-114.68 2184.16,-124.68 2187.66,-114.68 2180.66,-114.68"/>
</g>
<!-- FilterPipe -->
<g id="node35" class="node">
<title>FilterPipe</title>
<polygon fill="#ffffb3" stroke="black" points="3820.72,-84.8 3749.28,-84.8 3749.28,-48.8 3820.72,-48.8 3820.72,-84.8"/>
<text text-anchor="middle" x="3785" y="-62.6" font-family="Times,serif" font-size="14.00">FilterPipe</text>
</g>
<!-- FilterPipe&#45;&gt;SharedModule -->
<g id="edge34" class="edge">
<title>FilterPipe&#45;&gt;SharedModule</title>
<path fill="none" stroke="black" d="M3785,-84.85C3785,-99.17 3785,-116.8 3785,-116.8 3785,-116.8 2178.63,-116.8 2178.63,-116.8 2178.63,-116.8 2178.63,-117.59 2178.63,-117.59"/>
<polygon fill="black" stroke="black" points="2175.13,-114.74 2178.63,-124.74 2182.13,-114.74 2175.13,-114.74"/>
</g>
<!-- OutsideClickDirective -->
<g id="node36" class="node">
<title>OutsideClickDirective</title>
<polygon fill="#ffffb3" stroke="black" points="3730.97,-84.8 3589.03,-84.8 3589.03,-48.8 3730.97,-48.8 3730.97,-84.8"/>
<text text-anchor="middle" x="3660" y="-62.6" font-family="Times,serif" font-size="14.00">OutsideClickDirective</text>
</g>
<!-- OutsideClickDirective&#45;&gt;SharedModule -->
<g id="edge35" class="edge">
<title>OutsideClickDirective&#45;&gt;SharedModule</title>
<path fill="none" stroke="black" d="M3660,-84.84C3660,-98.09 3660,-113.8 3660,-113.8 3660,-113.8 2173.1,-113.8 2173.1,-113.8 2173.1,-113.8 2173.1,-114.88 2173.1,-114.88"/>
<polygon fill="black" stroke="black" points="2169.6,-114.6 2173.1,-124.6 2176.6,-114.6 2169.6,-114.6"/>
</g>
<!-- TopNavComponent -->
<g id="node37" class="node">
<title>TopNavComponent</title>
<polygon fill="#ffffb3" stroke="black" points="3570.71,-84.8 3443.29,-84.8 3443.29,-48.8 3570.71,-48.8 3570.71,-84.8"/>
<text text-anchor="middle" x="3507" y="-62.6" font-family="Times,serif" font-size="14.00">TopNavComponent</text>
</g>
<!-- TopNavComponent&#45;&gt;SharedModule -->
<g id="edge36" class="edge">
<title>TopNavComponent&#45;&gt;SharedModule</title>
<path fill="none" stroke="black" d="M3507,-84.95C3507,-97.07 3507,-110.8 3507,-110.8 3507,-110.8 2167.57,-110.8 2167.57,-110.8 2167.57,-110.8 2167.57,-114.56 2167.57,-114.56"/>
<polygon fill="black" stroke="black" points="2164.07,-114.56 2167.57,-124.56 2171.07,-114.56 2164.07,-114.56"/>
</g>
<!-- VerticalResizeDirective -->
<g id="node38" class="node">
<title>VerticalResizeDirective</title>
<polygon fill="#ffffb3" stroke="black" points="3425.48,-84.8 3274.52,-84.8 3274.52,-48.8 3425.48,-48.8 3425.48,-84.8"/>
<text text-anchor="middle" x="3350" y="-62.6" font-family="Times,serif" font-size="14.00">VerticalResizeDirective</text>
</g>
<!-- VerticalResizeDirective&#45;&gt;SharedModule -->
<g id="edge37" class="edge">
<title>VerticalResizeDirective&#45;&gt;SharedModule</title>
<path fill="none" stroke="black" d="M3331.99,-84.9C3331.99,-95.89 3331.99,-107.8 3331.99,-107.8 3331.99,-107.8 2162.04,-107.8 2162.04,-107.8 2162.04,-107.8 2162.04,-114.48 2162.04,-114.48"/>
<polygon fill="black" stroke="black" points="2158.54,-114.48 2162.04,-124.48 2165.54,-114.48 2158.54,-114.48"/>
</g>
<!-- AuthService -->
<g id="node44" class="node">
<title>AuthService</title>
<ellipse fill="#fdb462" stroke="black" cx="2446" cy="-66.8" rx="59.11" ry="18"/>
<text text-anchor="middle" x="2446" y="-62.6" font-family="Times,serif" font-size="14.00">AuthService</text>
</g>
<!-- AuthService&#45;&gt;SharedModule -->
<g id="edge43" class="edge">
<title>AuthService&#45;&gt;SharedModule</title>
<path fill="none" stroke="black" d="M2392.6,-74.86C2392.6,-80.78 2392.6,-87.8 2392.6,-87.8 2392.6,-87.8 2150.98,-87.8 2150.98,-87.8 2150.98,-87.8 2150.98,-114.79 2150.98,-114.79"/>
<polygon fill="black" stroke="black" points="2147.48,-114.79 2150.98,-124.79 2154.48,-114.79 2147.48,-114.79"/>
</g>
<!-- ThemeService -->
<g id="node45" class="node">
<title>ThemeService</title>
<ellipse fill="#fdb462" stroke="black" cx="2302" cy="-66.8" rx="66.61" ry="18"/>
<text text-anchor="middle" x="2302" y="-62.6" font-family="Times,serif" font-size="14.00">ThemeService</text>
</g>
<!-- ThemeService&#45;&gt;SharedModule -->
<g id="edge45" class="edge">
<title>ThemeService&#45;&gt;SharedModule</title>
<path fill="none" stroke="black" d="M2235.16,-66.8C2192.61,-66.8 2145.45,-66.8 2145.45,-66.8 2145.45,-66.8 2145.45,-114.79 2145.45,-114.79"/>
<polygon fill="black" stroke="black" points="2141.95,-114.79 2145.45,-124.79 2148.95,-114.79 2141.95,-114.79"/>
</g>
</g>
</svg>
