<?xml version="1.0" encoding="UTF-8" standalone="no"?>
<!DOCTYPE svg PUBLIC "-//W3C//DTD SVG 1.1//EN"
 "http://www.w3.org/Graphics/SVG/1.1/DTD/svg11.dtd">
<!-- Generated by graphviz version 5.0.0 (20220707.1540)
 -->
<!-- Title: dependencies Pages: 1 -->
<svg width="3975pt" height="323pt"
 viewBox="0.00 0.00 3975.00 322.80" xmlns="http://www.w3.org/2000/svg" xmlns:xlink="http://www.w3.org/1999/xlink">
<g id="graph0" class="graph" transform="scale(1 1) rotate(0) translate(4 318.8)">
<title>dependencies</title>
<polygon fill="white" stroke="transparent" points="-4,4 -4,-318.8 3971,-318.8 3971,4 -4,4"/>
<text text-anchor="middle" x="1983.5" y="-8.2" font-family="sans-serif" font-size="14.00">dependencies</text>
<g id="clust1" class="cluster">
<title>cluster_AppModule</title>
<polygon fill="none" stroke="black" stroke-dasharray="1,5" points="604,-32.8 604,-306.8 2364,-306.8 2364,-32.8 604,-32.8"/>
</g>
<g id="clust2" class="cluster">
<title>cluster_AppModule_declarations</title>
<polygon fill="none" stroke="black" points="624,-116.8 624,-168.8 2053,-168.8 2053,-116.8 624,-116.8"/>
</g>
<g id="clust12" class="cluster">
<title>cluster_AppModule_imports</title>
<polygon fill="none" stroke="black" points="2095,-116.8 2095,-168.8 2356,-168.8 2356,-116.8 2095,-116.8"/>
</g>
<g id="clust14" class="cluster">
<title>cluster_AppModule_bootstrap</title>
<polygon fill="none" stroke="black" points="1552,-246.8 1552,-298.8 1676,-298.8 1676,-246.8 1552,-246.8"/>
</g>
<g id="clust15" class="cluster">
<title>cluster_AppModule_providers</title>
<polygon fill="none" stroke="black" points="1716,-40.8 1716,-92.8 2273,-92.8 2273,-40.8 1716,-40.8"/>
</g>
<g id="clust22" class="cluster">
<title>cluster_BookModule</title>
<polygon fill="none" stroke="black" stroke-dasharray="1,5" points="8,-108.8 8,-233.8 596,-233.8 596,-108.8 8,-108.8"/>
</g>
<g id="clust23" class="cluster">
<title>cluster_BookModule_declarations</title>
<polygon fill="none" stroke="black" points="322,-116.8 322,-168.8 588,-168.8 588,-116.8 322,-116.8"/>
</g>
<g id="clust26" class="cluster">
<title>cluster_BookModule_imports</title>
<polygon fill="none" stroke="black" points="162,-116.8 162,-168.8 314,-168.8 314,-116.8 162,-116.8"/>
</g>
<g id="clust29" class="cluster">
<title>cluster_BookModule_providers</title>
<polygon fill="none" stroke="black" points="16,-116.8 16,-168.8 154,-168.8 154,-116.8 16,-116.8"/>
</g>
<g id="clust36" class="cluster">
<title>cluster_CaptureModule</title>
<polygon fill="none" stroke="black" stroke-dasharray="1,5" points="2372,-108.8 2372,-233.8 2866,-233.8 2866,-108.8 2372,-108.8"/>
</g>
<g id="clust37" class="cluster">
<title>cluster_CaptureModule_declarations</title>
<polygon fill="none" stroke="black" points="2716,-116.8 2716,-168.8 2858,-168.8 2858,-116.8 2716,-116.8"/>
</g>
<g id="clust39" class="cluster">
<title>cluster_CaptureModule_imports</title>
<polygon fill="none" stroke="black" points="2544,-116.8 2544,-168.8 2708,-168.8 2708,-116.8 2544,-116.8"/>
</g>
<g id="clust42" class="cluster">
<title>cluster_CaptureModule_providers</title>
<polygon fill="none" stroke="black" points="2380,-116.8 2380,-168.8 2536,-168.8 2536,-116.8 2380,-116.8"/>
</g>
<g id="clust49" class="cluster">
<title>cluster_InsightsModule</title>
<polygon fill="none" stroke="black" stroke-dasharray="1,5" points="2874,-108.8 2874,-233.8 3206,-233.8 3206,-108.8 2874,-108.8"/>
</g>
<g id="clust50" class="cluster">
<title>cluster_InsightsModule_declarations</title>
<polygon fill="none" stroke="black" points="3056,-116.8 3056,-168.8 3198,-168.8 3198,-116.8 3056,-116.8"/>
</g>
<g id="clust52" class="cluster">
<title>cluster_InsightsModule_imports</title>
<polygon fill="none" stroke="black" points="2882,-116.8 2882,-168.8 3048,-168.8 3048,-116.8 2882,-116.8"/>
</g>
<g id="clust62" class="cluster">
<title>cluster_PassagesModule</title>
<polygon fill="none" stroke="black" stroke-dasharray="1,5" points="3214,-108.8 3214,-233.8 3400,-233.8 3400,-108.8 3214,-108.8"/>
</g>
<g id="clust64" class="cluster">
<title>cluster_PassagesModule_imports</title>
<polygon fill="none" stroke="black" points="3222,-116.8 3222,-168.8 3392,-168.8 3392,-116.8 3222,-116.8"/>
</g>
<g id="clust74" class="cluster">
<title>cluster_SharedModule</title>
<polygon fill="none" stroke="black" stroke-dasharray="1,5" points="2372,-32.8 2372,-100.8 3959,-100.8 3959,-32.8 2372,-32.8"/>
</g>
<g id="clust75" class="cluster">
<title>cluster_SharedModule_declarations</title>
<polygon fill="none" stroke="black" points="3196,-40.8 3196,-92.8 3951,-92.8 3951,-40.8 3196,-40.8"/>
</g>
<g id="clust83" class="cluster">
<title>cluster_SharedModule_exports</title>
<polygon fill="none" stroke="black" points="2674,-40.8 2674,-92.8 3188,-92.8 3188,-40.8 2674,-40.8"/>
</g>
<g id="clust85" class="cluster">
<title>cluster_SharedModule_providers</title>
<polygon fill="none" stroke="black" points="2380,-40.8 2380,-92.8 2666,-92.8 2666,-40.8 2380,-40.8"/>
</g>
<!-- AppComponent -->
<g id="node1" class="node">
<title>AppComponent</title>
<polygon fill="#ffffb3" stroke="black" points="1597.94,-160.8 1492.06,-160.8 1492.06,-124.8 1597.94,-124.8 1597.94,-160.8"/>
<text text-anchor="middle" x="1545" y="-138.6" font-family="Times,serif" font-size="14.00">AppComponent</text>
</g>
<!-- AppModule -->
<g id="node10" class="node">
<title>AppModule</title>
<polygon fill="#8dd3c7" stroke="black" points="1655.66,-225.8 1652.66,-229.8 1631.66,-229.8 1628.66,-225.8 1572.34,-225.8 1572.34,-189.8 1655.66,-189.8 1655.66,-225.8"/>
<text text-anchor="middle" x="1614" y="-203.6" font-family="Times,serif" font-size="14.00">AppModule</text>
</g>
<!-- AppComponent&#45;&gt;AppModule -->
<g id="edge1" class="edge">
<title>AppComponent&#45;&gt;AppModule</title>
<path fill="none" stroke="black" d="M1584.94,-160.91C1584.94,-160.91 1584.94,-179.79 1584.94,-179.79"/>
<polygon fill="black" stroke="black" points="1581.44,-179.79 1584.94,-189.79 1588.44,-179.79 1581.44,-179.79"/>
</g>
<!-- BottomNavComponent -->
<g id="node2" class="node">
<title>BottomNavComponent</title>
<polygon fill="#ffffb3" stroke="black" points="1474.16,-160.8 1327.84,-160.8 1327.84,-124.8 1474.16,-124.8 1474.16,-160.8"/>
<text text-anchor="middle" x="1401" y="-138.6" font-family="Times,serif" font-size="14.00">BottomNavComponent</text>
</g>
<!-- BottomNavComponent&#45;&gt;AppModule -->
<g id="edge2" class="edge">
<title>BottomNavComponent&#45;&gt;AppModule</title>
<path fill="none" stroke="black" d="M1401,-161.04C1401,-176.37 1401,-195.8 1401,-195.8 1401,-195.8 1562.17,-195.8 1562.17,-195.8"/>
<polygon fill="black" stroke="black" points="1562.17,-199.3 1572.17,-195.8 1562.17,-192.3 1562.17,-199.3"/>
</g>
<!-- FloatingMenuComponent -->
<g id="node3" class="node">
<title>FloatingMenuComponent</title>
<polygon fill="#ffffb3" stroke="black" points="1309.16,-160.8 1148.84,-160.8 1148.84,-124.8 1309.16,-124.8 1309.16,-160.8"/>
<text text-anchor="middle" x="1229" y="-138.6" font-family="Times,serif" font-size="14.00">FloatingMenuComponent</text>
</g>
<!-- FloatingMenuComponent&#45;&gt;AppModule -->
<g id="edge3" class="edge">
<title>FloatingMenuComponent&#45;&gt;AppModule</title>
<path fill="none" stroke="black" d="M1229,-160.83C1229,-177.86 1229,-200.8 1229,-200.8 1229,-200.8 1562.07,-200.8 1562.07,-200.8"/>
<polygon fill="black" stroke="black" points="1562.07,-204.3 1572.07,-200.8 1562.07,-197.3 1562.07,-204.3"/>
</g>
<!-- LoadingComponent -->
<g id="node4" class="node">
<title>LoadingComponent</title>
<polygon fill="#ffffb3" stroke="black" points="1130.99,-160.8 1003.01,-160.8 1003.01,-124.8 1130.99,-124.8 1130.99,-160.8"/>
<text text-anchor="middle" x="1067" y="-138.6" font-family="Times,serif" font-size="14.00">LoadingComponent</text>
</g>
<!-- LoadingComponent&#45;&gt;AppModule -->
<g id="edge4" class="edge">
<title>LoadingComponent&#45;&gt;AppModule</title>
<path fill="none" stroke="black" d="M1067,-161.02C1067,-179.63 1067,-205.8 1067,-205.8 1067,-205.8 1561.99,-205.8 1561.99,-205.8"/>
<polygon fill="black" stroke="black" points="1561.99,-209.3 1571.99,-205.8 1561.99,-202.3 1561.99,-209.3"/>
</g>
<!-- LoadingOverlayComponent -->
<g id="node5" class="node">
<title>LoadingOverlayComponent</title>
<polygon fill="#ffffb3" stroke="black" points="984.58,-160.8 811.42,-160.8 811.42,-124.8 984.58,-124.8 984.58,-160.8"/>
<text text-anchor="middle" x="898" y="-138.6" font-family="Times,serif" font-size="14.00">LoadingOverlayComponent</text>
</g>
<!-- LoadingOverlayComponent&#45;&gt;AppModule -->
<g id="edge5" class="edge">
<title>LoadingOverlayComponent&#45;&gt;AppModule</title>
<path fill="none" stroke="black" d="M898,-161.02C898,-181.17 898,-210.8 898,-210.8 898,-210.8 1562.15,-210.8 1562.15,-210.8"/>
<polygon fill="black" stroke="black" points="1562.15,-214.3 1572.15,-210.8 1562.15,-207.3 1562.15,-214.3"/>
</g>
<!-- LoginRegisterComponent -->
<g id="node6" class="node">
<title>LoginRegisterComponent</title>
<polygon fill="#ffffb3" stroke="black" points="793.93,-160.8 632.07,-160.8 632.07,-124.8 793.93,-124.8 793.93,-160.8"/>
<text text-anchor="middle" x="713" y="-138.6" font-family="Times,serif" font-size="14.00">LoginRegisterComponent</text>
</g>
<!-- LoginRegisterComponent&#45;&gt;AppModule -->
<g id="edge6" class="edge">
<title>LoginRegisterComponent&#45;&gt;AppModule</title>
<path fill="none" stroke="black" d="M713,-160.84C713,-182.46 713,-215.8 713,-215.8 713,-215.8 1562.05,-215.8 1562.05,-215.8"/>
<polygon fill="black" stroke="black" points="1562.05,-219.3 1572.05,-215.8 1562.05,-212.3 1562.05,-219.3"/>
</g>
<!-- OverlayComponent -->
<g id="node7" class="node">
<title>OverlayComponent</title>
<polygon fill="#ffffb3" stroke="black" points="2045.42,-160.8 1918.58,-160.8 1918.58,-124.8 2045.42,-124.8 2045.42,-160.8"/>
<text text-anchor="middle" x="1982" y="-138.6" font-family="Times,serif" font-size="14.00">OverlayComponent</text>
</g>
<!-- OverlayComponent&#45;&gt;AppModule -->
<g id="edge7" class="edge">
<title>OverlayComponent&#45;&gt;AppModule</title>
<path fill="none" stroke="black" d="M1982,-160.91C1982,-180.14 1982,-207.8 1982,-207.8 1982,-207.8 1665.86,-207.8 1665.86,-207.8"/>
<polygon fill="black" stroke="black" points="1665.86,-204.3 1655.86,-207.8 1665.86,-211.3 1665.86,-204.3"/>
</g>
<!-- PassagesComponent -->
<g id="node8" class="node">
<title>PassagesComponent</title>
<polygon fill="#ffffb3" stroke="black" points="1900.6,-160.8 1769.4,-160.8 1769.4,-124.8 1900.6,-124.8 1900.6,-160.8"/>
<text text-anchor="middle" x="1835" y="-138.6" font-family="Times,serif" font-size="14.00">PassagesComponent</text>
</g>
<!-- PassagesComponent&#45;&gt;AppModule -->
<g id="edge8" class="edge">
<title>PassagesComponent&#45;&gt;AppModule</title>
<path fill="none" stroke="black" d="M1835,-161.1C1835,-179.07 1835,-203.8 1835,-203.8 1835,-203.8 1665.83,-203.8 1665.83,-203.8"/>
<polygon fill="black" stroke="black" points="1665.83,-200.3 1655.83,-203.8 1665.83,-207.3 1665.83,-200.3"/>
</g>
<!-- StatusBarComponent -->
<g id="node9" class="node">
<title>StatusBarComponent</title>
<polygon fill="#ffffb3" stroke="black" points="1751.77,-160.8 1616.23,-160.8 1616.23,-124.8 1751.77,-124.8 1751.77,-160.8"/>
<text text-anchor="middle" x="1684" y="-138.6" font-family="Times,serif" font-size="14.00">StatusBarComponent</text>
</g>
<!-- StatusBarComponent&#45;&gt;AppModule -->
<g id="edge9" class="edge">
<title>StatusBarComponent&#45;&gt;AppModule</title>
<path fill="none" stroke="black" d="M1635.97,-160.91C1635.97,-160.91 1635.97,-179.79 1635.97,-179.79"/>
<polygon fill="black" stroke="black" points="1632.47,-179.79 1635.97,-189.79 1639.47,-179.79 1632.47,-179.79"/>
</g>
<!-- AppComponent  -->
<g id="node13" class="node">
<title>AppComponent </title>
<polygon fill="#80b1d3" stroke="black" points="1668.44,-290.8 1559.56,-290.8 1559.56,-254.8 1668.44,-254.8 1668.44,-290.8"/>
<text text-anchor="middle" x="1614" y="-268.6" font-family="Times,serif" font-size="14.00">AppComponent </text>
</g>
<!-- AppModule&#45;&gt;AppComponent  -->
<g id="edge12" class="edge">
<title>AppModule&#45;&gt;AppComponent </title>
<path fill="none" stroke="black" stroke-dasharray="1,5" d="M1614,-225.91C1614,-225.91 1614,-244.79 1614,-244.79"/>
<polygon fill="black" stroke="black" points="1610.5,-244.79 1614,-254.79 1617.5,-244.79 1610.5,-244.79"/>
</g>
<!-- AppRoutingModule -->
<g id="node11" class="node">
<title>AppRoutingModule</title>
<polygon fill="#8dd3c7" stroke="black" points="2231.28,-160.8 2228.28,-164.8 2207.28,-164.8 2204.28,-160.8 2102.72,-160.8 2102.72,-124.8 2231.28,-124.8 2231.28,-160.8"/>
<text text-anchor="middle" x="2167" y="-138.6" font-family="Times,serif" font-size="14.00">AppRoutingModule</text>
</g>
<!-- AppRoutingModule&#45;&gt;AppModule -->
<g id="edge10" class="edge">
<title>AppRoutingModule&#45;&gt;AppModule</title>
<path fill="none" stroke="black" d="M2167,-161.09C2167,-183.01 2167,-216.8 2167,-216.8 2167,-216.8 1666.02,-216.8 1666.02,-216.8"/>
<polygon fill="black" stroke="black" points="1666.02,-213.3 1656.02,-216.8 1666.02,-220.3 1666.02,-213.3"/>
</g>
<!-- SharedModule -->
<g id="node12" class="node">
<title>SharedModule</title>
<polygon fill="#8dd3c7" stroke="black" points="2348.43,-160.8 2345.43,-164.8 2324.43,-164.8 2321.43,-160.8 2249.57,-160.8 2249.57,-124.8 2348.43,-124.8 2348.43,-160.8"/>
<text text-anchor="middle" x="2299" y="-138.6" font-family="Times,serif" font-size="14.00">SharedModule</text>
</g>
<!-- SharedModule&#45;&gt;AppModule -->
<g id="edge11" class="edge">
<title>SharedModule&#45;&gt;AppModule</title>
<path fill="none" stroke="black" d="M2315.4,-161.12C2315.4,-184.46 2315.4,-221.8 2315.4,-221.8 2315.4,-221.8 1665.78,-221.8 1665.78,-221.8"/>
<polygon fill="black" stroke="black" points="1665.78,-218.3 1655.78,-221.8 1665.78,-225.3 1665.78,-218.3"/>
</g>
<!-- BookModule -->
<g id="node19" class="node">
<title>BookModule</title>
<polygon fill="#8dd3c7" stroke="black" points="431.89,-225.8 428.89,-229.8 407.89,-229.8 404.89,-225.8 342.11,-225.8 342.11,-189.8 431.89,-189.8 431.89,-225.8"/>
<text text-anchor="middle" x="387" y="-203.6" font-family="Times,serif" font-size="14.00">BookModule</text>
</g>
<!-- SharedModule&#45;&gt;BookModule -->
<g id="edge19" class="edge">
<title>SharedModule&#45;&gt;BookModule</title>
<path fill="none" stroke="black" d="M2266.19,-160.86C2266.19,-165.29 2266.19,-168.8 2266.19,-168.8 2266.19,-168.8 401.98,-168.8 401.98,-168.8 401.98,-168.8 401.98,-179.67 401.98,-179.67"/>
<polygon fill="black" stroke="black" points="398.48,-179.67 401.98,-189.67 405.48,-179.67 398.48,-179.67"/>
</g>
<!-- CaptureModule -->
<g id="node23" class="node">
<title>CaptureModule</title>
<polygon fill="#8dd3c7" stroke="black" points="2593.87,-225.8 2590.87,-229.8 2569.87,-229.8 2566.87,-225.8 2490.13,-225.8 2490.13,-189.8 2593.87,-189.8 2593.87,-225.8"/>
<text text-anchor="middle" x="2542" y="-203.6" font-family="Times,serif" font-size="14.00">CaptureModule</text>
</g>
<!-- SharedModule&#45;&gt;CaptureModule -->
<g id="edge23" class="edge">
<title>SharedModule&#45;&gt;CaptureModule</title>
<path fill="none" stroke="black" d="M2331.81,-160.99C2331.81,-175.98 2331.81,-194.8 2331.81,-194.8 2331.81,-194.8 2480.04,-194.8 2480.04,-194.8"/>
<polygon fill="black" stroke="black" points="2480.04,-198.3 2490.04,-194.8 2480.04,-191.3 2480.04,-198.3"/>
</g>
<!-- InsightsModule -->
<g id="node27" class="node">
<title>InsightsModule</title>
<polygon fill="#8dd3c7" stroke="black" points="3016.89,-225.8 3013.89,-229.8 2992.89,-229.8 2989.89,-225.8 2913.11,-225.8 2913.11,-189.8 3016.89,-189.8 3016.89,-225.8"/>
<text text-anchor="middle" x="2965" y="-203.6" font-family="Times,serif" font-size="14.00">InsightsModule</text>
</g>
<!-- SharedModule&#45;&gt;InsightsModule -->
<g id="edge27" class="edge">
<title>SharedModule&#45;&gt;InsightsModule</title>
<path fill="none" stroke="black" d="M2282.6,-160.93C2282.6,-171.51 2282.6,-182.8 2282.6,-182.8 2282.6,-182.8 2947.69,-182.8 2947.69,-182.8 2947.69,-182.8 2947.69,-183.48 2947.69,-183.48"/>
<polygon fill="black" stroke="black" points="2944.19,-179.63 2947.69,-189.63 2951.19,-179.63 2944.19,-179.63"/>
</g>
<!-- PassagesModule -->
<g id="node30" class="node">
<title>PassagesModule</title>
<polygon fill="#8dd3c7" stroke="black" points="3346.82,-225.8 3343.82,-229.8 3322.82,-229.8 3319.82,-225.8 3237.18,-225.8 3237.18,-189.8 3346.82,-189.8 3346.82,-225.8"/>
<text text-anchor="middle" x="3292" y="-203.6" font-family="Times,serif" font-size="14.00">PassagesModule</text>
</g>
<!-- SharedModule&#45;&gt;PassagesModule -->
<g id="edge29" class="edge">
<title>SharedModule&#45;&gt;PassagesModule</title>
<path fill="none" stroke="black" d="M2299,-160.84C2299,-168.55 2299,-175.8 2299,-175.8 2299,-175.8 3273.78,-175.8 3273.78,-175.8 3273.78,-175.8 3273.78,-179.56 3273.78,-179.56"/>
<polygon fill="black" stroke="black" points="3270.28,-179.56 3273.78,-189.56 3277.28,-179.56 3270.28,-179.56"/>
</g>
<!-- FilterAllPipe  -->
<g id="node37" class="node">
<title>FilterAllPipe </title>
<polygon fill="#fb8072" stroke="black" points="2867.11,-84.8 2774.89,-84.8 2774.89,-48.8 2867.11,-48.8 2867.11,-84.8"/>
<text text-anchor="middle" x="2821" y="-62.6" font-family="Times,serif" font-size="14.00">FilterAllPipe </text>
</g>
<!-- SharedModule&#45;&gt;FilterAllPipe  -->
<g id="edge36" class="edge">
<title>SharedModule&#45;&gt;FilterAllPipe </title>
<path fill="none" stroke="black" stroke-dasharray="5,2" d="M2278.04,-124.76C2278.04,-112.24 2278.04,-97.8 2278.04,-97.8 2278.04,-97.8 2812.26,-97.8 2812.26,-97.8 2812.26,-97.8 2812.26,-94.83 2812.26,-94.83"/>
<polygon fill="black" stroke="black" points="2815.76,-94.83 2812.26,-84.83 2808.76,-94.83 2815.76,-94.83"/>
</g>
<!-- FilterPipe  -->
<g id="node38" class="node">
<title>FilterPipe </title>
<polygon fill="#fb8072" stroke="black" points="2756.22,-84.8 2681.78,-84.8 2681.78,-48.8 2756.22,-48.8 2756.22,-84.8"/>
<text text-anchor="middle" x="2719" y="-62.6" font-family="Times,serif" font-size="14.00">FilterPipe </text>
</g>
<!-- SharedModule&#45;&gt;FilterPipe  -->
<g id="edge37" class="edge">
<title>SharedModule&#45;&gt;FilterPipe </title>
<path fill="none" stroke="black" stroke-dasharray="5,2" d="M2271.66,-124.65C2271.66,-111.06 2271.66,-94.8 2271.66,-94.8 2271.66,-94.8 2691.07,-94.8 2691.07,-94.8 2691.07,-94.8 2691.07,-93.82 2691.07,-93.82"/>
<polygon fill="black" stroke="black" points="2694.57,-95.01 2691.07,-85.01 2687.57,-95.01 2694.57,-95.01"/>
</g>
<!-- OutsideClickDirective  -->
<g id="node39" class="node">
<title>OutsideClickDirective </title>
<polygon fill="#fb8072" stroke="black" points="3179.97,-84.8 3034.03,-84.8 3034.03,-48.8 3179.97,-48.8 3179.97,-84.8"/>
<text text-anchor="middle" x="3107" y="-62.6" font-family="Times,serif" font-size="14.00">OutsideClickDirective </text>
</g>
<!-- SharedModule&#45;&gt;OutsideClickDirective  -->
<g id="edge38" class="edge">
<title>SharedModule&#45;&gt;OutsideClickDirective </title>
<path fill="none" stroke="black" stroke-dasharray="5,2" d="M2290.8,-124.67C2290.8,-114.49 2290.8,-103.8 2290.8,-103.8 2290.8,-103.8 3051.83,-103.8 3051.83,-103.8 3051.83,-103.8 3051.83,-94.87 3051.83,-94.87"/>
<polygon fill="black" stroke="black" points="3055.33,-94.87 3051.83,-84.87 3048.33,-94.87 3055.33,-94.87"/>
</g>
<!-- TopNavComponent  -->
<g id="node40" class="node">
<title>TopNavComponent </title>
<polygon fill="#fb8072" stroke="black" points="3016.21,-84.8 2885.79,-84.8 2885.79,-48.8 3016.21,-48.8 3016.21,-84.8"/>
<text text-anchor="middle" x="2951" y="-62.6" font-family="Times,serif" font-size="14.00">TopNavComponent </text>
</g>
<!-- SharedModule&#45;&gt;TopNavComponent  -->
<g id="edge39" class="edge">
<title>SharedModule&#45;&gt;TopNavComponent </title>
<path fill="none" stroke="black" stroke-dasharray="5,2" d="M2284.42,-124.74C2284.42,-113.36 2284.42,-100.8 2284.42,-100.8 2284.42,-100.8 2953.43,-100.8 2953.43,-100.8 2953.43,-100.8 2953.43,-94.99 2953.43,-94.99"/>
<polygon fill="black" stroke="black" points="2956.93,-94.99 2953.43,-84.99 2949.93,-94.99 2956.93,-94.99"/>
</g>
<!-- FloatingMenuService -->
<g id="node14" class="node">
<title>FloatingMenuService</title>
<ellipse fill="#fdb462" stroke="black" cx="1819" cy="-66.8" rx="94.93" ry="18"/>
<text text-anchor="middle" x="1819" y="-62.6" font-family="Times,serif" font-size="14.00">FloatingMenuService</text>
</g>
<!-- FloatingMenuService&#45;&gt;AppModule -->
<g id="edge13" class="edge">
<title>FloatingMenuService&#45;&gt;AppModule</title>
<path fill="none" stroke="black" d="M1760.67,-81.18C1760.67,-115.39 1760.67,-198.8 1760.67,-198.8 1760.67,-198.8 1666.03,-198.8 1666.03,-198.8"/>
<polygon fill="black" stroke="black" points="1666.03,-195.3 1656.03,-198.8 1666.03,-202.3 1666.03,-195.3"/>
</g>
<!-- LoadingOverlayService -->
<g id="node15" class="node">
<title>LoadingOverlayService</title>
<ellipse fill="#fdb462" stroke="black" cx="2162" cy="-66.8" rx="103.06" ry="18"/>
<text text-anchor="middle" x="2162" y="-62.6" font-family="Times,serif" font-size="14.00">LoadingOverlayService</text>
</g>
<!-- LoadingOverlayService&#45;&gt;AppModule -->
<g id="edge14" class="edge">
<title>LoadingOverlayService&#45;&gt;AppModule</title>
<path fill="none" stroke="black" d="M2080.67,-78.26C2080.67,-112.67 2080.67,-212.8 2080.67,-212.8 2080.67,-212.8 1665.82,-212.8 1665.82,-212.8"/>
<polygon fill="black" stroke="black" points="1665.82,-209.3 1655.82,-212.8 1665.82,-216.3 1665.82,-209.3"/>
</g>
<!-- LoadingOverlayService&#45;&gt;SharedModule -->
<g id="edge41" class="edge">
<title>LoadingOverlayService&#45;&gt;SharedModule</title>
<path fill="none" stroke="black" d="M2257.53,-73.81C2257.53,-73.81 2257.53,-114.69 2257.53,-114.69"/>
<polygon fill="black" stroke="black" points="2254.03,-114.69 2257.53,-124.69 2261.03,-114.69 2254.03,-114.69"/>
</g>
<!-- OcrService -->
<g id="node16" class="node">
<title>OcrService</title>
<ellipse fill="#fdb462" stroke="black" cx="1986" cy="-66.8" rx="54.44" ry="18"/>
<text text-anchor="middle" x="1986" y="-62.6" font-family="Times,serif" font-size="14.00">OcrService</text>
</g>
<!-- OcrService&#45;&gt;AppModule -->
<g id="edge15" class="edge">
<title>OcrService&#45;&gt;AppModule</title>
<path fill="none" stroke="black" d="M1986,-84.97C1986,-87.25 1986,-88.8 1986,-88.8 1986,-88.8 1606.92,-88.8 1606.92,-88.8 1606.92,-88.8 1606.92,-179.73 1606.92,-179.73"/>
<polygon fill="black" stroke="black" points="1603.42,-179.73 1606.92,-189.73 1610.42,-179.73 1603.42,-179.73"/>
</g>
<!-- BooksComponent -->
<g id="node17" class="node">
<title>BooksComponent</title>
<polygon fill="#ffffb3" stroke="black" points="579.62,-160.8 462.38,-160.8 462.38,-124.8 579.62,-124.8 579.62,-160.8"/>
<text text-anchor="middle" x="521" y="-138.6" font-family="Times,serif" font-size="14.00">BooksComponent</text>
</g>
<!-- BooksComponent&#45;&gt;BookModule -->
<g id="edge16" class="edge">
<title>BooksComponent&#45;&gt;BookModule</title>
<path fill="none" stroke="black" d="M521,-160.89C521,-183.93 521,-220.8 521,-220.8 521,-220.8 441.99,-220.8 441.99,-220.8"/>
<polygon fill="black" stroke="black" points="441.99,-217.3 431.99,-220.8 441.99,-224.3 441.99,-217.3"/>
</g>
<!-- CardsComponent -->
<g id="node18" class="node">
<title>CardsComponent</title>
<polygon fill="#ffffb3" stroke="black" points="443.99,-160.8 330.01,-160.8 330.01,-124.8 443.99,-124.8 443.99,-160.8"/>
<text text-anchor="middle" x="387" y="-138.6" font-family="Times,serif" font-size="14.00">CardsComponent</text>
</g>
<!-- CardsComponent&#45;&gt;BookModule -->
<g id="edge17" class="edge">
<title>CardsComponent&#45;&gt;BookModule</title>
<path fill="none" stroke="black" d="M372.02,-160.91C372.02,-160.91 372.02,-179.79 372.02,-179.79"/>
<polygon fill="black" stroke="black" points="368.52,-179.79 372.02,-189.79 375.52,-179.79 368.52,-179.79"/>
</g>
<!-- BookRoutingModule -->
<g id="node20" class="node">
<title>BookRoutingModule</title>
<polygon fill="#8dd3c7" stroke="black" points="305.51,-160.8 302.51,-164.8 281.51,-164.8 278.51,-160.8 170.49,-160.8 170.49,-124.8 305.51,-124.8 305.51,-160.8"/>
<text text-anchor="middle" x="238" y="-138.6" font-family="Times,serif" font-size="14.00">BookRoutingModule</text>
</g>
<!-- BookRoutingModule&#45;&gt;BookModule -->
<g id="edge18" class="edge">
<title>BookRoutingModule&#45;&gt;BookModule</title>
<path fill="none" stroke="black" d="M238,-160.82C238,-178.17 238,-201.8 238,-201.8 238,-201.8 331.89,-201.8 331.89,-201.8"/>
<polygon fill="black" stroke="black" points="331.89,-205.3 341.89,-201.8 331.89,-198.3 331.89,-205.3"/>
</g>
<!-- BookService -->
<g id="node21" class="node">
<title>BookService</title>
<ellipse fill="#fdb462" stroke="black" cx="85" cy="-142.8" rx="60.84" ry="18"/>
<text text-anchor="middle" x="85" y="-138.6" font-family="Times,serif" font-size="14.00">BookService</text>
</g>
<!-- BookService&#45;&gt;BookModule -->
<g id="edge20" class="edge">
<title>BookService&#45;&gt;BookModule</title>
<path fill="none" stroke="black" d="M85,-161.08C85,-182.12 85,-213.8 85,-213.8 85,-213.8 331.79,-213.8 331.79,-213.8"/>
<polygon fill="black" stroke="black" points="331.79,-217.3 341.79,-213.8 331.79,-210.3 331.79,-217.3"/>
</g>
<!-- CaptureComponent -->
<g id="node22" class="node">
<title>CaptureComponent</title>
<polygon fill="#ffffb3" stroke="black" points="2849.65,-160.8 2724.35,-160.8 2724.35,-124.8 2849.65,-124.8 2849.65,-160.8"/>
<text text-anchor="middle" x="2787" y="-138.6" font-family="Times,serif" font-size="14.00">CaptureComponent</text>
</g>
<!-- CaptureComponent&#45;&gt;CaptureModule -->
<g id="edge21" class="edge">
<title>CaptureComponent&#45;&gt;CaptureModule</title>
<path fill="none" stroke="black" d="M2787,-160.91C2787,-180.14 2787,-207.8 2787,-207.8 2787,-207.8 2603.96,-207.8 2603.96,-207.8"/>
<polygon fill="black" stroke="black" points="2603.96,-204.3 2593.96,-207.8 2603.96,-211.3 2603.96,-204.3"/>
</g>
<!-- CaptureRoutingModule -->
<g id="node24" class="node">
<title>CaptureRoutingModule</title>
<polygon fill="#8dd3c7" stroke="black" points="2700.49,-160.8 2697.49,-164.8 2676.49,-164.8 2673.49,-160.8 2551.51,-160.8 2551.51,-124.8 2700.49,-124.8 2700.49,-160.8"/>
<text text-anchor="middle" x="2626" y="-138.6" font-family="Times,serif" font-size="14.00">CaptureRoutingModule</text>
</g>
<!-- CaptureRoutingModule&#45;&gt;CaptureModule -->
<g id="edge22" class="edge">
<title>CaptureRoutingModule&#45;&gt;CaptureModule</title>
<path fill="none" stroke="black" d="M2572.72,-160.91C2572.72,-160.91 2572.72,-179.79 2572.72,-179.79"/>
<polygon fill="black" stroke="black" points="2569.22,-179.79 2572.72,-189.79 2576.22,-179.79 2569.22,-179.79"/>
</g>
<!-- CameraService -->
<g id="node25" class="node">
<title>CameraService</title>
<ellipse fill="#fdb462" stroke="black" cx="2458" cy="-142.8" rx="70.04" ry="18"/>
<text text-anchor="middle" x="2458" y="-138.6" font-family="Times,serif" font-size="14.00">CameraService</text>
</g>
<!-- CameraService&#45;&gt;CaptureModule -->
<g id="edge24" class="edge">
<title>CameraService&#45;&gt;CaptureModule</title>
<path fill="none" stroke="black" d="M2509.04,-155.33C2509.04,-155.33 2509.04,-179.65 2509.04,-179.65"/>
<polygon fill="black" stroke="black" points="2505.54,-179.65 2509.04,-189.65 2512.54,-179.65 2505.54,-179.65"/>
</g>
<!-- InsightsComponent -->
<g id="node26" class="node">
<title>InsightsComponent</title>
<polygon fill="#ffffb3" stroke="black" points="3189.67,-160.8 3064.33,-160.8 3064.33,-124.8 3189.67,-124.8 3189.67,-160.8"/>
<text text-anchor="middle" x="3127" y="-138.6" font-family="Times,serif" font-size="14.00">InsightsComponent</text>
</g>
<!-- InsightsComponent&#45;&gt;InsightsModule -->
<g id="edge25" class="edge">
<title>InsightsComponent&#45;&gt;InsightsModule</title>
<path fill="none" stroke="black" d="M3127,-160.91C3127,-180.14 3127,-207.8 3127,-207.8 3127,-207.8 3027.15,-207.8 3027.15,-207.8"/>
<polygon fill="black" stroke="black" points="3027.15,-204.3 3017.15,-207.8 3027.15,-211.3 3027.15,-204.3"/>
</g>
<!-- InsightsRoutingModule -->
<g id="node28" class="node">
<title>InsightsRoutingModule</title>
<polygon fill="#8dd3c7" stroke="black" points="3039.51,-160.8 3036.51,-164.8 3015.51,-164.8 3012.51,-160.8 2890.49,-160.8 2890.49,-124.8 3039.51,-124.8 3039.51,-160.8"/>
<text text-anchor="middle" x="2965" y="-138.6" font-family="Times,serif" font-size="14.00">InsightsRoutingModule</text>
</g>
<!-- InsightsRoutingModule&#45;&gt;InsightsModule -->
<g id="edge26" class="edge">
<title>InsightsRoutingModule&#45;&gt;InsightsModule</title>
<path fill="none" stroke="black" d="M2982.31,-160.91C2982.31,-160.91 2982.31,-179.79 2982.31,-179.79"/>
<polygon fill="black" stroke="black" points="2978.82,-179.79 2982.31,-189.79 2985.82,-179.79 2978.82,-179.79"/>
</g>
<!-- PassagesRoutingModule -->
<g id="node29" class="node">
<title>PassagesRoutingModule</title>
<polygon fill="#8dd3c7" stroke="black" points="3384.44,-160.8 3381.44,-164.8 3360.44,-164.8 3357.44,-160.8 3229.56,-160.8 3229.56,-124.8 3384.44,-124.8 3384.44,-160.8"/>
<text text-anchor="middle" x="3307" y="-138.6" font-family="Times,serif" font-size="14.00">PassagesRoutingModule</text>
</g>
<!-- PassagesRoutingModule&#45;&gt;PassagesModule -->
<g id="edge28" class="edge">
<title>PassagesRoutingModule&#45;&gt;PassagesModule</title>
<path fill="none" stroke="black" d="M3310.22,-160.91C3310.22,-160.91 3310.22,-179.79 3310.22,-179.79"/>
<polygon fill="black" stroke="black" points="3306.72,-179.79 3310.22,-189.79 3313.72,-179.79 3306.72,-179.79"/>
</g>
<!-- CapsPipe -->
<g id="node31" class="node">
<title>CapsPipe</title>
<polygon fill="#ffffb3" stroke="black" points="3943.39,-84.8 3874.61,-84.8 3874.61,-48.8 3943.39,-48.8 3943.39,-84.8"/>
<text text-anchor="middle" x="3909" y="-62.6" font-family="Times,serif" font-size="14.00">CapsPipe</text>
</g>
<!-- CapsPipe&#45;&gt;SharedModule -->
<g id="edge30" class="edge">
<title>CapsPipe&#45;&gt;SharedModule</title>
<path fill="none" stroke="black" d="M3909,-84.81C3909,-100.85 3909,-121.8 3909,-121.8 3909,-121.8 2341.83,-121.8 2341.83,-121.8 2341.83,-121.8 2341.83,-122.09 2341.83,-122.09"/>
<polygon fill="black" stroke="black" points="2338.33,-114.72 2341.83,-124.72 2345.33,-114.72 2338.33,-114.72"/>
</g>
<!-- FilterAllPipe -->
<g id="node32" class="node">
<title>FilterAllPipe</title>
<polygon fill="#ffffb3" stroke="black" points="3856.61,-84.8 3767.39,-84.8 3767.39,-48.8 3856.61,-48.8 3856.61,-84.8"/>
<text text-anchor="middle" x="3812" y="-62.6" font-family="Times,serif" font-size="14.00">FilterAllPipe</text>
</g>
<!-- FilterAllPipe&#45;&gt;SharedModule -->
<g id="edge31" class="edge">
<title>FilterAllPipe&#45;&gt;SharedModule</title>
<path fill="none" stroke="black" d="M3812,-84.99C3812,-99.98 3812,-118.8 3812,-118.8 3812,-118.8 2335.45,-118.8 2335.45,-118.8 2335.45,-118.8 2335.45,-119.38 2335.45,-119.38"/>
<polygon fill="black" stroke="black" points="2331.95,-114.61 2335.45,-124.61 2338.95,-114.61 2331.95,-114.61"/>
</g>
<!-- FilterPipe -->
<g id="node33" class="node">
<title>FilterPipe</title>
<polygon fill="#ffffb3" stroke="black" points="3749.72,-84.8 3678.28,-84.8 3678.28,-48.8 3749.72,-48.8 3749.72,-84.8"/>
<text text-anchor="middle" x="3714" y="-62.6" font-family="Times,serif" font-size="14.00">FilterPipe</text>
</g>
<!-- FilterPipe&#45;&gt;SharedModule -->
<g id="edge32" class="edge">
<title>FilterPipe&#45;&gt;SharedModule</title>
<path fill="none" stroke="black" d="M3714,-85.05C3714,-98.98 3714,-115.8 3714,-115.8 3714,-115.8 2329.07,-115.8 2329.07,-115.8 2329.07,-115.8 2329.07,-116.68 2329.07,-116.68"/>
<polygon fill="black" stroke="black" points="2325.57,-114.64 2329.07,-124.64 2332.57,-114.64 2325.57,-114.64"/>
</g>
<!-- OutsideClickDirective -->
<g id="node34" class="node">
<title>OutsideClickDirective</title>
<polygon fill="#ffffb3" stroke="black" points="3659.97,-84.8 3518.03,-84.8 3518.03,-48.8 3659.97,-48.8 3659.97,-84.8"/>
<text text-anchor="middle" x="3589" y="-62.6" font-family="Times,serif" font-size="14.00">OutsideClickDirective</text>
</g>
<!-- OutsideClickDirective&#45;&gt;SharedModule -->
<g id="edge33" class="edge">
<title>OutsideClickDirective&#45;&gt;SharedModule</title>
<path fill="none" stroke="black" d="M3589,-84.98C3589,-97.84 3589,-112.8 3589,-112.8 3589,-112.8 2322.69,-112.8 2322.69,-112.8 2322.69,-112.8 2322.69,-114.66 2322.69,-114.66"/>
<polygon fill="black" stroke="black" points="2319.2,-114.66 2322.69,-124.66 2326.2,-114.66 2319.2,-114.66"/>
</g>
<!-- TopNavComponent -->
<g id="node35" class="node">
<title>TopNavComponent</title>
<polygon fill="#ffffb3" stroke="black" points="3499.71,-84.8 3372.29,-84.8 3372.29,-48.8 3499.71,-48.8 3499.71,-84.8"/>
<text text-anchor="middle" x="3436" y="-62.6" font-family="Times,serif" font-size="14.00">TopNavComponent</text>
</g>
<!-- TopNavComponent&#45;&gt;SharedModule -->
<g id="edge34" class="edge">
<title>TopNavComponent&#45;&gt;SharedModule</title>
<path fill="none" stroke="black" d="M3378.31,-85.29C3378.31,-96.94 3378.31,-109.8 3378.31,-109.8 3378.31,-109.8 2316.32,-109.8 2316.32,-109.8 2316.32,-109.8 2316.32,-114.76 2316.32,-114.76"/>
<polygon fill="black" stroke="black" points="2312.82,-114.76 2316.32,-124.76 2319.82,-114.76 2312.82,-114.76"/>
</g>
<!-- VerticalResizeDirective -->
<g id="node36" class="node">
<title>VerticalResizeDirective</title>
<polygon fill="#ffffb3" stroke="black" points="3354.48,-84.8 3203.52,-84.8 3203.52,-48.8 3354.48,-48.8 3354.48,-84.8"/>
<text text-anchor="middle" x="3279" y="-62.6" font-family="Times,serif" font-size="14.00">VerticalResizeDirective</text>
</g>
<!-- VerticalResizeDirective&#45;&gt;SharedModule -->
<g id="edge35" class="edge">
<title>VerticalResizeDirective&#45;&gt;SharedModule</title>
<path fill="none" stroke="black" d="M3216.77,-84.93C3216.77,-95.51 3216.77,-106.8 3216.77,-106.8 3216.77,-106.8 2309.94,-106.8 2309.94,-106.8 2309.94,-106.8 2309.94,-114.38 2309.94,-114.38"/>
<polygon fill="black" stroke="black" points="2306.44,-114.38 2309.94,-124.38 2313.44,-114.38 2306.44,-114.38"/>
</g>
<!-- AuthService -->
<g id="node41" class="node">
<title>AuthService</title>
<ellipse fill="#fdb462" stroke="black" cx="2599" cy="-66.8" rx="59.11" ry="18"/>
<text text-anchor="middle" x="2599" y="-62.6" font-family="Times,serif" font-size="14.00">AuthService</text>
</g>
<!-- AuthService&#45;&gt;SharedModule -->
<g id="edge40" class="edge">
<title>AuthService&#45;&gt;SharedModule</title>
<path fill="none" stroke="black" d="M2545.6,-74.71C2545.6,-82.03 2545.6,-91.8 2545.6,-91.8 2545.6,-91.8 2303.56,-91.8 2303.56,-91.8 2303.56,-91.8 2303.56,-114.68 2303.56,-114.68"/>
<polygon fill="black" stroke="black" points="2300.06,-114.68 2303.56,-124.68 2307.06,-114.68 2300.06,-114.68"/>
</g>
<!-- ThemeService -->
<g id="node42" class="node">
<title>ThemeService</title>
<ellipse fill="#fdb462" stroke="black" cx="2455" cy="-66.8" rx="66.61" ry="18"/>
<text text-anchor="middle" x="2455" y="-62.6" font-family="Times,serif" font-size="14.00">ThemeService</text>
</g>
<!-- ThemeService&#45;&gt;SharedModule -->
<g id="edge42" class="edge">
<title>ThemeService&#45;&gt;SharedModule</title>
<path fill="none" stroke="black" d="M2388.07,-66.8C2345.05,-66.8 2297.18,-66.8 2297.18,-66.8 2297.18,-66.8 2297.18,-114.79 2297.18,-114.79"/>
<polygon fill="black" stroke="black" points="2293.68,-114.79 2297.18,-124.79 2300.68,-114.79 2293.68,-114.79"/>
</g>
</g>
</svg>
