<?xml version="1.0" encoding="UTF-8" standalone="no"?>
<!DOCTYPE svg PUBLIC "-//W3C//DTD SVG 1.1//EN"
 "http://www.w3.org/Graphics/SVG/1.1/DTD/svg11.dtd">
<!-- Generated by graphviz version 5.0.0 (20220707.1540)
 -->
<!-- Title: dependencies Pages: 1 -->
<svg width="4419pt" height="315pt"
 viewBox="0.00 0.00 4419.00 314.80" xmlns="http://www.w3.org/2000/svg" xmlns:xlink="http://www.w3.org/1999/xlink">
<g id="graph0" class="graph" transform="scale(1 1) rotate(0) translate(4 310.8)">
<title>dependencies</title>
<polygon fill="white" stroke="transparent" points="-4,4 -4,-310.8 4415,-310.8 4415,4 -4,4"/>
<text text-anchor="middle" x="2205.5" y="-8.2" font-family="sans-serif" font-size="14.00">dependencies</text>
<g id="clust1" class="cluster">
<title>cluster_AppModule</title>
<polygon fill="none" stroke="black" stroke-dasharray="1,5" points="8,-32.8 8,-298.8 2512,-298.8 2512,-32.8 8,-32.8"/>
</g>
<g id="clust2" class="cluster">
<title>cluster_AppModule_declarations</title>
<polygon fill="none" stroke="black" points="377,-108.8 377,-160.8 2504,-160.8 2504,-108.8 377,-108.8"/>
</g>
<g id="clust17" class="cluster">
<title>cluster_AppModule_imports</title>
<polygon fill="none" stroke="black" points="108,-108.8 108,-160.8 369,-160.8 369,-108.8 108,-108.8"/>
</g>
<g id="clust19" class="cluster">
<title>cluster_AppModule_bootstrap</title>
<polygon fill="none" stroke="black" points="822,-238.8 822,-290.8 946,-290.8 946,-238.8 822,-238.8"/>
</g>
<g id="clust20" class="cluster">
<title>cluster_AppModule_providers</title>
<polygon fill="none" stroke="black" points="16,-40.8 16,-92.8 870,-92.8 870,-40.8 16,-40.8"/>
</g>
<g id="clust27" class="cluster">
<title>cluster_SharedModule</title>
<polygon fill="none" stroke="black" stroke-dasharray="1,5" points="2520,-32.8 2520,-100.8 4403,-100.8 4403,-32.8 2520,-32.8"/>
</g>
<g id="clust28" class="cluster">
<title>cluster_SharedModule_declarations</title>
<polygon fill="none" stroke="black" points="3504,-40.8 3504,-92.8 4395,-92.8 4395,-40.8 3504,-40.8"/>
</g>
<g id="clust37" class="cluster">
<title>cluster_SharedModule_exports</title>
<polygon fill="none" stroke="black" points="2845,-40.8 2845,-92.8 3496,-92.8 3496,-40.8 2845,-40.8"/>
</g>
<g id="clust39" class="cluster">
<title>cluster_SharedModule_providers</title>
<polygon fill="none" stroke="black" points="2528,-40.8 2528,-92.8 2837,-92.8 2837,-40.8 2528,-40.8"/>
</g>
<!-- AccordionComponent -->
<g id="node1" class="node">
<title>AccordionComponent</title>
<polygon fill="#ffffb3" stroke="black" points="1409.42,-152.8 1268.58,-152.8 1268.58,-116.8 1409.42,-116.8 1409.42,-152.8"/>
<text text-anchor="middle" x="1339" y="-130.6" font-family="Times,serif" font-size="14.00">AccordionComponent</text>
</g>
<!-- AppModule -->
<g id="node15" class="node">
<title>AppModule</title>
<polygon fill="#8dd3c7" stroke="black" points="925.66,-217.8 922.66,-221.8 901.66,-221.8 898.66,-217.8 842.34,-217.8 842.34,-181.8 925.66,-181.8 925.66,-217.8"/>
<text text-anchor="middle" x="884" y="-195.6" font-family="Times,serif" font-size="14.00">AppModule</text>
</g>
<!-- AccordionComponent&#45;&gt;AppModule -->
<g id="edge1" class="edge">
<title>AccordionComponent&#45;&gt;AppModule</title>
<path fill="none" stroke="black" d="M1339,-152.84C1339,-169.53 1339,-191.8 1339,-191.8 1339,-191.8 935.99,-191.8 935.99,-191.8"/>
<polygon fill="black" stroke="black" points="935.99,-188.3 925.99,-191.8 935.99,-195.3 935.99,-188.3"/>
</g>
<!-- AccountProfileComponent -->
<g id="node2" class="node">
<title>AccountProfileComponent</title>
<polygon fill="#ffffb3" stroke="black" points="1250.36,-152.8 1083.64,-152.8 1083.64,-116.8 1250.36,-116.8 1250.36,-152.8"/>
<text text-anchor="middle" x="1167" y="-130.6" font-family="Times,serif" font-size="14.00">AccountProfileComponent</text>
</g>
<!-- AccountProfileComponent&#45;&gt;AppModule -->
<g id="edge2" class="edge">
<title>AccountProfileComponent&#45;&gt;AppModule</title>
<path fill="none" stroke="black" d="M1167,-153.08C1167,-168.75 1167,-188.8 1167,-188.8 1167,-188.8 935.76,-188.8 935.76,-188.8"/>
<polygon fill="black" stroke="black" points="935.76,-185.3 925.76,-188.8 935.76,-192.3 935.76,-185.3"/>
</g>
<!-- AppComponent -->
<g id="node3" class="node">
<title>AppComponent</title>
<polygon fill="#ffffb3" stroke="black" points="1065.94,-152.8 960.06,-152.8 960.06,-116.8 1065.94,-116.8 1065.94,-152.8"/>
<text text-anchor="middle" x="1013" y="-130.6" font-family="Times,serif" font-size="14.00">AppComponent</text>
</g>
<!-- AppComponent&#45;&gt;AppModule -->
<g id="edge3" class="edge">
<title>AppComponent&#45;&gt;AppModule</title>
<path fill="none" stroke="black" d="M1013,-152.92C1013,-167.58 1013,-185.8 1013,-185.8 1013,-185.8 935.88,-185.8 935.88,-185.8"/>
<polygon fill="black" stroke="black" points="935.88,-182.3 925.88,-185.8 935.88,-189.3 935.88,-182.3"/>
</g>
<!-- BooksComponent -->
<g id="node4" class="node">
<title>BooksComponent</title>
<polygon fill="#ffffb3" stroke="black" points="942.62,-152.8 825.38,-152.8 825.38,-116.8 942.62,-116.8 942.62,-152.8"/>
<text text-anchor="middle" x="884" y="-130.6" font-family="Times,serif" font-size="14.00">BooksComponent</text>
</g>
<!-- BooksComponent&#45;&gt;AppModule -->
<g id="edge4" class="edge">
<title>BooksComponent&#45;&gt;AppModule</title>
<path fill="none" stroke="black" d="M884,-152.91C884,-152.91 884,-171.79 884,-171.79"/>
<polygon fill="black" stroke="black" points="880.5,-171.79 884,-181.79 887.5,-171.79 880.5,-171.79"/>
</g>
<!-- BottomNavComponent -->
<g id="node5" class="node">
<title>BottomNavComponent</title>
<polygon fill="#ffffb3" stroke="black" points="807.16,-152.8 660.84,-152.8 660.84,-116.8 807.16,-116.8 807.16,-152.8"/>
<text text-anchor="middle" x="734" y="-130.6" font-family="Times,serif" font-size="14.00">BottomNavComponent</text>
</g>
<!-- BottomNavComponent&#45;&gt;AppModule -->
<g id="edge5" class="edge">
<title>BottomNavComponent&#45;&gt;AppModule</title>
<path fill="none" stroke="black" d="M734,-153.08C734,-168.75 734,-188.8 734,-188.8 734,-188.8 832.22,-188.8 832.22,-188.8"/>
<polygon fill="black" stroke="black" points="832.22,-192.3 842.22,-188.8 832.22,-185.3 832.22,-192.3"/>
</g>
<!-- CaptureComponent -->
<g id="node6" class="node">
<title>CaptureComponent</title>
<polygon fill="#ffffb3" stroke="black" points="642.65,-152.8 517.35,-152.8 517.35,-116.8 642.65,-116.8 642.65,-152.8"/>
<text text-anchor="middle" x="580" y="-130.6" font-family="Times,serif" font-size="14.00">CaptureComponent</text>
</g>
<!-- CaptureComponent&#45;&gt;AppModule -->
<g id="edge6" class="edge">
<title>CaptureComponent&#45;&gt;AppModule</title>
<path fill="none" stroke="black" d="M580,-152.84C580,-169.53 580,-191.8 580,-191.8 580,-191.8 832.05,-191.8 832.05,-191.8"/>
<polygon fill="black" stroke="black" points="832.05,-195.3 842.05,-191.8 832.05,-188.3 832.05,-195.3"/>
</g>
<!-- CardsComponent -->
<g id="node7" class="node">
<title>CardsComponent</title>
<polygon fill="#ffffb3" stroke="black" points="498.99,-152.8 385.01,-152.8 385.01,-116.8 498.99,-116.8 498.99,-152.8"/>
<text text-anchor="middle" x="442" y="-130.6" font-family="Times,serif" font-size="14.00">CardsComponent</text>
</g>
<!-- CardsComponent&#45;&gt;AppModule -->
<g id="edge7" class="edge">
<title>CardsComponent&#45;&gt;AppModule</title>
<path fill="none" stroke="black" d="M442,-152.97C442,-171.89 442,-198.8 442,-198.8 442,-198.8 832.02,-198.8 832.02,-198.8"/>
<polygon fill="black" stroke="black" points="832.02,-202.3 842.02,-198.8 832.02,-195.3 832.02,-202.3"/>
</g>
<!-- FloatingMenuComponent -->
<g id="node8" class="node">
<title>FloatingMenuComponent</title>
<polygon fill="#ffffb3" stroke="black" points="2496.16,-152.8 2335.84,-152.8 2335.84,-116.8 2496.16,-116.8 2496.16,-152.8"/>
<text text-anchor="middle" x="2416" y="-130.6" font-family="Times,serif" font-size="14.00">FloatingMenuComponent</text>
</g>
<!-- FloatingMenuComponent&#45;&gt;AppModule -->
<g id="edge8" class="edge">
<title>FloatingMenuComponent&#45;&gt;AppModule</title>
<path fill="none" stroke="black" d="M2416,-152.95C2416,-176.56 2416,-214.8 2416,-214.8 2416,-214.8 935.77,-214.8 935.77,-214.8"/>
<polygon fill="black" stroke="black" points="935.77,-211.3 925.77,-214.8 935.77,-218.3 935.77,-211.3"/>
</g>
<!-- InsightsComponent -->
<g id="node9" class="node">
<title>InsightsComponent</title>
<polygon fill="#ffffb3" stroke="black" points="2317.67,-152.8 2192.33,-152.8 2192.33,-116.8 2317.67,-116.8 2317.67,-152.8"/>
<text text-anchor="middle" x="2255" y="-130.6" font-family="Times,serif" font-size="14.00">InsightsComponent</text>
</g>
<!-- InsightsComponent&#45;&gt;AppModule -->
<g id="edge9" class="edge">
<title>InsightsComponent&#45;&gt;AppModule</title>
<path fill="none" stroke="black" d="M2255,-153.05C2255,-175.82 2255,-211.8 2255,-211.8 2255,-211.8 935.78,-211.8 935.78,-211.8"/>
<polygon fill="black" stroke="black" points="935.78,-208.3 925.78,-211.8 935.78,-215.3 935.78,-208.3"/>
</g>
<!-- LoadingComponent -->
<g id="node10" class="node">
<title>LoadingComponent</title>
<polygon fill="#ffffb3" stroke="black" points="2173.99,-152.8 2046.01,-152.8 2046.01,-116.8 2173.99,-116.8 2173.99,-152.8"/>
<text text-anchor="middle" x="2110" y="-130.6" font-family="Times,serif" font-size="14.00">LoadingComponent</text>
</g>
<!-- LoadingComponent&#45;&gt;AppModule -->
<g id="edge10" class="edge">
<title>LoadingComponent&#45;&gt;AppModule</title>
<path fill="none" stroke="black" d="M2110,-153.09C2110,-175.01 2110,-208.8 2110,-208.8 2110,-208.8 935.85,-208.8 935.85,-208.8"/>
<polygon fill="black" stroke="black" points="935.85,-205.3 925.85,-208.8 935.85,-212.3 935.85,-205.3"/>
</g>
<!-- LoadingOverlayComponent -->
<g id="node11" class="node">
<title>LoadingOverlayComponent</title>
<polygon fill="#ffffb3" stroke="black" points="2027.58,-152.8 1854.42,-152.8 1854.42,-116.8 2027.58,-116.8 2027.58,-152.8"/>
<text text-anchor="middle" x="1941" y="-130.6" font-family="Times,serif" font-size="14.00">LoadingOverlayComponent</text>
</g>
<!-- LoadingOverlayComponent&#45;&gt;AppModule -->
<g id="edge11" class="edge">
<title>LoadingOverlayComponent&#45;&gt;AppModule</title>
<path fill="none" stroke="black" d="M1941,-152.83C1941,-173.57 1941,-204.8 1941,-204.8 1941,-204.8 935.76,-204.8 935.76,-204.8"/>
<polygon fill="black" stroke="black" points="935.76,-201.3 925.76,-204.8 935.76,-208.3 935.76,-201.3"/>
</g>
<!-- LoginComponent -->
<g id="node12" class="node">
<title>LoginComponent</title>
<polygon fill="#ffffb3" stroke="black" points="1836.27,-152.8 1721.73,-152.8 1721.73,-116.8 1836.27,-116.8 1836.27,-152.8"/>
<text text-anchor="middle" x="1779" y="-130.6" font-family="Times,serif" font-size="14.00">LoginComponent</text>
</g>
<!-- LoginComponent&#45;&gt;AppModule -->
<g id="edge12" class="edge">
<title>LoginComponent&#45;&gt;AppModule</title>
<path fill="none" stroke="black" d="M1779,-153.11C1779,-172.95 1779,-201.8 1779,-201.8 1779,-201.8 935.67,-201.8 935.67,-201.8"/>
<polygon fill="black" stroke="black" points="935.67,-198.3 925.67,-201.8 935.67,-205.3 935.67,-198.3"/>
</g>
<!-- OverlayComponent -->
<g id="node13" class="node">
<title>OverlayComponent</title>
<polygon fill="#ffffb3" stroke="black" points="1703.42,-152.8 1576.58,-152.8 1576.58,-116.8 1703.42,-116.8 1703.42,-152.8"/>
<text text-anchor="middle" x="1640" y="-130.6" font-family="Times,serif" font-size="14.00">OverlayComponent</text>
</g>
<!-- OverlayComponent&#45;&gt;AppModule -->
<g id="edge13" class="edge">
<title>OverlayComponent&#45;&gt;AppModule</title>
<path fill="none" stroke="black" d="M1640,-152.97C1640,-171.89 1640,-198.8 1640,-198.8 1640,-198.8 935.72,-198.8 935.72,-198.8"/>
<polygon fill="black" stroke="black" points="935.72,-195.3 925.72,-198.8 935.72,-202.3 935.72,-195.3"/>
</g>
<!-- PassagesComponent -->
<g id="node14" class="node">
<title>PassagesComponent</title>
<polygon fill="#ffffb3" stroke="black" points="1558.6,-152.8 1427.4,-152.8 1427.4,-116.8 1558.6,-116.8 1558.6,-152.8"/>
<text text-anchor="middle" x="1493" y="-130.6" font-family="Times,serif" font-size="14.00">PassagesComponent</text>
</g>
<!-- PassagesComponent&#45;&gt;AppModule -->
<g id="edge14" class="edge">
<title>PassagesComponent&#45;&gt;AppModule</title>
<path fill="none" stroke="black" d="M1493,-153.1C1493,-171.07 1493,-195.8 1493,-195.8 1493,-195.8 935.86,-195.8 935.86,-195.8"/>
<polygon fill="black" stroke="black" points="935.86,-192.3 925.86,-195.8 935.86,-199.3 935.86,-192.3"/>
</g>
<!-- AppComponent  -->
<g id="node18" class="node">
<title>AppComponent </title>
<polygon fill="#80b1d3" stroke="black" points="938.44,-282.8 829.56,-282.8 829.56,-246.8 938.44,-246.8 938.44,-282.8"/>
<text text-anchor="middle" x="884" y="-260.6" font-family="Times,serif" font-size="14.00">AppComponent </text>
</g>
<!-- AppModule&#45;&gt;AppComponent  -->
<g id="edge17" class="edge">
<title>AppModule&#45;&gt;AppComponent </title>
<path fill="none" stroke="black" stroke-dasharray="1,5" d="M884,-217.91C884,-217.91 884,-236.79 884,-236.79"/>
<polygon fill="black" stroke="black" points="880.5,-236.79 884,-246.79 887.5,-236.79 880.5,-236.79"/>
</g>
<!-- AppRoutingModule -->
<g id="node16" class="node">
<title>AppRoutingModule</title>
<polygon fill="#8dd3c7" stroke="black" points="244.28,-152.8 241.28,-156.8 220.28,-156.8 217.28,-152.8 115.72,-152.8 115.72,-116.8 244.28,-116.8 244.28,-152.8"/>
<text text-anchor="middle" x="180" y="-130.6" font-family="Times,serif" font-size="14.00">AppRoutingModule</text>
</g>
<!-- AppRoutingModule&#45;&gt;AppModule -->
<g id="edge15" class="edge">
<title>AppRoutingModule&#45;&gt;AppModule</title>
<path fill="none" stroke="black" d="M180,-153.05C180,-175.82 180,-211.8 180,-211.8 180,-211.8 832.33,-211.8 832.33,-211.8"/>
<polygon fill="black" stroke="black" points="832.33,-215.3 842.33,-211.8 832.33,-208.3 832.33,-215.3"/>
</g>
<!-- SharedModule -->
<g id="node17" class="node">
<title>SharedModule</title>
<polygon fill="#8dd3c7" stroke="black" points="361.43,-152.8 358.43,-156.8 337.43,-156.8 334.43,-152.8 262.57,-152.8 262.57,-116.8 361.43,-116.8 361.43,-152.8"/>
<text text-anchor="middle" x="312" y="-130.6" font-family="Times,serif" font-size="14.00">SharedModule</text>
</g>
<!-- SharedModule&#45;&gt;AppModule -->
<g id="edge16" class="edge">
<title>SharedModule&#45;&gt;AppModule</title>
<path fill="none" stroke="black" d="M312,-152.83C312,-173.57 312,-204.8 312,-204.8 312,-204.8 831.94,-204.8 831.94,-204.8"/>
<polygon fill="black" stroke="black" points="831.94,-208.3 841.94,-204.8 831.94,-201.3 831.94,-208.3"/>
</g>
<!-- EditorComponent  -->
<g id="node31" class="node">
<title>EditorComponent </title>
<polygon fill="#fb8072" stroke="black" points="2972.82,-84.8 2853.18,-84.8 2853.18,-48.8 2972.82,-48.8 2972.82,-84.8"/>
<text text-anchor="middle" x="2913" y="-62.6" font-family="Times,serif" font-size="14.00">EditorComponent </text>
</g>
<!-- SharedModule&#45;&gt;EditorComponent  -->
<g id="edge30" class="edge">
<title>SharedModule&#45;&gt;EditorComponent </title>
<path fill="none" stroke="black" stroke-dasharray="5,2" d="M294.43,-116.74C294.43,-105.36 294.43,-92.8 294.43,-92.8 294.43,-92.8 2913,-92.8 2913,-92.8 2913,-92.8 2913,-92.01 2913,-92.01"/>
<polygon fill="black" stroke="black" points="2916.5,-94.86 2913,-84.86 2909.5,-94.86 2916.5,-94.86"/>
</g>
<!-- FilterAllPipe  -->
<g id="node32" class="node">
<title>FilterAllPipe </title>
<polygon fill="#fb8072" stroke="black" points="3488.11,-84.8 3395.89,-84.8 3395.89,-48.8 3488.11,-48.8 3488.11,-84.8"/>
<text text-anchor="middle" x="3442" y="-62.6" font-family="Times,serif" font-size="14.00">FilterAllPipe </text>
</g>
<!-- SharedModule&#45;&gt;FilterAllPipe  -->
<g id="edge31" class="edge">
<title>SharedModule&#45;&gt;FilterAllPipe </title>
<path fill="none" stroke="black" stroke-dasharray="5,2" d="M312.24,-116.61C312.24,-108.52 312.24,-100.8 312.24,-100.8 312.24,-100.8 3442,-100.8 3442,-100.8 3442,-100.8 3442,-94.99 3442,-94.99"/>
<polygon fill="black" stroke="black" points="3445.5,-94.99 3442,-84.99 3438.5,-94.99 3445.5,-94.99"/>
</g>
<!-- FilterPipe  -->
<g id="node33" class="node">
<title>FilterPipe </title>
<polygon fill="#fb8072" stroke="black" points="3377.22,-84.8 3302.78,-84.8 3302.78,-48.8 3377.22,-48.8 3377.22,-84.8"/>
<text text-anchor="middle" x="3340" y="-62.6" font-family="Times,serif" font-size="14.00">FilterPipe </text>
</g>
<!-- SharedModule&#45;&gt;FilterPipe  -->
<g id="edge32" class="edge">
<title>SharedModule&#45;&gt;FilterPipe </title>
<path fill="none" stroke="black" stroke-dasharray="5,2" d="M307.79,-116.38C307.79,-107.52 307.79,-98.8 307.79,-98.8 307.79,-98.8 3340,-98.8 3340,-98.8 3340,-98.8 3340,-95.04 3340,-95.04"/>
<polygon fill="black" stroke="black" points="3343.5,-95.04 3340,-85.04 3336.5,-95.04 3343.5,-95.04"/>
</g>
<!-- OutsideClickDirective  -->
<g id="node34" class="node">
<title>OutsideClickDirective </title>
<polygon fill="#fb8072" stroke="black" points="3284.97,-84.8 3139.03,-84.8 3139.03,-48.8 3284.97,-48.8 3284.97,-84.8"/>
<text text-anchor="middle" x="3212" y="-62.6" font-family="Times,serif" font-size="14.00">OutsideClickDirective </text>
</g>
<!-- SharedModule&#45;&gt;OutsideClickDirective  -->
<g id="edge33" class="edge">
<title>SharedModule&#45;&gt;OutsideClickDirective </title>
<path fill="none" stroke="black" stroke-dasharray="5,2" d="M303.34,-116.69C303.34,-106.9 303.34,-96.8 303.34,-96.8 303.34,-96.8 3212,-96.8 3212,-96.8 3212,-96.8 3212,-94.94 3212,-94.94"/>
<polygon fill="black" stroke="black" points="3215.5,-94.94 3212,-84.94 3208.5,-94.94 3215.5,-94.94"/>
</g>
<!-- TopNavComponent  -->
<g id="node35" class="node">
<title>TopNavComponent </title>
<polygon fill="#fb8072" stroke="black" points="3121.21,-84.8 2990.79,-84.8 2990.79,-48.8 3121.21,-48.8 3121.21,-84.8"/>
<text text-anchor="middle" x="3056" y="-62.6" font-family="Times,serif" font-size="14.00">TopNavComponent </text>
</g>
<!-- SharedModule&#45;&gt;TopNavComponent  -->
<g id="edge34" class="edge">
<title>SharedModule&#45;&gt;TopNavComponent </title>
<path fill="none" stroke="black" stroke-dasharray="5,2" d="M298.88,-116.67C298.88,-106.09 298.88,-94.8 298.88,-94.8 298.88,-94.8 3056,-94.8 3056,-94.8 3056,-94.8 3056,-93.82 3056,-93.82"/>
<polygon fill="black" stroke="black" points="3059.5,-95.01 3056,-85.01 3052.5,-95.01 3059.5,-95.01"/>
</g>
<!-- BookService -->
<g id="node19" class="node">
<title>BookService</title>
<ellipse fill="#fdb462" stroke="black" cx="85" cy="-66.8" rx="60.84" ry="18"/>
<text text-anchor="middle" x="85" y="-62.6" font-family="Times,serif" font-size="14.00">BookService</text>
</g>
<!-- BookService&#45;&gt;AppModule -->
<g id="edge18" class="edge">
<title>BookService&#45;&gt;AppModule</title>
<path fill="none" stroke="black" d="M69.85,-84.36C69.85,-123.56 69.85,-214.8 69.85,-214.8 69.85,-214.8 832.22,-214.8 832.22,-214.8"/>
<polygon fill="black" stroke="black" points="832.22,-218.3 842.22,-214.8 832.22,-211.3 832.22,-218.3"/>
</g>
<!-- CameraService -->
<g id="node20" class="node">
<title>CameraService</title>
<ellipse fill="#fdb462" stroke="black" cx="360" cy="-66.8" rx="70.04" ry="18"/>
<text text-anchor="middle" x="360" y="-62.6" font-family="Times,serif" font-size="14.00">CameraService</text>
</g>
<!-- CameraService&#45;&gt;AppModule -->
<g id="edge19" class="edge">
<title>CameraService&#45;&gt;AppModule</title>
<path fill="none" stroke="black" d="M373.11,-84.73C373.11,-121.45 373.11,-201.8 373.11,-201.8 373.11,-201.8 832.19,-201.8 832.19,-201.8"/>
<polygon fill="black" stroke="black" points="832.19,-205.3 842.19,-201.8 832.19,-198.3 832.19,-205.3"/>
</g>
<!-- FloatingMenuService -->
<g id="node21" class="node">
<title>FloatingMenuService</title>
<ellipse fill="#fdb462" stroke="black" cx="543" cy="-66.8" rx="94.93" ry="18"/>
<text text-anchor="middle" x="543" y="-62.6" font-family="Times,serif" font-size="14.00">FloatingMenuService</text>
</g>
<!-- FloatingMenuService&#45;&gt;AppModule -->
<g id="edge20" class="edge">
<title>FloatingMenuService&#45;&gt;AppModule</title>
<path fill="none" stroke="black" d="M508.09,-83.66C508.09,-118.63 508.09,-195.8 508.09,-195.8 508.09,-195.8 832.33,-195.8 832.33,-195.8"/>
<polygon fill="black" stroke="black" points="832.33,-199.3 842.33,-195.8 832.33,-192.3 832.33,-199.3"/>
</g>
<!-- LoadingOverlayService -->
<g id="node22" class="node">
<title>LoadingOverlayService</title>
<ellipse fill="#fdb462" stroke="black" cx="759" cy="-66.8" rx="103.06" ry="18"/>
<text text-anchor="middle" x="759" y="-62.6" font-family="Times,serif" font-size="14.00">LoadingOverlayService</text>
</g>
<!-- LoadingOverlayService&#45;&gt;AppModule -->
<g id="edge21" class="edge">
<title>LoadingOverlayService&#45;&gt;AppModule</title>
<path fill="none" stroke="black" d="M816.39,-81.87C816.39,-113.89 816.39,-185.8 816.39,-185.8 816.39,-185.8 832.33,-185.8 832.33,-185.8"/>
<polygon fill="black" stroke="black" points="832.33,-189.3 842.33,-185.8 832.33,-182.3 832.33,-189.3"/>
</g>
<!-- LoadingOverlayService&#45;&gt;SharedModule -->
<g id="edge35" class="edge">
<title>LoadingOverlayService&#45;&gt;SharedModule</title>
<path fill="none" stroke="black" d="M734,-84.35C734,-85.84 734,-86.8 734,-86.8 734,-86.8 316.69,-86.8 316.69,-86.8 316.69,-86.8 316.69,-106.65 316.69,-106.65"/>
<polygon fill="black" stroke="black" points="313.19,-106.65 316.69,-116.65 320.19,-106.65 313.19,-106.65"/>
</g>
<!-- OcrService -->
<g id="node23" class="node">
<title>OcrService</title>
<ellipse fill="#fdb462" stroke="black" cx="218" cy="-66.8" rx="54.44" ry="18"/>
<text text-anchor="middle" x="218" y="-62.6" font-family="Times,serif" font-size="14.00">OcrService</text>
</g>
<!-- OcrService&#45;&gt;AppModule -->
<g id="edge22" class="edge">
<title>OcrService&#45;&gt;AppModule</title>
<path fill="none" stroke="black" d="M253.59,-80.67C253.59,-116.4 253.59,-208.8 253.59,-208.8 253.59,-208.8 832.15,-208.8 832.15,-208.8"/>
<polygon fill="black" stroke="black" points="832.15,-212.3 842.15,-208.8 832.15,-205.3 832.15,-212.3"/>
</g>
<!-- CapsPipe -->
<g id="node24" class="node">
<title>CapsPipe</title>
<polygon fill="#ffffb3" stroke="black" points="3715.39,-84.8 3646.61,-84.8 3646.61,-48.8 3715.39,-48.8 3715.39,-84.8"/>
<text text-anchor="middle" x="3681" y="-62.6" font-family="Times,serif" font-size="14.00">CapsPipe</text>
</g>
<!-- CapsPipe&#45;&gt;SharedModule -->
<g id="edge23" class="edge">
<title>CapsPipe&#45;&gt;SharedModule</title>
<path fill="none" stroke="black" d="M3681,-84.91C3681,-94.7 3681,-104.8 3681,-104.8 3681,-104.8 334.5,-104.8 334.5,-104.8 334.5,-104.8 334.5,-106.66 334.5,-106.66"/>
<polygon fill="black" stroke="black" points="331,-106.66 334.5,-116.66 338,-106.66 331,-106.66"/>
</g>
<!-- EditorComponent -->
<g id="node25" class="node">
<title>EditorComponent</title>
<polygon fill="#ffffb3" stroke="black" points="3628.32,-84.8 3511.68,-84.8 3511.68,-48.8 3628.32,-48.8 3628.32,-84.8"/>
<text text-anchor="middle" x="3570" y="-62.6" font-family="Times,serif" font-size="14.00">EditorComponent</text>
</g>
<!-- EditorComponent&#45;&gt;SharedModule -->
<g id="edge24" class="edge">
<title>EditorComponent&#45;&gt;SharedModule</title>
<path fill="none" stroke="black" d="M3570,-85.22C3570,-94.08 3570,-102.8 3570,-102.8 3570,-102.8 330.05,-102.8 330.05,-102.8 330.05,-102.8 330.05,-106.56 330.05,-106.56"/>
<polygon fill="black" stroke="black" points="326.55,-106.56 330.05,-116.56 333.55,-106.56 326.55,-106.56"/>
</g>
<!-- FilterAllPipe -->
<g id="node26" class="node">
<title>FilterAllPipe</title>
<polygon fill="#ffffb3" stroke="black" points="4386.61,-84.8 4297.39,-84.8 4297.39,-48.8 4386.61,-48.8 4386.61,-84.8"/>
<text text-anchor="middle" x="4342" y="-62.6" font-family="Times,serif" font-size="14.00">FilterAllPipe</text>
</g>
<!-- FilterAllPipe&#45;&gt;SharedModule -->
<g id="edge25" class="edge">
<title>FilterAllPipe&#45;&gt;SharedModule</title>
<path fill="none" stroke="black" d="M4342,-84.95C4342,-98.54 4342,-114.8 4342,-114.8 4342,-114.8 356.76,-114.8 356.76,-114.8 356.76,-114.8 356.76,-114.98 356.76,-114.98"/>
<polygon fill="black" stroke="black" points="353.26,-106.65 356.76,-116.65 360.26,-106.65 353.26,-106.65"/>
</g>
<!-- FilterPipe -->
<g id="node27" class="node">
<title>FilterPipe</title>
<polygon fill="#ffffb3" stroke="black" points="4279.72,-84.8 4208.28,-84.8 4208.28,-48.8 4279.72,-48.8 4279.72,-84.8"/>
<text text-anchor="middle" x="4244" y="-62.6" font-family="Times,serif" font-size="14.00">FilterPipe</text>
</g>
<!-- FilterPipe&#45;&gt;SharedModule -->
<g id="edge26" class="edge">
<title>FilterPipe&#45;&gt;SharedModule</title>
<path fill="none" stroke="black" d="M4244,-84.98C4244,-97.84 4244,-112.8 4244,-112.8 4244,-112.8 352.31,-112.8 352.31,-112.8 352.31,-112.8 352.31,-113.18 352.31,-113.18"/>
<polygon fill="black" stroke="black" points="348.81,-106.63 352.31,-116.63 355.81,-106.63 348.81,-106.63"/>
</g>
<!-- OutsideClickDirective -->
<g id="node28" class="node">
<title>OutsideClickDirective</title>
<polygon fill="#ffffb3" stroke="black" points="4189.97,-84.8 4048.03,-84.8 4048.03,-48.8 4189.97,-48.8 4189.97,-84.8"/>
<text text-anchor="middle" x="4119" y="-62.6" font-family="Times,serif" font-size="14.00">OutsideClickDirective</text>
</g>
<!-- OutsideClickDirective&#45;&gt;SharedModule -->
<g id="edge27" class="edge">
<title>OutsideClickDirective&#45;&gt;SharedModule</title>
<path fill="none" stroke="black" d="M4119,-84.95C4119,-97.07 4119,-110.8 4119,-110.8 4119,-110.8 347.86,-110.8 347.86,-110.8 347.86,-110.8 347.86,-111.38 347.86,-111.38"/>
<polygon fill="black" stroke="black" points="344.36,-106.61 347.86,-116.61 351.36,-106.61 344.36,-106.61"/>
</g>
<!-- TopNavComponent -->
<g id="node29" class="node">
<title>TopNavComponent</title>
<polygon fill="#ffffb3" stroke="black" points="4029.71,-84.8 3902.29,-84.8 3902.29,-48.8 4029.71,-48.8 4029.71,-84.8"/>
<text text-anchor="middle" x="3966" y="-62.6" font-family="Times,serif" font-size="14.00">TopNavComponent</text>
</g>
<!-- TopNavComponent&#45;&gt;SharedModule -->
<g id="edge28" class="edge">
<title>TopNavComponent&#45;&gt;SharedModule</title>
<path fill="none" stroke="black" d="M3966,-84.86C3966,-96.24 3966,-108.8 3966,-108.8 3966,-108.8 343.41,-108.8 343.41,-108.8 343.41,-108.8 343.41,-109.59 343.41,-109.59"/>
<polygon fill="black" stroke="black" points="339.91,-106.74 343.41,-116.74 346.91,-106.74 339.91,-106.74"/>
</g>
<!-- VerticalResizeDirective -->
<g id="node30" class="node">
<title>VerticalResizeDirective</title>
<polygon fill="#ffffb3" stroke="black" points="3884.48,-84.8 3733.52,-84.8 3733.52,-48.8 3884.48,-48.8 3884.48,-84.8"/>
<text text-anchor="middle" x="3809" y="-62.6" font-family="Times,serif" font-size="14.00">VerticalResizeDirective</text>
</g>
<!-- VerticalResizeDirective&#45;&gt;SharedModule -->
<g id="edge29" class="edge">
<title>VerticalResizeDirective&#45;&gt;SharedModule</title>
<path fill="none" stroke="black" d="M3809,-84.93C3809,-95.51 3809,-106.8 3809,-106.8 3809,-106.8 338.95,-106.8 338.95,-106.8 338.95,-106.8 338.95,-107.78 338.95,-107.78"/>
<polygon fill="black" stroke="black" points="335.45,-106.59 338.95,-116.59 342.45,-106.59 335.45,-106.59"/>
</g>
<!-- PassageService -->
<g id="node36" class="node">
<title>PassageService</title>
<ellipse fill="#fdb462" stroke="black" cx="2607" cy="-66.8" rx="70.63" ry="18"/>
<text text-anchor="middle" x="2607" y="-62.6" font-family="Times,serif" font-size="14.00">PassageService</text>
</g>
<!-- PassageService&#45;&gt;SharedModule -->
<g id="edge36" class="edge">
<title>PassageService&#45;&gt;SharedModule</title>
<path fill="none" stroke="black" d="M2607,-84.97C2607,-87.25 2607,-88.8 2607,-88.8 2607,-88.8 321.14,-88.8 321.14,-88.8 321.14,-88.8 321.14,-106.62 321.14,-106.62"/>
<polygon fill="black" stroke="black" points="317.64,-106.62 321.14,-116.62 324.64,-106.62 317.64,-106.62"/>
</g>
<!-- ThemeService -->
<g id="node37" class="node">
<title>ThemeService</title>
<ellipse fill="#fdb462" stroke="black" cx="2762" cy="-66.8" rx="66.61" ry="18"/>
<text text-anchor="middle" x="2762" y="-62.6" font-family="Times,serif" font-size="14.00">ThemeService</text>
</g>
<!-- ThemeService&#45;&gt;SharedModule -->
<g id="edge37" class="edge">
<title>ThemeService&#45;&gt;SharedModule</title>
<path fill="none" stroke="black" d="M2762,-84.99C2762,-88.34 2762,-90.8 2762,-90.8 2762,-90.8 325.6,-90.8 325.6,-90.8 325.6,-90.8 325.6,-106.65 325.6,-106.65"/>
<polygon fill="black" stroke="black" points="322.1,-106.65 325.6,-116.65 329.1,-106.65 322.1,-106.65"/>
</g>
</g>
</svg>
