<?xml version="1.0" encoding="UTF-8" standalone="no"?>
<!DOCTYPE svg PUBLIC "-//W3C//DTD SVG 1.1//EN"
 "http://www.w3.org/Graphics/SVG/1.1/DTD/svg11.dtd">
<!-- Generated by graphviz version 5.0.0 (20220707.1540)
 -->
<!-- Title: dependencies Pages: 1 -->
<svg width="2648pt" height="247pt"
 viewBox="0.00 0.00 2648.00 246.80" xmlns="http://www.w3.org/2000/svg" xmlns:xlink="http://www.w3.org/1999/xlink">
<g id="graph0" class="graph" transform="scale(1 1) rotate(0) translate(4 242.8)">
<title>dependencies</title>
<polygon fill="white" stroke="transparent" points="-4,4 -4,-242.8 2644,-242.8 2644,4 -4,4"/>
<text text-anchor="middle" x="1320" y="-8.2" font-family="sans-serif" font-size="14.00">dependencies</text>
<g id="clust1" class="cluster">
<title>cluster_AppModule</title>
<polygon fill="none" stroke="black" stroke-dasharray="1,5" points="8,-32.8 8,-230.8 2632,-230.8 2632,-32.8 8,-32.8"/>
</g>
<g id="clust2" class="cluster">
<title>cluster_AppModule_declarations</title>
<polygon fill="none" stroke="black" points="804,-40.8 804,-92.8 2624,-92.8 2624,-40.8 804,-40.8"/>
</g>
<g id="clust16" class="cluster">
<title>cluster_AppModule_imports</title>
<polygon fill="none" stroke="black" points="652,-40.8 652,-92.8 796,-92.8 796,-40.8 652,-40.8"/>
</g>
<g id="clust18" class="cluster">
<title>cluster_AppModule_bootstrap</title>
<polygon fill="none" stroke="black" points="1359,-170.8 1359,-222.8 1483,-222.8 1483,-170.8 1359,-170.8"/>
</g>
<g id="clust19" class="cluster">
<title>cluster_AppModule_providers</title>
<polygon fill="none" stroke="black" points="16,-40.8 16,-92.8 644,-92.8 644,-40.8 16,-40.8"/>
</g>
<!-- AppComponent -->
<g id="node1" class="node">
<title>AppComponent</title>
<polygon fill="#ffffb3" stroke="black" points="2615.94,-84.8 2510.06,-84.8 2510.06,-48.8 2615.94,-48.8 2615.94,-84.8"/>
<text text-anchor="middle" x="2563" y="-62.6" font-family="Times,serif" font-size="14.00">AppComponent</text>
</g>
<!-- AppModule -->
<g id="node14" class="node">
<title>AppModule</title>
<polygon fill="#8dd3c7" stroke="black" points="1462.66,-149.8 1459.66,-153.8 1438.66,-153.8 1435.66,-149.8 1379.34,-149.8 1379.34,-113.8 1462.66,-113.8 1462.66,-149.8"/>
<text text-anchor="middle" x="1421" y="-127.6" font-family="Times,serif" font-size="14.00">AppModule</text>
</g>
<!-- AppComponent&#45;&gt;AppModule -->
<g id="edge1" class="edge">
<title>AppComponent&#45;&gt;AppModule</title>
<path fill="none" stroke="black" d="M2563,-85.12C2563,-108.46 2563,-145.8 2563,-145.8 2563,-145.8 1473,-145.8 1473,-145.8"/>
<polygon fill="black" stroke="black" points="1473,-142.3 1463,-145.8 1473,-149.3 1473,-142.3"/>
</g>
<!-- BooksComponent -->
<g id="node2" class="node">
<title>BooksComponent</title>
<polygon fill="#ffffb3" stroke="black" points="2492.62,-84.8 2375.38,-84.8 2375.38,-48.8 2492.62,-48.8 2492.62,-84.8"/>
<text text-anchor="middle" x="2434" y="-62.6" font-family="Times,serif" font-size="14.00">BooksComponent</text>
</g>
<!-- BooksComponent&#45;&gt;AppModule -->
<g id="edge2" class="edge">
<title>BooksComponent&#45;&gt;AppModule</title>
<path fill="none" stroke="black" d="M2434,-84.96C2434,-107.15 2434,-141.8 2434,-141.8 2434,-141.8 1472.92,-141.8 1472.92,-141.8"/>
<polygon fill="black" stroke="black" points="1472.92,-138.3 1462.92,-141.8 1472.92,-145.3 1472.92,-138.3"/>
</g>
<!-- BottomNavComponent -->
<g id="node3" class="node">
<title>BottomNavComponent</title>
<polygon fill="#ffffb3" stroke="black" points="2357.16,-84.8 2210.84,-84.8 2210.84,-48.8 2357.16,-48.8 2357.16,-84.8"/>
<text text-anchor="middle" x="2284" y="-62.6" font-family="Times,serif" font-size="14.00">BottomNavComponent</text>
</g>
<!-- BottomNavComponent&#45;&gt;AppModule -->
<g id="edge3" class="edge">
<title>BottomNavComponent&#45;&gt;AppModule</title>
<path fill="none" stroke="black" d="M2284,-85.08C2284,-106.12 2284,-137.8 2284,-137.8 2284,-137.8 1472.92,-137.8 1472.92,-137.8"/>
<polygon fill="black" stroke="black" points="1472.92,-134.3 1462.92,-137.8 1472.92,-141.3 1472.92,-134.3"/>
</g>
<!-- CapsPipe -->
<g id="node4" class="node">
<title>CapsPipe</title>
<polygon fill="#ffffb3" stroke="black" points="2192.39,-84.8 2123.61,-84.8 2123.61,-48.8 2192.39,-48.8 2192.39,-84.8"/>
<text text-anchor="middle" x="2158" y="-62.6" font-family="Times,serif" font-size="14.00">CapsPipe</text>
</g>
<!-- CapsPipe&#45;&gt;AppModule -->
<g id="edge4" class="edge">
<title>CapsPipe&#45;&gt;AppModule</title>
<path fill="none" stroke="black" d="M2158,-85.11C2158,-104.95 2158,-133.8 2158,-133.8 2158,-133.8 1472.74,-133.8 1472.74,-133.8"/>
<polygon fill="black" stroke="black" points="1472.74,-130.3 1462.74,-133.8 1472.74,-137.3 1472.74,-130.3"/>
</g>
<!-- DashboardComponent -->
<g id="node5" class="node">
<title>DashboardComponent</title>
<polygon fill="#ffffb3" stroke="black" points="2105.98,-84.8 1964.02,-84.8 1964.02,-48.8 2105.98,-48.8 2105.98,-84.8"/>
<text text-anchor="middle" x="2035" y="-62.6" font-family="Times,serif" font-size="14.00">DashboardComponent</text>
</g>
<!-- DashboardComponent&#45;&gt;AppModule -->
<g id="edge5" class="edge">
<title>DashboardComponent&#45;&gt;AppModule</title>
<path fill="none" stroke="black" d="M2035,-85.02C2035,-103.63 2035,-129.8 2035,-129.8 2035,-129.8 1472.72,-129.8 1472.72,-129.8"/>
<polygon fill="black" stroke="black" points="1472.72,-126.3 1462.72,-129.8 1472.72,-133.3 1472.72,-126.3"/>
</g>
<!-- FilterAllPipe -->
<g id="node6" class="node">
<title>FilterAllPipe</title>
<polygon fill="#ffffb3" stroke="black" points="1945.61,-84.8 1856.39,-84.8 1856.39,-48.8 1945.61,-48.8 1945.61,-84.8"/>
<text text-anchor="middle" x="1901" y="-62.6" font-family="Times,serif" font-size="14.00">FilterAllPipe</text>
</g>
<!-- FilterAllPipe&#45;&gt;AppModule -->
<g id="edge6" class="edge">
<title>FilterAllPipe&#45;&gt;AppModule</title>
<path fill="none" stroke="black" d="M1901,-84.82C1901,-102.17 1901,-125.8 1901,-125.8 1901,-125.8 1472.76,-125.8 1472.76,-125.8"/>
<polygon fill="black" stroke="black" points="1472.76,-122.3 1462.76,-125.8 1472.76,-129.3 1472.76,-122.3"/>
</g>
<!-- FilterPipe -->
<g id="node7" class="node">
<title>FilterPipe</title>
<polygon fill="#ffffb3" stroke="black" points="1838.72,-84.8 1767.28,-84.8 1767.28,-48.8 1838.72,-48.8 1838.72,-84.8"/>
<text text-anchor="middle" x="1803" y="-62.6" font-family="Times,serif" font-size="14.00">FilterPipe</text>
</g>
<!-- FilterPipe&#45;&gt;AppModule -->
<g id="edge7" class="edge">
<title>FilterPipe&#45;&gt;AppModule</title>
<path fill="none" stroke="black" d="M1803,-84.81C1803,-100.85 1803,-121.8 1803,-121.8 1803,-121.8 1472.97,-121.8 1472.97,-121.8"/>
<polygon fill="black" stroke="black" points="1472.97,-118.3 1462.97,-121.8 1472.97,-125.3 1472.97,-118.3"/>
</g>
<!-- LoginRegisterComponent -->
<g id="node8" class="node">
<title>LoginRegisterComponent</title>
<polygon fill="#ffffb3" stroke="black" points="1749.93,-84.8 1588.07,-84.8 1588.07,-48.8 1749.93,-48.8 1749.93,-84.8"/>
<text text-anchor="middle" x="1669" y="-62.6" font-family="Times,serif" font-size="14.00">LoginRegisterComponent</text>
</g>
<!-- LoginRegisterComponent&#45;&gt;AppModule -->
<g id="edge8" class="edge">
<title>LoginRegisterComponent&#45;&gt;AppModule</title>
<path fill="none" stroke="black" d="M1669,-84.92C1669,-99.58 1669,-117.8 1669,-117.8 1669,-117.8 1472.79,-117.8 1472.79,-117.8"/>
<polygon fill="black" stroke="black" points="1472.79,-114.3 1462.79,-117.8 1472.79,-121.3 1472.79,-114.3"/>
</g>
<!-- OutsideClickDirective -->
<g id="node9" class="node">
<title>OutsideClickDirective</title>
<polygon fill="#ffffb3" stroke="black" points="1569.97,-84.8 1428.03,-84.8 1428.03,-48.8 1569.97,-48.8 1569.97,-84.8"/>
<text text-anchor="middle" x="1499" y="-62.6" font-family="Times,serif" font-size="14.00">OutsideClickDirective</text>
</g>
<!-- OutsideClickDirective&#45;&gt;AppModule -->
<g id="edge9" class="edge">
<title>OutsideClickDirective&#45;&gt;AppModule</title>
<path fill="none" stroke="black" d="M1445.42,-84.91C1445.42,-84.91 1445.42,-103.79 1445.42,-103.79"/>
<polygon fill="black" stroke="black" points="1441.92,-103.79 1445.42,-113.79 1448.92,-103.79 1441.92,-103.79"/>
</g>
<!-- PassagesComponent -->
<g id="node10" class="node">
<title>PassagesComponent</title>
<polygon fill="#ffffb3" stroke="black" points="1409.6,-84.8 1278.4,-84.8 1278.4,-48.8 1409.6,-48.8 1409.6,-84.8"/>
<text text-anchor="middle" x="1344" y="-62.6" font-family="Times,serif" font-size="14.00">PassagesComponent</text>
</g>
<!-- PassagesComponent&#45;&gt;AppModule -->
<g id="edge10" class="edge">
<title>PassagesComponent&#45;&gt;AppModule</title>
<path fill="none" stroke="black" d="M1394.36,-84.91C1394.36,-84.91 1394.36,-103.79 1394.36,-103.79"/>
<polygon fill="black" stroke="black" points="1390.86,-103.79 1394.36,-113.79 1397.86,-103.79 1390.86,-103.79"/>
</g>
<!-- StatusBarComponent -->
<g id="node11" class="node">
<title>StatusBarComponent</title>
<polygon fill="#ffffb3" stroke="black" points="1260.77,-84.8 1125.23,-84.8 1125.23,-48.8 1260.77,-48.8 1260.77,-84.8"/>
<text text-anchor="middle" x="1193" y="-62.6" font-family="Times,serif" font-size="14.00">StatusBarComponent</text>
</g>
<!-- StatusBarComponent&#45;&gt;AppModule -->
<g id="edge11" class="edge">
<title>StatusBarComponent&#45;&gt;AppModule</title>
<path fill="none" stroke="black" d="M1193,-84.92C1193,-99.58 1193,-117.8 1193,-117.8 1193,-117.8 1369.18,-117.8 1369.18,-117.8"/>
<polygon fill="black" stroke="black" points="1369.18,-121.3 1379.18,-117.8 1369.18,-114.3 1369.18,-121.3"/>
</g>
<!-- TopNavComponent -->
<g id="node12" class="node">
<title>TopNavComponent</title>
<polygon fill="#ffffb3" stroke="black" points="1107.71,-84.8 980.29,-84.8 980.29,-48.8 1107.71,-48.8 1107.71,-84.8"/>
<text text-anchor="middle" x="1044" y="-62.6" font-family="Times,serif" font-size="14.00">TopNavComponent</text>
</g>
<!-- TopNavComponent&#45;&gt;AppModule -->
<g id="edge12" class="edge">
<title>TopNavComponent&#45;&gt;AppModule</title>
<path fill="none" stroke="black" d="M1044,-84.81C1044,-100.85 1044,-121.8 1044,-121.8 1044,-121.8 1369.21,-121.8 1369.21,-121.8"/>
<polygon fill="black" stroke="black" points="1369.21,-125.3 1379.21,-121.8 1369.21,-118.3 1369.21,-125.3"/>
</g>
<!-- VerticalResizeDirective -->
<g id="node13" class="node">
<title>VerticalResizeDirective</title>
<polygon fill="#ffffb3" stroke="black" points="962.48,-84.8 811.52,-84.8 811.52,-48.8 962.48,-48.8 962.48,-84.8"/>
<text text-anchor="middle" x="887" y="-62.6" font-family="Times,serif" font-size="14.00">VerticalResizeDirective</text>
</g>
<!-- VerticalResizeDirective&#45;&gt;AppModule -->
<g id="edge13" class="edge">
<title>VerticalResizeDirective&#45;&gt;AppModule</title>
<path fill="none" stroke="black" d="M887,-84.82C887,-102.17 887,-125.8 887,-125.8 887,-125.8 1369.1,-125.8 1369.1,-125.8"/>
<polygon fill="black" stroke="black" points="1369.1,-129.3 1379.1,-125.8 1369.1,-122.3 1369.1,-129.3"/>
</g>
<!-- AppComponent  -->
<g id="node16" class="node">
<title>AppComponent </title>
<polygon fill="#80b1d3" stroke="black" points="1475.44,-214.8 1366.56,-214.8 1366.56,-178.8 1475.44,-178.8 1475.44,-214.8"/>
<text text-anchor="middle" x="1421" y="-192.6" font-family="Times,serif" font-size="14.00">AppComponent </text>
</g>
<!-- AppModule&#45;&gt;AppComponent  -->
<g id="edge15" class="edge">
<title>AppModule&#45;&gt;AppComponent </title>
<path fill="none" stroke="black" stroke-dasharray="1,5" d="M1421,-149.91C1421,-149.91 1421,-168.79 1421,-168.79"/>
<polygon fill="black" stroke="black" points="1417.5,-168.79 1421,-178.79 1424.5,-168.79 1417.5,-168.79"/>
</g>
<!-- AppRoutingModule -->
<g id="node15" class="node">
<title>AppRoutingModule</title>
<polygon fill="#8dd3c7" stroke="black" points="788.28,-84.8 785.28,-88.8 764.28,-88.8 761.28,-84.8 659.72,-84.8 659.72,-48.8 788.28,-48.8 788.28,-84.8"/>
<text text-anchor="middle" x="724" y="-62.6" font-family="Times,serif" font-size="14.00">AppRoutingModule</text>
</g>
<!-- AppRoutingModule&#45;&gt;AppModule -->
<g id="edge14" class="edge">
<title>AppRoutingModule&#45;&gt;AppModule</title>
<path fill="none" stroke="black" d="M724,-85.02C724,-103.63 724,-129.8 724,-129.8 724,-129.8 1369.23,-129.8 1369.23,-129.8"/>
<polygon fill="black" stroke="black" points="1369.23,-133.3 1379.23,-129.8 1369.23,-126.3 1369.23,-133.3"/>
</g>
<!-- AuthService -->
<g id="node17" class="node">
<title>AuthService</title>
<ellipse fill="#fdb462" stroke="black" cx="577" cy="-66.8" rx="59.11" ry="18"/>
<text text-anchor="middle" x="577" y="-62.6" font-family="Times,serif" font-size="14.00">AuthService</text>
</g>
<!-- AuthService&#45;&gt;AppModule -->
<g id="edge16" class="edge">
<title>AuthService&#45;&gt;AppModule</title>
<path fill="none" stroke="black" d="M577,-85.11C577,-104.95 577,-133.8 577,-133.8 577,-133.8 1369.15,-133.8 1369.15,-133.8"/>
<polygon fill="black" stroke="black" points="1369.15,-137.3 1379.15,-133.8 1369.15,-130.3 1369.15,-137.3"/>
</g>
<!-- DeviceOsService -->
<g id="node18" class="node">
<title>DeviceOsService</title>
<ellipse fill="#fdb462" stroke="black" cx="422" cy="-66.8" rx="78.14" ry="18"/>
<text text-anchor="middle" x="422" y="-62.6" font-family="Times,serif" font-size="14.00">DeviceOsService</text>
</g>
<!-- DeviceOsService&#45;&gt;AppModule -->
<g id="edge17" class="edge">
<title>DeviceOsService&#45;&gt;AppModule</title>
<path fill="none" stroke="black" d="M422,-85.08C422,-106.12 422,-137.8 422,-137.8 422,-137.8 1369.03,-137.8 1369.03,-137.8"/>
<polygon fill="black" stroke="black" points="1369.03,-141.3 1379.03,-137.8 1369.03,-134.3 1369.03,-141.3"/>
</g>
<!-- FireAuthService -->
<g id="node19" class="node">
<title>FireAuthService</title>
<ellipse fill="#fdb462" stroke="black" cx="251" cy="-66.8" rx="74.73" ry="18"/>
<text text-anchor="middle" x="251" y="-62.6" font-family="Times,serif" font-size="14.00">FireAuthService</text>
</g>
<!-- FireAuthService&#45;&gt;AppModule -->
<g id="edge18" class="edge">
<title>FireAuthService&#45;&gt;AppModule</title>
<path fill="none" stroke="black" d="M251,-84.96C251,-107.15 251,-141.8 251,-141.8 251,-141.8 1369.01,-141.8 1369.01,-141.8"/>
<polygon fill="black" stroke="black" points="1369.01,-145.3 1379.01,-141.8 1369.01,-138.3 1369.01,-145.3"/>
</g>
<!-- ThemeService -->
<g id="node20" class="node">
<title>ThemeService</title>
<ellipse fill="#fdb462" stroke="black" cx="91" cy="-66.8" rx="66.61" ry="18"/>
<text text-anchor="middle" x="91" y="-62.6" font-family="Times,serif" font-size="14.00">ThemeService</text>
</g>
<!-- ThemeService&#45;&gt;AppModule -->
<g id="edge19" class="edge">
<title>ThemeService&#45;&gt;AppModule</title>
<path fill="none" stroke="black" d="M91,-85.12C91,-108.46 91,-145.8 91,-145.8 91,-145.8 1369,-145.8 1369,-145.8"/>
<polygon fill="black" stroke="black" points="1369,-149.3 1379,-145.8 1369,-142.3 1369,-149.3"/>
</g>
</g>
</svg>
